<?xml version="1.0" encoding="UTF-8"?>
<svg xmlns="http://www.w3.org/2000/svg" xmlns:xlink="http://www.w3.org/1999/xlink" width="362.8pt" height="567.3pt" viewBox="0 0 362.8 567.3" version="1.1">
<defs>
<clipPath id="clip1">
  <path d="M 4 44 L 359 44 L 359 567.300781 L 4 567.300781 Z M 4 44 "/>
</clipPath>
</defs>
<g id="surface1">
<g clip-path="url(#clip1)" clip-rule="nonzero">
<path style=" stroke:none;fill-rule:evenodd;fill:rgb(98.4375%,77.734375%,0%);fill-opacity:1;" d="M 4.519531 223.597656 C 22.132813 210.324219 29.738281 196.707031 31.46875 179.328125 C 33.160156 162.304688 29.054688 143.300781 12.453125 124.933594 L 63.25 71.464844 C 94.109375 83.816406 122.015625 74.621094 144.164063 44.121094 C 152.0625 75.292969 168.9375 84.109375 181.238281 84.335938 L 181.34375 84.34375 L 181.433594 84.335938 C 193.734375 84.109375 210.613281 75.292969 218.507813 44.121094 C 240.65625 74.621094 268.5625 83.816406 299.421875 71.464844 L 350.21875 124.933594 C 333.617188 143.300781 329.511719 162.304688 331.203125 179.328125 C 332.933594 196.707031 340.539063 210.324219 358.152344 223.597656 C 362.878906 347.011719 329.164063 426.695313 287.730469 479.425781 C 259.238281 515.6875 221.792969 545.28125 181.308594 567.210938 C 139.132813 544.859375 96.289063 509.359375 67.800781 469.960938 C 29.71875 417.289063 0.0703125 339.839844 4.519531 223.597656 Z M 4.519531 223.597656 "/>
</g>
<path style=" stroke:none;fill-rule:evenodd;fill:rgb(32.151794%,74.804688%,87.5%);fill-opacity:1;" d="M 347.660156 222.378906 C 335.023438 211.042969 327.3125 197.902344 325.523438 179.890625 C 323.476563 159.28125 329.839844 140.855469 342.539063 125.136719 L 297.890625 78.140625 C 267.3125 88.878906 241.074219 79.144531 220.722656 56.035156 C 214.105469 73.324219 201.683594 89.558594 181.757813 90.039063 L 181.386719 90.074219 L 180.957031 90.039063 C 161.003906 89.582031 148.570313 73.335938 141.949219 56.035156 C 121.601563 79.144531 95.359375 88.878906 64.78125 78.140625 L 20.132813 125.136719 C 32.835938 140.855469 39.195313 159.28125 37.148438 179.890625 C 35.359375 197.902344 27.648438 211.042969 15.011719 222.378906 Z M 347.660156 222.378906 "/>
<path style=" stroke:none;fill-rule:evenodd;fill:rgb(10.594177%,9.812927%,9.423828%);fill-opacity:1;" d="M 41.460938 412.472656 C 49.808594 431.347656 60.042969 449.484375 72.425781 466.613281 C 99.65625 504.273438 140.324219 538.476563 181.28125 560.71875 C 220.039063 539.320313 255.839844 510.773438 283.242188 475.902344 C 337.867188 406.378906 354.847656 318.496094 352.695313 231.847656 Z M 41.460938 412.472656 "/>
<path style=" stroke:none;fill-rule:evenodd;fill:rgb(100%,100%,100%);fill-opacity:1;" d="M 10.082031 228.085938 C 8.171875 289.179688 15.625 351.25 39.183594 407.191406 L 347.800781 228.085938 Z M 10.082031 228.085938 "/>
<path style=" stroke:none;fill-rule:evenodd;fill:rgb(98.4375%,77.734375%,0%);fill-opacity:1;" d="M 95.492188 284.480469 C 96.730469 281.386719 97.207031 279.945313 98.339844 279.214844 C 99.476563 278.488281 100.304688 278.589844 100.925781 278.828125 C 103.554688 279.835938 103.542969 283.878906 103.65625 287.703125 C 103.765625 291.527344 103.523438 295.972656 101.570313 296.582031 C 100.695313 296.851563 99.117188 297.015625 97.742188 296.003906 C 96.371094 294.992188 95.429688 293.160156 94.75 290.519531 C 93.617188 293.289063 93.058594 296.097656 93.273438 298.054688 C 94.191406 306.550781 101.632813 306.511719 109.296875 303.671875 C 108.65625 306.847656 109.761719 309.871094 109.933594 312.871094 C 110.164063 313.171875 111.261719 312.15625 111.859375 311.621094 C 111.855469 312.289063 112.0625 314.765625 112.191406 315.082031 C 113.46875 313.628906 114.523438 312.054688 115.566406 312.40625 C 116.039063 317.464844 116.902344 321.605469 119.253906 325.308594 C 119.933594 320.464844 120.523438 317.925781 122.171875 315.375 C 123.015625 321.789063 124.171875 328.855469 127.605469 333.324219 C 127.8125 330.84375 129.097656 324.644531 130.863281 326.964844 C 132.085938 332.097656 132.691406 336.664063 128.433594 337.972656 C 129.683594 339.289063 130.621094 339.289063 131.5 339.71875 C 131.042969 340.589844 130.3125 342.003906 128.125 342.71875 C 130.125 344.109375 133.375 343.503906 132.519531 344.660156 C 131.007813 347.246094 126.839844 347.898438 122.773438 350.027344 C 118.167969 352.441406 112.125 355.089844 109.972656 356.027344 C 104.828125 358.269531 100.6875 352.234375 92.269531 353.382813 C 91.207031 353.527344 90.160156 353.871094 89.628906 354.742188 C 88.046875 354.605469 86.949219 355.15625 85.628906 359.1875 C 87.386719 358.5625 89.121094 358.300781 89.746094 359.070313 C 90.585938 360.097656 90.402344 361.996094 92.730469 362.738281 C 91.894531 363.320313 89.960938 364.777344 89.300781 365.824219 C 88.640625 366.871094 88.863281 367.488281 88.082031 368.21875 C 86.492188 369.703125 85.988281 370.125 86.085938 373.5625 C 87.25 372.695313 88.152344 372.207031 89.5625 371.886719 C 90.664063 371.640625 92.195313 372.089844 92.996094 372.285156 C 92.679688 374.992188 92.003906 376.917969 92.335938 379.230469 C 92.414063 379.785156 93.722656 380.457031 93.707031 381.011719 C 93.601563 384.355469 94.433594 385.859375 96.253906 387.328125 C 96.628906 386.222656 96.566406 384.546875 97.027344 383.515625 C 97.527344 382.398438 100.386719 381.40625 100.71875 380.28125 C 101.8125 376.5625 103.15625 375.328125 107.03125 373.625 C 109.699219 372.441406 112.660156 372.890625 116.617188 372.71875 C 119.234375 372.605469 122.378906 372.226563 125.289063 371.675781 C 126.222656 371.5 126.664063 370.582031 127.546875 370.371094 C 130.199219 369.742188 133.039063 369.6875 134.742188 368.855469 C 135.027344 372.953125 135.640625 377.589844 138.480469 380.40625 C 138.648438 377.699219 139.746094 375.195313 142.15625 373.128906 C 142.445313 378.59375 143.433594 383.847656 146.917969 388.351563 C 147.222656 391.121094 143.21875 394.828125 142.027344 398.289063 C 140.835938 401.75 143.53125 407.015625 149.203125 405.824219 C 145.429688 400.648438 151.597656 397.992188 152.734375 395.101563 C 154.167969 395.746094 155.246094 396.871094 156.808594 398.597656 C 157.6875 395.039063 157.367188 391.117188 156.6875 387.554688 C 160.34375 389.847656 163.929688 390.367188 168.800781 390.394531 C 174.863281 390.429688 179.414063 387.816406 189.394531 393.046875 C 173.867188 401.925781 161.6875 407.148438 157.019531 421.4375 C 155.597656 423.425781 155.070313 423.433594 153.738281 421.9375 C 153.246094 422.84375 151.816406 427.414063 158.179688 428.203125 C 158.613281 430.058594 159.523438 431.671875 161.394531 432.449219 C 160.753906 429.242188 162.867188 427.839844 165.222656 429.316406 C 165.589844 434.730469 167.269531 443.511719 164.527344 446.519531 C 163.367188 447.792969 161.871094 449.285156 160.183594 449.625 C 156.1875 450.425781 151.101563 448.660156 146.777344 450.171875 C 145.726563 450.542969 144.40625 452.339844 143.058594 453.304688 C 142.015625 454.054688 140.902344 453.886719 140.191406 454.898438 C 139.210938 456.285156 138.746094 457.886719 139.378906 459.570313 C 141.289063 457.082031 144.160156 458.558594 145.953125 459.195313 C 144.753906 461.195313 143.40625 461.871094 143.011719 463.984375 C 142.371094 467.457031 143.441406 466.789063 144.125 468.453125 C 144.65625 469.746094 145.472656 471.128906 146.476563 472.121094 C 146.421875 469.4375 148.769531 466.753906 150.996094 466.234375 C 152.039063 468.042969 152.28125 469.53125 152.390625 471.363281 C 152.507813 473.269531 154.296875 475.644531 157.140625 476.734375 C 156.941406 474.144531 157.789063 472.546875 159.117188 471.074219 C 160.441406 469.597656 163.328125 468.71875 164.445313 467.09375 C 166.519531 470.296875 167.816406 473.484375 172.542969 476.023438 C 172.09375 474.464844 172.101563 472.660156 172.574219 471.105469 C 173.125 469.289063 174.996094 467.890625 175.132813 465.96875 C 175.332031 463.121094 173.339844 459.261719 173.375 457.085938 C 176.804688 456.179688 178.539063 458.980469 180.609375 460.460938 C 181.644531 458.015625 180.679688 455.007813 180.121094 452.886719 C 183.652344 453.824219 186.414063 455.464844 186.742188 455.769531 C 187.144531 454.117188 187.316406 450.789063 185.71875 448.539063 C 188.148438 448.679688 190.699219 449.179688 193.367188 451 C 192.007813 445.480469 190.539063 445.570313 189.203125 442.242188 C 188.421875 440.292969 189.164063 437.59375 188.503906 435.476563 C 187.703125 432.902344 183.484375 429.519531 181.761719 427.003906 C 180.582031 425.277344 180.949219 423.890625 182.851563 423.6875 C 191.4375 422.773438 201.425781 421.070313 208.617188 420.480469 C 209.785156 422.449219 210.011719 425.640625 211 428.246094 C 211.929688 430.695313 213.640625 432.542969 214.480469 435.359375 C 215.210938 437.832031 215.695313 441.171875 216.34375 444.257813 C 217.128906 447.984375 218.003906 451.414063 217.753906 453.261719 C 219.503906 452.808594 221.039063 451.699219 222.46875 450.292969 C 224.296875 451.335938 225.769531 452.699219 226.644531 454.382813 C 227.273438 453.234375 227.941406 451.117188 227.355469 447.742188 C 228.78125 447.757813 230.460938 448.214844 231.476563 447.179688 C 231.054688 445.691406 230.070313 443.867188 230.941406 442.277344 C 239.417969 443.332031 242.707031 447.894531 242.664063 454.382813 C 242.644531 457.332031 241.78125 462.1875 239.90625 466.679688 C 238.027344 467.550781 233.511719 465.691406 231.636719 466.421875 C 230.136719 467.007813 228.515625 467.015625 227.359375 467.960938 C 226.164063 468.9375 224.773438 468.4375 223.691406 469.304688 C 222.464844 470.292969 220.542969 472.769531 220.109375 475.984375 C 221.378906 474.90625 224.570313 475.148438 225.84375 475.027344 C 223.589844 476.816406 222.929688 478.285156 222.28125 480.078125 C 221.960938 480.964844 222.558594 481.886719 222.457031 482.84375 C 222.324219 484.074219 222.761719 485.742188 223.140625 487.167969 C 224.828125 484.75 226.394531 484.132813 228.441406 483.152344 C 228.894531 484.585938 228.609375 486.417969 229.597656 487.644531 C 230.152344 488.332031 230.621094 488.902344 230.914063 489.566406 C 231.398438 490.679688 232.074219 491.871094 233.070313 492.839844 C 234.335938 489.136719 235.171875 488.160156 236.824219 487.738281 C 238.222656 487.378906 239.027344 485.203125 240.527344 484.0625 C 240.601563 485.320313 240.574219 487.289063 241.320313 489.039063 C 241.660156 489.832031 242.933594 490.496094 243.464844 491.1875 C 244.128906 492.050781 244.726563 493.035156 245.757813 493.519531 C 246.125 491.109375 246.8125 489.988281 248.949219 488.523438 C 250.796875 487.261719 251.234375 484.597656 252.09375 480.210938 C 252.914063 476.03125 256.496094 474.1875 258.265625 471.492188 C 259.460938 470.371094 262.695313 472.371094 265.09375 473.289063 C 265.195313 468.933594 258.351563 466.738281 258.574219 460.695313 C 259.03125 459.632813 262.195313 460.164063 266.15625 462.304688 C 266.441406 458.3125 260.496094 455.164063 260.425781 450.332031 C 262.316406 449.667969 265.171875 451.164063 268.023438 453.023438 C 267.230469 449.234375 266.589844 446.117188 265.121094 443.152344 C 264.167969 441.234375 260.46875 438.738281 260.347656 438.53125 C 259.515625 436.921875 259.75 431.441406 258.4375 430.0625 C 256.394531 427.90625 243.585938 425.722656 240.578125 420.859375 C 237.75 416.289063 238.125 405.894531 241.230469 401.019531 C 265.589844 410.371094 281.230469 399.097656 283.832031 385.027344 C 285.960938 373.476563 280.101563 364.222656 265.289063 357.652344 C 259.167969 354.941406 259.699219 343.25 251.6875 341.5625 C 252.519531 344.398438 251.792969 346.515625 251.304688 348.273438 C 249.265625 348.363281 247.148438 349.582031 246.03125 351.273438 C 248.488281 353.871094 250.507813 356.214844 250.414063 358.8125 C 244.90625 357.882813 242.417969 361.332031 231.972656 362.03125 C 225.347656 362.476563 222.417969 358.953125 221.476563 354.441406 C 220.644531 350.464844 222.113281 344.941406 227.441406 343.492188 C 231.972656 342.261719 228.171875 349.988281 231.355469 354.238281 C 232.800781 356.167969 236.246094 358.199219 240.824219 356.582031 C 236.292969 353.683594 240.746094 347.542969 239.570313 342.964844 C 243.964844 342.875 248.121094 340.019531 249.167969 335.246094 C 247.296875 338.363281 242.199219 334.515625 238.535156 334.152344 C 240.652344 331.410156 248.0625 328.417969 253.15625 331.933594 C 256.894531 334.523438 259.683594 339.121094 261.5625 343.664063 C 263.121094 347.433594 264.730469 351.6875 267.316406 353.429688 C 269.128906 354.648438 272.695313 354.429688 275.855469 355.964844 C 274.824219 352.894531 272.414063 352.367188 271.269531 349.878906 C 269.59375 346.238281 269.539063 341.398438 269.816406 338.496094 C 272.761719 338.203125 273.789063 338.152344 275.535156 333.179688 C 272.644531 335.246094 269.957031 333.515625 268.019531 331.96875 C 266.511719 330.765625 265.972656 328.519531 264.199219 327.191406 C 260.890625 324.722656 256.199219 324.933594 252.621094 325.289063 C 252.695313 322.316406 254.484375 319.980469 257.640625 319.679688 C 260.425781 319.414063 263.375 324.570313 268.066406 320.949219 C 263.96875 316.746094 264.902344 309.785156 255.890625 312.429688 C 258.21875 290.582031 240.765625 295.4375 246.136719 280.328125 C 239.648438 283.789063 237.550781 287.941406 237.511719 292.730469 C 237.472656 297.519531 243.074219 303.660156 243.894531 308.710938 C 241.476563 307.691406 235.960938 307.867188 233.542969 308.761719 C 239.398438 313.351563 241.878906 316.953125 240.746094 322.183594 C 237.484375 319.683594 234.21875 317.183594 230.953125 314.683594 C 230.960938 319.117188 231.085938 324.507813 231.09375 328.945313 C 224.875 334.628906 214.722656 340.460938 214.359375 352.417969 C 214.074219 361.769531 223.375 370.402344 236.898438 368.644531 C 236.792969 369.976563 236.707031 372.816406 234.398438 374.804688 C 238.808594 376.457031 240.648438 374.28125 241.746094 375.277344 C 240.84375 381.230469 242.199219 386.996094 250.175781 387.179688 C 246.921875 381.410156 247.675781 380.386719 249.679688 378.78125 C 250.589844 378.054688 251.613281 377.75 252.351563 376.136719 C 253.863281 372.820313 252.042969 366.628906 253.746094 366.371094 C 255.789063 366.0625 262.125 364.910156 267.816406 367.242188 C 274.269531 369.886719 279.835938 376.609375 276.191406 386.683594 C 273.675781 393.640625 263.597656 397.164063 258.640625 396.574219 C 246.832031 395.171875 239.25 387.855469 235.292969 380.800781 C 233.976563 378.453125 231.066406 379.457031 229.980469 377.25 C 229.25 375.769531 228.550781 375.183594 227.695313 374 C 226.785156 372.738281 224.160156 373.839844 222.988281 373 C 221.960938 372.261719 222.1875 371.613281 221.226563 370.96875 C 220.101563 370.207031 216.910156 370.703125 216.320313 369.632813 C 215.285156 367.753906 215.144531 366.214844 214.226563 365.660156 C 210.351563 363.335938 209 361.773438 208.589844 360.804688 C 204.203125 350.421875 210.765625 335.550781 215.21875 327.359375 C 215.863281 327.488281 217.683594 327.714844 219.214844 329.238281 C 219.613281 325.6875 218.402344 323.480469 218.605469 320.355469 C 218.761719 317.929688 219.507813 316.117188 220.015625 313.078125 C 220.628906 313.082031 223.757813 313.203125 225.570313 314.402344 C 225.414063 307.148438 221.789063 297.980469 222.957031 290.007813 C 225.25 291.265625 227.539063 290.492188 229.589844 288.785156 C 224.621094 286.746094 226.988281 281.003906 225.71875 277.019531 C 225.054688 274.933594 223.851563 273.96875 222.4375 272.128906 C 225.074219 270.566406 225.699219 268.308594 225.855469 265.5625 C 224.277344 266.40625 222.550781 266.464844 221.074219 265.683594 C 215.796875 262.902344 210.859375 254.367188 202.046875 251.109375 C 198.589844 249.832031 195.585938 249.707031 192.714844 249.578125 C 184.605469 249.207031 184.472656 239.773438 175.769531 239.007813 C 177.101563 241.429688 177.457031 243.609375 177.230469 245.550781 C 175.128906 244.488281 170.859375 244.847656 168.65625 245.789063 C 169.550781 248.40625 169.71875 249.585938 169.535156 251.367188 C 166.8125 251.507813 164.648438 252.65625 163.289063 253.597656 C 164.628906 254.558594 166.6875 255.277344 167.550781 256.359375 C 163.144531 258.351563 157.363281 260.070313 153.976563 263.511719 C 151.972656 265.546875 153.878906 269.234375 152.21875 271.558594 C 149.792969 274.945313 140.507813 276.066406 142.003906 279.953125 C 145.632813 289.382813 149.6875 293.03125 153.0625 291.535156 C 157.273438 289.671875 152.441406 285.402344 158.273438 284.265625 C 159.96875 283.9375 163.636719 284.804688 165.191406 287.292969 C 156.007813 294.007813 146.957031 299.945313 141.496094 295.203125 C 136.59375 290.945313 138.699219 279.53125 137.707031 271.910156 C 136.8125 265.066406 130.347656 261.476563 123.855469 266.332031 C 128.640625 266.738281 131.550781 269.046875 132.4375 273.667969 C 134.136719 282.492188 131.546875 296.007813 142.253906 300.304688 C 146.976563 302.199219 152.398438 300.242188 157.328125 296.894531 C 160.699219 294.605469 164.914063 291.863281 166.5625 290.765625 C 167.183594 291.753906 168.121094 293.390625 167.722656 294.261719 C 166.902344 296.039063 163.695313 298.898438 160.71875 298.59375 C 157.1875 298.234375 154.882813 299.066406 155.019531 300.726563 C 155.394531 305.148438 157.582031 306.335938 160.1875 305.632813 C 163.144531 304.835938 166.644531 301.8125 168.664063 302.015625 C 172.023438 302.359375 171.789063 304.339844 169.167969 306.160156 C 163.09375 310.382813 153.5625 309.917969 145.292969 313.449219 C 144.40625 313.570313 141.078125 311.15625 137.113281 306.53125 C 134.21875 303.148438 131.625 298.777344 128.371094 294.292969 C 125.121094 289.808594 121.191406 285.191406 118.503906 281.324219 C 115.898438 277.574219 118.128906 270.910156 116.339844 265.226563 C 115.742188 263.332031 114.601563 261.734375 113.171875 260.097656 C 112.117188 258.886719 111.4375 256.707031 108.421875 255.78125 C 109.492188 258.3125 109.855469 259.757813 109.390625 261.808594 C 105.871094 260.628906 102.304688 260.746094 99.738281 261.128906 C 98.753906 261.273438 97.96875 262.171875 97.1875 262.765625 C 96.179688 263.535156 95.238281 264.378906 94.640625 265.605469 C 97.589844 264.714844 98.648438 265.964844 100.304688 266.496094 C 99.054688 267.921875 96.738281 269.246094 95.808594 270.695313 C 92.769531 275.421875 94.101563 281.265625 95.492188 284.480469 Z M 95.492188 284.480469 "/>
<path style=" stroke:none;fill-rule:evenodd;fill:rgb(100%,100%,100%);fill-opacity:1;" d="M 99.222656 161.554688 L 108.941406 161.554688 L 108.941406 168.671875 L 118.054688 168.671875 L 118.054688 161.554688 L 125.949219 161.554688 L 125.949219 168.671875 L 135.0625 168.671875 L 135.0625 161.554688 L 141.882813 161.554688 L 141.882813 174.058594 L 99.222656 174.058594 Z M 141.882813 184.597656 L 132.539063 184.597656 L 132.539063 175.933594 L 141.882813 175.933594 Z M 130.664063 184.597656 L 108.476563 184.597656 L 108.476563 175.933594 L 130.664063 175.933594 Z M 106.601563 184.597656 L 99.222656 184.597656 L 99.222656 175.933594 L 106.601563 175.933594 Z M 141.882813 193.730469 L 139.316406 193.730469 L 139.316406 186.472656 L 141.882813 186.472656 Z M 137.441406 193.730469 L 121.5625 193.730469 L 121.5625 186.472656 L 137.441406 186.472656 Z M 119.6875 193.730469 L 102.167969 193.730469 L 102.167969 186.472656 L 119.6875 186.472656 Z M 100.296875 193.730469 L 99.222656 193.730469 L 99.222656 186.472656 L 100.296875 186.472656 Z M 141.882813 203.285156 L 132.539063 203.285156 L 132.539063 195.605469 L 141.882813 195.605469 Z M 130.664063 203.285156 L 108.476563 203.285156 L 108.476563 195.605469 L 130.664063 195.605469 Z M 106.601563 203.285156 L 99.222656 203.285156 L 99.222656 195.605469 L 106.601563 195.605469 Z M 141.882813 212.140625 L 139.316406 212.140625 L 139.316406 205.15625 L 141.882813 205.15625 Z M 137.441406 212.140625 L 121.5625 212.140625 L 121.5625 205.15625 L 137.441406 205.15625 Z M 119.6875 212.140625 L 102.167969 212.140625 L 102.167969 205.15625 L 119.6875 205.15625 Z M 100.296875 212.140625 L 99.222656 212.140625 L 99.222656 205.15625 L 100.296875 205.15625 Z M 132.539063 214.015625 L 141.882813 214.015625 L 141.882813 222.363281 L 132.539063 222.363281 Z M 108.476563 214.015625 L 130.664063 214.015625 L 130.664063 222.363281 L 108.476563 222.363281 Z M 99.222656 214.015625 L 106.601563 214.015625 L 106.601563 222.363281 L 99.222656 222.363281 Z M 99.222656 214.015625 "/>
<path style=" stroke:none;fill-rule:evenodd;fill:rgb(100%,100%,100%);fill-opacity:1;" d="M 152.863281 170.3125 L 157.304688 170.3125 L 157.304688 175.230469 L 164.195313 175.230469 L 164.195313 170.3125 L 170.152344 170.3125 L 170.152344 175.230469 L 180.082031 175.230469 L 180.082031 170.3125 L 187.128906 170.3125 L 187.128906 175.230469 L 197.058594 175.230469 L 197.058594 170.3125 L 203.015625 170.3125 L 203.015625 175.230469 L 209.90625 175.230469 L 209.90625 170.3125 L 214.308594 170.3125 L 214.308594 183.425781 L 152.863281 183.425781 Z M 214.308594 194.84375 L 206.179688 194.84375 L 206.179688 185.300781 L 214.308594 185.300781 Z M 204.304688 194.84375 L 184.519531 194.84375 L 184.519531 185.300781 L 204.304688 185.300781 Z M 182.644531 194.84375 L 162.914063 194.84375 L 162.914063 185.300781 L 182.644531 185.300781 Z M 161.039063 194.84375 L 152.863281 194.84375 L 152.863281 185.300781 L 161.039063 185.300781 Z M 214.308594 203.585938 L 211.085938 203.585938 L 211.085938 196.71875 L 214.308594 196.71875 Z M 209.210938 203.585938 L 201.507813 203.585938 L 201.507813 196.71875 L 209.210938 196.71875 Z M 199.632813 196.71875 L 199.632813 203.585938 L 194.886719 203.585938 C 193.671875 200.472656 191.203125 197.972656 188.109375 196.71875 Z M 179.054688 196.71875 C 175.960938 197.972656 173.492188 200.472656 172.277344 203.585938 L 167.585938 203.585938 L 167.585938 196.71875 Z M 165.710938 203.585938 L 158.007813 203.585938 L 158.007813 196.71875 L 165.710938 196.71875 Z M 156.132813 203.585938 L 152.863281 203.585938 L 152.863281 196.71875 L 156.132813 196.71875 Z M 214.308594 212.210938 L 206.179688 212.210938 L 206.179688 205.460938 L 214.308594 205.460938 Z M 214.308594 222.363281 L 211.085938 222.363281 L 211.085938 214.082031 L 214.308594 214.082031 Z M 209.210938 222.363281 L 201.507813 222.363281 L 201.507813 214.082031 L 209.210938 214.082031 Z M 199.632813 222.363281 L 195.710938 222.363281 L 195.710938 214.082031 L 199.632813 214.082031 Z M 195.710938 212.210938 L 195.710938 207.964844 C 195.710938 207.105469 195.621094 206.269531 195.449219 205.460938 L 204.304688 205.460938 L 204.304688 212.210938 Z M 171.714844 205.460938 C 171.542969 206.269531 171.453125 207.105469 171.453125 207.964844 L 171.453125 212.210938 L 162.914063 212.210938 L 162.914063 205.460938 Z M 171.453125 222.363281 L 167.585938 222.363281 L 167.585938 214.082031 L 171.453125 214.082031 Z M 165.710938 222.363281 L 158.007813 222.363281 L 158.007813 214.082031 L 165.710938 214.082031 Z M 156.132813 222.363281 L 152.863281 222.363281 L 152.863281 214.082031 L 156.132813 214.082031 Z M 152.863281 205.460938 L 161.039063 205.460938 L 161.039063 212.210938 L 152.863281 212.210938 Z M 152.863281 205.460938 "/>
<path style=" stroke:none;fill-rule:evenodd;fill:rgb(100%,100%,100%);fill-opacity:1;" d="M 143.75 161.824219 L 150.996094 170.074219 L 150.996094 222.363281 L 143.75 222.363281 Z M 143.75 161.824219 "/>
<path style=" stroke:none;fill-rule:evenodd;fill:rgb(100%,100%,100%);fill-opacity:1;" d="M 267.96875 161.554688 L 258.25 161.554688 L 258.25 168.671875 L 249.136719 168.671875 L 249.136719 161.554688 L 241.242188 161.554688 L 241.242188 168.671875 L 232.128906 168.671875 L 232.128906 161.554688 L 225.308594 161.554688 L 225.308594 174.058594 L 267.96875 174.058594 Z M 225.308594 184.597656 L 234.652344 184.597656 L 234.652344 175.933594 L 225.308594 175.933594 Z M 236.523438 184.597656 L 258.714844 184.597656 L 258.714844 175.933594 L 236.523438 175.933594 Z M 260.585938 184.597656 L 267.96875 184.597656 L 267.96875 175.933594 L 260.585938 175.933594 Z M 225.308594 193.730469 L 227.875 193.730469 L 227.875 186.472656 L 225.308594 186.472656 Z M 229.746094 193.730469 L 245.628906 193.730469 L 245.628906 186.472656 L 229.746094 186.472656 Z M 247.503906 193.730469 L 265.019531 193.730469 L 265.019531 186.472656 L 247.503906 186.472656 Z M 266.894531 193.730469 L 267.96875 193.730469 L 267.96875 186.472656 L 266.894531 186.472656 Z M 225.308594 203.285156 L 234.652344 203.285156 L 234.652344 195.605469 L 225.308594 195.605469 Z M 236.523438 203.285156 L 258.714844 203.285156 L 258.714844 195.605469 L 236.523438 195.605469 Z M 260.585938 203.285156 L 267.96875 203.285156 L 267.96875 195.605469 L 260.585938 195.605469 Z M 225.308594 212.140625 L 227.875 212.140625 L 227.875 205.15625 L 225.308594 205.15625 Z M 229.746094 212.140625 L 245.628906 212.140625 L 245.628906 205.15625 L 229.746094 205.15625 Z M 247.503906 212.140625 L 265.019531 212.140625 L 265.019531 205.15625 L 247.503906 205.15625 Z M 266.894531 212.140625 L 267.96875 212.140625 L 267.96875 205.15625 L 266.894531 205.15625 Z M 234.652344 214.015625 L 225.308594 214.015625 L 225.308594 222.363281 L 234.652344 222.363281 Z M 258.714844 214.015625 L 236.523438 214.015625 L 236.523438 222.363281 L 258.714844 222.363281 Z M 267.96875 214.015625 L 260.585938 214.015625 L 260.585938 222.363281 L 267.96875 222.363281 Z M 267.96875 214.015625 "/>
<path style=" stroke:none;fill-rule:evenodd;fill:rgb(100%,100%,100%);fill-opacity:1;" d="M 223.4375 161.824219 L 216.195313 170.074219 L 216.195313 222.363281 L 223.4375 222.363281 Z M 223.4375 161.824219 "/>
<path style=" stroke:none;fill-rule:evenodd;fill:rgb(100%,100%,100%);fill-opacity:1;" d="M 128.175781 87.171875 L 131.851563 98.566406 L 143.824219 98.542969 L 134.125 105.5625 L 137.847656 116.941406 L 128.175781 109.882813 L 118.5 116.941406 L 122.222656 105.5625 L 112.523438 98.542969 L 124.496094 98.566406 Z M 128.175781 87.171875 "/>
<path style=" stroke:none;fill-rule:evenodd;fill:rgb(10.594177%,9.812927%,9.423828%);fill-opacity:1;" d="M 207.339844 39.765625 C 207.574219 43.332031 205.121094 47.136719 203.121094 49.425781 C 197.578125 55.753906 186.824219 56.453125 179.679688 56.433594 C 158.914063 56.375 147.046875 49.691406 147.265625 27.503906 C 147.480469 5.726563 160.957031 -0.0273438 179.644531 0.292969 C 189.527344 0.460938 196.679688 1.507813 201.6875 6.332031 C 204.855469 9.378906 206.9375 12.816406 206.523438 17.238281 C 206.121094 21.511719 201.613281 22.507813 197.460938 21.757813 C 193.632813 21.0625 193.285156 19.007813 191.839844 15.9375 C 191.375 14.949219 189.734375 13.058594 187.925781 12.285156 C 185.277344 11.15625 181.914063 10.777344 178.636719 10.867188 C 165.636719 11.21875 161.886719 14.625 161.769531 27.9375 C 161.664063 39.476563 163.332031 45.675781 178.46875 45.675781 C 186.519531 45.675781 191.007813 44.90625 193.042969 40.136719 C 195.011719 35.519531 197.742188 34.65625 200.652344 34.71875 C 204.699219 34.808594 207.132813 36.59375 207.339844 39.765625 Z M 207.339844 39.765625 "/>
<path style=" stroke:none;fill-rule:evenodd;fill:rgb(10.594177%,9.812927%,9.423828%);fill-opacity:1;" d="M 118.316406 44.417969 C 122.613281 60.121094 101.003906 65.003906 93.800781 66.871094 C 85.179688 69.109375 75.507813 71.503906 67.796875 66.042969 C 64.851563 63.957031 61.722656 59.972656 64.195313 56.253906 C 65.792969 53.859375 70.285156 52.65625 73.011719 53.648438 C 74.207031 54.082031 75.367188 55.027344 76.457031 56.214844 C 79.859375 59.921875 82.128906 58.75 86.582031 57.941406 C 91.167969 57.109375 96.105469 55.410156 100.265625 54.09375 C 103.144531 53.183594 104.53125 51.507813 104.183594 48.921875 C 103.90625 46.859375 102.347656 45.875 100.507813 45.699219 C 93.980469 45.070313 80.90625 46.007813 73.683594 45.5 C 64.222656 44.832031 58.296875 41.175781 56.808594 34.136719 C 53.808594 19.933594 70.332031 14.570313 80.691406 11.878906 C 89.273438 9.65625 100.496094 8.390625 106.925781 14.191406 C 108.234375 15.375 109.675781 17.386719 110.011719 18.765625 C 111.363281 24.347656 105.5625 26.003906 102.355469 25.957031 C 99.324219 25.914063 98.460938 24.910156 96.324219 22.824219 C 94.441406 20.984375 91.417969 20.746094 87.953125 21.542969 C 84.285156 22.390625 80.511719 23.316406 76.972656 24.289063 C 73.417969 25.265625 70.082031 27.261719 70.8125 30.269531 C 71.289063 32.230469 72.808594 33.433594 75.441406 33.625 C 85.019531 34.324219 91.75 32.664063 101.886719 33.5 C 106.417969 33.875 110.722656 34.542969 114.269531 37.738281 C 116.324219 39.589844 117.53125 41.558594 118.316406 44.417969 Z M 118.316406 44.417969 "/>
<path style=" stroke:none;fill-rule:evenodd;fill:rgb(10.594177%,9.812927%,9.423828%);fill-opacity:1;" d="M 296.269531 29.054688 L 265.183594 19.550781 L 261.359375 31.988281 L 286.851563 39.890625 C 290.027344 40.875 290.550781 42.253906 289.625 45.234375 L 288.695313 48.21875 C 287.882813 50.832031 286.214844 50.90625 283.539063 50.089844 L 258.183594 42.382813 L 253.511719 57.730469 C 252.648438 60.570313 251.386719 60.871094 248.851563 60.085938 L 242.09375 57.988281 C 240.050781 57.355469 239.449219 55.503906 240.027344 53.609375 L 253.304688 10.183594 C 254.574219 6.027344 255.980469 5.523438 259.144531 6.492188 L 299.582031 18.855469 C 302.761719 19.828125 303.28125 21.210938 302.351563 24.195313 L 301.425781 27.183594 C 300.613281 29.796875 298.941406 29.871094 296.269531 29.054688 Z M 296.269531 29.054688 "/>
<path style=" stroke:none;fill-rule:evenodd;fill:rgb(100%,100%,100%);fill-opacity:1;" d="M 210.675781 527.957031 C 209.535156 528.082031 207.953125 528.09375 206.800781 527.972656 C 199.671875 527.234375 195.652344 523.886719 195.734375 514.617188 C 195.816406 505.5 200.410156 502.433594 207.050781 501.992188 C 207.992188 501.929688 209.0625 501.925781 210.007813 501.980469 C 216.769531 502.371094 221.46875 505.394531 221.550781 514.617188 C 221.632813 523.800781 217.683594 527.183594 210.675781 527.957031 Z M 208.640625 506.492188 C 203.792969 506.65625 201.878906 508.730469 201.832031 514.816406 C 201.792969 520.128906 202.941406 523.441406 208.640625 523.460938 C 214.261719 523.484375 215.492188 520.128906 215.449219 514.816406 C 215.402344 508.730469 213.335938 506.742188 208.640625 506.492188 Z M 208.640625 506.492188 "/>
<path style=" stroke:none;fill-rule:evenodd;fill:rgb(100%,100%,100%);fill-opacity:1;" d="M 162.621094 527.652344 C 159.277344 527.175781 156.484375 525.527344 155.578125 523.117188 C 154.863281 521.222656 155.601563 519.910156 156.613281 519.449219 C 157.566406 519.015625 158.101563 519.113281 159.007813 519.332031 C 160.332031 519.648438 160.773438 520.113281 161.980469 521.753906 C 162.8125 522.882813 163.605469 523.453125 166.535156 523.460938 C 171.964844 523.480469 172.933594 521.308594 173.101563 517.691406 C 170.667969 517.648438 167.367188 517.871094 163.570313 517.679688 C 158.820313 517.441406 154.550781 515.609375 154.617188 510.070313 C 154.6875 503.90625 158.59375 502.363281 164.980469 501.992188 C 166.617188 501.902344 168.320313 501.949219 169.957031 502.085938 C 175.835938 502.582031 179.289063 504.980469 179.257813 514.734375 C 179.226563 523.789063 176.710938 527.007813 170.632813 527.742188 C 167.890625 528.078125 165.167969 528.011719 162.621094 527.652344 Z M 173.09375 512.226563 C 173.234375 507.828125 171.445313 506.707031 166.535156 506.492188 C 163.066406 506.613281 160.949219 507.628906 161.0625 510.351563 C 161.117188 511.578125 161.238281 513.851563 164.9375 513.867188 L 171.609375 513.898438 C 172.375 513.902344 173.054688 513.46875 173.09375 512.226563 Z M 173.09375 512.226563 "/>
<path style=" stroke:none;fill-rule:evenodd;fill:rgb(100%,100%,100%);fill-opacity:1;" d="M 146.339844 502.179688 L 149.910156 502.179688 C 150.507813 502.179688 150.996094 502.722656 150.996094 503.386719 L 150.996094 526.519531 C 150.996094 527.183594 150.507813 527.730469 149.910156 527.730469 L 145.882813 527.730469 C 145.285156 527.730469 144.796875 527.183594 144.796875 526.519531 L 144.796875 508.382813 L 142.242188 510.203125 C 141.996094 510.375 141.652344 510.496094 141.359375 510.09375 L 139.558594 507.648438 C 139.289063 507.28125 139.523438 506.890625 139.746094 506.722656 L 144.914063 502.824219 C 145.453125 502.417969 145.683594 502.179688 146.339844 502.179688 Z M 146.339844 502.179688 "/>
<path style=" stroke:none;fill-rule:evenodd;fill:rgb(100%,100%,100%);fill-opacity:1;" d="M 187.117188 502.179688 L 190.6875 502.179688 C 191.285156 502.179688 191.773438 502.722656 191.773438 503.386719 L 191.773438 526.519531 C 191.773438 527.183594 191.285156 527.730469 190.6875 527.730469 L 186.660156 527.730469 C 186.0625 527.730469 185.574219 527.183594 185.574219 526.519531 L 185.574219 508.382813 L 183.019531 510.203125 C 182.773438 510.375 182.429688 510.496094 182.136719 510.09375 L 180.335938 507.648438 C 180.066406 507.28125 180.300781 506.890625 180.523438 506.722656 L 185.691406 502.824219 C 186.230469 502.417969 186.460938 502.179688 187.117188 502.179688 Z M 187.117188 502.179688 "/>
<path style=" stroke:none;fill-rule:evenodd;fill:rgb(10.594177%,9.812927%,9.423828%);fill-opacity:1;" d="M 178.867188 98.914063 C 176.691406 99.765625 176.273438 101.699219 175.9375 103.867188 C 175.554688 106.324219 176.285156 108.296875 176.511719 109.964844 C 172.644531 114.550781 171.855469 115.503906 171.191406 120.621094 C 170.117188 128.875 171.257813 140.964844 172.859375 145.851563 C 173.460938 147.683594 171.042969 146.996094 170.578125 149.109375 C 170.1875 150.886719 170.214844 154.570313 170.746094 156.960938 C 171.027344 158.214844 171.800781 158.464844 171.96875 159.296875 C 171.917969 161.019531 169.609375 160.277344 169.75 160.988281 C 169.980469 162.183594 170.953125 165.933594 172.1875 166.148438 C 173.589844 166.394531 173.867188 162.21875 175.253906 162.347656 C 178.59375 162.65625 184.699219 165.328125 187.066406 165.394531 C 189.902344 165.472656 193.558594 162.875 194.207031 160.761719 C 194.230469 159.726563 195.347656 160.199219 195.972656 159.554688 C 196.914063 158.582031 198.070313 156.292969 197.464844 154.703125 C 197.210938 154.035156 198.734375 153.289063 198.660156 152.535156 C 198.597656 151.925781 197.855469 151.464844 197.089844 150.875 C 196.628906 150.523438 196.730469 148.332031 196.398438 147.824219 C 194.824219 145.394531 194.570313 146.957031 194.898438 143.328125 C 195.109375 141 194.871094 138.550781 195.742188 137.234375 C 196.402344 136.242188 194.972656 132.652344 195.035156 130.617188 C 196.257813 128.242188 196.28125 126.578125 195.910156 123.53125 C 195.726563 122.015625 195.324219 120.054688 194.4375 118.679688 C 194.375 117.382813 194.726563 115.648438 194.207031 114.515625 C 193.621094 113.238281 192.269531 111.742188 190.765625 110.347656 C 188.835938 108.554688 187.082031 107.808594 186.996094 105.832031 C 186.71875 99.554688 182.714844 97.402344 178.867188 98.914063 Z M 178.867188 98.914063 "/>
<path style=" stroke:none;fill-rule:evenodd;fill:rgb(0%,69.726563%,87.5%);fill-opacity:1;" d="M 170.679688 161.355469 C 170.976563 162.550781 171.683594 164.945313 172.28125 165.308594 C 173.007813 164.710938 173.339844 161.335938 175.332031 161.519531 C 177.125 161.6875 179.171875 162.347656 180.894531 162.890625 C 182.453125 163.382813 185.53125 164.523438 187.089844 164.566406 C 189.164063 164.625 191.808594 163.265625 192.515625 161.246094 C 192.628906 159.675781 192.320313 158.722656 193.480469 157.078125 C 194.289063 156.242188 197.136719 156.171875 196.691406 154.996094 C 196.226563 153.78125 197.554688 153.1875 197.820313 152.582031 C 197.695313 152.328125 196.765625 151.671875 196.582031 151.53125 C 195.675781 150.832031 196.042969 149.058594 195.703125 148.273438 C 195.261719 147.59375 194.566406 147.015625 194.230469 146.460938 C 193.753906 145.671875 193.992188 144.132813 194.074219 143.253906 C 194.246094 141.363281 193.136719 138.511719 194.179688 136.941406 C 194.589844 131.980469 192.828125 131.824219 191.601563 130.035156 C 193.160156 130.296875 194.003906 129.351563 194.121094 128.921875 C 194.625 127.050781 194.832031 126.410156 194.535156 123.949219 C 194.078125 120.183594 191.277344 121.289063 188.324219 119.734375 C 190.609375 119.46875 192.738281 119.488281 193.171875 117.671875 C 193.957031 114.394531 192.648438 113.226563 190.203125 110.957031 C 188.617188 109.480469 186.273438 108.300781 186.167969 105.867188 C 185.988281 101.789063 183.652344 97.925781 179.167969 99.683594 C 177.308594 100.414063 177.027344 102.226563 176.753906 103.992188 C 176.410156 106.207031 177.042969 107.753906 177.332031 109.851563 L 177.367188 111.074219 C 173.609375 115.855469 172.8125 115.152344 172.167969 120.09375 C 171.273438 126.96875 171.492188 139.023438 173.644531 145.59375 C 174.46875 148.105469 171.722656 147.761719 171.386719 149.285156 C 170.949219 151.28125 171.113281 154.792969 171.554688 156.78125 C 171.773438 157.753906 172.574219 158.109375 172.777344 159.136719 L 172.796875 159.226563 L 172.792969 159.320313 C 172.777344 159.976563 172.515625 160.554688 171.96875 160.933594 C 171.449219 161.289063 171.089844 161.28125 170.679688 161.355469 Z M 170.679688 161.355469 "/>
<path style=" stroke:none;fill-rule:evenodd;fill:rgb(10.594177%,9.812927%,9.423828%);fill-opacity:1;" d="M 189.867188 164.054688 C 187.925781 166.992188 179.816406 162.632813 174.789063 161.921875 C 174.910156 161.472656 174.027344 160.179688 172.890625 158.964844 C 171.992188 158.007813 173.15625 153.386719 174.117188 147.828125 C 174.359375 146.421875 172.820313 143.632813 172.953125 142.078125 C 173.09375 140.464844 172.878906 138.324219 174.027344 136.226563 C 174.664063 135.0625 175.597656 133.910156 175.730469 132.882813 C 175.9375 131.269531 175.460938 130.023438 176.03125 125.886719 C 176.371094 123.410156 177.265625 119.988281 178.84375 117.191406 C 179.996094 115.148438 177.84375 110.023438 177.316406 106.894531 C 176.621094 102.746094 178.015625 100.597656 180.789063 100.507813 C 184.230469 100.394531 184.996094 104.09375 185.316406 108.398438 C 185.566406 111.75 185.683594 116.136719 186.632813 118.03125 C 187.101563 118.96875 187.347656 119.828125 187.644531 120.722656 C 188.195313 122.386719 186.832031 125.464844 187.308594 127.128906 C 188.222656 130.304688 190.851563 132.085938 191.210938 135.398438 C 191.53125 138.363281 192.25 141.347656 192.226563 144.328125 C 192.183594 150.027344 191.875 158.4375 189.867188 164.054688 Z M 189.867188 164.054688 "/>
<path style=" stroke:none;fill-rule:evenodd;fill:rgb(100%,100%,100%);fill-opacity:1;" d="M 181.398438 146.820313 C 180.859375 145.09375 181.007813 143.550781 181.097656 141.71875 C 181.164063 140.359375 183.152344 140.511719 182.972656 139.265625 C 182.628906 136.886719 182.734375 136.296875 182.738281 134.015625 C 182.738281 133.6875 182.347656 128.609375 183.144531 128.789063 C 185 129.214844 186.917969 129.363281 188.289063 129.363281 C 188.707031 130.1875 188.660156 129.976563 189.160156 130.742188 C 189.539063 131.316406 190.078125 132.46875 189.90625 132.269531 C 188.234375 130.304688 186.097656 129.921875 186.953125 134.148438 C 187.671875 137.679688 187.011719 142.054688 187.019531 142.132813 C 187.097656 142.875 187.785156 143.023438 188.289063 143.230469 C 188.949219 143.503906 188.597656 150.921875 189.339844 150.925781 C 191.480469 150.933594 189.511719 146.945313 190.675781 145.523438 C 191.121094 144.984375 192.230469 144.851563 192.226563 145.359375 C 192.210938 148.117188 191.84375 150.886719 191.734375 153.890625 C 191.71875 154.414063 190.996094 154.929688 189.136719 154.011719 C 188.691406 153.789063 189.308594 155.960938 188.484375 156.601563 C 187.449219 157.402344 185.597656 157.105469 185.195313 156.578125 C 184.433594 155.578125 183.71875 154.710938 183.269531 154.6875 C 181.503906 154.605469 182.660156 152.769531 183.355469 151.191406 C 183.894531 149.964844 183.316406 148.714844 183.105469 147.4375 C 183.011719 146.898438 181.609375 147.488281 181.398438 146.820313 Z M 185.226563 124.96875 C 184.75 124.644531 184.148438 124.390625 183.523438 124.21875 C 183.109375 124.105469 182.433594 121.5 182.824219 120.113281 C 182.867188 119.960938 183.144531 123.410156 183.453125 123.25 C 184.246094 122.828125 185.4375 118.78125 185.210938 117.859375 C 185.164063 117.679688 186.535156 117.929688 186.386719 117.761719 C 186.285156 117.644531 186.578125 117.429688 186.285156 117.390625 C 185.992188 117.351563 185.117188 117.484375 184.578125 117.429688 C 183.113281 117.285156 182.390625 120.566406 181.027344 120.011719 C 180.132813 119.621094 179.414063 115.753906 179.507813 115.570313 C 178.992188 115.484375 179.175781 115.421875 179.183594 115.214844 C 179.242188 113.988281 178.234375 111.246094 177.714844 109.433594 C 178.03125 108.035156 179.601563 111.535156 181.804688 111.265625 C 184.046875 110.988281 185.433594 108.710938 184.839844 105.902344 C 184.855469 106.113281 185.347656 108.824219 185.359375 109.039063 C 185.582031 112.289063 185.746094 116.253906 186.632813 118.03125 C 187.101563 118.96875 187.347656 119.828125 187.644531 120.722656 C 188.042969 121.925781 187.398438 123.949219 187.191406 125.609375 C 186.230469 125.609375 186.023438 125.515625 185.226563 124.96875 Z M 179.527344 118.984375 C 179.453125 119.78125 180.3125 121.824219 180.859375 122.683594 C 181.183594 123.199219 181.847656 121.167969 181.800781 121.277344 C 181.644531 121.625 181.585938 123.527344 180.914063 123.84375 C 180.152344 124.199219 178.566406 124.621094 178.425781 124.609375 C 177.371094 124.507813 176.238281 125.484375 176.273438 125.273438 C 176.472656 124.023438 177.445313 120.21875 177.964844 118.964844 C 178.558594 119.375 179.550781 118.753906 179.527344 118.984375 Z M 179.5625 131.449219 C 178.789063 135.785156 179.761719 142.496094 179.441406 147.894531 C 179.390625 148.765625 177.210938 147.867188 177.238281 148.417969 C 177.347656 150.480469 179.636719 150.757813 179.582031 151.433594 C 179.484375 152.722656 180.320313 155.53125 179.773438 156.320313 C 179.070313 157.332031 176.472656 155.914063 176.394531 155.921875 C 173.714844 156.144531 177.460938 162.300781 174.789063 161.921875 C 174.910156 161.472656 174.027344 160.179688 172.890625 158.964844 C 172.285156 158.316406 172.339844 155.871094 173.117188 155.246094 C 173.890625 154.625 175.378906 155.824219 175.425781 155.167969 C 175.660156 151.832031 174.914063 148.625 175.011719 147.507813 C 175.148438 145.894531 175.328125 143.316406 175.054688 139.316406 C 174.964844 137.996094 176.707031 134.304688 176.839844 133.277344 C 177 132.015625 176.710938 131.253906 176.679688 128.882813 C 176.675781 128.6875 176.515625 127.15625 177.273438 127.214844 C 178.261719 127.289063 179.164063 127.675781 180.566406 128.113281 C 180.566406 130.089844 179.90625 129.535156 179.5625 131.449219 Z M 179.5625 131.449219 "/>
<path style=" stroke:none;fill-rule:evenodd;fill:rgb(10.594177%,9.812927%,9.423828%);fill-opacity:1;" d="M 184.679688 115.078125 C 184.691406 116.628906 184.808594 117.464844 185.203125 118.082031 C 185.667969 118.816406 183.429688 117.5625 183.40625 118.433594 C 183.386719 119.066406 181.246094 121.183594 180.835938 121.488281 C 180.308594 121.273438 180.269531 120.230469 179.847656 119.386719 C 179.964844 119.066406 180.105469 118.773438 180.195313 118.4375 C 180.417969 117.621094 180.375 116.472656 180.515625 115.640625 C 180.625 114.996094 180.773438 114.195313 181.449219 113.554688 C 181.621094 113.390625 181.339844 113.15625 181.78125 112.765625 C 181.914063 112.355469 182.132813 112.28125 182.371094 112.210938 C 182.601563 112.027344 182.875 112.050781 183.109375 112.210938 C 183.25 112.160156 184.011719 112.96875 184.253906 113.417969 C 184.605469 114.082031 184.675781 114.820313 184.679688 115.078125 Z M 184.679688 115.078125 "/>
<path style="fill-rule:evenodd;fill:rgb(96.484375%,87.889099%,79.296875%);fill-opacity:1;stroke-width:0.028;stroke-linecap:butt;stroke-linejoin:miter;stroke:rgb(0%,0.784302%,0%);stroke-opacity:1;stroke-miterlimit:4;" d="M 1826.835938 4492.53125 C 1826.445313 4490.8125 1825.976563 4488.15625 1825.351563 4486.671875 C 1822.695313 4480.34375 1812.03125 4463.9375 1808.359375 4458.117188 C 1803.085938 4460.265625 1802.695313 4470.695313 1798.476563 4479.132813 C 1799.648438 4482.335938 1803.046875 4485.265625 1803.945313 4488.625 C 1806.171875 4496.828125 1805.507813 4510.265625 1806.914063 4518.585938 C 1808.046875 4525.03125 1811.171875 4531.59375 1815.976563 4536.046875 C 1817.265625 4532.53125 1820 4528.859375 1822.148438 4519.25 C 1824.414063 4509.015625 1823.984375 4497.023438 1826.835938 4492.53125 Z M 1826.835938 4492.53125 " transform="matrix(0.1,0,0,-0.1,0,567.3)"/>
<path style=" stroke:none;fill-rule:evenodd;fill:rgb(0%,69.726563%,87.5%);fill-opacity:1;" d="M 190.742188 160.046875 C 189.101563 159.195313 186.851563 158.640625 184.035156 158.878906 C 176.449219 159.519531 177.550781 161.859375 187.5 161.949219 C 188.285156 161.957031 187.894531 163.933594 188.628906 164.136719 C 189.085938 164.261719 189.722656 163.972656 190.152344 163.304688 C 190.683594 162.472656 190.929688 161.007813 190.742188 160.046875 Z M 190.742188 160.046875 "/>
<path style=" stroke:none;fill-rule:evenodd;fill:rgb(96.484375%,87.889099%,79.296875%);fill-opacity:1;" d="M 177.949219 102.976563 C 177.691406 103.644531 177.652344 104.355469 177.785156 105.234375 C 177.910156 106.078125 177.933594 107.226563 178.394531 107.921875 C 178.6875 108.359375 179.367188 109.21875 179.914063 109.632813 C 180.378906 109.980469 180.800781 110.058594 181.191406 109.984375 C 181.269531 109.972656 181.6875 109.964844 182.210938 109.5625 C 182.488281 109.347656 182.839844 108.976563 183.160156 108.636719 C 183.640625 108.125 183.910156 107.472656 183.882813 107.714844 C 183.878906 107.742188 183.691406 108.289063 183.351563 108.824219 C 183.050781 109.296875 182.542969 109.71875 182.070313 110.035156 C 181.835938 110.1875 181.582031 110.285156 181.292969 110.363281 C 180.867188 110.476563 180.050781 110.140625 180.027344 110.117188 C 180.476563 110.75 180.808594 111 181.746094 110.917969 C 182.679688 110.835938 183.609375 110.21875 184.0625 109.378906 C 184.265625 109.003906 184.863281 108.285156 184.59375 107.964844 C 184.125 107.402344 184.410156 106.675781 184.65625 105.957031 C 184.675781 105.21875 184.417969 103.605469 184.117188 102.972656 C 183.660156 102.011719 181.855469 101.585938 180.574219 101.558594 C 179.257813 101.53125 178.289063 102.097656 177.949219 102.976563 Z M 177.949219 102.976563 "/>
<path style=" stroke:none;fill-rule:evenodd;fill:rgb(10.594177%,9.812927%,9.423828%);fill-opacity:1;" d="M 179.878906 108.265625 C 179.992188 108.175781 180.179688 108.179688 180.34375 108.136719 C 180.507813 108.089844 180.570313 107.988281 180.757813 107.980469 C 181.144531 107.964844 181.671875 108.191406 182.085938 108.1875 C 181.917969 108.359375 181.011719 108.171875 180.75 108.277344 C 180.632813 108.320313 180.773438 108.386719 180.953125 108.417969 C 181.175781 108.460938 181.445313 108.269531 181.300781 108.4375 C 181.164063 108.59375 180.625 108.511719 180.433594 108.453125 C 180.289063 108.410156 180.101563 108.351563 179.878906 108.265625 Z M 179.878906 108.265625 "/>
<path style=" stroke:none;fill-rule:evenodd;fill:rgb(10.594177%,9.812927%,9.423828%);fill-opacity:1;" d="M 183.152344 104.722656 C 182.632813 104.316406 181.839844 104.390625 181.484375 104.660156 C 182.117188 104.566406 181.878906 104.980469 182.230469 104.957031 C 182.429688 104.945313 182.445313 104.839844 182.589844 104.753906 C 182.707031 104.683594 182.980469 104.789063 183.152344 104.722656 Z M 183.152344 104.722656 "/>
<path style=" stroke:none;fill-rule:evenodd;fill:rgb(10.594177%,9.812927%,9.423828%);fill-opacity:1;" d="M 180.238281 104.894531 C 179.71875 104.484375 178.925781 104.558594 178.566406 104.828125 C 179.203125 104.734375 178.964844 105.148438 179.3125 105.125 C 179.515625 105.113281 179.527344 105.007813 179.675781 104.921875 C 179.792969 104.851563 180.066406 104.957031 180.238281 104.894531 Z M 180.238281 104.894531 "/>
<path style=" stroke:none;fill-rule:evenodd;fill:rgb(10.594177%,9.812927%,9.423828%);fill-opacity:1;" d="M 178.957031 103.917969 C 178.636719 103.976563 178.285156 104.121094 178.816406 104.117188 C 179.121094 104.113281 179.121094 104.066406 179.566406 104.109375 C 179.914063 104.144531 180.460938 104.425781 180.480469 104.355469 C 180.601563 103.925781 179.230469 103.871094 178.957031 103.917969 Z M 178.957031 103.917969 "/>
<path style=" stroke:none;fill-rule:evenodd;fill:rgb(10.594177%,9.812927%,9.423828%);fill-opacity:1;" d="M 180.167969 107.113281 C 180.367188 107.351563 180.460938 107.328125 180.726563 107.308594 C 181.386719 107.257813 180.246094 107.253906 180.359375 106.898438 C 180.503906 106.621094 180.585938 105.714844 180.570313 105.789063 C 180.472656 106.296875 180.039063 106.953125 180.167969 107.113281 Z M 180.167969 107.113281 "/>
<path style=" stroke:none;fill-rule:evenodd;fill:rgb(10.594177%,9.812927%,9.423828%);fill-opacity:1;" d="M 182.992188 103.898438 C 183.335938 103.980469 183.449219 104.191406 183.222656 104.117188 C 182.769531 103.96875 182.070313 103.960938 181.625 104.234375 C 181.023438 104.605469 181.582031 103.5625 182.992188 103.898438 Z M 182.992188 103.898438 "/>
<path style=" stroke:none;fill-rule:evenodd;fill:rgb(51.756287%,45.872498%,43.530273%);fill-opacity:1;" d="M 180.441406 101.476563 C 179.824219 103.066406 178.039063 103.1875 177.902344 103.90625 C 177.796875 104.453125 177.914063 105.367188 177.902344 106.113281 C 177.894531 106.519531 177.976563 106.710938 177.988281 107.03125 C 178.015625 107.644531 177.871094 108.179688 177.707031 108.761719 C 177.335938 107.429688 176.457031 103.671875 178.402344 101.6875 C 179.449219 100.617188 181.308594 99.980469 182.449219 100.949219 C 185.25 103.339844 185.511719 106.550781 185.570313 108.609375 C 185.089844 107.988281 184.476563 108.265625 184.261719 107.730469 C 184.191406 107.550781 184.035156 107.082031 184.035156 106.796875 C 184.027344 105.765625 184.125 104.636719 183.898438 103.886719 C 183.570313 102.8125 181.894531 103.183594 180.441406 101.476563 Z M 180.441406 101.476563 "/>
<path style=" stroke:none;fill-rule:evenodd;fill:rgb(98.046875%,75.78125%,0%);fill-opacity:1;" d="M 174.417969 161.828125 C 174.453125 161.332031 173.269531 159.4375 172.925781 159.070313 C 171.613281 157.671875 173.5 149.351563 173.8125 147.523438 C 174.050781 146.148438 172.496094 143.667969 172.648438 141.925781 C 172.832031 139.816406 172.664063 137.914063 173.6875 136.042969 C 174.164063 135.175781 175.226563 133.773438 175.347656 132.832031 C 175.371094 132.65625 175.386719 132.476563 175.394531 132.296875 C 175.425781 131.523438 175.359375 130.726563 175.355469 129.949219 C 175.34375 128.566406 175.460938 127.203125 175.648438 125.835938 C 176.054688 122.886719 177.039063 119.605469 178.507813 117 C 179.523438 115.199219 177.308594 109.21875 176.9375 107 C 176.410156 103.867188 176.921875 100.246094 180.777344 100.121094 C 185.011719 99.980469 185.46875 105.273438 185.703125 108.371094 C 185.875 110.71875 185.980469 115.867188 186.976563 117.859375 C 187.425781 118.753906 187.699219 119.65625 188.011719 120.601563 C 188.644531 122.507813 187.1875 125.308594 187.683594 127.019531 C 188.570313 130.109375 191.226563 131.964844 191.59375 135.355469 C 191.917969 138.347656 192.640625 141.304688 192.613281 144.332031 C 192.566406 150.410156 192.246094 158.449219 190.230469 164.1875 L 190.0625 164.671875 L 189.089844 165.0625 L 189.503906 163.925781 C 191.515625 158.296875 191.792969 150.300781 191.839844 144.324219 C 191.867188 141.34375 191.148438 138.394531 190.824219 135.4375 C 190.488281 132.335938 187.808594 130.257813 186.9375 127.234375 C 186.398438 125.347656 187.828125 122.5 187.277344 120.84375 C 186.976563 119.941406 186.714844 119.0625 186.285156 118.203125 C 185.210938 116.050781 185.117188 110.941406 184.929688 108.429688 C 184.738281 105.828125 184.4375 100.773438 180.800781 100.890625 C 177.476563 101 177.257813 104.246094 177.699219 106.871094 C 178.128906 109.445313 180.417969 115.183594 179.179688 117.382813 C 177.761719 119.898438 176.804688 123.089844 176.414063 125.941406 C 176.230469 127.269531 176.117188 128.597656 176.125 129.941406 C 176.132813 130.734375 176.199219 131.542969 176.164063 132.328125 C 176.15625 132.53125 176.140625 132.730469 176.113281 132.929688 C 175.964844 134.082031 174.925781 135.386719 174.367188 136.410156 C 173.394531 138.191406 173.589844 139.992188 173.417969 141.992188 C 173.277344 143.636719 174.867188 145.972656 174.574219 147.65625 C 174.332031 149.074219 172.542969 157.53125 173.488281 158.542969 C 174.03125 159.121094 175.398438 161.160156 175.164063 162.019531 L 175.085938 162.3125 C 174.457031 162.644531 174.355469 162.960938 174.214844 163.234375 Z M 174.417969 161.828125 "/>
<path style=" stroke:none;fill-rule:evenodd;fill:rgb(96.484375%,87.889099%,79.296875%);fill-opacity:1;" d="M 181.683594 113.441406 C 181.953125 114.222656 182.1875 114.261719 182.402344 115.058594 C 182.605469 115.808594 182.503906 116.835938 182.804688 117.550781 C 183.039063 118.113281 183.996094 119.820313 184.320313 120.335938 C 184.789063 120.148438 184.933594 118.886719 184.949219 117.902344 C 184.847656 117.617188 184.78125 117.675781 184.703125 117.378906 C 184.507813 116.652344 184.5625 115.460938 184.4375 114.722656 C 184.339844 114.148438 184.3125 113.707031 183.871094 113.171875 C 183.738281 113.011719 183.417969 112.527344 183.21875 112.421875 C 183.039063 112.332031 183.375 113.035156 182.945313 112.273438 C 182.800781 112.078125 182.445313 112.222656 182.554688 112.4375 C 182.585938 112.503906 183.125 113.488281 182.878906 113.394531 C 182.824219 113.363281 182.589844 112.816406 182.421875 112.574219 C 182.335938 112.445313 182.210938 112.300781 182.074219 112.519531 C 182.058594 112.546875 181.976563 112.726563 182.007813 112.835938 C 182.109375 113.164063 182.457031 113.644531 182.394531 113.746094 C 182.332031 113.960938 181.921875 112.863281 181.738281 113.078125 C 181.660156 113.175781 181.644531 113.328125 181.683594 113.441406 Z M 181.683594 113.441406 "/>
</g>
</svg>
