<?xml version="1.0" encoding="UTF-8"?>
<svg xmlns="http://www.w3.org/2000/svg" xmlns:xlink="http://www.w3.org/1999/xlink" width="398.2pt" height="567pt" viewBox="0 0 398.2 567" version="1.1">
<defs>
<clipPath id="clip1">
  <path d="M 0 0 L 398.199219 0 L 398.199219 567 L 0 567 Z M 0 0 "/>
</clipPath>
</defs>
<g id="surface1">
<g clip-path="url(#clip1)" clip-rule="nonzero">
<path style=" stroke:none;fill-rule:evenodd;fill:rgb(21.166992%,36.083984%,55.271912%);fill-opacity:1;" d="M 0.0390625 -0.0195313 L 98.394531 -0.0195313 L 98.394531 43.570313 L 149.980469 43.570313 L 149.980469 -0.0195313 L 248.410156 -0.0195313 L 248.410156 43.570313 L 299.996094 43.570313 L 299.996094 -0.0195313 L 398.234375 -0.0195313 L 398.234375 376.652344 C 398.234375 429.253906 372.667969 461.71875 329.820313 487.710938 L 199.34375 566.910156 L 69.421875 488.753906 C 31.46875 465.917969 0.0390625 434.570313 0.0390625 376.160156 Z M 0.0390625 -0.0195313 "/>
</g>
<path style=" stroke:none;fill-rule:evenodd;fill:rgb(100%,100%,100%);fill-opacity:1;" d="M 21.191406 133.765625 L 21.191406 376.160156 C 21.191406 421.902344 43.070313 448.21875 80.324219 470.628906 L 199.292969 542.199219 L 318.847656 469.628906 C 332.679688 461.238281 344.277344 452.582031 353.375 442.378906 C 368.539063 425.371094 376.769531 404.507813 376.839844 376.652344 C 377.007813 310.238281 338.699219 277.675781 314.367188 276.015625 C 327.265625 259.1875 326.148438 203.460938 310.746094 177.292969 C 294.355469 149.433594 265.011719 133.765625 220.335938 133.765625 L 110.320313 133.765625 C 110.3125 167.050781 137.027344 189.035156 167.398438 189.035156 L 228.222656 189.035156 C 255.652344 189.035156 267.992188 210.058594 268.308594 231.082031 C 268.464844 241.566406 266.773438 252.433594 261.101563 260.492188 C 255.777344 268.0625 246.246094 272.929688 237.175781 272.949219 L 142.863281 273.164063 C 146.445313 311.554688 173.472656 325.160156 197.777344 325.046875 L 261.992188 324.753906 C 274.339844 324.695313 288.75 326.78125 300.167969 334.480469 C 309.933594 341.066406 317.765625 351.898438 320 367.539063 C 320.898438 373.816406 320.957031 381.640625 320.78125 389.804688 C 320.40625 407.125 307.710938 414.3125 294.964844 422.058594 L 199.082031 479.851563 L 94.910156 415.734375 C 84.347656 409.234375 77.808594 402.46875 77.808594 390.050781 L 77.808594 133.765625 Z M 21.191406 133.765625 "/>
<path style=" stroke:none;fill-rule:evenodd;fill:rgb(100%,100%,100%);fill-opacity:1;" d="M 21.191406 25.066406 L 21.191406 100.289063 L 226.386719 100.507813 C 259.933594 100.546875 298.707031 109.761719 326.8125 140.71875 C 344.058594 159.71875 358.367188 193.914063 357.730469 232.90625 L 357.335938 257.050781 L 377.085938 244.589844 L 377.085938 25.066406 L 320.535156 25.066406 L 320.535156 67.65625 L 227.679688 67.65625 L 227.679688 25.066406 L 170.664063 25.066406 L 170.664063 67.65625 L 77.214844 67.65625 L 77.214844 25.066406 Z M 21.191406 25.066406 "/>
</g>
</svg>
