<?xml version="1.0" encoding="UTF-8" standalone="no"?>
<!-- Created with Inkscape (http://www.inkscape.org/) -->

<svg
   xmlns:dc="http://purl.org/dc/elements/1.1/"
   xmlns:cc="http://creativecommons.org/ns#"
   xmlns:rdf="http://www.w3.org/1999/02/22-rdf-syntax-ns#"
   xmlns:svg="http://www.w3.org/2000/svg"
   xmlns="http://www.w3.org/2000/svg"
   xmlns:sodipodi="http://sodipodi.sourceforge.net/DTD/sodipodi-0.dtd"
   xmlns:inkscape="http://www.inkscape.org/namespaces/inkscape"
   width="700mm"
   height="700mm"
   viewBox="0 0 700 700"
   version="1.1"
   id="svg2819"
   inkscape:version="0.92.4 (5da689c313, 2019-01-14)"
   sodipodi:docname="cs-maritimo-logo.svg"
   inkscape:export-filename="C:\Users\suitedoalex\sites\sc-maritimo-logo-0.png"
   inkscape:export-xdpi="148.6263"
   inkscape:export-ydpi="148.6263">
  <defs
     id="defs2813">
    <clipPath
       clipPathUnits="userSpaceOnUse"
       id="clipPath34-4">
      <path
         d="m 27.53,739.797 h 51.611 v 70.637 H 27.53 Z"
         id="path36-6"
         inkscape:connector-curvature="0" />
    </clipPath>
  </defs>
  <sodipodi:namedview
     id="base"
     pagecolor="#ffffff"
     bordercolor="#666666"
     borderopacity="1.0"
     inkscape:pageopacity="0.0"
     inkscape:pageshadow="2"
     inkscape:zoom="0.0875"
     inkscape:cx="43.691439"
     inkscape:cy="1750.1868"
     inkscape:document-units="mm"
     inkscape:current-layer="layer1"
     showgrid="false"
     inkscape:window-width="1600"
     inkscape:window-height="837"
     inkscape:window-x="-8"
     inkscape:window-y="-8"
     inkscape:window-maximized="1" />
  <metadata
     id="metadata2816">
    <rdf:RDF>
      <cc:Work
         rdf:about="">
        <dc:format>image/svg+xml</dc:format>
        <dc:type
           rdf:resource="http://purl.org/dc/dcmitype/StillImage" />
        <dc:title></dc:title>
      </cc:Work>
    </rdf:RDF>
  </metadata>
  <g
     inkscape:label="Layer 1"
     inkscape:groupmode="layer"
     id="layer1"
     transform="translate(0,403)">
    <g
       id="g257"
       transform="matrix(3.9680441,0,0,-3.9680441,-1188.7241,1988.527)"
       style="paint-order:stroke markers fill"
       inkscape:export-filename="C:\Users\suitedoalex\sites\sc-maritimo-logo-4.png"
       inkscape:export-xdpi="25.201654"
       inkscape:export-ydpi="25.201654">
      <g
         transform="matrix(3.3976612,0,0,3.3976612,213.74145,-2092.2675)"
         id="g30"
         style="paint-order:stroke fill markers">
        <g
           clip-path="url(#clipPath34-4)"
           id="g32"
           style="paint-order:stroke fill markers">
          <g
             transform="matrix(0.1230469,0,0,-0.1231079,53.335419,775.11597)"
             id="g38"
             style="stroke:#ff00ff;stroke-width:8.32861328;stroke-linecap:round;stroke-linejoin:miter;stroke-miterlimit:4;stroke-dasharray:none;paint-order:stroke fill markers">
            <g
               transform="translate(0.0697,-226.5254)"
               id="g40"
               style="stroke:#ff00ff;stroke-width:8.32861328;stroke-linecap:round;stroke-linejoin:miter;stroke-miterlimit:4;stroke-dasharray:none;paint-order:stroke fill markers">
              <g
                 transform="matrix(0.55222167,0,0,0.55222167,-17.237916,290.65037)"
                 id="g26"
                 style="fill:#006637;fill-opacity:1;stroke:#ffffff;stroke-width:15.08201122;stroke-miterlimit:4;stroke-dasharray:none;stroke-opacity:1;paint-order:stroke markers fill">
                <path
                   inkscape:connector-curvature="0"
                   id="path28"
                   style="fill:#006637;fill-opacity:1;fill-rule:nonzero;stroke:#ffffff;stroke-width:15.08201122;stroke-miterlimit:4;stroke-dasharray:none;stroke-opacity:1;paint-order:stroke markers fill"
                   d="m -150.321,220.65 h 294.122 v 66.243 h -294.122 z" />
              </g>
              <path
                 inkscape:connector-curvature="0"
                 id="path42"
                 style="fill:#006637;fill-opacity:1;fill-rule:evenodd;stroke:#ffffff;stroke-width:8.32861328;stroke-linecap:round;stroke-linejoin:miter;stroke-miterlimit:4;stroke-dasharray:none;paint-order:stroke fill markers"
                 d="m -17.199416,165.55806 c -60.291014,-0.0762 -92.045414,38.82173 -92.045414,38.82173 l -23.80904,-23.53126 c 0,0 41.943998,-48.65019 115.854454,-48.62754 73.908248,0.0249 115.777698,48.62754 115.777698,48.62754 l -23.771487,23.53126 c 0,0 -31.71686,-38.74441 -92.006211,-38.82173" />
              <g
                 transform="matrix(0.55222167,0,0,0.55222167,-17.2379,290.65029)"
                 id="g44"
                 style="fill:#006637;fill-opacity:1;stroke:#ffffff;stroke-width:15.08201122;stroke-miterlimit:4;stroke-dasharray:none;paint-order:stroke fill markers">
                <g
                   transform="translate(-141.075,-5.649)"
                   id="g46"
                   style="fill:#006637;fill-opacity:1;stroke:#ffffff;stroke-width:15.08201122;stroke-miterlimit:4;stroke-dasharray:none;paint-order:stroke fill markers">
                  <path
                     inkscape:connector-curvature="0"
                     id="path48"
                     style="fill:#006637;fill-opacity:1;fill-rule:evenodd;stroke:#ffffff;stroke-width:15.08201122;stroke-miterlimit:4;stroke-dasharray:none;paint-order:stroke fill markers"
                     d="m 0,0 c -0.03,-77.063 62.705,-139.786 139.848,-139.82 37.603,-0.016 72.895,14.659 99.379,41.326 26.154,26.335 40.569,61.272 40.587,98.369 0.026,77.066 -62.709,139.787 -139.853,139.818 -37.6,0.018 -72.892,-14.659 -99.379,-41.327 C 14.427,72.033 0.014,37.1 0,0" />
                </g>
              </g>
              <g
                 transform="matrix(0.55222167,0,0,0.55222167,-17.2379,290.65029)"
                 id="g50"
                 style="stroke-width:15.08201122;stroke-miterlimit:4;stroke-dasharray:none;paint-order:stroke fill markers">
                <g
                   transform="translate(-43.6613,58.67)"
                   id="g52"
                   style="stroke-width:15.08201122;stroke-miterlimit:4;stroke-dasharray:none;paint-order:stroke fill markers">
                  <path
                     inkscape:connector-curvature="0"
                     id="path54"
                     style="fill:#ffffff;fill-opacity:1;fill-rule:evenodd;stroke:none;stroke-width:15.08201122;stroke-miterlimit:4;stroke-dasharray:none;paint-order:stroke fill markers"
                     d="m 0,0 c 0,-18.816 -15.25,-34.066 -34.062,-34.066 -18.813,0 -34.062,15.25 -34.062,34.066 0,18.809 15.249,34.059 34.062,34.059 C -15.25,34.059 0,18.809 0,0" />
                </g>
              </g>
              <g
                 transform="matrix(0.55222167,0,0,0.55222167,-17.2379,290.65029)"
                 id="g56"
                 style="stroke-width:15.08201122;stroke-miterlimit:4;stroke-dasharray:none;paint-order:stroke fill markers">
                <g
                   transform="translate(-48.2253,-51.1291)"
                   id="g58"
                   style="fill:#006637;fill-opacity:1;stroke-width:15.08201122;stroke-miterlimit:4;stroke-dasharray:none;paint-order:stroke fill markers">
                  <path
                     inkscape:connector-curvature="0"
                     id="path60"
                     style="fill:#006637;fill-opacity:1;fill-rule:evenodd;stroke:none;stroke-width:15.08201122;stroke-miterlimit:4;stroke-dasharray:none;paint-order:stroke fill markers"
                     d="m 0,0 v 0 c -0.891,-0.871 -2.373,-2.751 -2.289,-5.55 0.174,-5.844 5.45,-13.954 13.65,-13.887 1.612,0.012 3.667,0.608 5.97,1.33 0.051,0.34 0.14,0.921 0.14,0.921 0.226,1.338 0.371,2.832 0.371,3.711 0,0.235 -0.011,0.426 -0.032,0.559 0,0 -0.654,3.896 -0.759,4.522 -0.963,-1.131 -2.701,-3.169 -2.701,-3.169 l -0.95,6.037 c -0.408,2.596 -1.552,4.87 -1.682,5.12 0,0 -0.534,1.011 -0.701,1.326 C 10.635,0.975 9.044,1.205 9.044,1.205 L 3.72,1.83 C 2.677,1.881 1.168,1.145 0,0 m -29.593,-70.499 c 0,0 -4.642,3.677 -4.736,3.751 -0.021,-0.017 -0.242,0.028 -0.242,0.028 l -2.784,0.705 c -5.717,1.94 -10.092,5.517 -11.997,9.813 0,0 -0.808,1.82 -1.032,2.322 -2.993,-0.374 -4.878,-1.084 -4.896,-1.092 l -3.176,-1.25 -0.628,3.348 c 0,0.004 -0.293,3.243 -0.293,3.243 0,1.534 0.242,3.125 0.703,4.927 -0.076,0.036 -0.168,0.082 -0.168,0.082 -6.753,3.28 -9.671,8.538 -10.927,12.371 -0.713,2.172 -1.075,4.403 -1.075,6.63 0,2.553 0.507,4.979 1.386,6.659 0,0 1.032,1.958 1.087,2.064 -4.893,4.291 -12.823,13.186 -12.823,25.786 l 0.22,3.58 0.748,6.139 4.132,-4.602 c 0.859,-0.958 1.867,-1.894 3.014,-2.849 -6.331,7.628 -10.478,16.267 -11.04,23.834 l -0.072,1.883 c 0,5.821 2.104,10.824 6.083,14.467 l 3.138,2.868 1.41,-4.008 c 1.785,-5.069 4.187,-9.238 7.215,-12.865 -5.29,7.866 -8.745,17.826 -8.745,26.43 0,4.319 0.817,7.96 2.432,10.818 0,0 0.472,0.838 0.653,1.156 -2.053,2.941 -3.409,7.486 -3.409,10.997 0,0.978 0.104,1.863 0.321,2.618 0.702,2.414 1.641,3.989 2.328,5.147 l 0.679,1.298 c 0.055,0.295 0.081,0.599 0.081,0.929 0,1.096 -0.283,2.373 -0.56,3.611 -0.287,1.29 -0.555,2.495 -0.555,3.673 0,0.276 0.014,0.551 0.047,0.827 0.21,1.743 0.889,3.127 1.953,4.193 -0.028,0.27 -0.148,1.569 -0.148,1.569 -0.012,0.132 -0.018,0.281 -0.018,0.438 0,2.582 1.557,8.134 9.054,8.829 l 6.256,0.581 c 0,0 -0.164,-0.221 -0.325,-0.443 1.91,0.443 3.814,0.467 5.668,-0.209 l 2.474,-0.917 -0.755,-2.522 c -0.78,-2.617 -1.754,-4.284 -2.512,-5.345 0.842,-0.766 1.338,-1.832 1.338,-2.963 0,0 -0.01,-0.079 -0.013,-0.102 0.231,0.007 0.38,0.018 0.549,0.023 1.677,2.84 6.359,5.572 11.021,5.212 l 3.859,-0.294 -1.747,-4.06 -0.532,-1.294 c -0.676,-1.779 -1.705,-4.487 -3.609,-6.416 0,0 -0.454,-0.396 -0.662,-0.569 -0.042,-0.288 -0.261,-1.785 -0.261,-1.785 0,0 -0.043,-0.15 -0.104,-0.359 1.923,1.933 4.633,3.049 6.503,3.75 l 4.595,1.778 0.204,-3.923 c 0.006,-0.211 0.009,-0.407 0.009,-0.605 0,-7.164 -3.898,-10.16 -5.442,-11.065 -0.005,-0.34 -0.013,-1.095 -0.013,-1.095 -0.023,-1.642 -0.939,-3.313 -2.57,-5.074 1.314,-0.479 2.425,-1.24 3.278,-2.443 0,0 0.244,-0.348 0.409,-0.582 1.904,0.084 3.687,0.257 4.713,1.281 l 5.661,5.667 -0.884,-7.96 c 0,0 -0.395,-1.522 -0.637,-2.456 5.56,0.342 10.705,2.869 10.93,2.984 0,0 4.704,2.437 4.96,2.568 2.18,6.314 6.265,11.412 12.054,14.653 0,0 2.534,1.419 2.926,1.635 0.02,0.521 0.292,7.303 0.292,7.303 l 0.129,4.833 c -0.721,6.152 -2.622,16.909 -4.151,25.56 l -1.694,9.823 c -0.432,2.738 -1.455,4.541 -2.883,5.074 -1.481,0.558 -3.554,-0.101 -5.546,-1.773 l -0.794,-0.665 c -5.144,-4.331 -11.53,-9.626 -18.306,-4.475 -0.076,-0.06 -0.33,-0.264 -0.33,-0.264 l -1.299,0.295 c -2.633,0.574 -7.386,3.12 -6.531,8.578 l 0.423,2.706 2.716,-0.352 c 1.443,-0.193 2.787,-0.491 3.762,-0.791 -0.203,0.175 -0.491,0.263 -0.667,0.463 -1.386,1.538 -1.993,3.581 -1.993,5.521 0,1.726 0.48,3.366 1.317,4.493 l 2.079,2.809 c 0,0 2.559,-2.935 2.561,-2.935 10e-4,0 0.652,-0.658 0.652,-0.658 l 2.865,-1.193 c 0.039,-0.017 0.886,-0.79 1.394,-1.251 0.096,0.09 0.2,0.186 0.2,0.186 0,0 0.293,0.167 0.577,0.334 -1.167,1.678 -1.969,3.984 -1.969,6.049 v 0.175 c 0.045,2.204 0.923,3.96 2.468,4.949 l 2.175,1.39 1.566,-2.056 c 0,0 0.786,-0.971 1.192,-1.474 0.429,0.258 1.259,0.761 1.259,0.761 1.578,0.947 4.106,1.349 7.782,1.851 1.556,0.215 3.686,0.503 4.287,0.755 6.052,2.576 10.814,1.467 12.733,-2.952 0.782,-1.804 1.004,-1.763 2.071,-1.589 0.908,0.156 3.325,0.569 4.654,-1.684 9.978,-16.903 16.046,-32.574 18.431,-39.264 0.28,0.389 0.565,0.778 0.565,0.778 l 2.383,4.59 2.551,-4.499 c 0.745,-1.314 1.12,-3.085 1.12,-5.272 0,-1.636 -0.25,-3.51 -0.709,-5.738 2.053,0.472 4.009,0.394 5.929,-0.414 l 5.285,-2.21 c 0,0 -3.209,-1.816 -4.227,-2.391 2.027,-0.203 3.654,-0.784 4.606,-1.97 l 2.647,-3.295 -4.06,-1.162 c -0.315,-0.089 -1.076,-0.766 -1.883,-1.689 13.018,3.271 16.302,-0.694 16.631,-1.167 l 2.039,-2.942 c 0,0 -2.357,-0.904 -2.947,-1.133 2.828,-0.395 5.187,-1.035 6.868,-2.118 0,0 0.131,-0.092 0.245,-0.168 0.175,0.303 0.359,0.622 0.359,0.622 0.028,0.053 3.005,5.013 12.452,8.045 0.044,0.359 0.141,1.107 0.141,1.107 1.517,11.705 10.746,20.462 16.286,24.757 0,0.006 -0.005,0.031 -0.005,0.031 -1.9,7.086 -10.257,17.455 -21.996,22.713 -10.218,4.572 -15.44,9.353 -16.45,15.048 l -0.306,1.762 c 0.014,-0.102 -0.14,0.1 -0.14,0.1 -0.862,1.361 -1.782,3.696 -1.782,6.164 0,2.504 0.899,4.649 2.671,6.375 l 2.727,2.659 1.736,-3.396 c 1.111,-2.175 1.857,-2.732 1.959,-2.798 0.481,-0.101 1.301,-0.275 1.301,-0.275 0,0 0.13,-0.426 0.152,-0.496 0.455,0.922 1.49,3.03 1.49,3.03 0,0 0.777,-2.019 1.122,-2.917 0.458,1.216 1.082,2.294 2.011,3.067 l 3.211,2.648 1.256,-3.966 c 0.362,-1.145 1.105,-2.69 1.351,-2.978 -0.022,0.025 0.42,-0.526 0.812,-1.005 0.224,0.593 0.647,1.712 0.647,1.712 l 2.682,-1.119 c 1.959,-0.821 3.507,-2.312 3.676,-2.48 0,0 0.093,-0.091 0.174,-0.167 1.021,0.802 2.18,1.371 3.497,1.603 l 3.846,0.684 -0.576,-3.864 c -0.08,-0.538 -0.112,-1.018 -0.112,-1.437 0,-0.564 0.097,-0.808 0.167,-1.156 0.051,-0.019 1.717,-0.516 1.717,-0.516 3.804,-1.132 9.194,-5.625 12.007,-9.13 0.793,-0.993 1.279,-1.981 1.581,-2.958 1.447,1.258 3.642,2.468 6.694,2.125 0,0 1.998,-0.219 2.234,-0.244 0.23,0.113 0.999,0.486 0.999,0.486 l 3.191,1.192 0.56,-3.361 c 0.558,-3.341 1.848,-5.361 1.857,-5.385 0,0 0.292,-0.431 0.522,-0.784 0.008,0.006 0.688,0.478 0.688,0.478 0,0 0.192,-1.456 0.278,-2.113 0.295,0.91 0.455,1.867 0.992,2.683 1.359,2.047 3.154,3.222 4.931,3.222 l 4.671,-0.013 -2.204,-4.121 c -0.639,-1.197 0.32,-3.479 0.853,-4.342 l -0.158,0.396 1.572,-0.175 c 7.727,-0.88 26.659,-25.008 29.493,-40.128 0.765,-4.085 1.144,-7.463 1.144,-10.303 0,-3.797 -0.677,-6.613 -2.064,-8.601 -1.953,-2.809 -4.684,-3.283 -6.497,-3.595 l -0.529,-0.089 c -1.426,-0.275 -1.929,-0.815 -2.228,-1.305 -0.428,-0.708 -0.648,-1.756 -0.648,-3.121 0,-1.978 0.466,-4.559 1.391,-7.668 l 1.178,-3.624 c 1.595,-4.732 3.584,-10.621 3.584,-16.584 0,-2.939 -0.558,-5.792 -1.655,-8.479 0.035,0.199 0.156,-2.484 0.156,-2.484 -0.31,-3.224 -2.116,-6.422 -5.232,-9.571 0.036,0.005 1.208,0.145 1.208,0.145 l -3.55,-5.134 c -1.053,-1.524 -2.627,-3.135 -4.635,-4.87 1.055,-0.197 2.077,-0.403 2.85,-0.845 3.115,-1.784 5.061,-5.223 6.505,-11.506 l 0.423,-3.689 c 0,-11.746 -12.255,-21.286 -19.112,-23.326 -10.838,-3.223 -21.662,-2.297 -31.218,-1.482 -5.103,0.437 -9.918,0.847 -14.073,0.553 -9.173,-0.647 -15.653,-4.281 -17.773,-9.972 -1.35,-3.627 -0.547,-7.519 2.103,-10.151 3.705,-3.691 10.031,-4.234 17.384,-1.563 -0.018,0.116 -0.071,0.433 -0.071,0.433 0,2.326 0.614,4.667 1.778,6.766 2.11,3.813 5.856,6.58 10.015,7.404 3.92,0.775 5.695,0.269 7.256,-0.177 0.007,-0.002 3.026,-0.429 3.026,-0.429 1.657,0.04 2.458,0.668 3.668,1.62 1.859,1.46 4.658,3.663 10.217,1.495 l 3.864,-1.507 c 0,0 -0.54,-0.579 -0.554,-0.592 1.344,0.041 2.66,-0.216 4.127,-0.635 l 8,-1.797 -1.039,-3.091 c -0.379,-0.925 -0.881,-1.669 -1.396,-2.418 0.158,-10e-4 0.318,-10e-4 0.318,-10e-4 l -0.928,-3.494 c -2.052,-7.726 -7.489,-9 -11.455,-9.932 -1.437,-0.336 -2.791,-0.652 -3.655,-1.209 l -2.071,-1.823 c -2.359,-2.248 -5.61,-5.336 -9.853,-5.979 -5.204,-0.788 -11.658,0.086 -14.557,4.693 -14.438,-4.783 -26.582,-3.523 -34.203,3.602 -6.351,5.939 -8.469,15.299 -5.392,23.847 3.631,10.088 13.316,16.569 25.908,17.336 0.024,0.001 13.485,0.157 13.485,0.157 11.266,-0.057 26.67,-0.135 32.371,2.388 5.306,2.35 7.232,6.252 6.778,9.081 -0.464,2.941 -3.502,4.979 -8.121,5.455 -1.156,0.118 -4.066,-0.445 -7.141,-1.043 -9.937,-1.923 -26.564,-5.141 -45.282,0.157 -18.746,5.306 -43.985,8.15 -58.696,2.764 1.908,-1.564 3.288,-3.511 3.913,-5.936 l 0.425,-1.648 -1.265,-1.14 c 0,0 -0.128,-0.109 -0.255,-0.217 0.227,-0.196 0.453,-0.392 0.453,-0.392 0.647,-0.965 1.339,-2.684 1.339,-4.772 0,-1.213 -0.235,-2.552 -0.851,-3.937 l -2.072,-4.656 c 0,0 -5.299,7.937 -6.038,9.044 0.013,-0.192 0.055,-0.385 0.055,-0.574 0,-3.596 -2.579,-6.741 -2.909,-7.126 0,0 -0.407,-0.477 -0.569,-0.668 0.116,-0.068 4.236,-2.437 4.236,-2.437 3.842,-2.21 4.72,-5.473 4.807,-5.84 0,0 0.027,-0.11 0.048,-0.202 1.162,0.03 2.188,-0.128 3.18,-0.357 -0.018,0.318 -0.041,0.615 -0.041,0.985 0,0.869 0.059,1.861 0.237,2.863 l 0.749,4.212 3.568,-2.361 c 3.331,-2.205 3.942,-4.949 4,-5.253 l 0.006,0.013 c 2.226,-0.978 3.75,-3.199 4.182,-6.096 0.531,-3.561 -0.65,-7.376 -2.869,-9.281 l -1.634,-1.4 -1.975,1.361 c 0,0 -0.417,0.284 -0.741,0.506 -0.48,-0.665 -0.957,-1.256 -1.427,-1.759 0.04,-0.046 0.211,-0.238 0.211,-0.238 l 3.013,-3.904 -0.234,-0.288 c -6.049,-7.401 -9.3,-8.388 -11.671,-9.109 -1.068,-0.324 -1.426,-0.432 -2.084,-1.191 l -1.435,-1.688 c -3.14,-3.742 -5.216,-6.213 -14.346,-10.165 -0.031,-0.013 -0.619,-0.173 -0.67,-0.186 -0.103,-0.451 -0.562,-2.496 -0.562,-2.496 -0.901,-4.033 -4.732,-11.296 -12.753,-9.918 0,0 -1.112,0.189 -1.345,0.231 -9.31,-5.963 -16.983,-2.732 -21.788,1.078" />
                </g>
              </g>
              <g
                 transform="matrix(0.55222167,0,0,0.55222167,-17.2379,290.65029)"
                 id="g62"
                 style="stroke-width:15.08201122;stroke-miterlimit:4;stroke-dasharray:none;paint-order:stroke fill markers">
                <g
                   transform="translate(-86.7193,-91.135)"
                   id="g64"
                   style="stroke-width:15.08201122;stroke-miterlimit:4;stroke-dasharray:none;paint-order:stroke fill markers">
                  <path
                     inkscape:connector-curvature="0"
                     id="path66"
                     style="fill:#ffffff;fill-opacity:1;fill-rule:evenodd;stroke:none;stroke-width:15.08201122;stroke-miterlimit:4;stroke-dasharray:none;paint-order:stroke fill markers"
                     d="m 0,0 c -3.698,4.357 -6.238,8.956 -11.283,12.273 -4.904,3.224 -12.584,5.562 -17.192,7.462 -2.268,-4.316 -1.683,-16.46 9.355,-21.826 0,0 3.739,7.342 7.471,7.487 0,0 -7.901,-8.412 -6.178,-17.752 0,0 4.13,1.657 10.128,1.512 3.153,-0.077 13.169,0.292 15.757,3.957 -2.402,1.396 -4.316,2.956 -5.958,4.597 0,0 -6.653,-5.774 -13.182,-5.068 C -2.797,-5.066 0,0 0,0" />
                </g>
              </g>
              <g
                 transform="matrix(0.55222167,0,0,0.55222167,-17.2379,290.65029)"
                 id="g68"
                 style="stroke-width:15.08201122;stroke-miterlimit:4;stroke-dasharray:none;paint-order:stroke fill markers">
                <g
                   transform="translate(28.1397,45.3409)"
                   id="g70"
                   style="stroke-width:15.08201122;stroke-miterlimit:4;stroke-dasharray:none;paint-order:stroke fill markers">
                  <path
                     inkscape:connector-curvature="0"
                     id="path72"
                     style="fill:#ffffff;fill-opacity:1;fill-rule:evenodd;stroke:none;stroke-width:15.08201122;stroke-miterlimit:4;stroke-dasharray:none;paint-order:stroke fill markers"
                     d="m 0,0 c 7.252,-4.151 25.491,-24.924 41.553,-14.652 -0.529,11.892 3.271,12.694 3.271,12.694 0.59,-0.288 0.609,-0.946 0.609,-0.946 0,0 1.004,5.559 2.11,7.157 -9.298,15.522 2.041,24.081 3.612,25.729 -11.814,6.762 -19.316,10.303 -17.164,20.462 0.227,1.078 -3.154,4.06 -0.015,8.716 1.122,1.652 -0.218,3.468 -0.875,4.288 -2.758,3.439 -7.661,7.321 -10.624,8.201 -2.303,-3.223 -6.131,-4.524 -6.131,-4.524 0,0 -2.393,-4.186 4.853,-8.846 -5.123,-0.683 -8.488,5.829 -8.868,9.59 -1.594,3.774 -0.911,7.152 0.271,9.314 0,0 -1.282,1.265 -2.79,1.894 -2.589,-6.847 -6.95,-7.021 -6.95,-7.021 0,0 -1.491,-5.312 5.178,-7.9 -8.571,-1 -9.249,8.84 -9.266,10.26 -0.012,1.42 -1.293,4.798 -1.293,4.798 0,0 -2.036,-4.277 -6.718,-5.625 0.731,-4.138 4.738,-8.452 14.828,-12.968 13.071,-5.852 21.568,-17.119 23.562,-24.56 1.507,-0.023 3.163,-0.023 3.163,-0.023 0,0 -17.358,-10.338 -19.371,-25.842 0,0 3.569,-0.203 5.176,-1.754 C 3.738,6.482 0,0 0,0" />
                </g>
              </g>
              <g
                 transform="matrix(0.55222167,0,0,0.55222167,-17.2379,290.65029)"
                 id="g74"
                 style="stroke-width:15.08201122;stroke-miterlimit:4;stroke-dasharray:none;paint-order:stroke fill markers">
                <g
                   transform="translate(-27.9823,-68.7791)"
                   id="g76"
                   style="stroke-width:15.08201122;stroke-miterlimit:4;stroke-dasharray:none;paint-order:stroke fill markers">
                  <path
                     inkscape:connector-curvature="0"
                     id="path78"
                     style="fill:#ffffff;fill-opacity:1;fill-rule:evenodd;stroke:none;stroke-width:15.08201122;stroke-miterlimit:4;stroke-dasharray:none;paint-order:stroke fill markers"
                     d="M 0,0 C 0,0 0.609,3.58 0.338,5.198 3.249,3.525 3.812,1.147 3.812,1.147 1.675,0.563 0,0 0,0" />
                </g>
              </g>
              <g
                 transform="matrix(0.55222167,0,0,0.55222167,-17.2379,290.65029)"
                 id="g80"
                 style="stroke-width:15.08201122;stroke-miterlimit:4;stroke-dasharray:none;paint-order:stroke fill markers">
                <g
                   transform="translate(-15.3333,-68.4731)"
                   id="g82"
                   style="stroke-width:15.08201122;stroke-miterlimit:4;stroke-dasharray:none;paint-order:stroke fill markers">
                  <path
                     inkscape:connector-curvature="0"
                     id="path84"
                     style="fill:#ffffff;fill-opacity:1;fill-rule:evenodd;stroke:none;stroke-width:15.08201122;stroke-miterlimit:4;stroke-dasharray:none;paint-order:stroke fill markers"
                     d="m 0,0 c 0,0 0.987,0.074 1.651,0.166 0.653,0.163 1.229,0.675 1.229,0.675 0,0 -0.357,1.83 -2.794,3.445 C -0.293,2.158 0,0 0,0" />
                </g>
              </g>
              <g
                 transform="matrix(0.55222167,0,0,0.55222167,-17.2379,290.65029)"
                 id="g86"
                 style="stroke-width:15.08201122;stroke-miterlimit:4;stroke-dasharray:none;paint-order:stroke fill markers">
                <g
                   transform="translate(-34.0253,-50.2201)"
                   id="g88"
                   style="stroke-width:15.08201122;stroke-miterlimit:4;stroke-dasharray:none;paint-order:stroke fill markers">
                  <path
                     inkscape:connector-curvature="0"
                     id="path90"
                     style="fill:#ffffff;fill-opacity:1;fill-rule:evenodd;stroke:none;stroke-width:15.08201122;stroke-miterlimit:4;stroke-dasharray:none;paint-order:stroke fill markers"
                     d="M 0,0 C 0,0 3.291,-0.039 4.133,0.145 4.717,-2.78 1.975,-5.998 1.975,-5.998 1.465,-2.743 0,0 0,0" />
                </g>
              </g>
              <g
                 transform="matrix(0.55222167,0,0,0.55222167,-17.2379,290.65029)"
                 id="g92"
                 style="stroke-width:15.08201122;stroke-miterlimit:4;stroke-dasharray:none;paint-order:stroke fill markers">
                <g
                   transform="translate(-24.7143,-48.7921)"
                   id="g94"
                   style="stroke-width:15.08201122;stroke-miterlimit:4;stroke-dasharray:none;paint-order:stroke fill markers">
                  <path
                     inkscape:connector-curvature="0"
                     id="path96"
                     style="fill:#ffffff;fill-opacity:1;fill-rule:evenodd;stroke:none;stroke-width:15.08201122;stroke-miterlimit:4;stroke-dasharray:none;paint-order:stroke fill markers"
                     d="m 0,0 c 0,0 2.721,0.841 3.015,1.132 0,0 1.683,-2.56 0.186,-5.925 C 1.919,-2.671 0,0 0,0" />
                </g>
              </g>
              <g
                 transform="matrix(0.55222167,0,0,0.55222167,-17.2379,290.65029)"
                 id="g98"
                 style="stroke-width:15.08201122;stroke-miterlimit:4;stroke-dasharray:none;paint-order:stroke fill markers">
                <g
                   transform="translate(-88.0613,19.076)"
                   id="g100"
                   style="stroke-width:15.08201122;stroke-miterlimit:4;stroke-dasharray:none;paint-order:stroke fill markers">
                  <path
                     inkscape:connector-curvature="0"
                     id="path102"
                     style="fill:#ffffff;fill-opacity:1;fill-rule:evenodd;stroke:none;stroke-width:15.08201122;stroke-miterlimit:4;stroke-dasharray:none;paint-order:stroke fill markers"
                     d="m 0,0 c -3.576,-0.049 -5.26,3.533 -9.502,3.024 -7.491,-0.904 -12.333,-2.929 -19.314,2.851 -2.561,2.121 -4.694,9.219 -3.744,12.49 1.038,3.575 2.693,5.026 3.012,6.528 0.732,3.44 -1.177,7.112 -0.901,9.406 0.461,3.839 3.543,3.516 3.543,3.516 0,0 -0.008,-5.967 2.179,-6.823 -1.164,6.853 3.134,8.105 3.134,8.105 0,0 1.921,-3.008 8.106,-0.336 0.546,-0.478 0.407,-1.079 0.407,-1.079 0,0 -8.056,-5.984 -4.426,-11.817 0.98,8.763 7.051,9.057 7.051,9.057 0,0 0.807,-5.931 6.027,-5.955 -0.685,-4.66 -5.587,-6.704 -6.266,-9.182 3.166,0.065 6.742,2.898 6.742,2.898 0,0 0.376,-5.469 5.246,-5.599 C 1.251,14.142 -4.308,10.632 -6.948,8.709 -5.26,8.433 -0.138,11.657 2.52,7.9 0.08,5.289 0,0 0,0" />
                </g>
              </g>
              <g
                 transform="matrix(0.55222167,0,0,0.55222167,-17.2379,290.65029)"
                 id="g104"
                 style="stroke-width:15.08201122;stroke-miterlimit:4;stroke-dasharray:none;paint-order:stroke fill markers">
                <g
                   transform="translate(-116.6936,59.7009)"
                   id="g106"
                   style="stroke-width:15.08201122;stroke-miterlimit:4;stroke-dasharray:none;paint-order:stroke fill markers">
                  <path
                     inkscape:connector-curvature="0"
                     id="path108"
                     style="fill:#ffffff;fill-opacity:1;fill-rule:evenodd;stroke:none;stroke-width:15.08201122;stroke-miterlimit:4;stroke-dasharray:none;paint-order:stroke fill markers"
                     d="M 0,0 C 0,0 -0.44,5.594 6.494,6.24 5.449,4.827 4.791,1.868 4.791,1.868 c 0,0 -0.22,-1.354 -2.23,-1.575 C 1.681,0.22 0,0 0,0" />
                </g>
              </g>
              <g
                 transform="matrix(0.55222167,0,0,0.55222167,-17.2379,290.65029)"
                 id="g110"
                 style="stroke-width:15.08201122;stroke-miterlimit:4;stroke-dasharray:none;paint-order:stroke fill markers">
                <g
                   transform="translate(-102.6843,60.5439)"
                   id="g112"
                   style="stroke-width:15.08201122;stroke-miterlimit:4;stroke-dasharray:none;paint-order:stroke fill markers">
                  <path
                     inkscape:connector-curvature="0"
                     id="path114"
                     style="fill:#ffffff;fill-opacity:1;fill-rule:evenodd;stroke:none;stroke-width:15.08201122;stroke-miterlimit:4;stroke-dasharray:none;paint-order:stroke fill markers"
                     d="M 0,0 C -0.623,-0.623 -3.218,-0.994 -4.244,-0.916 -6.695,-0.736 -6.522,1.9 -5.926,2.78 -4.938,4.242 -1.316,7.021 2.853,5.488 1.901,2.301 0.621,0.618 0,0" />
                </g>
              </g>
              <g
                 transform="matrix(0.55222167,0,0,0.55222167,-17.2379,290.65029)"
                 id="g116"
                 style="stroke-width:15.08201122;stroke-miterlimit:4;stroke-dasharray:none;paint-order:stroke fill markers">
                <g
                   transform="translate(-95.6613,54.9799)"
                   id="g118"
                   style="stroke-width:15.08201122;stroke-miterlimit:4;stroke-dasharray:none;paint-order:stroke fill markers">
                  <path
                     inkscape:connector-curvature="0"
                     id="path120"
                     style="fill:#ffffff;fill-opacity:1;fill-rule:evenodd;stroke:none;stroke-width:15.08201122;stroke-miterlimit:4;stroke-dasharray:none;paint-order:stroke fill markers"
                     d="M 0,0 C 0.622,1.904 4.754,4.577 8.689,4.271 7.975,3.366 7.132,-0.731 4.873,-3.02 2.354,-5.576 -0.954,-2.918 0,0" />
                </g>
              </g>
              <g
                 transform="matrix(0.55222167,0,0,0.55222167,-17.2379,290.65029)"
                 id="g122"
                 style="stroke-width:15.08201122;stroke-miterlimit:4;stroke-dasharray:none;paint-order:stroke fill markers">
                <g
                   transform="translate(-86.0053,39.291)"
                   id="g124"
                   style="stroke-width:15.08201122;stroke-miterlimit:4;stroke-dasharray:none;paint-order:stroke fill markers">
                  <path
                     inkscape:connector-curvature="0"
                     id="path126"
                     style="fill:#ffffff;fill-opacity:1;fill-rule:evenodd;stroke:none;stroke-width:15.08201122;stroke-miterlimit:4;stroke-dasharray:none;paint-order:stroke fill markers"
                     d="M 0,0 C -2.669,-1.036 -3.893,3.793 -2.121,5.817 -0.328,7.866 3.256,8.89 4.687,9.496 4.866,3.511 1.794,0.695 0,0" />
                </g>
              </g>
              <g
                 transform="matrix(0.55222167,0,0,0.55222167,-17.2379,290.65029)"
                 id="g128"
                 style="stroke-width:15.08201122;stroke-miterlimit:4;stroke-dasharray:none;paint-order:stroke fill markers">
                <g
                   transform="translate(-83.5903,19.9369)"
                   id="g130"
                   style="stroke-width:15.08201122;stroke-miterlimit:4;stroke-dasharray:none;paint-order:stroke fill markers">
                  <path
                     inkscape:connector-curvature="0"
                     id="path132"
                     style="fill:#ffffff;fill-opacity:1;fill-rule:evenodd;stroke:none;stroke-width:15.08201122;stroke-miterlimit:4;stroke-dasharray:none;paint-order:stroke fill markers"
                     d="M 0,0 C -2.196,0.367 -1.756,4.463 -0.386,5.212 2.268,5.309 5.377,5.309 7.448,7.374 6.876,2.234 2.742,-0.455 0,0" />
                </g>
              </g>
              <g
                 transform="matrix(0.55222167,0,0,0.55222167,-17.2379,290.65029)"
                 id="g134"
                 style="stroke-width:15.08201122;stroke-miterlimit:4;stroke-dasharray:none;paint-order:stroke fill markers">
                <g
                   transform="translate(65.0927,97.8159)"
                   id="g136"
                   style="stroke-width:15.08201122;stroke-miterlimit:4;stroke-dasharray:none;paint-order:stroke fill markers">
                  <path
                     inkscape:connector-curvature="0"
                     id="path138"
                     style="fill:#ffffff;fill-opacity:1;fill-rule:evenodd;stroke:none;stroke-width:15.08201122;stroke-miterlimit:4;stroke-dasharray:none;paint-order:stroke fill markers"
                     d="M 0,0 C -2.587,1.269 0.098,9.805 6.302,9.11 4.486,7.852 3.834,5.031 3.558,2.636 3.363,0.929 2.634,0.683 0,0" />
                </g>
              </g>
              <g
                 transform="matrix(0.55222167,0,0,0.55222167,-17.2379,290.65029)"
                 id="g140"
                 style="stroke-width:15.08201122;stroke-miterlimit:4;stroke-dasharray:none;paint-order:stroke fill markers">
                <g
                   transform="translate(78.2087,100.853)"
                   id="g142"
                   style="stroke-width:15.08201122;stroke-miterlimit:4;stroke-dasharray:none;paint-order:stroke fill markers">
                  <path
                     inkscape:connector-curvature="0"
                     id="path144"
                     style="fill:#ffffff;fill-opacity:1;fill-rule:evenodd;stroke:none;stroke-width:15.08201122;stroke-miterlimit:4;stroke-dasharray:none;paint-order:stroke fill markers"
                     d="m 0,0 c 0,0 -2.828,-2.696 -4.436,-3.037 -1.066,-0.229 -1.375,-0.132 -1.612,0.833 -1.608,6.678 3.758,8.68 3.758,8.68 C -1.606,2.378 0,0 0,0" />
                </g>
              </g>
              <g
                 transform="matrix(0.55222167,0,0,0.55222167,-17.2379,290.65029)"
                 id="g146"
                 style="stroke-width:15.08201122;stroke-miterlimit:4;stroke-dasharray:none;paint-order:stroke fill markers">
                <g
                   transform="translate(88.8977,95.922)"
                   id="g148"
                   style="stroke-width:15.08201122;stroke-miterlimit:4;stroke-dasharray:none;paint-order:stroke fill markers">
                  <path
                     inkscape:connector-curvature="0"
                     id="path150"
                     style="fill:#ffffff;fill-opacity:1;fill-rule:evenodd;stroke:none;stroke-width:15.08201122;stroke-miterlimit:4;stroke-dasharray:none;paint-order:stroke fill markers"
                     d="M 0,0 C 0,0 -1.615,-2.102 -4.29,-1.624 -6.101,2.624 -2.833,7.164 -0.95,7.159 -2.591,4.091 0,0 0,0" />
                </g>
              </g>
              <g
                 transform="matrix(0.55222167,0,0,0.55222167,-17.2379,290.65029)"
                 id="g152"
                 style="stroke-width:15.08201122;stroke-miterlimit:4;stroke-dasharray:none;paint-order:stroke fill markers">
                <g
                   transform="translate(22.1447,126.646)"
                   id="g154"
                   style="stroke-width:15.08201122;stroke-miterlimit:4;stroke-dasharray:none;paint-order:stroke fill markers">
                  <path
                     inkscape:connector-curvature="0"
                     id="path156"
                     style="fill:#ffffff;fill-opacity:1;fill-rule:evenodd;stroke:none;stroke-width:15.08201122;stroke-miterlimit:4;stroke-dasharray:none;paint-order:stroke fill markers"
                     d="m 0,0 c 0,0 0.454,-3.702 -1.96,-5.492 -0.743,-0.552 -1.428,-0.439 -2.123,0.658 -0.695,1.096 -2.926,5.709 0.476,9.022 C -1.523,0.107 0,0 0,0" />
                </g>
              </g>
              <g
                 transform="matrix(0.55222167,0,0,0.55222167,-17.2379,290.65029)"
                 id="g158"
                 style="stroke-width:15.08201122;stroke-miterlimit:4;stroke-dasharray:none;paint-order:stroke fill markers">
                <g
                   transform="translate(30.8627,129.551)"
                   id="g160"
                   style="stroke-width:15.08201122;stroke-miterlimit:4;stroke-dasharray:none;paint-order:stroke fill markers">
                  <path
                     inkscape:connector-curvature="0"
                     id="path162"
                     style="fill:#ffffff;fill-opacity:1;fill-rule:evenodd;stroke:none;stroke-width:15.08201122;stroke-miterlimit:4;stroke-dasharray:none;paint-order:stroke fill markers"
                     d="M 0,0 C 0.368,-1.155 1.347,-3.444 2.014,-4.079 3.441,-5.433 3.368,-6.019 2.818,-7.266 2,-9.123 -0.07,-10.117 -0.986,-8.176 -1.67,-6.727 -2.595,-2.145 0,0" />
                </g>
              </g>
              <g
                 transform="matrix(0.55222167,0,0,0.55222167,-17.2379,290.65029)"
                 id="g164"
                 style="stroke-width:15.08201122;stroke-miterlimit:4;stroke-dasharray:none;paint-order:stroke fill markers">
                <g
                   transform="translate(47.4837,117.732)"
                   id="g166"
                   style="stroke-width:15.08201122;stroke-miterlimit:4;stroke-dasharray:none;paint-order:stroke fill markers">
                  <path
                     inkscape:connector-curvature="0"
                     id="path168"
                     style="fill:#ffffff;fill-opacity:1;fill-rule:evenodd;stroke:none;stroke-width:15.08201122;stroke-miterlimit:4;stroke-dasharray:none;paint-order:stroke fill markers"
                     d="M 0,0 C 0,0 -1.311,-1.91 -2.025,-2.468 -3.194,-3.384 -4.22,-2.797 -4.803,-1.041 -5.074,-0.226 -5.168,4.667 -0.61,5.47 -1.147,1.889 0,0 0,0" />
                </g>
              </g>
              <g
                 transform="matrix(0.55222167,0,0,0.55222167,-17.2379,290.65029)"
                 id="g170"
                 style="stroke-width:15.08201122;stroke-miterlimit:4;stroke-dasharray:none;paint-order:stroke fill markers">
                <g
                   transform="translate(-77.0953,94.843)"
                   id="g172"
                   style="stroke-width:15.08201122;stroke-miterlimit:4;stroke-dasharray:none;paint-order:stroke fill markers">
                  <path
                     inkscape:connector-curvature="0"
                     id="path174"
                     style="fill:#ffffff;fill-opacity:1;fill-rule:evenodd;stroke:none;stroke-width:15.08201122;stroke-miterlimit:4;stroke-dasharray:none;paint-order:stroke fill markers"
                     d="M 0,0 C 0,0 -5.031,1.11 -4.361,5.399 -2.582,5.17 -1.026,4.787 -0.532,4.583 0.53,4.147 0.66,3.451 0.675,2.643 0.712,0.558 0,0 0,0" />
                </g>
              </g>
              <g
                 transform="matrix(0.55222167,0,0,0.55222167,-17.2379,290.65029)"
                 id="g176"
                 style="stroke-width:15.08201122;stroke-miterlimit:4;stroke-dasharray:none;paint-order:stroke fill markers">
                <g
                   transform="translate(-76.4143,111.047)"
                   id="g178"
                   style="stroke-width:15.08201122;stroke-miterlimit:4;stroke-dasharray:none;paint-order:stroke fill markers">
                  <path
                     inkscape:connector-curvature="0"
                     id="path180"
                     style="fill:#ffffff;fill-opacity:1;fill-rule:evenodd;stroke:none;stroke-width:15.08201122;stroke-miterlimit:4;stroke-dasharray:none;paint-order:stroke fill markers"
                     d="m 0,0 c -1.103,-1.491 -1.14,-4.635 0.505,-6.462 2.983,-3.319 7.827,1.389 3.986,3.731 -1.748,1.066 -2.34,0.875 -2.997,1.275 C 0.834,-1.048 0.36,-0.389 0,0" />
                </g>
              </g>
              <g
                 transform="matrix(0.55222167,0,0,0.55222167,-17.2379,290.65029)"
                 id="g182"
                 style="stroke-width:15.08201122;stroke-miterlimit:4;stroke-dasharray:none;paint-order:stroke fill markers">
                <g
                   transform="translate(-66.3333,118.8159)"
                   id="g184"
                   style="stroke-width:15.08201122;stroke-miterlimit:4;stroke-dasharray:none;paint-order:stroke fill markers">
                  <path
                     inkscape:connector-curvature="0"
                     id="path186"
                     style="fill:#ffffff;fill-opacity:1;fill-rule:evenodd;stroke:none;stroke-width:15.08201122;stroke-miterlimit:4;stroke-dasharray:none;paint-order:stroke fill markers"
                     d="M 0,0 C -2.296,-1.466 -0.833,-6.846 1.106,-8.199 6.153,-11.723 5.715,-4.87 3.74,-3.659 2.164,-2.7 1.763,-2.306 0,0" />
                </g>
              </g>
              <g
                 transform="matrix(0.55222167,0,0,0.55222167,-17.2379,290.65029)"
                 id="g188"
                 style="stroke-width:15.08201122;stroke-miterlimit:4;stroke-dasharray:none;paint-order:stroke fill markers">
                <g
                   transform="translate(-36.3623,-79.3141)"
                   id="g190"
                   style="stroke-width:15.08201122;stroke-miterlimit:4;stroke-dasharray:none;paint-order:stroke fill markers">
                  <path
                     inkscape:connector-curvature="0"
                     id="path192"
                     style="fill:#ffffff;fill-opacity:1;fill-rule:evenodd;stroke:none;stroke-width:15.08201122;stroke-miterlimit:4;stroke-dasharray:none;paint-order:stroke fill markers"
                     d="m 0,0 v 0 c 0.446,0.233 0.787,0.722 0.787,0.722 0,0 -3.412,-0.977 -6.577,-1.196 0,0 1.263,-1.341 3.338,-0.81 C -0.335,-7.571 7.226,-8.009 8.105,-6.889 7.471,-6.643 1.521,-6.79 0,0 m -6.063,-13.641 v 0 c -3.878,-4.756 -8.718,-4.661 -8.718,-4.661 2.939,-6.339 10.693,-0.924 13.691,-2.429 -0.707,2.446 -4.7,2.16 -4.7,2.16 0,0 -0.104,1.052 -0.749,2.026 0,0 0.988,1.611 0.476,2.904 m 32.219,12.625 c 0,0 -1.47,1.248 -3.269,2.228 -3.467,-6.247 -5.585,-5.333 -5.585,-5.333 0.215,0.841 -0.136,1.755 -0.136,1.755 0,0 -3.453,-0.768 -4.428,-6.751 3.608,-1.04 10.286,2.023 10.286,2.023 -8.726,-10.672 -10.474,-6.523 -13.701,-10.233 -4.081,-4.69 -4.976,-6.876 -14.778,-11.119 -10.232,-3.577 -21.144,-1.304 -17.636,7.037 -8.407,-6.451 3.881,-15.376 14.781,-11.681 0,0 -2.03,-9.056 -9.537,-7.766 0,0 2.628,2.835 2.656,4.794 -10.992,-11.795 -19.673,-7.894 -24.521,-4.052 3.971,-0.185 12.749,3.913 13.963,7.295 -14.382,-7.844 -29.379,-1.991 -32.898,5.941 10.175,-0.105 16.101,5.162 17.64,7.496 3.291,-1.53 12.726,-2.844 17.097,2.027 -16.954,-3.775 -18.709,5.589 -24.854,12.173 -6.146,6.584 -17.851,10.975 -24.435,14.778 -6.585,3.804 -18.729,15.289 -16.851,30.716 9.974,-11.109 27.112,-14.574 33.65,-21.472 9.244,-9.756 16.78,-31.704 30.447,-27.755 -10.277,-0.511 -18.229,19.351 -20.837,22.388 -7.388,8.609 -13.303,9.442 -24.654,17.095 -17.069,11.509 -29.167,35.409 -16.629,46.884 9.022,-25.619 28.623,-24.55 40.333,-37.422 10.827,-11.9 10.546,-44.748 34.042,-38.139 -21.068,0.584 -17.618,22.481 -27.035,33.762 -11.104,13.303 -18.274,14.473 -29.101,24.13 -11.618,10.364 -17.802,31.753 -12.241,41.607 0,0 6.73,-4.199 11.022,-4.002 7.914,0.36 12.41,-0.934 12.41,-0.934 -6.363,-22.281 15.01,-30.94 25.267,-41.149 14.461,-14.397 1.584,-31.078 12.941,-43.017 -6.675,17.94 2.837,15.891 -2.724,31.335 -3.393,9.42 -7.873,11.944 -20.922,23.475 -12.585,11.121 -10.408,22.875 -9.863,27.332 0,0 3.375,-0.161 5.11,0.946 0,0 4.995,-1.498 9.262,5.607 7.146,-0.276 14.168,3.372 14.168,3.372 0,0 -2.145,-9.506 4.492,-20.013 0,0 -7.482,5.649 -12.668,5.601 13.347,-8.068 31.783,-22.845 28.607,-45.579 -5.458,-0.236 -8.967,5.762 -10.081,9.589 0.09,-15.387 15.453,-15.094 20.296,-10.803 0,0 7.886,-0.485 9.607,-7.159 -8.013,-7.227 -14.725,-3.58 -22.819,-3.173 -3.777,0.188 -9.174,-4.089 -8.991,-10.265 0.22,-7.334 6.711,-16.694 16.481,-16.614 7.756,0.062 19.752,9.655 23.979,-3.039 0.894,2.014 -0.341,5.674 -0.341,5.674 0,0 1.382,0.292 2.386,1.08 3.539,-1.554 3.252,-8.404 0.612,-10.67" />
                </g>
              </g>
              <g
                 transform="matrix(0.55222167,0,0,0.55222167,-17.2379,290.65029)"
                 id="g194"
                 style="stroke-width:15.08201122;stroke-miterlimit:4;stroke-dasharray:none;paint-order:stroke fill markers">
                <g
                   transform="translate(113.5557,56.957)"
                   id="g196"
                   style="stroke-width:15.08201122;stroke-miterlimit:4;stroke-dasharray:none;paint-order:stroke fill markers">
                  <path
                     inkscape:connector-curvature="0"
                     id="path198"
                     style="fill:#ffffff;fill-opacity:1;fill-rule:evenodd;stroke:none;stroke-width:15.08201122;stroke-miterlimit:4;stroke-dasharray:none;paint-order:stroke fill markers"
                     d="m 0,0 v 0 c -0.132,6.667 -3.743,9.452 -3.743,9.452 0,0 2.834,-8.147 -0.345,-12.626 1.228,0.184 2.521,1.551 2.521,1.551 0,0 2.801,-2.924 0.617,-9.176 C 4.648,-6.499 0,0 0,0 m -51.698,-62.53 v 0 c 0,0 12.939,0.04 13.012,14.447 -4.365,-10.407 -13.012,-14.447 -13.012,-14.447 m -35.557,28.5 v 0 c -6.03,6.074 -12.124,5.935 -12.124,5.935 0,0 11.361,-4.743 15.598,-18.226 0.542,3.048 -0.542,7.761 -0.542,7.761 0,0 7.231,-0.418 10.689,-9.655 0,0 1.027,10.502 -13.621,14.185 m -49.535,60.698 v 0 c 3.413,-8.391 2.673,-17.486 2.673,-17.486 0,0 6.887,9.291 -2.673,17.486 M 0.163,-19.277 c -4.045,-0.772 -7.12,-4.002 -3.657,-15.658 2.311,-7.787 8.435,-20.532 1.181,-30.565 0,0 1.02,0 1.975,0.404 -0.67,-6.855 -10.492,-12.628 -10.492,-12.628 0,0 0.748,-0.859 3.406,-0.541 -3.731,-5.39 -13.008,-10.601 -13.008,-10.601 10.35,3.258 14.631,2.767 17.3,-8.846 2.516,-10.916 -9.625,-21.575 -16.752,-23.694 -16.073,-4.781 -32.462,0.044 -44.687,-0.82 -31.909,-2.252 -24.813,-37.588 3.27,-27.011 1.325,-1.578 2.045,-0.675 2.045,-0.675 -2.476,6.485 2.206,13.728 8.863,15.045 5.575,1.102 5.398,-0.765 9.804,-0.659 6.074,0.147 5.709,6.073 12.798,3.306 -7.236,-7.621 -8.617,-10.671 -17.185,-7.988 -4.404,1.379 -9.366,0.732 -10.538,-3.145 3.148,2.34 4.828,2.34 10.756,0.145 9.058,-3.354 11.776,3.216 13.094,4.244 9.219,7.169 8.049,4.025 16.681,2.78 -3.364,-8.195 -8.558,-1.682 -16.97,-9.803 -2.311,-2.229 -5.123,-5.999 -10.07,-4.939 4.36,-1.572 7.945,-1.793 12.261,3.109 2.376,2.694 4.609,5.488 12.667,5.402 -2.349,-8.84 -9.813,-6.864 -13.909,-9.498 -2.34,-1.506 -6,-6.658 -10.828,-7.389 -3.561,-0.541 -9.95,-0.439 -12.113,3.784 2.823,1.629 3.337,3.175 3.337,3.175 -50.628,-22.177 -57.358,34.595 -18.878,36.936 11.103,0.675 37.897,-1.171 46.822,2.78 11.654,5.158 11.751,18.47 -2.194,19.9 -5.707,0.584 -27.044,-8.024 -51.944,-0.978 -16.48,4.667 -44.333,9.026 -61.128,2.477 -2.176,0.842 -3.747,1.687 -3.747,1.687 1.667,2.178 1.432,3.917 1.432,3.917 -7.194,-6.969 -11.47,-6.079 -11.47,-6.079 5.072,13.704 -3.9,27.264 -10.193,32.347 -10.559,8.529 -13.997,34.815 3.68,44.704 0,0 1.636,-18.48 7.083,-20.667 -4.763,20.235 -1.798,32.684 -2.317,37.146 -1.081,9.332 -4.815,28.926 -5.862,35.569 -1.365,8.68 -7.803,9.362 -13.004,5.015 -5.544,-4.638 -10.553,-9.305 -15.939,-4.865 0.851,1.606 1.294,4.865 1.294,4.865 0,0 7.506,-5.111 11.188,0.425 -7.192,-1.541 -8.191,2.341 -8.191,2.341 0,0 3.047,2.168 3.406,5.468 -0.067,0.115 1.347,-1.054 2.884,-1.664 1.781,-3.193 11.046,-4.661 13.736,0.318 -7.468,-2.199 -9.672,1.012 -9.672,1.012 0,0 3.667,4.301 -0.137,10.129 2.144,1.294 9.569,1.516 11.716,2.433 1.111,0.472 7.109,3.006 9.06,-1.487 2.551,-5.882 5.899,-1.916 6.881,-3.583 13.312,-22.551 19.546,-42.672 19.546,-42.672 0,0 2.837,1.389 4.36,4.319 2.379,-4.194 -1.566,-15.264 -1.566,-15.264 0,0 4.042,4.822 9.263,2.637 -2.686,-1.517 -5.313,-5.739 -5.313,-5.739 0,0 7.895,2.462 9.877,0 -2.956,-0.851 -9.2,-7.776 -5.494,-17.287 1.594,-4.086 5.657,-13.802 2.633,-22.626 5.561,4.824 4.299,15.904 2.147,19.744 -3.611,6.44 -2.887,12.251 -0.24,12.945 11.261,2.959 14.166,0.066 14.166,0.066 0,0 -4.953,-1.888 -6.855,-4.864 1.608,0 9.511,0.538 13.607,-2.097 15.077,-9.692 23.41,-25.848 45.903,-16 0.106,-2.881 -0.639,-13.358 -13.488,-19.791 14.798,0.772 16.749,16.773 16.484,20.535 -0.351,4.983 -0.307,9.033 0,10.799 0,0 2.706,-3.348 4.563,-2.36 -3.128,12.867 9.26,22.031 21.391,22.487 -0.797,0.989 -2.796,1.077 -2.796,1.077 0,0 -2.212,9.004 -11.626,14.031 -5.605,2.988 -20.924,9.878 -17.936,20.886 1.365,0.199 2.658,0.199 2.658,0.199 0,0 -0.6,-10.991 9.643,-10.843 -8.341,5.194 -5.692,9.901 -5.692,9.901 0,0 4.302,0.487 6.882,2.295 0.164,-1.264 1.371,-2.982 1.907,-4.324 0.538,-1.342 -0.316,-4.067 -0.245,-4.36 0.553,-2.205 4.683,-10.317 11.561,-9.076 -11.339,5.636 -7.502,11.543 -7.502,11.543 0,0 5.088,0.239 7.08,3.922 C -15.152,37.199 3.088,14.862 5.868,0.035 9.389,-18.738 3.585,-18.623 0.163,-19.277" />
                </g>
              </g>
              <g
                 transform="matrix(0.55222167,0,0,0.55222167,-17.2379,290.65029)"
                 id="g200"
                 style="stroke:#ffffff;stroke-width:15.08201122;stroke-miterlimit:4;stroke-dasharray:none;paint-order:stroke fill markers">
                <g
                   transform="translate(-1.1093,143.413)"
                   id="g202"
                   style="stroke:#ffffff;stroke-width:4.76274014;stroke-miterlimit:4;stroke-dasharray:none;paint-order:stroke fill markers">
                  <path
                     inkscape:connector-curvature="0"
                     id="path204"
                     style="fill:#a61916;fill-opacity:1;fill-rule:evenodd;stroke:#ffffff;stroke-width:4.76274014;stroke-miterlimit:4;stroke-dasharray:none;paint-order:stroke fill markers"
                     d="m 0,0 v 0 c -40.117,0.017 -77.77,-15.647 -106.027,-44.095 -27.909,-28.098 -43.288,-65.376 -43.303,-104.964 -0.033,-82.226 66.9,-149.151 149.206,-149.187 40.12,-0.018 77.774,15.641 106.029,44.091 27.907,28.1 43.287,65.376 43.306,104.966 C 149.243,-66.964 82.307,-0.043 0,0 m 195.943,-140.61 v -17.03 h -27.661 c -1.928,-38.981 -17.083,-75.56 -43.289,-104.498 l 19.56,-19.56 -12.041,-12.041 -19.563,19.561 C 84.007,-300.395 47.471,-315.545 8.454,-317.47 v -27.656 H -8.577 v 27.661 c -40.07,2.006 -76.492,18.071 -104.435,43.347 l -19.621,-19.621 -12.043,12.041 19.621,19.621 c -25.279,27.944 -41.344,64.371 -43.348,104.437 h -27.659 v 17.03 h 27.655 c 1.929,38.98 17.084,75.563 43.291,104.501 l -19.559,19.558 12.042,12.039 19.56,-19.563 c 28.94,26.219 65.481,41.368 104.496,43.296 V 46.878 H 8.454 V 19.215 C 48.525,17.21 84.946,1.143 112.885,-24.129 l 19.627,19.617 12.041,-12.039 -19.621,-19.625 c 25.278,-27.943 41.343,-64.37 43.35,-104.434 h 27.661" />
                </g>
              </g>
              <g
                 transform="matrix(0.55222167,0,0,0.55222167,-17.2379,290.65029)"
                 id="g206"
                 style="stroke-width:15.08201122;stroke-miterlimit:4;stroke-dasharray:none;paint-order:stroke fill markers">
                <g
                   transform="translate(-107.4063,232.601)"
                   id="g208"
                   style="stroke-width:15.08201122;stroke-miterlimit:4;stroke-dasharray:none;paint-order:stroke fill markers">
                  <path
                     inkscape:connector-curvature="0"
                     id="path210"
                     style="fill:#ffffff;fill-opacity:1;fill-rule:evenodd;stroke:none;stroke-width:15.08201122;stroke-miterlimit:4;stroke-dasharray:none;paint-order:stroke fill markers"
                     d="m 0,0 h -16.349 l -2.723,44.769 h 11.171 l 1.429,-34.168 7.426,33.221 h 9.534 l 9.197,-33.221 h 0.137 l 0.817,34.168 H 32.354 L 30.037,0 H 14.168 L 6.742,28.29 H 6.471 Z" />
                </g>
              </g>
              <g
                 transform="matrix(0.55222167,0,0,0.55222167,-17.2379,290.65029)"
                 id="g212"
                 style="stroke-width:15.08201122;stroke-miterlimit:4;stroke-dasharray:none;paint-order:stroke fill markers">
                <g
                   transform="translate(-54.5503,269.7139)"
                   id="g214"
                   style="stroke-width:15.08201122;stroke-miterlimit:4;stroke-dasharray:none;paint-order:stroke fill markers">
                  <path
                     inkscape:connector-curvature="0"
                     id="path216"
                     style="fill:#ffffff;fill-opacity:1;fill-rule:evenodd;stroke:none;stroke-width:15.08201122;stroke-miterlimit:4;stroke-dasharray:none;paint-order:stroke fill markers"
                     d="m 0,0 v 0 c -3.735,0.041 -3.611,-2.9 -3.611,-2.9 0,-4.462 5.791,-4.437 5.791,-4.437 h 1.908 v 2.569 C 4.088,-0.197 0,0 0,0 m 4.836,4.685 0.613,2.971 h 10.763 l -0.476,-19.043 c 0,-15.802 -15.257,-14.449 -15.257,-14.449 l -8.516,1.08 c -2.786,0.352 -5.04,1.892 -5.04,1.892 l 2.044,7.626 c 0,0 1.871,-1.211 4.222,-1.756 l 5.108,-0.742 c 0,0 5.607,-0.498 5.448,3.107 H 1.5 c 0,0 -17.135,-0.22 -16.96,12.628 0,0 0.039,10.255 10.787,10.255 0,0 5.965,0.079 8.761,-3.234 C 4.334,4.727 4.836,4.685 4.836,4.685" />
                </g>
              </g>
              <g
                 transform="matrix(0.55222167,0,0,0.55222167,-17.2379,290.65029)"
                 id="g218"
                 style="stroke-width:15.08201122;stroke-miterlimit:4;stroke-dasharray:none;paint-order:stroke fill markers">
                <g
                   transform="translate(-14.9063,268.3909)"
                   id="g220"
                   style="stroke-width:15.08201122;stroke-miterlimit:4;stroke-dasharray:none;paint-order:stroke fill markers">
                  <path
                     inkscape:connector-curvature="0"
                     id="path222"
                     style="fill:#ffffff;fill-opacity:1;fill-rule:evenodd;stroke:none;stroke-width:15.08201122;stroke-miterlimit:4;stroke-dasharray:none;paint-order:stroke fill markers"
                     d="m 0,0 v 0 c -6.085,0 -5.849,-7.721 -5.849,-7.721 0,-7.392 5.276,-7.608 5.276,-7.608 5.121,0 5.41,4.188 5.41,4.188 L 4.7,-3.781 C 4.046,-0.133 0,0 0,0 M 5.993,4.455 6.536,8.979 H 17.23 L 16.96,-38.224 H 4.837 v 16.813 c 0,0 -1.94,-3.102 -8.174,-3.102 -6.234,0 -14.782,4.393 -14.782,17.282 0,0 -0.164,16.821 14.033,16.821 0,0 6.771,-0.049 10.079,-5.135" />
                </g>
              </g>
              <g
                 transform="matrix(0.55222167,0,0,0.55222167,-17.2379,290.65029)"
                 id="g224"
                 style="stroke-width:15.08201122;stroke-miterlimit:4;stroke-dasharray:none;paint-order:stroke fill markers">
                <g
                   transform="translate(28.9587,257.111)"
                   id="g226"
                   style="stroke-width:15.08201122;stroke-miterlimit:4;stroke-dasharray:none;paint-order:stroke fill markers">
                  <path
                     inkscape:connector-curvature="0"
                     id="path228"
                     style="fill:#ffffff;fill-opacity:1;fill-rule:evenodd;stroke:none;stroke-width:15.08201122;stroke-miterlimit:4;stroke-dasharray:none;paint-order:stroke fill markers"
                     d="m 0,0 v 0 h -9.876 c 0,0 0.259,-5.332 5.306,-5.332 0,0 4.57,-0.053 4.57,5.332 m -4.09,-13.233 c -17.004,0 -17.026,17.419 -17.026,17.419 0,17.685 18.12,16.684 18.12,16.684 7.574,0 12.259,-2.03 12.259,-2.03 L 7.831,10.808 C -9.834,14.179 -9.741,8.104 -9.741,8.104 H 10.556 C 13.904,-14.197 -4.09,-13.233 -4.09,-13.233" />
                </g>
              </g>
              <g
                 transform="matrix(0.55222167,0,0,0.55222167,-17.2379,290.65029)"
                 id="g230"
                 style="stroke-width:15.08201122;stroke-miterlimit:4;stroke-dasharray:none;paint-order:stroke fill markers">
                <path
                   inkscape:connector-curvature="0"
                   id="path232"
                   style="fill:#ffffff;fill-opacity:1;fill-rule:evenodd;stroke:none;stroke-width:15.08201122;stroke-miterlimit:4;stroke-dasharray:none;paint-order:stroke fill markers"
                   d="M 57.566,244.623 H 45.579 v 32.747 h 11.987 z" />
              </g>
              <g
                 transform="matrix(0.55222167,0,0,0.55222167,-17.2379,290.65029)"
                 id="g234"
                 style="stroke-width:15.08201122;stroke-miterlimit:4;stroke-dasharray:none;paint-order:stroke fill markers">
                <g
                   transform="translate(77.0467,261.16)"
                   id="g236"
                   style="stroke-width:15.08201122;stroke-miterlimit:4;stroke-dasharray:none;paint-order:stroke fill markers">
                  <path
                     inkscape:connector-curvature="0"
                     id="path238"
                     style="fill:#ffffff;fill-opacity:1;fill-rule:evenodd;stroke:none;stroke-width:15.08201122;stroke-miterlimit:4;stroke-dasharray:none;paint-order:stroke fill markers"
                     d="m 0,0 v 16.21 h -12.053 l -0.206,-32.747 h 10.212 l 0.483,5.94 c 0,0 2.37,-7.935 11.375,-6.414 V -5.87 C 9.811,-5.87 0,-8.279 0,0" />
                </g>
              </g>
              <g
                 transform="matrix(0.55222167,0,0,0.55222167,-17.2379,290.65029)"
                 id="g240"
                 style="stroke-width:15.08201122;stroke-miterlimit:4;stroke-dasharray:none;paint-order:stroke fill markers">
                <g
                   transform="translate(58.1806,234.9899)"
                   id="g242"
                   style="stroke-width:15.08201122;stroke-miterlimit:4;stroke-dasharray:none;paint-order:stroke fill markers">
                  <path
                     inkscape:connector-curvature="0"
                     id="path244"
                     style="fill:#ffffff;fill-opacity:1;fill-rule:evenodd;stroke:none;stroke-width:15.08201122;stroke-miterlimit:4;stroke-dasharray:none;paint-order:stroke fill markers"
                     d="m 0,0 c 0,3.396 -2.995,6.145 -6.688,6.145 -3.696,0 -6.691,-2.749 -6.691,-6.145 0,-3.398 2.995,-6.147 6.691,-6.147 C -2.995,-6.147 0,-3.398 0,0" />
                </g>
              </g>
              <g
                 transform="matrix(0.55222167,0,0,0.55222167,-17.2379,290.65029)"
                 id="g246"
                 style="stroke-width:15.08201122;stroke-miterlimit:4;stroke-dasharray:none;paint-order:stroke fill markers">
                <g
                   transform="translate(104.6417,269.7139)"
                   id="g248"
                   style="stroke-width:15.08201122;stroke-miterlimit:4;stroke-dasharray:none;paint-order:stroke fill markers">
                  <path
                     inkscape:connector-curvature="0"
                     id="path250"
                     style="fill:#ffffff;fill-opacity:1;fill-rule:evenodd;stroke:none;stroke-width:15.08201122;stroke-miterlimit:4;stroke-dasharray:none;paint-order:stroke fill markers"
                     d="m 0,0 v 0 c -3.731,0.041 -3.608,-2.9 -3.608,-2.9 0,-4.462 5.789,-4.437 5.789,-4.437 h 1.908 v 2.569 C 4.089,-0.197 0,0 0,0 M 4.838,4.685 5.45,7.656 H 16.214 L 15.736,-11.387 C 15.736,-27.189 0.48,-25.836 0.48,-25.836 l -8.516,1.08 c -2.787,0.352 -5.04,1.892 -5.04,1.892 l 2.042,7.626 c 0,0 1.876,-1.211 4.224,-1.756 l 5.107,-0.742 c 0,0 5.606,-0.498 5.451,3.107 h -2.25 c 0,0 -17.132,-0.22 -16.958,12.628 0,0 0.043,10.255 10.789,10.255 0,0 5.967,0.079 8.76,-3.234 C 4.334,4.727 4.838,4.685 4.838,4.685" />
                </g>
              </g>
              <g
                 transform="matrix(0.55222167,0,0,0.55222167,-17.2379,290.65029)"
                 id="g252"
                 style="stroke-width:15.08201122;stroke-miterlimit:4;stroke-dasharray:none;paint-order:stroke fill markers">
                <g
                   transform="translate(124.1757,-219.643)"
                   id="g254"
                   style="stroke-width:15.08201122;stroke-miterlimit:4;stroke-dasharray:none;paint-order:stroke fill markers">
                  <path
                     inkscape:connector-curvature="0"
                     id="path256"
                     style="fill:#ffffff;fill-opacity:1;fill-rule:nonzero;stroke:none;stroke-width:15.08201122;stroke-miterlimit:4;stroke-dasharray:none;paint-order:stroke fill markers"
                     d="M 0,0 C -1.128,2.534 -1.449,4.629 -0.955,6.29 -0.474,7.956 0.539,9.139 2.088,9.829 3.655,10.527 5.209,10.497 6.742,9.75 8.285,9.007 9.635,7.325 10.81,4.683 11.902,2.231 12.208,0.172 11.731,-1.481 11.251,-3.125 10.262,-4.286 8.767,-4.951 7.181,-5.658 5.597,-5.631 4.028,-4.878 2.455,-4.115 1.108,-2.487 0,0 m -10.902,-4.82 c 1.923,-4.32 4.972,-7.243 9.133,-8.743 4.175,-1.504 8.737,-1.154 13.702,1.057 5.678,2.527 9.236,6.088 10.669,10.668 1.153,3.69 0.862,7.481 -0.866,11.363 -1.939,4.355 -4.978,7.283 -9.109,8.785 -4.126,1.493 -8.747,1.107 -13.86,-1.17 -4.556,-2.028 -7.722,-4.825 -9.507,-8.393 -2.18,-4.399 -2.231,-8.92 -0.162,-13.567 m -52.992,-33.542 10.672,3.06 -1.248,4.353 c 2.067,-1.38 3.979,-2.221 5.764,-2.55 1.783,-0.319 3.782,-0.161 5.997,0.475 2.378,0.681 4.137,1.642 5.275,2.881 1.149,1.244 1.919,2.824 2.323,4.745 2.352,-1.432 4.374,-2.294 6.06,-2.568 1.678,-0.277 3.602,-0.11 5.778,0.515 3.203,0.918 5.433,2.585 6.679,5.007 1.258,2.416 1.297,5.644 0.137,9.69 l -5.372,18.736 -11.458,-3.286 4.872,-16.99 c 0.387,-1.353 0.417,-2.434 0.076,-3.237 -0.473,-1.246 -1.283,-2.038 -2.424,-2.366 -1.343,-0.384 -2.575,-0.209 -3.678,0.523 -1.105,0.742 -1.956,2.189 -2.575,4.347 l -4.412,15.389 -11.469,-3.288 4.713,-16.435 c 0.377,-1.314 0.554,-2.218 0.544,-2.729 -0.035,-0.819 -0.283,-1.544 -0.746,-2.175 -0.472,-0.633 -1.106,-1.065 -1.911,-1.296 -1.314,-0.376 -2.531,-0.185 -3.658,0.56 -1.129,0.755 -2.019,2.265 -2.668,4.528 l -4.366,15.226 -11.458,-3.285 z m -22.664,-4.038 11.719,2.066 -5.389,30.561 -11.718,-2.066 z m 2.051,-11.631 11.719,2.067 -1.407,7.976 -11.719,-2.066 z m -17.082,-1.79 -0.824,11.781 6.527,0.457 -0.604,8.657 -6.529,-0.456 -0.767,10.985 c -0.093,1.324 -0.026,2.208 0.194,2.654 0.342,0.683 0.995,1.069 1.97,1.137 0.876,0.062 2.118,-0.111 3.725,-0.509 l 0.303,8.261 c -2.98,0.431 -5.739,0.558 -8.286,0.38 -2.956,-0.207 -5.108,-0.737 -6.448,-1.591 -1.351,-0.854 -2.305,-2.081 -2.864,-3.67 -0.569,-1.589 -0.721,-4.12 -0.48,-7.583 l 0.763,-10.896 -4.379,-0.306 0.605,-8.657 4.379,0.306 0.398,-5.692 z m -33.438,-1.334 10.21,-0.535 -8.966,9.219 -5.687,0.299 z m -4.982,12.817 11.884,-0.623 1.624,30.989 -11.883,0.623 z m -29.608,3.544 11.024,-1.549 0.706,5.028 c 0.762,-2.323 1.647,-3.979 2.658,-4.957 1.011,-0.978 2.345,-1.588 4.005,-1.822 1.738,-0.244 3.711,0.032 5.927,0.819 l -2.464,8.909 c -1.466,-0.389 -2.612,-0.52 -3.422,-0.406 -1.541,0.217 -2.646,1.027 -3.318,2.41 -0.963,1.969 -1.103,5.414 -0.411,10.333 l 1.447,10.302 -11.833,1.663 z m -17.752,21.036 c -1.41,1.017 -2.907,1.985 -4.48,2.904 -2.144,1.279 -3.445,2.316 -3.888,3.086 -0.464,0.808 -0.58,1.599 -0.354,2.385 0.258,0.901 0.783,1.539 1.572,1.936 0.795,0.384 1.798,0.408 3.015,0.059 1.276,-0.366 2.367,-1.011 3.294,-1.941 0.914,-0.937 1.474,-1.917 1.681,-2.931 0.205,-1.024 0.092,-2.247 -0.314,-3.666 z m -11.638,-3.169 -11.252,1.981 c -0.134,-2.026 0.028,-3.702 0.492,-5.018 0.463,-1.315 1.303,-2.584 2.539,-3.81 0.878,-0.884 2.196,-1.75 3.937,-2.592 1.741,-0.842 3.679,-1.574 5.817,-2.187 3.423,-0.981 6.239,-1.581 8.421,-1.792 2.191,-0.213 4.157,0.095 5.887,0.917 1.22,0.564 2.327,1.532 3.336,2.914 1.002,1.393 1.7,2.781 2.105,4.19 l 3.778,13.175 c 0.4,1.4 0.813,2.475 1.213,3.222 0.411,0.743 1.086,1.65 2.045,2.713 l -10.73,3.077 c -0.651,-0.643 -1.097,-1.148 -1.347,-1.513 -0.249,-0.364 -0.555,-0.961 -0.937,-1.786 -1.081,1.877 -2.283,3.332 -3.583,4.369 -1.787,1.405 -4.018,2.491 -6.693,3.258 -3.557,1.02 -6.498,0.971 -8.821,-0.148 -2.311,-1.111 -3.815,-2.88 -4.508,-5.297 -0.651,-2.272 -0.523,-4.322 0.392,-6.162 0.912,-1.849 3.046,-3.634 6.419,-5.369 4.049,-2.094 6.656,-3.496 7.832,-4.207 1.167,-0.708 2.387,-1.556 3.647,-2.519 -0.405,-1.409 -0.973,-2.305 -1.71,-2.705 -0.744,-0.389 -1.843,-0.385 -3.311,0.035 -1.869,0.536 -3.181,1.244 -3.95,2.109 -0.594,0.678 -0.936,1.731 -1.018,3.145 m -73.941,5.435 15.91,-7.084 16.743,21.076 -4.486,-26.533 15.856,-7.06 17.425,39.139 -9.878,4.398 -13.287,-29.844 5.623,33.256 -8.939,3.98 -20.923,-26.444 13.287,29.844 -9.906,4.41 -17.425,-39.138" />
                </g>
              </g>
            </g>
          </g>
        </g>
      </g>
    </g>
  </g>
</svg>
