<?xml version="1.0" encoding="UTF-8" standalone="no"?>
<!-- Generator: Adobe Illustrator 13.0.2, SVG Export Plug-In . SVG Version: 6.00 Build 14948)  -->

<svg
   xmlns:dc="http://purl.org/dc/elements/1.1/"
   xmlns:cc="http://creativecommons.org/ns#"
   xmlns:rdf="http://www.w3.org/1999/02/22-rdf-syntax-ns#"
   xmlns:svg="http://www.w3.org/2000/svg"
   xmlns="http://www.w3.org/2000/svg"
   xmlns:sodipodi="http://sodipodi.sourceforge.net/DTD/sodipodi-0.dtd"
   xmlns:inkscape="http://www.inkscape.org/namespaces/inkscape"
   version="1.0"
   id="Layer_1"
   x="0px"
   y="0px"
   width="700"
   height="700"
   viewBox="0 0 700.00001 699.99999"
   enable-background="new 0 0 357.538 480.548"
   xml:space="preserve"
   sodipodi:docname="gil-vicente-fc-logo.svg"
   inkscape:version="0.92.4 (5da689c313, 2019-01-14)"
   inkscape:export-filename="G:\Users\suitedoalex\sites\gil-vicente-fc-logo-1.png"
   inkscape:export-xdpi="296.22858"
   inkscape:export-ydpi="296.22858"><metadata
   id="metadata114"><rdf:RDF><cc:Work
       rdf:about=""><dc:format>image/svg+xml</dc:format><dc:type
         rdf:resource="http://purl.org/dc/dcmitype/StillImage" /><dc:title /></cc:Work></rdf:RDF></metadata><defs
   id="defs112" /><sodipodi:namedview
   pagecolor="#ffffff"
   bordercolor="#666666"
   borderopacity="1"
   objecttolerance="10"
   gridtolerance="10"
   guidetolerance="10"
   inkscape:pageopacity="0"
   inkscape:pageshadow="2"
   inkscape:window-width="1600"
   inkscape:window-height="837"
   id="namedview110"
   showgrid="false"
   inkscape:zoom="0.34726437"
   inkscape:cx="761.50039"
   inkscape:cy="-122.95274"
   inkscape:window-x="-8"
   inkscape:window-y="-8"
   inkscape:window-maximized="1"
   inkscape:current-layer="Layer_1" />
<linearGradient
   id="SVGID_1_"
   gradientUnits="userSpaceOnUse"
   x1="128.7944"
   y1="199.8354"
   x2="378.40881"
   y2="216.7211"
   gradientTransform="matrix(0.94491521,0,0,0.94491521,181.07892,122.96147)">
	<stop
   offset="0"
   style="stop-color:#FFFFFF"
   id="stop2" />
	<stop
   offset="1"
   style="stop-color:#CCCCCC"
   id="stop4" />
</linearGradient>
<path
   d="m 190.09623,221.15707 c 73.58151,60.72592 150.44658,118.81174 298.29841,119.32202 l -22.19606,64.51406 C 362.5102,405.22561 283.10236,360.31946 207.43921,304.4041 Z"
   id="path7"
   style="clip-rule:evenodd;fill:url(#SVGID_1_);fill-rule:evenodd;stroke-width:1.77617419;stroke-miterlimit:4;stroke-dasharray:none"
   inkscape:connector-curvature="0"
   inkscape:export-filename="G:\Users\suitedoalex\sites\gil-vicente-fc-logo-4.png"
   inkscape:export-xdpi="113.66254"
   inkscape:export-ydpi="113.66254" />
<linearGradient
   id="SVGID_2_"
   gradientUnits="userSpaceOnUse"
   x1="44.068401"
   y1="121.0278"
   x2="357.55688"
   y2="125.609"
   gradientTransform="matrix(0.94491521,0,0,0.94491521,181.07892,122.96147)">
	<stop
   offset="0"
   style="stop-color:#521C19"
   id="stop9" />
	<stop
   offset="1"
   style="stop-color:#D62929"
   id="stop11" />
</linearGradient>
<path
   d="m 181.07891,144.84762 11.79255,84.6351 c 77.32808,71.40724 260.14461,135.96951 287.89394,126.95029 15.72433,-33.80811 27.98178,-109.88513 38.15568,-211.58539 -111.68898,-28.99757 -224.30304,-29.36517 -337.84217,0 z"
   id="path14"
   style="clip-rule:evenodd;fill:url(#SVGID_2_);fill-rule:evenodd;stroke-width:0.94491524"
   inkscape:connector-curvature="0"
   inkscape:export-filename="G:\Users\suitedoalex\sites\gil-vicente-fc-logo-4.png"
   inkscape:export-xdpi="113.66254"
   inkscape:export-ydpi="113.66254" />
<linearGradient
   id="SVGID_3_"
   gradientUnits="userSpaceOnUse"
   x1="88.068398"
   y1="333.9834"
   x2="287.76208"
   y2="339.85669"
   gradientTransform="matrix(0.94491521,0,0,0.94491521,181.07892,122.96147)">
	<stop
   offset="0"
   style="stop-color:#083363"
   id="stop16" />
	<stop
   offset="1"
   style="stop-color:#004FA3"
   id="stop18" />
</linearGradient>
<path
   d="m 207.44015,300.93625 c 65.99478,46.94339 127.55223,96.93603 261.53554,97.12026 C 434.98047,475.75503 392.66433,548.59667 351.04176,577.03862 279.72712,497.26128 235.18854,415.39952 207.44015,300.93625 Z"
   id="path21"
   style="clip-rule:evenodd;fill:url(#SVGID_3_);fill-rule:evenodd;stroke-width:0.94491524"
   inkscape:connector-curvature="0"
   inkscape:export-filename="G:\Users\suitedoalex\sites\gil-vicente-fc-logo-4.png"
   inkscape:export-xdpi="113.66254"
   inkscape:export-ydpi="113.66254" />
<g
   id="g73"
   transform="matrix(0.24152558,0,0,0.24152558,-40.215352,222.25172)"
   inkscape:export-filename="G:\Users\suitedoalex\sites\gil-vicente-fc-logo-4.png"
   inkscape:export-xdpi="113.66254"
   inkscape:export-ydpi="113.66254">
	<path
   d="m 1437.4525,313.71595 c -102.0557,-61.27408 -184.7808,-197.41744 -14.5497,-296.984927 -9.7729,23.36018 5.3598,33.31306 29.8741,38.30118 -23.5558,29.09949 -25.4728,61.078487 2.4882,96.879727 -80.812,39.06019 -72.5766,95.73737 -17.8126,161.80402 z"
   id="path23"
   inkscape:connector-curvature="0"
   style="clip-rule:evenodd;fill:#083363;fill-rule:evenodd;stroke:#ffffff;stroke-width:7.35397959;stroke-linejoin:bevel;stroke-miterlimit:4;stroke-dasharray:none;paint-order:stroke fill markers" />
	<path
   d="m 1369.2889,273.70504 c 17.038,76.97801 70.0767,127.72026 195.8878,125.23206 -44.2323,-19.15452 -84.4426,-40.98112 -112.3998,-71.61817 -37.7261,-6.51394 -62.0487,-28.34836 -83.488,-53.61389 z"
   id="path25"
   inkscape:connector-curvature="0"
   style="clip-rule:evenodd;fill:#083363;fill-rule:evenodd;stroke:#ffffff;stroke-width:7.35397959;stroke-linejoin:bevel;stroke-miterlimit:4;stroke-dasharray:none;paint-order:stroke fill markers" />
	<path
   d="m 1450.2887,392.99825 53.6061,14.36198 c 8.8064,16.07946 22.4094,35.03836 42.5186,57.82346 -26.4314,17.80478 -49.0209,21.82269 -70.6675,23.16852 9.5772,-17.61699 4.0218,-45.76583 -10.1445,-52.85488 -15.1288,-7.0773 -16.6585,-23.73579 -15.3127,-42.49908 z"
   id="path27"
   inkscape:connector-curvature="0"
   style="clip-rule:evenodd;fill:#083363;fill-rule:evenodd;stroke:#ffffff;stroke-width:7.35397959;stroke-linejoin:bevel;stroke-miterlimit:4;stroke-dasharray:none;paint-order:stroke fill markers" />
	<path
   d="m 1211.6906,428.03661 c -2.676,-22.21391 7.6681,-30.25364 24.3148,-31.59947 l 49.9832,-7.84412 c 18.7672,-4.7847 37.7222,3.44282 56.4855,15.12878 27.5699,13.59518 57.2562,21.82269 88.085,27.37812 14.941,-0.3834 25.4689,5.93884 32.3623,18.19602 5.5515,12.25716 6.5179,24.31481 4.2175,36.57589 -7.0891,11.48644 -44.4318,-19.1467 -69.8929,-33.50867 -2.8755,-3.83403 -19.7257,6.69391 -31.5994,12.24543 23.1685,-29.87024 -7.4608,-35.04618 -29.2951,-44.42001 -6.3145,17.81261 -4.7848,32.94139 -1.1463,47.48724 -14.3621,-10.14454 -21.2555,-28.72395 -24.3227,-51.70466 -27.382,5.16812 -45.3824,24.13093 -56.4777,53.42215 -10.1562,-10.14453 -9.2055,-21.81878 4.7848,-35.22615 7.0773,-9.38556 21.8227,-24.31481 21.2514,-26.23574 -1.5335,-4.78863 -51.3212,-9.96066 -68.7504,20.10519 z"
   id="path29"
   inkscape:connector-curvature="0"
   style="clip-rule:evenodd;fill:#083363;fill-rule:evenodd;stroke:#ffffff;stroke-width:7.35397959;stroke-linejoin:bevel;stroke-miterlimit:4;stroke-dasharray:none;paint-order:stroke fill markers" />
	<path
   d="m 1518.2567,407.92751 c 28.5284,47.48722 62.8038,90.18583 119.6766,112.58754 l 56.4933,-1.14238 c 9.3738,-27.95715 12.2454,-58.20688 -2.8834,-94.40327 l -34.6588,1.92092 c -8.0398,10.91134 -25.4572,12.63275 -42.7025,14.54586 l 9.1938,-20.68423 -35.2261,-12.82444 c -23.3564,3.45063 -46.7205,1.91701 -69.8929,0 z"
   id="path31"
   inkscape:connector-curvature="0"
   style="clip-rule:evenodd;fill:#083363;fill-rule:evenodd;stroke:#ffffff;stroke-width:7.35397959;stroke-linejoin:bevel;stroke-miterlimit:4;stroke-dasharray:none;paint-order:stroke fill markers" />
	<path
   d="m 1636.7909,531.43812 c -20.6842,78.31208 -50.5583,147.82152 -127.7202,147.05471 -28.5401,-0.1917 -17.617,17.6209 -16.4629,31.02437 8.0398,-8.99433 17.9965,-16.27507 37.7144,-17.03797 13.7947,1.52578 27.5698,-3.45063 41.3645,-7.85194 -18.7672,23.17241 -54.7641,38.29337 -20.117,69.88893 -5.927,-48.64135 62.0488,-83.30022 116.805,-26.62305 9.7729,-15.12095 -24.6981,-44.98729 -31.5877,-43.26979 -11.8738,-3.06723 -8.6266,-27.57374 -9.1938,-46.71652 1.5297,-9.38556 10.1445,-23.37194 24.3147,-40.79724 18.3838,-17.22575 31.0283,-40.20256 41.3646,-65.6715 z"
   id="path33"
   inkscape:connector-curvature="0"
   style="clip-rule:evenodd;fill:#083363;fill-rule:evenodd;stroke:#ffffff;stroke-width:7.35397959;stroke-linejoin:bevel;stroke-miterlimit:4;stroke-dasharray:none;paint-order:stroke fill markers" />
	<path
   d="m 1633.7237,637.90686 9.186,-16.4746 c 0.9624,9.19385 13.9786,9.95284 27.386,10.34015 z"
   id="path35"
   inkscape:connector-curvature="0"
   style="clip-rule:evenodd;fill:#083363;fill-rule:evenodd;stroke:#ffffff;stroke-width:7.35397959;stroke-linejoin:bevel;stroke-miterlimit:4;stroke-dasharray:none" />
	<path
   d="m 1675.0843,411.56592 16.4629,-19.91348 c 3.834,6.69781 7.2846,13.97856 7.8558,24.31481 z"
   id="path37"
   inkscape:connector-curvature="0"
   style="clip-rule:evenodd;fill:#083363;fill-rule:evenodd;stroke:#ffffff;stroke-width:7.35397959;stroke-linejoin:bevel;stroke-miterlimit:4;stroke-dasharray:none;paint-order:stroke fill markers" />
	<path
   d="m 1752.254,370.21314 -1.1463,34.84275 28.5244,-7.46853 c -12.2533,-7.46072 -21.4432,-16.46287 -27.3781,-27.37422 z"
   id="path39"
   inkscape:connector-curvature="0"
   style="clip-rule:evenodd;fill:#083363;fill-rule:evenodd;stroke:#ffffff;stroke-width:7.35397959;stroke-linejoin:bevel;stroke-miterlimit:4;stroke-dasharray:none;paint-order:stroke fill markers" />
	<path
   d="m 1544.8797,335.73424 c 26.8109,14.17809 59.5489,22.40171 97.275,25.47284 -4.0297,20.10911 -7.6682,40.9772 -19.3423,51.70466 -90.761,-31.78725 -162.3791,-80.23298 -206.7991,-152.03894 -20.5004,-34.65887 -13.2157,-65.87493 33.5086,-92.48624 44.8034,-24.51824 103.3976,-9.00219 116.7972,7.27294 45.1985,43.65318 27.3859,87.31417 10.923,130.78351 10.528,6.32225 27.3781,8.42314 62.616,-1.71749 3.6345,15.31266 5.9389,30.82484 1.1463,46.1375 -33.3208,-3.05548 -66.0666,-7.27292 -96.1247,-15.12878 z"
   id="path41"
   inkscape:connector-curvature="0"
   style="clip-rule:evenodd;fill:#083363;fill-rule:evenodd;stroke:#ffffff;stroke-width:7.35397959;stroke-linejoin:bevel;stroke-miterlimit:4;stroke-dasharray:none;paint-order:stroke fill markers" />
	<path
   d="m 1520.5611,91.795883 c -8.8066,26.990807 -62.8116,25.468937 -60.703,41.352737 2.2927,19.34231 18.0004,17.81263 38.3012,9.18607 28.5244,-10.32844 152.0351,48.63743 94.2116,161.045 20.2969,0.19562 35.6135,-7.27292 51.693,-13.20784 16.6584,41.744 9.9606,89.41902 -13.3996,140.92807 22.9768,-13.39954 43.8527,-30.25755 62.037,-51.69684 33.5087,47.49115 36.5759,142.84901 51.7047,170.22323 8.9904,-177.50398 -12.0655,-330.11019 -156.2525,-381.23588 -41.9358,-10.34793 -75.4483,-71.426417 -67.5924,-76.594547 z"
   id="path43"
   inkscape:connector-curvature="0"
   style="clip-rule:evenodd;fill:#083363;fill-rule:evenodd;stroke:#ffffff;stroke-width:7.35397959;stroke-linejoin:bevel;stroke-miterlimit:4;stroke-dasharray:none;paint-order:stroke fill markers" />
	<path
   d="m 1428.2586,23.808333 c 3.4507,13.2078 15.7078,22.02999 35.238,27.19811 -20.6843,24.31095 -28.724,49.009127 -12.2572,74.861427 5.9389,-12.05762 16.6585,-20.48074 30.4414,-26.235667 17.2336,-3.6345 31.4039,-12.44107 43.8528,-24.12313 4.2174,25.468937 8.8065,50.742247 31.0204,63.766247 -13.4113,-49.020877 12.0616,-116.804987 20.6843,-147.0664868 12.0576,-82.9128502 -55.9104,-134.6058632 -112.0204,-76.7784202 47.8707,66.25443 30.6371,99.77085 -36.9593,108.37792 z"
   id="path45"
   inkscape:connector-curvature="0"
   style="clip-rule:evenodd;fill:#083363;fill-rule:evenodd;stroke:#ffffff;stroke-width:7.35397959;stroke-linejoin:bevel;stroke-miterlimit:4;stroke-dasharray:none;paint-order:stroke fill markers" />
	<path
   d="m 1436.1106,-62.543467 c 8.6266,-2.30439 26.2357,-4.98425 25.4689,-6.7057 -3.6345,-9.95675 -22.0182,-5.74317 -25.4689,6.7057 z"
   id="path47"
   inkscape:connector-curvature="0"
   style="clip-rule:evenodd;fill:#083363;fill-rule:evenodd;stroke:#ffffff;stroke-width:7.35397959;stroke-linejoin:bevel;stroke-miterlimit:4;stroke-dasharray:none;paint-order:stroke fill markers" />
	<path
   d="m 1450.2887,-57.375337 c 2.4882,0 13.7751,6.70562 19.5301,10.14448 l 4.2057,-14.36192 z"
   id="path49"
   inkscape:connector-curvature="0"
   style="clip-rule:evenodd;fill:#083363;fill-rule:evenodd;stroke:#ffffff;stroke-width:7.35397959;stroke-linejoin:bevel;stroke-miterlimit:4;stroke-dasharray:none;paint-order:stroke fill markers" />
	<path
   d="m 1431.5215,-25.779777 c 5.5476,1.33405 44.0405,-8.80657 49.3925,-19.72182 6.5218,37.7143702 -9.186,55.71474 -45.1868,55.3313802 -19.1467,0.3833598 -29.8703,-31.3921302 -4.2057,-35.6095602 z"
   id="path51"
   inkscape:connector-curvature="0"
   style="clip-rule:evenodd;fill:#083363;fill-rule:evenodd;stroke:#ffffff;stroke-width:7.35397959;stroke-linejoin:bevel;stroke-miterlimit:4;stroke-dasharray:none;paint-order:stroke fill markers" />
	<path
   d="m 1456.9826,-95.101467 c -12.4488,-29.874113 -13.5952,-58.398553 27.7655,-82.333853 -0.1957,16.46287 -0.763,34.4671 4.2174,34.4671 25.4611,-37.91386 57.0606,-40.40204 89.8024,-35.61342 -10.9192,10.14449 -23.1646,20.09737 -22.2139,30.25361 37.9139,-4.78468 70.4679,1.71751 82.3339,50.550563 -29.8742,-14.941003 -59.7405,-28.716123 -85.0177,-9.569443 -32.3584,-24.32261 -64.713,-16.66631 -96.8876,12.245443 z"
   id="path53"
   inkscape:connector-curvature="0"
   style="clip-rule:evenodd;fill:#083363;fill-rule:evenodd;stroke:#ffffff;stroke-width:7.35397959;stroke-linejoin:bevel;stroke-miterlimit:4;stroke-dasharray:none;paint-order:stroke fill markers" />
	
	<path
   d="m 1713.9645,166.65731 c 28.724,-75.823867 78.1165,-133.076097 178.2551,-144.754297 -16.6467,12.44887 -31.7754,24.88994 -40.9654,37.33487 39.8309,-1.92094 75.0531,2.10481 93.0574,29.30301 -47.3033,-5.93889 -92.1067,-4.60089 -129.2538,21.251497 -45.5702,11.86979 -76.7862,32.1706 -101.0933,56.86492 z"
   id="path57"
   inkscape:connector-curvature="0"
   style="clip-rule:evenodd;fill:#083363;fill-rule:evenodd;stroke:#ffffff;stroke-width:7.35397959;stroke-linejoin:bevel;stroke-miterlimit:4;stroke-dasharray:none;paint-order:stroke fill markers" />
	<path
   d="m 1711.2807,248.03661 -29.303,-30.8248 c 61.8493,-95.16231 149.5469,-122.544297 264.4348,-79.27449 -48.2423,3.83399 -99.3718,-3.25507 -139.3944,31.4038 29.1073,11.29475 56.8689,23.36412 70.8474,45.1868 -76.2151,-19.14668 -132.3093,-8.81043 -166.5848,33.50869 z"
   id="path59"
   inkscape:connector-curvature="0"
   style="clip-rule:evenodd;fill:#083363;fill-rule:evenodd;stroke:#ffffff;stroke-width:7.35397959;stroke-linejoin:bevel;stroke-miterlimit:4;stroke-dasharray:none;paint-order:stroke fill markers" />
	<path
   d="m 1735.2121,297.05746 -21.2515,-40.01873 c 22.0144,-43.46149 148.7722,-53.61379 174.4407,-28.72393 22.3978,16.08732 72.9522,129.82115 6.4983,168.70137 -0.7668,-28.34054 -3.6345,-56.10598 -16.0717,-81.3793 -10.3479,21.4432 -21.451,42.31519 -50.5622,45.18681 10.348,-29.29514 6.7095,-57.06057 -9.5655,-83.48801 -3.6424,18.18426 -7.6642,34.85057 -14.366,42.50689 -10.1406,11.49037 -16.8502,2.68383 -23.9353,-5.35982 -9.7611,-11.10305 -27.5737,-14.17026 -45.1868,-17.42528 z"
   id="path61"
   inkscape:connector-curvature="0"
   style="clip-rule:evenodd;fill:#083363;fill-rule:evenodd;stroke:#ffffff;stroke-width:7.35397959;stroke-linejoin:bevel;stroke-miterlimit:4;stroke-dasharray:none;paint-order:stroke fill markers" />
	<path
   d="m 1828.2695,166.65731 c 93.261,30.83269 184.6009,236.68109 11.6822,254.29809 53.2421,26.23573 100.5338,31.21214 127.7201,-33.50867 7.4725,18.56767 13.0201,38.29338 13.3996,61.27019 72.381,-183.82231 -10.7157,-254.29418 -152.8019,-282.05961 z"
   id="path63"
   inkscape:connector-curvature="0"
   style="clip-rule:evenodd;fill:#083363;fill-rule:evenodd;stroke:#ffffff;stroke-width:7.35397959;stroke-linejoin:bevel;stroke-miterlimit:4;stroke-dasharray:none;paint-order:stroke fill markers" />
	<path
   d="m 1817.7416,508.84081 c 24.7061,-16.08729 44.9951,-36.56806 62.8077,-59.7444 28.7162,4.21353 55.9026,-4.59693 81.7588,-25.4611 -5.7432,45.75409 -31.2121,76.01556 -39.244,110.10323 -5.9389,-13.59516 -4.6087,-34.47108 -2.6839,-55.9221 -31.9789,22.21783 -51.7085,61.85312 -61.0824,116.04599 -10.927,-22.97681 -10.348,-83.67188 0.9468,-90.37753 -14.1663,6.88562 -28.3366,9.56943 -42.503,5.35591 z"
   id="path65"
   inkscape:connector-curvature="0"
   style="clip-rule:evenodd;fill:#083363;fill-rule:evenodd;stroke:#ffffff;stroke-width:7.35397959;stroke-linejoin:bevel;stroke-miterlimit:4;stroke-dasharray:none;paint-order:stroke fill markers" />
	<path
   d="m 1844.3568,161.2975 c 151.4678,32.558 230.3589,118.52637 132.9002,314.41413 9.9371,6.13837 23.1645,6.51003 37.3309,5.37156 -17.8126,58.01518 -22.0183,116.79715 13.2039,177.68784 -2.8638,-80.61248 17.617,-157.59046 42.9021,-233.41824 38.3012,-151.64775 -70.6518,-272.47841 -226.3371,-264.05529 z"
   id="path67"
   inkscape:connector-curvature="0"
   style="clip-rule:evenodd;fill:#083363;fill-rule:evenodd;stroke:#ffffff;stroke-width:7.35397959;stroke-linejoin:bevel;stroke-miterlimit:4;stroke-dasharray:none;paint-order:stroke fill markers" />
	<path
   d="m 1674.9004,208.98424 -22.03,-18.57936 c -0.3834,-1.34195 -0.7669,-2.48826 -1.1424,-3.63844 -58.7937,-185.5475968 373.0123,-434.85751 389.2756,-53.42219 -98.8006,-211.212167 -287.795,-124.2812868 -345.6224,52.65537 z"
   id="path69"
   inkscape:connector-curvature="0"
   style="clip-rule:evenodd;fill:#083363;fill-rule:evenodd;stroke:#ffffff;stroke-width:7.35397959;stroke-linejoin:bevel;stroke-miterlimit:4;stroke-dasharray:none;paint-order:stroke fill markers" />
	<path
   d="m 1846.8529,-73.650477 c 52.0763,-3.45062 103.7771,-4.79249 150.6931,40.97726 25.0777,-11.68601 48.0702,-26.04793 63.9579,-49.40038 -16.6545,2.68381 -34.0876,4.58913 -55.3391,2.48826 21.2515,-22.589503 39.0601,-45.390243 49.2047,-67.975873 -66.2506,52.655373 -188.0319,35.60955 -208.5166,73.910733 z"
   id="path71"
   inkscape:connector-curvature="0"
   style="clip-rule:evenodd;fill:#083363;fill-rule:evenodd;stroke:#ffffff;stroke-width:7.35397959;stroke-linejoin:bevel;stroke-miterlimit:4;stroke-dasharray:none;paint-order:stroke fill markers" />
</g>
<path
   d="m 192.59365,152.80379 c 20.39694,143.13672 44.72473,285.26047 157.10728,404.94816 64.05297,-50.36401 145.26654,-199.23632 152.34301,-404.94816 -88.66045,-27.51877 -191.65432,-27.79658 -309.45029,0 z"
   id="path75"
   inkscape:connector-curvature="0"
   style="clip-rule:evenodd;fill:none;fill-rule:evenodd;stroke:#9ea85e;stroke-width:1.24728823;stroke-linejoin:bevel"
   inkscape:export-filename="G:\Users\suitedoalex\sites\gil-vicente-fc-logo-4.png"
   inkscape:export-xdpi="113.66254"
   inkscape:export-ydpi="113.66254" />
<g
   id="g87"
   transform="matrix(0.94491521,0,0,0.94491521,181.07891,122.96148)"
   inkscape:export-filename="G:\Users\suitedoalex\sites\gil-vicente-fc-logo-4.png"
   inkscape:export-xdpi="113.66254"
   inkscape:export-ydpi="113.66254">
	<g
   id="g85">
		<path
   d="m 144.042,318.64 c 1.96,0 4.504,0.293 7.635,0.93 0.491,0.098 1.225,0.246 2.251,0.393 0.148,0.049 0.246,0.145 0.246,0.294 v 8.565 c 0,0.195 -0.098,0.294 -0.246,0.294 h -2.251 c -0.145,0 -0.243,-0.099 -0.243,-0.246 l -1.126,-6.363 c 0,-0.097 -0.098,-0.194 -0.243,-0.243 -3.281,-0.735 -5.385,-1.078 -6.412,-1.078 -4.945,0 -8.859,1.42 -11.698,4.307 -2.887,2.891 -4.307,6.805 -4.307,11.798 0,4.992 1.37,9.296 4.159,12.823 2.987,3.817 6.901,5.728 11.796,5.728 1.371,0 3.278,-0.246 5.678,-0.735 v -11.455 c 0,-0.196 -0.098,-0.243 -0.294,-0.243 l -4.846,-0.439 c -0.195,0 -0.245,-0.149 -0.245,-0.393 v -1.371 c 0,-0.196 0.098,-0.293 0.294,-0.293 h 14.487 c 0.196,0 0.341,0.097 0.341,0.293 v 1.371 c 0,0.243 -0.098,0.393 -0.293,0.393 l -4.257,0.439 c -0.148,0 -0.246,0.047 -0.294,0.146 v 13.216 c 0,0.097 -0.098,0.196 -0.246,0.293 -3.962,0.882 -7.633,1.321 -11.06,1.321 -5.972,0 -10.868,-1.761 -14.733,-5.385 -3.962,-3.718 -5.971,-8.467 -5.971,-14.388 0,-3.965 1.028,-7.491 2.985,-10.573 1.957,-3.132 4.749,-5.531 8.369,-7.146 3.232,-1.519 6.757,-2.253 10.524,-2.253 z"
   id="path77"
   inkscape:connector-curvature="0"
   style="clip-rule:evenodd;fill:#ffffff;fill-rule:evenodd" />
		<path
   d="m 165.823,319.471 c 0.196,0 0.294,0.099 0.294,0.294 v 1.471 c 0,0.193 -0.098,0.292 -0.294,0.292 l -4.405,0.44 c -0.148,0 -0.196,0.049 -0.246,0.099 -0.047,0.099 -0.047,0.196 0,0.294 l 10.475,28.045 10.816,-28.143 c 0.098,-0.246 0,-0.393 -0.245,-0.393 l -4.258,-0.343 c -0.196,-0.048 -0.293,-0.146 -0.293,-0.292 v -1.471 c 0,-0.195 0.097,-0.294 0.293,-0.294 h 12.287 c 0.195,0 0.292,0.099 0.292,0.294 v 1.471 c 0,0.193 -0.097,0.292 -0.292,0.292 l -4.651,0.44 c -0.098,0.049 -0.146,0.099 -0.196,0.197 l -14.146,36.068 c 0,0.1 -0.098,0.149 -0.243,0.149 h -1.468 c -0.098,0 -0.148,-0.05 -0.196,-0.149 l -13.361,-36.021 c -0.05,-0.146 -0.098,-0.196 -0.246,-0.196 l -4.503,-0.489 c -0.196,0 -0.243,-0.099 -0.243,-0.292 v -1.471 c 0,-0.195 0.098,-0.294 0.293,-0.294 h 14.536 z"
   id="path79"
   inkscape:connector-curvature="0"
   style="clip-rule:evenodd;fill:#ffffff;fill-rule:evenodd" />
		<path
   d="m 209.923,319.471 c 0.193,0 0.292,0.099 0.292,0.294 v 8.859 c 0,0.197 -0.099,0.342 -0.292,0.342 h -2.105 c -0.195,0 -0.293,-0.097 -0.293,-0.243 l -1.078,-6.411 c 0,-0.146 -0.096,-0.245 -0.342,-0.245 h -12.382 c -0.196,0 -0.246,0.099 -0.246,0.294 v 14.876 c 0,0.149 0.05,0.196 0.246,0.196 h 7.487 c 0.196,0 0.246,-0.047 0.246,-0.196 l 0.586,-4.6 c 0,-0.146 0.099,-0.243 0.294,-0.243 h 1.518 c 0.195,0 0.293,0.098 0.293,0.295 v 12.039 c 0,0.196 -0.098,0.293 -0.293,0.293 h -1.518 c -0.195,0 -0.294,-0.097 -0.294,-0.243 l -0.586,-4.652 c 0,-0.146 -0.05,-0.193 -0.246,-0.193 h -7.487 c -0.196,0 -0.246,0.047 -0.246,0.193 v 14.733 c 0,0.149 0.05,0.246 0.246,0.246 l 4.844,0.439 c 0.148,0 0.246,0.1 0.246,0.296 v 1.465 c 0,0.196 -0.098,0.293 -0.246,0.293 h -15.173 c -0.146,0 -0.245,-0.097 -0.245,-0.293 v -1.465 c 0,-0.196 0.098,-0.296 0.245,-0.296 l 4.846,-0.439 c 0.196,0 0.245,-0.097 0.245,-0.246 v -32.693 c 0,-0.148 -0.048,-0.197 -0.146,-0.197 h -0.098 l -4.846,-0.44 c -0.146,0 -0.245,-0.099 -0.245,-0.292 v -1.471 c 0,-0.195 0.048,-0.294 0.196,-0.294 h 26.577 z"
   id="path81"
   inkscape:connector-curvature="0"
   style="clip-rule:evenodd;fill:#ffffff;fill-rule:evenodd" />
		<path
   d="m 232.046,318.64 c 0.635,0 1.418,0.051 2.299,0.148 0.883,0.049 1.762,0.193 2.643,0.342 0.883,0.098 1.762,0.294 2.594,0.439 0.881,0.148 1.615,0.294 2.254,0.393 0.193,0.049 0.291,0.145 0.291,0.294 v 8.565 c 0,0.195 -0.098,0.294 -0.291,0.294 h -2.203 c -0.098,0 -0.149,0 -0.244,-0.052 -0.051,-0.047 -0.051,-0.098 -0.051,-0.194 l -1.126,-6.363 c 0,-0.097 -0.097,-0.194 -0.243,-0.243 -0.344,-0.098 -0.735,-0.196 -1.274,-0.295 -0.489,-0.147 -1.026,-0.293 -1.564,-0.391 -0.589,-0.148 -1.126,-0.246 -1.714,-0.295 -0.588,-0.098 -1.125,-0.098 -1.664,-0.098 -2.545,0 -4.796,0.393 -6.756,1.127 -1.957,0.783 -3.619,1.908 -4.942,3.328 -1.371,1.419 -2.399,3.131 -3.082,5.09 -0.686,2.006 -1.028,4.158 -1.028,6.56 0,2.493 0.343,4.843 1.075,7.046 0.733,2.25 1.812,4.21 3.182,5.924 1.371,1.664 2.987,3.035 4.944,4.014 1.91,0.976 4.063,1.468 6.361,1.468 0.442,0 0.93,-0.05 1.518,-0.05 0.589,-0.047 1.176,-0.097 1.762,-0.193 0.588,-0.05 1.125,-0.149 1.715,-0.249 0.587,-0.144 1.076,-0.29 1.469,-0.536 0.146,-0.1 0.243,-0.196 0.243,-0.293 l 1.126,-6.36 c 0,-0.053 0,-0.1 0.051,-0.149 0.095,-0.05 0.146,-0.1 0.244,-0.1 h 2.203 c 0.193,0 0.291,0.1 0.291,0.296 v 8.517 c 0,0.146 -0.098,0.193 -0.291,0.29 -0.639,0.149 -1.321,0.346 -2.106,0.492 -0.732,0.193 -1.564,0.343 -2.446,0.489 -0.93,0.144 -1.86,0.243 -2.887,0.34 -1.078,0.1 -2.203,0.149 -3.479,0.149 -2.055,0 -3.962,-0.196 -5.773,-0.636 -1.859,-0.489 -3.525,-1.125 -5.043,-1.96 -1.514,-0.879 -2.887,-1.907 -4.061,-3.082 -1.223,-1.225 -2.203,-2.496 -3.035,-3.967 -0.783,-1.465 -1.419,-3.029 -1.858,-4.746 -0.491,-1.711 -0.686,-3.521 -0.686,-5.382 0,-2.106 0.243,-4.063 0.784,-5.875 0.537,-1.81 1.271,-3.475 2.251,-4.943 0.929,-1.518 2.103,-2.838 3.425,-3.963 1.321,-1.127 2.74,-2.056 4.356,-2.841 1.564,-0.784 3.278,-1.368 5.138,-1.761 1.809,-0.391 3.667,-0.588 5.628,-0.588 z"
   id="path83"
   inkscape:connector-curvature="0"
   style="clip-rule:evenodd;fill:#ffffff;fill-rule:evenodd" />
	</g>
</g>
<g
   id="g107"
   transform="matrix(0.94491521,0,0,0.94491521,181.07891,122.96148)"
   inkscape:export-filename="G:\Users\suitedoalex\sites\gil-vicente-fc-logo-4.png"
   inkscape:export-xdpi="113.66254"
   inkscape:export-ydpi="113.66254">
	<g
   id="g105">
		<path
   d="m 149.426,373.017 c 0,0.05 0,0.097 0.051,0.097 h 0.439 c 0.832,0 1.419,-0.144 1.811,-0.393 0.539,-0.29 0.832,-0.832 0.832,-1.512 0,-0.542 -0.196,-0.981 -0.587,-1.274 -0.341,-0.296 -0.832,-0.442 -1.37,-0.442 h -0.538 -0.587 c -0.051,0 -0.051,0 -0.051,0.05 z m 0,4.892 c 0,0.05 0,0.1 0.051,0.1 h 0.929 c 1.762,0 2.644,-0.686 2.644,-2.007 0,-1.567 -0.98,-2.35 -2.937,-2.35 h -0.636 c -0.051,0 -0.051,0.05 -0.051,0.1 z m 0.783,-9.099 c 1.225,0 2.106,0.146 2.594,0.39 0.344,0.196 0.587,0.439 0.784,0.686 0.196,0.343 0.293,0.732 0.293,1.175 0,1.025 -0.587,1.761 -1.761,2.203 0.636,0.146 1.223,0.439 1.664,0.879 0.489,0.492 0.732,1.078 0.732,1.764 0,0.539 -0.145,1.028 -0.439,1.468 -0.587,0.882 -1.761,1.321 -3.524,1.321 h -3.719 c -0.05,0 -0.098,-0.047 -0.098,-0.097 v -0.393 c 0,-0.047 0.048,-0.047 0.098,-0.047 l 1.225,-0.149 c 0.047,0 0.097,0 0.097,-0.05 v -8.467 c 0,-0.047 -0.05,-0.047 -0.097,-0.047 l -1.225,-0.149 c -0.05,0 -0.098,0 -0.098,-0.05 v -0.387 c 0,-0.05 0.048,-0.05 0.098,-0.05 z"
   id="path89"
   inkscape:connector-curvature="0"
   style="clip-rule:evenodd;fill:#ffffff;fill-rule:evenodd" />
		<path
   d="m 159.363,370.764 c 0,0 0,-0.047 -0.05,-0.047 l -0.048,0.047 -1.371,3.527 c -0.048,0.047 0,0.097 0.05,0.097 h 2.643 c 0.098,0 0.098,-0.05 0.098,-0.097 z m 1.42,7.93 c -0.05,0 -0.05,-0.047 -0.05,-0.097 v -0.393 c 0,-0.047 0,-0.047 0.05,-0.047 l 1.173,-0.149 h 0.051 c 0,-0.05 0,-0.05 0,-0.1 l -1.078,-2.886 c -0.048,0 -0.048,0 -0.048,0 h -3.231 -0.05 l -1.173,2.936 c 0,0.05 0,0.1 0.098,0.1 l 1.075,0.1 c 0.05,0 0.098,0 0.098,0.047 v 0.393 c 0,0.05 -0.048,0.097 -0.098,0.097 h -3.13 c -0.05,0 -0.098,-0.047 -0.098,-0.097 v -0.393 c 0,-0.047 0.048,-0.047 0.098,-0.047 l 1.173,-0.149 c 0.05,0 0.05,0 0.05,0 l 3.769,-9.398 c 0,-0.047 0,-0.047 0.048,-0.047 h 0.344 c 0.047,0 0.047,0 0.047,0.047 l 3.475,9.349 c 0,0.05 0,0.05 0.051,0.05 l 1.173,0.149 c 0.05,0 0.05,0 0.05,0.047 v 0.393 c 0,0.05 0,0.097 -0.098,0.097 h -3.769 z"
   id="path91"
   inkscape:connector-curvature="0"
   style="clip-rule:evenodd;fill:#ffffff;fill-rule:evenodd" />
		<path
   d="m 167.389,373.409 c 0,0.05 0,0.05 0.05,0.05 0.686,0 1.173,0 1.419,-0.05 0.734,-0.05 1.223,-0.296 1.518,-0.782 0.196,-0.293 0.294,-0.639 0.294,-1.031 0,-1.415 -0.882,-2.104 -2.694,-2.104 h -0.538 c -0.05,0 -0.05,0 -0.05,0.05 v 3.867 z m 0.834,-4.599 c 1.321,0 2.298,0.193 2.887,0.586 0.636,0.489 0.98,1.175 0.98,2.007 0,0.932 -0.442,1.664 -1.373,2.153 -0.293,0.146 -0.587,0.243 -0.929,0.343 0.489,0.243 0.979,0.785 1.419,1.661 l 1.271,2.399 c 0,0.05 0.05,0.05 0.098,0.05 l 1.077,0.149 c 0.048,0 0.048,0 0.048,0.047 v 0.393 c 0,0.05 0,0.097 -0.048,0.097 h -2.301 c -0.047,0 -0.098,-0.047 -0.098,-0.097 l -1.271,-2.643 c -0.587,-1.271 -1.371,-1.91 -2.348,-1.91 h -0.196 c -0.05,0 -0.05,0.05 -0.05,0.097 v 3.817 c 0,0.05 0,0.05 0.05,0.05 l 1.419,0.149 c 0.048,0 0.048,0 0.048,0.047 v 0.393 c 0,0.05 0,0.097 -0.048,0.097 h -4.11 c -0.05,0 -0.05,-0.047 -0.05,-0.097 v -0.393 c 0,-0.047 0,-0.047 0.05,-0.047 l 1.271,-0.149 c 0.047,0 0.047,0 0.047,-0.05 v -8.467 c 0,-0.047 0,-0.047 -0.047,-0.047 l -1.271,-0.149 c -0.05,0 -0.05,0 -0.05,-0.05 v -0.387 c 0,-0.05 0,-0.05 0.05,-0.05 h 3.475 z"
   id="path93"
   inkscape:connector-curvature="0"
   style="clip-rule:evenodd;fill:#ffffff;fill-rule:evenodd" />
		<path
   d="m 179.235,368.563 c 0.145,0 0.341,0.047 0.584,0.047 0.248,0 0.442,0.05 0.687,0.1 0.243,0.05 0.439,0.05 0.686,0.1 0.196,0.05 0.393,0.097 0.538,0.097 0.098,0.05 0.098,0.05 0.098,0.097 v 2.206 c 0,0.047 0,0.097 -0.098,0.097 h -0.538 c -0.05,0 -0.05,0 -0.05,-0.05 -0.048,0 -0.048,0 -0.048,0 l -0.294,-1.664 c 0,-0.05 0,-0.05 -0.05,-0.1 -0.095,0 -0.193,0 -0.341,-0.047 -0.098,-0.05 -0.245,-0.1 -0.393,-0.1 -0.145,-0.05 -0.293,-0.05 -0.439,-0.1 -0.145,0 -0.294,0 -0.439,0 -0.639,0 -1.223,0.1 -1.714,0.296 -0.538,0.193 -0.98,0.489 -1.321,0.829 -0.341,0.393 -0.587,0.838 -0.784,1.324 -0.196,0.539 -0.294,1.075 -0.294,1.714 0,0.636 0.098,1.274 0.294,1.811 0.196,0.589 0.489,1.125 0.832,1.564 0.344,0.442 0.784,0.785 1.273,1.028 0.491,0.246 1.075,0.393 1.664,0.393 0.098,0 0.246,0 0.391,-0.047 0.146,0 0.294,0 0.439,-0.05 0.149,0 0.294,0 0.442,-0.05 0.146,-0.05 0.294,-0.05 0.39,-0.149 0.05,0 0.05,-0.047 0.05,-0.047 l 0.294,-1.664 c 0,0 0,-0.05 0.048,-0.05 0,0 0,0 0.05,0 h 0.538 c 0.098,0 0.098,0 0.098,0.05 v 2.2 c 0,0.053 0,0.1 -0.098,0.1 -0.145,0.05 -0.294,0.1 -0.489,0.149 -0.196,0 -0.441,0.047 -0.684,0.097 -0.196,0.05 -0.442,0.097 -0.737,0.097 -0.243,0.05 -0.538,0.05 -0.879,0.05 -0.541,0 -1.027,-0.05 -1.518,-0.196 -0.489,-0.097 -0.882,-0.296 -1.273,-0.489 -0.441,-0.246 -0.782,-0.492 -1.077,-0.782 -0.293,-0.343 -0.587,-0.686 -0.784,-1.028 -0.195,-0.393 -0.391,-0.782 -0.489,-1.274 -0.098,-0.437 -0.196,-0.882 -0.196,-1.368 0,-0.539 0.098,-1.031 0.246,-1.518 0.098,-0.489 0.294,-0.882 0.538,-1.274 0.294,-0.39 0.589,-0.732 0.93,-1.025 0.344,-0.296 0.686,-0.539 1.125,-0.735 0.393,-0.196 0.832,-0.39 1.321,-0.489 0.491,-0.103 0.981,-0.15 1.471,-0.15 z"
   id="path95"
   inkscape:connector-curvature="0"
   style="clip-rule:evenodd;fill:#ffffff;fill-rule:evenodd" />
		<path
   d="m 189.561,368.81 c 0.048,0 0.048,0 0.048,0.05 v 2.297 c 0,0.053 0,0.1 -0.048,0.1 h -0.587 c -0.048,0 -0.048,-0.047 -0.048,-0.047 l -0.293,-1.667 c 0,-0.05 -0.05,-0.05 -0.05,-0.05 h -3.378 c -0.047,0 -0.098,0 -0.098,0.05 v 3.624 c 0,0.047 0.051,0.097 0.098,0.097 h 2.008 c 0.047,0 0.098,-0.05 0.098,-0.097 l 0.145,-1.178 c 0,-0.047 0,-0.047 0.05,-0.047 h 0.393 c 0.048,0 0.098,0 0.098,0.047 v 3.231 c 0,0.05 -0.05,0.05 -0.098,0.05 h -0.393 c -0.05,0 -0.05,0 -0.05,-0.05 l -0.145,-1.274 c 0,-0.047 -0.051,-0.047 -0.098,-0.047 h -2.008 c -0.047,0 -0.098,0 -0.098,0.047 v 3.964 c 0,0.05 0.051,0.1 0.098,0.1 h 3.573 c 0.051,0 0.051,-0.05 0.051,-0.05 l 0.293,-1.661 c 0,-0.05 0.048,-0.05 0.098,-0.05 h 0.538 c 0.048,0 0.048,0.05 0.048,0.097 v 2.253 c 0,0.05 0,0.097 -0.048,0.097 h -7.244 c -0.05,0 -0.05,-0.047 -0.05,-0.097 v -0.393 c 0,-0.047 0,-0.047 0.05,-0.047 l 1.271,-0.149 c 0.05,0 0.05,0 0.05,-0.05 v -8.467 c 0,-0.047 -0.05,-0.047 -0.05,-0.047 l -1.271,-0.149 c -0.05,0 -0.05,0 -0.05,-0.05 v -0.387 c 0,-0.05 0,-0.05 0.05,-0.05 z"
   id="path97"
   inkscape:connector-curvature="0"
   style="clip-rule:evenodd;fill:#ffffff;fill-rule:evenodd" />
		<path
   d="m 190.393,368.859 c 0,-0.05 0,-0.05 0.05,-0.05 h 3.962 c 0.051,0 0.098,0 0.098,0.05 v 0.387 c 0,0.05 -0.047,0.05 -0.098,0.05 l -1.27,0.149 c -0.051,0 -0.098,0 -0.098,0.047 v 8.417 c 0,0.05 0.047,0.1 0.098,0.1 h 3.376 c 0.05,0 0.098,-0.05 0.098,-0.05 l 0.293,-1.661 c 0,-0.05 0,-0.05 0.048,-0.05 h 0.541 c 0.047,0 0.098,0.05 0.098,0.097 v 2.253 c 0,0.05 -0.051,0.097 -0.098,0.097 h -7.049 c -0.05,0 -0.05,-0.047 -0.05,-0.097 v -0.393 c 0,-0.047 0,-0.047 0.05,-0.047 l 1.225,-0.149 c 0.047,0 0.095,0 0.095,-0.05 v -8.467 c 0,-0.047 -0.048,-0.047 -0.095,-0.047 l -1.225,-0.149 c -0.05,0 -0.05,0 -0.05,-0.05 v -0.387 z"
   id="path99"
   inkscape:connector-curvature="0"
   style="clip-rule:evenodd;fill:#ffffff;fill-rule:evenodd" />
		<path
   d="m 202.874,368.563 c 1.47,0 2.692,0.489 3.573,1.468 0.881,0.979 1.371,2.203 1.371,3.671 0,1.468 -0.49,2.692 -1.371,3.671 -0.931,1.025 -2.104,1.518 -3.573,1.518 -1.468,0 -2.691,-0.492 -3.621,-1.468 -0.98,-0.979 -1.419,-2.203 -1.419,-3.671 0,-1.468 0.439,-2.742 1.37,-3.671 0.979,-1.028 2.202,-1.518 3.67,-1.518 z m -0.194,0.683 c -1.078,0 -1.96,0.445 -2.596,1.274 -0.538,0.785 -0.832,1.764 -0.832,2.889 0,0.829 0.146,1.567 0.393,2.25 0.341,0.785 0.781,1.421 1.368,1.863 0.589,0.486 1.274,0.683 2.057,0.683 1.076,0 1.959,-0.439 2.545,-1.321 0.49,-0.782 0.783,-1.714 0.783,-2.889 0,-1.321 -0.342,-2.399 -0.98,-3.328 -0.682,-0.932 -1.613,-1.421 -2.738,-1.421 z"
   id="path101"
   inkscape:connector-curvature="0"
   style="clip-rule:evenodd;fill:#ffffff;fill-rule:evenodd" />
		<path
   d="m 213.152,371.306 c -0.048,0 -0.048,-0.05 -0.048,-0.05 l -0.294,-1.664 c 0,-0.05 -0.051,-0.05 -0.099,-0.1 -0.392,-0.146 -0.831,-0.246 -1.321,-0.246 -0.537,0 -0.98,0.1 -1.321,0.393 -0.392,0.296 -0.587,0.686 -0.587,1.178 0,0.489 0.195,0.879 0.54,1.222 0.243,0.196 0.585,0.442 1.125,0.683 l 0.978,0.445 c 0.733,0.34 1.273,0.686 1.615,1.025 0.439,0.442 0.636,1.028 0.636,1.664 0,0.979 -0.393,1.761 -1.125,2.303 -0.687,0.489 -1.518,0.732 -2.546,0.732 -0.537,0 -1.125,-0.097 -1.813,-0.243 -0.193,-0.05 -0.341,-0.1 -0.486,-0.149 -0.051,0 -0.098,-0.047 -0.098,-0.1 v -2.2 c 0,-0.05 0.047,-0.05 0.098,-0.05 h 0.585 c 0.052,0 0.052,0 0.052,0.05 l 0.293,1.664 c 0.048,0 0.048,0 0.048,0 l 0.05,0.047 c 0.342,0.199 0.832,0.296 1.42,0.296 0.586,0 1.126,-0.146 1.518,-0.439 0.439,-0.343 0.684,-0.785 0.684,-1.371 0,-0.782 -0.537,-1.418 -1.615,-1.96 l -0.931,-0.439 c -0.733,-0.293 -1.271,-0.636 -1.616,-0.979 -0.439,-0.489 -0.682,-1.028 -0.682,-1.614 0,-0.639 0.195,-1.175 0.587,-1.667 0.39,-0.439 0.832,-0.779 1.468,-0.976 0.342,-0.1 0.783,-0.196 1.174,-0.196 0.587,0 1.176,0.097 1.764,0.196 0.145,0.05 0.341,0.1 0.537,0.146 0.049,0.05 0.049,0.05 0.049,0.097 v 2.206 c 0,0.047 0,0.097 -0.049,0.097 h -0.59 z"
   id="path103"
   inkscape:connector-curvature="0"
   style="clip-rule:evenodd;fill:#ffffff;fill-rule:evenodd" />
	</g>
</g>
</svg>