<?xml version="1.0" encoding="UTF-8" standalone="no"?>
<!-- Generator: Adobe Illustrator 13.0.2, SVG Export Plug-In . SVG Version: 6.00 Build 14948)  -->

<svg
   xmlns:dc="http://purl.org/dc/elements/1.1/"
   xmlns:cc="http://creativecommons.org/ns#"
   xmlns:rdf="http://www.w3.org/1999/02/22-rdf-syntax-ns#"
   xmlns:svg="http://www.w3.org/2000/svg"
   xmlns="http://www.w3.org/2000/svg"
   xmlns:sodipodi="http://sodipodi.sourceforge.net/DTD/sodipodi-0.dtd"
   xmlns:inkscape="http://www.inkscape.org/namespaces/inkscape"
   version="1.0"
   id="_xB9_Ï_xBC_h_1"
   x="0px"
   y="0px"
   width="700"
   height="700"
   viewBox="0 0 700.00004 700.00001"
   enable-background="new 0 0 596.069 335.301"
   xml:space="preserve"
   sodipodi:docname="moreirense-fc-logo.svg"
   inkscape:version="0.92.4 (5da689c313, 2019-01-14)"
   inkscape:export-filename="G:\Users\suitedoalex\sites\moreirense-fc-logo-0.png"
   inkscape:export-xdpi="561.73999"
   inkscape:export-ydpi="561.73999"><metadata
   id="metadata21"><rdf:RDF><cc:Work
       rdf:about=""><dc:format>image/svg+xml</dc:format><dc:type
         rdf:resource="http://purl.org/dc/dcmitype/StillImage" /><dc:title></dc:title></cc:Work></rdf:RDF></metadata><defs
   id="defs19" /><sodipodi:namedview
   pagecolor="#ffffff"
   bordercolor="#666666"
   borderopacity="1"
   objecttolerance="10"
   gridtolerance="10"
   guidetolerance="10"
   inkscape:pageopacity="0"
   inkscape:pageshadow="2"
   inkscape:window-width="1600"
   inkscape:window-height="837"
   id="namedview17"
   showgrid="false"
   inkscape:zoom="0.39621869"
   inkscape:cx="-3.5466086"
   inkscape:cy="303.49604"
   inkscape:window-x="-8"
   inkscape:window-y="-8"
   inkscape:window-maximized="1"
   inkscape:current-layer="_xB9_Ï_xBC_h_1" />
<path
   d="m 252.77475,197.51942 c 27.55837,15.8256 56.66293,30.46883 88.40508,35.38022 24.10221,2.6376 48.11347,-3.72902 70.12379,-13.188 13.82466,-5.82091 26.64885,-13.64276 39.10924,-21.91937 -3.09236,10.73231 -6.27567,21.46461 -7.368,32.56073 -1.00047,11.18706 -1.18237,22.55603 -0.18099,33.74309 54.20723,-0.091 108.32351,0 162.43979,0 5.2752,-0.18191 10.82326,2.27379 13.55181,6.91233 2.8195,4.82044 2.54665,10.7323 1.36428,15.91655 -0.90952,4.63854 -4.63945,8.54947 -9.27708,9.64089 -6.73043,1.63713 -13.82466,0.72761 -20.64604,1.00047 0.0919,7.27613 -2.4557,15.27989 -8.36756,19.91843 -9.09518,5.639 -20.28224,4.27473 -30.37697,4.18378 -0.0919,7.54899 -4.54759,14.91608 -11.82373,17.46273 -12.00563,4.18378 -24.92077,1.81903 -37.47211,2.6376 -0.0919,6.45757 -3.27517,12.91514 -8.82232,16.46226 -5.4571,3.18331 -12.00563,2.36475 -18.00844,2.6376 -0.90952,4.82044 -2.36566,9.82279 -6.27567,13.09705 -6.45758,5.63901 -15.6437,5.45711 -23.64745,5.45711 -2.72855,6.82138 -4.27382,14.18847 -7.45714,20.82794 -7.27704,15.73465 -18.55415,29.01451 -30.37787,41.38304 -19.09987,20.19038 -38.10878,40.47352 -56.93579,60.84671 -13.73462,-11.27801 -26.73981,-23.3755 -39.29206,-36.01871 -24.92077,-24.55696 -44.74825,-54.47917 -57.75435,-87.03989 -4.91139,0 -10.00469,0 -14.82513,-1.36428 -7.36709,-2.4557 -13.27895,-9.09517 -14.09752,-16.91702 -7.82185,-0.54571 -16.55321,-0.81857 -22.73793,-6.27567 -3.91093,-3.18331 -3.81997,-8.64042 -4.00188,-13.27895 -10.3685,0 -20.82794,0.091 -31.19644,0 -6.27567,0.091 -11.55087,-4.27474 -14.82513,-9.27708 -2.09189,-3.18331 -2.18285,-7.09424 -2.63761,-10.64135 -9.18612,0 -19.00891,0.72761 -27.28552,-4.09283 -7.27614,-4.18378 -10.27755,-12.55134 -13.09705,-19.91843 -6.63948,-0.45476 -13.460859,0.54571 -20.100336,-0.81857 -4.18378,-0.72761 -7.458042,-4.09283 -8.822318,-8.00375 -1.364276,-4.00188 -1.182373,-8.27661 -1.000469,-12.46039 0.181903,-4.72949 2.6376,-9.73183 7.094235,-11.55087 4.638538,-1.72808 9.549932,-1.36427 14.370378,-1.36427 51.29678,-0.091 102.59356,-0.27286 153.79938,-0.27286 2.18285,-13.3699 4.09283,-26.83076 3.09236,-40.38257 -0.91042,-8.54855 -2.91045,-16.82516 -4.63944,-25.28367 z"
   id="path2"
   inkscape:connector-curvature="0"
   style="fill:#af9713;stroke-width:0.90951735"
   inkscape:export-filename="G:\Users\suitedoalex\sites\moreirense-fc-logo-4.png"
   inkscape:export-xdpi="70.831207"
   inkscape:export-ydpi="70.831207" />
<path
   d="m 269.23701,220.71211 c 18.6451,6.91233 37.19926,14.46133 56.75388,18.37225 11.64182,2.72855 23.64745,4.00188 35.47118,2.4557 25.28458,-2.91046 49.47683,-11.55087 73.03424,-20.9189 l -0.45476,0.54571 c -7.45804,8.64041 -15.00704,17.18988 -22.55603,25.73934 -7.9128,0.63666 -16.00842,1.09142 -23.46555,4.09283 -6.27567,2.54665 -12.18753,6.00281 -18.09939,9.27708 3.45616,8.00375 7.45804,15.8256 8.82232,24.46601 -11.36897,12.46039 -22.28318,25.46649 -33.47024,38.10878 -22.73794,26.01219 -45.47587,51.93344 -68.12285,77.94563 -3.81997,-8.45851 -7.18519,-17.09892 -9.36803,-26.01219 -3.18331,-12.64229 -4.63854,-25.64839 -5.91186,-38.56354 -0.90952,-7.82185 -1.18237,-15.6437 -1.45523,-23.46554 -0.0909,-18.37225 2.72855,-36.5626 5.0933,-54.662 1.45523,-12.46038 2.54756,-24.92077 3.72902,-37.38116 z"
   id="path4"
   inkscape:connector-curvature="0"
   style="fill:#145f25;stroke-width:0.90951735"
   inkscape:export-filename="G:\Users\suitedoalex\sites\moreirense-fc-logo-4.png"
   inkscape:export-xdpi="70.831207"
   inkscape:export-ydpi="70.831207" />
<path
   d="m 411.48643,246.90621 c 7.54899,-8.54946 15.09799,-17.09893 22.55603,-25.73934 0.27285,6.91233 -0.90952,13.73371 -1.18237,20.55509 -0.90952,11.55087 -1.00138,23.19269 0.091,34.74356 0.90952,9.36803 1.81903,18.73606 1.90998,28.10409 0.45567,16.91702 2.72856,34.01595 0.0919,50.93297 -3.00141,19.09986 -8.73137,38.01782 -19.00892,54.48009 -8.36665,14.73509 -21.09989,26.10405 -32.196,38.56353 -11.27802,12.00472 -22.73793,23.7384 -34.74356,34.83543 -5.36615,-4.1856 -10.91421,-8.27843 -16.18941,-12.73325 -9.45898,-7.73089 -18.0994,-16.46408 -26.55791,-25.28549 -12.36943,-12.91423 -22.01032,-28.28599 -29.10455,-44.56635 22.64698,-26.01219 45.38491,-51.93344 68.12285,-77.94563 11.18706,-12.64229 22.10127,-25.64839 33.47023,-38.10878 1.45523,8.64042 1.36428,18.00844 -2.91045,25.92125 -2.36475,4.45663 -5.82091,8.0947 -8.91327,12.00562 2.91045,3.54712 5.63901,7.27614 8.64041,10.73231 3.36522,-4.45664 6.63948,-9.36803 8.18566,-14.82513 2.91045,-9.54994 3.00141,-19.64558 3.72902,-29.46837 0.90952,0.091 1.72808,0.27286 2.6376,0.45476 0.3629,5.91187 -0.72761,12.73325 3.27426,17.73559 2.36566,3.36522 7.18519,3.18331 10.45945,1.36428 2.00094,-1.00047 2.36566,-3.45617 3.36522,-5.2752 -2.81951,-0.72762 -5.63901,-1.00047 -8.54947,-1.00047 -0.091,-2.6376 -0.36289,-5.2752 -0.091,-7.82185 0.27286,-3.54712 2.36475,-6.54853 4.09283,-9.45898 -2.27379,-2.54665 -4.72949,-4.9114 -7.18519,-7.27614 -2.36474,1.90999 -4.72858,3.81997 -7.27614,5.4571 -0.63575,-0.45475 -1.81903,-1.27332 -2.36474,-1.72808 0.1819,-2.09189 0.45476,-4.18378 0.54571,-6.27567 5.63901,-5.54805 10.64135,-11.64182 15.73556,-17.64463 1.90999,0.27285 3.81906,0.63666 5.72996,1.00046 -1.18237,6.00282 -3.72993,11.64183 -4.09283,17.82654 -0.45476,4.00188 2.91046,8.00376 7.00328,7.9128 2.63669,0.36381 6.09286,-0.3638 6.45758,-3.54711 0,-4.82044 -5.18425,-7.82185 -5.18425,-12.64229 -0.091,-3.00141 0.1819,-6.18472 1.63713,-8.82232 2.27379,-3.54712 6.45848,-5.45711 8.18566,-9.36803 -0.181,-1.09142 -0.3629,-2.18284 -0.63576,-3.27426 -3.27881,0 -6.46212,0 -9.73547,0.1819 z"
   id="path6"
   inkscape:connector-curvature="0"
   style="fill:#ffffff;stroke-width:0.90951735"
   inkscape:export-filename="G:\Users\suitedoalex\sites\moreirense-fc-logo-4.png"
   inkscape:export-xdpi="70.831207"
   inkscape:export-ydpi="70.831207" />
<path
   d="m 280.51502,246.63336 c 9.45898,5.91186 17.18988,14.09751 23.82936,23.01078 3.81997,-4.45663 7.45804,-9.27707 12.46039,-12.55134 4.36568,-2.8195 9.36802,-4.45663 14.27942,-6.18471 0.0909,3.27426 0.0909,6.45757 0.0909,9.73183 -3.27426,1.36428 -6.54853,2.72855 -9.82279,4.00188 -0.27285,10.27754 0.45476,20.55509 2.18284,30.65073 1.45523,8.73137 6.00282,16.55322 10.5504,24.01126 -2.27379,3.72902 -5.00234,7.18519 -8.0947,10.3685 -3.00141,-6.45758 -5.72996,-13.0061 -7.9128,-19.82748 -3.45617,-12.46039 -3.36521,-25.55744 -4.27473,-38.38163 -2.36475,1.54618 -5.2752,3.00141 -6.09377,5.91186 -0.54571,3.09236 0.81857,6.00282 1.09142,9.00422 -0.81856,1.36428 -2.27379,2.2738 -3.54711,3.36522 -3.45617,-5.0933 -6.45758,-10.3685 -10.0047,-15.37085 -0.81856,10.73231 -1.63713,21.55556 -3.54711,32.19692 -1.63713,9.45898 -5.82091,18.19034 -10.82326,26.1941 -2.6376,-3.63807 -5.18425,-7.27614 -7.54899,-11.00516 2.27379,-5.00235 4.91139,-9.73184 6.91233,-14.82514 5.18425,-12.82419 6.91233,-26.83076 6.00281,-40.56447 -1.09142,-3.63807 -4.54758,-6.00281 -6.18471,-9.45898 -0.63576,-3.36521 0.091,-6.91233 0.45475,-10.27754 z"
   id="path8"
   inkscape:connector-curvature="0"
   style="fill:#af9713;stroke-width:0.90951735"
   inkscape:export-filename="G:\Users\suitedoalex\sites\moreirense-fc-logo-4.png"
   inkscape:export-xdpi="70.831207"
   inkscape:export-ydpi="70.831207" />
<path
   d="m 388.02088,250.99904 c 7.45713,-3.00141 15.55275,-3.45617 23.46555,-4.09283 3.27426,-0.1819 6.45757,-0.1819 9.73183,-0.1819 0.27286,1.09142 0.45476,2.18284 0.63576,3.27426 -1.72718,3.91092 -5.91187,5.82091 -8.18566,9.36803 -1.45523,2.6376 -1.72717,5.82091 -1.63713,8.82232 0,4.82044 5.18425,7.82185 5.18425,12.64229 -0.36381,3.18331 -3.81997,3.91092 -6.45757,3.54711 -4.09283,0.091 -7.45805,-3.91092 -7.00329,-7.9128 0.3629,-6.18471 2.91046,-11.82372 4.09283,-17.82654 -1.9109,-0.3638 -3.81997,-0.72761 -5.72996,-1.00046 -4.82135,-0.27286 -10.82326,-0.90952 -14.55228,2.8195 -2.27379,4.54759 -0.90951,9.91374 -1.18328,14.82513 -0.091,2.09189 -0.3629,4.18378 -0.54571,6.27567 0.54571,0.45476 1.72808,1.27333 2.36475,1.72808 2.54755,-1.63713 4.91139,-3.54711 7.27613,-5.4571 2.4557,2.36474 4.9114,4.72949 7.18519,7.27614 -1.72808,2.91045 -3.81997,5.91186 -4.09283,9.45898 -0.27285,2.54665 0,5.18425 0.091,7.82185 2.91045,0 5.73086,0.27285 8.54946,1.00047 -1.00047,1.81903 -1.36428,4.27473 -3.36522,5.2752 -3.27426,1.81903 -8.09379,2.00094 -10.45944,-1.36428 -4.00097,-5.00234 -2.91046,-11.82372 -3.27427,-17.73559 -0.90951,-0.1819 -1.72808,-0.3638 -2.6376,-0.45476 -0.72761,9.82279 -0.81765,19.91843 -3.72902,29.46837 -1.54618,5.4571 -4.82044,10.36849 -8.18565,14.82513 -3.00141,-3.45617 -5.72996,-7.18519 -8.64042,-10.73231 3.09145,-3.91092 6.54853,-7.54899 8.91327,-12.00562 4.27473,-7.91281 4.36568,-17.28083 2.91046,-25.92125 -1.36428,-8.64041 -5.36616,-16.46226 -8.82232,-24.46601 5.91368,-3.27427 11.82554,-6.73043 18.10121,-9.27708 z"
   id="path10"
   inkscape:connector-curvature="0"
   style="fill:#af9713;stroke-width:0.90951735"
   inkscape:export-filename="G:\Users\suitedoalex\sites\moreirense-fc-logo-4.png"
   inkscape:export-xdpi="70.831207"
   inkscape:export-ydpi="70.831207" />
<path
   d="m 387.56612,260.45802 c 3.72902,-3.72902 9.73093,-3.09236 14.55228,-2.8195 -5.09421,6.00281 -10.09655,12.09658 -15.73556,17.64463 0.27377,-4.91139 -1.09051,-10.27754 1.18328,-14.82513 z"
   id="path12"
   inkscape:connector-curvature="0"
   style="fill:#145f25;stroke-width:0.90951735"
   inkscape:export-filename="G:\Users\suitedoalex\sites\moreirense-fc-logo-4.png"
   inkscape:export-xdpi="70.831207"
   inkscape:export-ydpi="70.831207" />
<path
   d="m 365.64585,373.42007 c 2.18284,-0.63666 4.63944,0.90952 5.18424,3.09236 0,4.27473 -4.63853,6.27567 -5.54805,10.09564 -0.72852,3.18331 -1.36428,6.36662 -2.54756,9.45898 -2.09189,-0.63666 -5.4571,-0.091 -6.18472,-2.72855 -1.18237,-4.27473 -0.81765,-8.73137 -1.72717,-13.09705 -3.09236,1.45523 -7.00419,1.90999 -9.27799,4.72949 -3.18331,3.91093 -6.09376,8.27661 -6.73042,13.36991 -1.36428,9.36802 0.3638,18.73605 0.1819,28.10317 -0.27286,4.82135 2.72855,8.91418 5.82091,12.18753 2.27379,2.45661 6.27567,2.6376 8.91327,1.00047 3.45617,-2.72855 5.0933,-7.18336 5.36524,-11.36896 -0.091,-3.45526 -2.45478,-6.18381 -4.27382,-8.91236 3.27426,-2.72856 6.45757,-5.36616 9.54993,-8.09471 1.09051,8.36665 1.54527,16.91702 -0.0919,25.28549 -2.09189,6.91233 -7.82185,13.64276 -15.46179,13.82376 -5.63901,0.18099 -10.27755,-3.45708 -14.09752,-7.09515 -4.9114,-4.63854 -5.54806,-11.73095 -7.63995,-17.73559 -1.36427,-4.09282 -2.72855,-8.36665 -2.18284,-12.73233 0.54571,-7.9128 5.82091,-14.09752 8.0947,-21.37366 2.2738,-6.45757 6.91234,-12.00562 12.91515,-15.18894 2.91046,-1.36427 6.18472,-0.81856 9.36803,-1.09142 3.54894,0 6.91506,-1.09142 10.37032,-1.72808 z"
   id="path14"
   inkscape:connector-curvature="0"
   style="fill:#af9713;stroke-width:0.90951735"
   inkscape:export-filename="G:\Users\suitedoalex\sites\moreirense-fc-logo-4.png"
   inkscape:export-xdpi="70.831207"
   inkscape:export-ydpi="70.831207" />
</svg>