<?xml version="1.0" encoding="UTF-8"?>
<svg xmlns="http://www.w3.org/2000/svg" xmlns:xlink="http://www.w3.org/1999/xlink" width="574.05pt" height="734.15pt" viewBox="0 0 574.05 734.15" version="1.1">
<defs>
<clipPath id="clip1">
  <path d="M 0 0 L 574.050781 0 L 574.050781 187 L 0 187 Z M 0 0 "/>
</clipPath>
</defs>
<g id="surface1">
<path style=" stroke:none;fill-rule:nonzero;fill:rgb(99.598694%,76.098633%,5.099487%);fill-opacity:1;" d="M 481.644531 237.488281 L 479.730469 227.25 L 470.898438 222.269531 C 385.03125 173.65625 296.769531 174.445313 286.984375 174.691406 C 277.304688 174.414063 189.578125 173.386719 103.203125 222.285156 L 103.207031 222.285156 L 94.378906 227.25 L 92.484375 237.515625 C 92.445313 237.726563 88.558594 258.96875 88.558594 292.574219 C 88.558594 322.824219 91.679688 352.773438 97.828125 381.59375 C 107.8125 428.378906 125.5 471.671875 150.398438 510.273438 C 181.464844 558.421875 223.769531 599.183594 276.152344 631.429688 L 287.0625 638.15625 L 297.984375 631.429688 C 350.363281 599.183594 392.667969 558.421875 423.730469 510.273438 C 448.628906 471.675781 466.316406 428.382813 476.304688 381.59375 C 493.289063 301.992188 481.761719 238.121094 481.644531 237.488281 "/>
<path style=" stroke:none;fill-rule:nonzero;fill:rgb(13.699341%,12.199402%,12.5%);fill-opacity:1;" d="M 105.796875 227.289063 L 105.804688 227.285156 C 190.859375 179.136719 277.355469 180.117188 286.9375 180.390625 C 296.617188 180.148438 383.644531 179.394531 468.214844 227.273438 C 468.21875 227.273438 473.492188 230.246094 474.773438 230.96875 C 474.886719 231.574219 476.1875 238.566406 476.1875 238.566406 C 476.230469 238.773438 480.023438 259.855469 480.023438 292.574219 C 480.023438 322.402344 476.945313 351.941406 470.882813 380.363281 C 461.042969 426.460938 443.621094 469.105469 419.101563 507.113281 C 388.507813 554.546875 346.792969 594.71875 295.125 626.53125 C 295.125 626.53125 288.605469 630.546875 287.023438 631.519531 C 286.375 631.121094 278.925781 626.53125 278.925781 626.53125 C 227.257813 594.726563 185.539063 554.546875 154.9375 507.113281 C 130.421875 469.101563 113 426.460938 103.164063 380.363281 C 97.097656 351.960938 94.027344 322.425781 94.027344 292.582031 C 94.027344 259.742188 97.8125 238.792969 97.851563 238.585938 C 97.851563 238.585938 99.144531 231.578125 99.257813 230.96875 C 99.78125 230.671875 105.796875 227.289063 105.796875 227.289063 "/>
<path style=" stroke:none;fill-rule:nonzero;fill:rgb(100%,100%,100%);fill-opacity:1;" d="M 315.363281 452.015625 C 315.363281 436.378906 307.25 426.660156 287.019531 417.972656 L 287 482.378906 C 305.027344 479.882813 315.363281 468.359375 315.363281 452.015625 "/>
<path style=" stroke:none;fill-rule:nonzero;fill:rgb(0%,0%,0%);fill-opacity:1;" d="M 259.964844 362.050781 C 259.964844 377.136719 268.3125 385.390625 286.945313 393.851563 L 286.945313 335.246094 C 267.53125 337.359375 259.964844 350.707031 259.964844 362.050781 "/>
<path style=" stroke:none;fill-rule:nonzero;fill:rgb(0%,0%,0%);fill-opacity:1;" d="M 277.835938 502.503906 C 261.238281 502.503906 243.113281 497.128906 233.921875 490.6875 L 239.792969 471.078125 C 249.75 477.796875 264.046875 482.898438 279.367188 482.898438 C 282.027344 482.898438 284.550781 482.714844 286.945313 482.382813 L 286.945313 417.945313 C 285.65625 417.390625 284.328125 416.84375 282.9375 416.296875 C 254.855469 405.558594 237.496094 389.980469 237.496094 364.734375 C 237.496094 338.320313 256.988281 318.269531 286.945313 315.839844 L 286.945313 280.835938 C 286.945313 280.835938 286.941406 280.835938 286.9375 280.835938 C 277.675781 280.570313 194.125 279.621094 111.882813 326.078125 C 113.167969 341.671875 115.472656 358.753906 119.3125 376.734375 C 128.707031 420.742188 145.324219 461.421875 168.703125 497.648438 C 197.835938 542.796875 237.625 581.117188 286.945313 611.5625 L 286.945313 502.046875 C 284.035156 502.335938 281.007813 502.503906 277.835938 502.503906 "/>
<path style=" stroke:none;fill-rule:nonzero;fill:rgb(100%,100%,100%);fill-opacity:1;" d="M 287.066406 280.832031 L 287.054688 315.832031 C 289.039063 315.671875 291.074219 315.589844 293.152344 315.589844 C 310.511719 315.589844 323.53125 319.886719 330.9375 324.453125 L 324.808594 343.519531 C 319.449219 340.027344 307.960938 334.925781 292.386719 334.925781 C 290.503906 334.925781 288.746094 335.054688 287.046875 335.234375 L 287.027344 393.890625 C 289.269531 394.90625 291.632813 395.925781 294.175781 396.960938 C 323.277344 409.046875 337.828125 423.546875 337.828125 450.132813 C 337.828125 475.871094 321.339844 498.625 286.992188 502.042969 L 286.957031 611.566406 C 286.980469 611.582031 287 611.597656 287.023438 611.609375 C 336.382813 581.160156 376.195313 542.820313 405.34375 497.648438 C 428.722656 461.421875 445.339844 420.742188 454.734375 376.734375 C 458.578125 358.753906 460.878906 341.671875 462.164063 326.082031 C 380.707031 280.054688 296.984375 280.59375 287.066406 280.832031 "/>
<path style=" stroke:none;fill-rule:nonzero;fill:rgb(13.699341%,12.199402%,12.5%);fill-opacity:1;" d="M 315.363281 452.015625 C 315.363281 468.359375 305.027344 479.882813 287 482.378906 L 286.992188 502.042969 C 321.339844 498.625 337.828125 475.871094 337.828125 450.132813 C 337.828125 423.546875 323.277344 409.046875 294.175781 396.960938 C 291.632813 395.925781 289.269531 394.90625 287.027344 393.890625 L 287.019531 417.972656 C 307.25 426.660156 315.363281 436.378906 315.363281 452.015625 "/>
<path style=" stroke:none;fill-rule:nonzero;fill:rgb(13.699341%,12.199402%,12.5%);fill-opacity:1;" d="M 292.386719 334.925781 C 307.960938 334.925781 319.449219 340.027344 324.808594 343.519531 L 330.9375 324.453125 C 323.53125 319.886719 310.511719 315.589844 293.152344 315.589844 C 291.074219 315.589844 289.039063 315.671875 287.054688 315.832031 L 287.046875 335.234375 C 288.746094 335.054688 290.503906 334.925781 292.386719 334.925781 "/>
<path style=" stroke:none;fill-rule:nonzero;fill:rgb(100%,100%,100%);fill-opacity:1;" d="M 279.367188 482.898438 C 264.046875 482.898438 249.75 477.796875 239.792969 471.078125 L 233.921875 490.6875 C 243.113281 497.128906 261.238281 502.503906 277.835938 502.503906 C 281.007813 502.503906 284.035156 502.335938 286.945313 502.046875 L 286.945313 482.382813 C 284.550781 482.714844 282.027344 482.898438 279.367188 482.898438 "/>
<path style=" stroke:none;fill-rule:nonzero;fill:rgb(100%,100%,100%);fill-opacity:1;" d="M 259.964844 362.050781 C 259.964844 350.707031 267.53125 337.359375 286.945313 335.246094 L 286.945313 315.839844 C 256.988281 318.269531 237.496094 338.320313 237.496094 364.734375 C 237.496094 389.980469 254.855469 405.558594 282.9375 416.296875 C 284.328125 416.84375 285.65625 417.390625 286.945313 417.945313 L 286.945313 393.851563 C 268.3125 385.390625 259.964844 377.136719 259.964844 362.050781 "/>
<path style=" stroke:none;fill-rule:nonzero;fill:rgb(0%,0%,0%);fill-opacity:1;" d="M 287.019531 417.972656 C 286.996094 417.964844 286.972656 417.953125 286.945313 417.945313 L 286.945313 482.382813 C 286.964844 482.382813 286.980469 482.378906 287 482.378906 L 287.019531 417.972656 "/>
<path style=" stroke:none;fill-rule:nonzero;fill:rgb(0%,0%,0%);fill-opacity:1;" d="M 286.945313 393.851563 C 286.976563 393.867188 287 393.878906 287.027344 393.890625 L 287.046875 335.234375 C 287.015625 335.238281 286.980469 335.242188 286.945313 335.246094 L 286.945313 393.851563 "/>
<path style=" stroke:none;fill-rule:nonzero;fill:rgb(0%,0%,0%);fill-opacity:1;" d="M 286.945313 502.046875 L 286.945313 611.5625 C 286.949219 611.5625 286.953125 611.566406 286.957031 611.566406 L 286.992188 502.042969 C 286.976563 502.046875 286.964844 502.046875 286.945313 502.046875 "/>
<path style=" stroke:none;fill-rule:nonzero;fill:rgb(100%,100%,100%);fill-opacity:1;" d="M 238.910156 360.316406 C 232.199219 354.277344 221.929688 351.203125 208.40625 351.203125 C 198.628906 351.203125 189.761719 351.949219 182.058594 353.417969 L 180.808594 353.65625 L 180.808594 460.25 L 197.460938 460.25 C 197.460938 460.25 197.460938 421.605469 197.460938 418.347656 C 200.457031 418.863281 203.683594 419.046875 206.847656 419.046875 C 221.019531 419.046875 232.835938 414.773438 240.121094 407.011719 C 245.875 401.261719 248.808594 393.335938 248.808594 383.484375 C 248.808594 374.066406 245.292969 365.835938 238.910156 360.316406 M 207.160156 405.050781 C 203.195313 405.050781 199.972656 404.769531 197.460938 404.246094 L 197.460938 365.894531 C 199.582031 365.535156 203.402344 365.046875 208.722656 365.046875 C 217.414063 365.046875 232 367.546875 232 384.269531 C 232 397.476563 222.945313 405.050781 207.160156 405.050781 "/>
<path style=" stroke:none;fill-rule:nonzero;fill:rgb(13.699341%,12.199402%,12.5%);fill-opacity:1;" d="M 388.070313 441.871094 C 383.648438 444.390625 376.765625 445.957031 370.113281 445.957031 C 350.066406 445.957031 338.101563 431.09375 338.101563 406.195313 C 338.101563 380.996094 350.621094 365.34375 370.78125 365.34375 C 379.410156 365.34375 385.054688 367.894531 387.648438 369.414063 L 390.164063 370.890625 L 394.398438 354.863281 L 392.796875 353.882813 C 390.878906 352.707031 383.589844 348.878906 370.382813 348.878906 C 340.988281 348.878906 321.242188 372.101563 321.242188 406.664063 C 321.242188 440.628906 339.484375 462.578125 367.71875 462.578125 C 379.554688 462.578125 388.476563 459.714844 392.519531 457.265625 L 394.039063 456.347656 L 390.726563 440.355469 C 390.726563 440.355469 388.070313 441.871094 388.070313 441.871094 "/>
<g clip-path="url(#clip1)" clip-rule="nonzero">
<path style=" stroke:none;fill-rule:nonzero;fill:rgb(13.699341%,12.199402%,12.5%);fill-opacity:1;" d="M 302.519531 5.84375 C 302.519531 5.84375 306.621094 13.015625 316.867188 18.136719 L 309.695313 20.1875 C 309.695313 20.1875 306.585938 23.078125 316.917969 27.410156 C 319.613281 28.082031 312.769531 28.382813 312.769531 28.382813 C 312.769531 28.382813 312.25 35.746094 323.015625 39.65625 L 317.890625 40.679688 C 317.890625 40.679688 320.089844 48.492188 326.25 48.078125 C 321.746094 49.996094 321.585938 49.410156 320.964844 50.925781 C 320.964844 50.925781 325.0625 58.867188 346.578125 39.398438 C 346.578125 39.398438 361.949219 21.214844 392.6875 22.238281 C 392.6875 22.238281 451.089844 17.113281 502.324219 22.238281 C 502.324219 22.238281 520.765625 21.214844 527.9375 37.605469 C 527.9375 37.605469 566.875 40.679688 565.851563 60.148438 L 574.046875 64.246094 C 574.046875 64.246094 567.898438 78.59375 548.433594 77.566406 C 548.433594 77.566406 541.773438 72.1875 540.234375 79.613281 C 540.234375 79.613281 524.863281 88.582031 510.265625 80.894531 C 510.265625 80.894531 516.414063 84.738281 504.886719 90.117188 C 504.886719 90.117188 474.914063 101.644531 473.378906 93.191406 C 473.378906 93.191406 458.777344 107.023438 440.332031 103.183594 C 440.332031 103.183594 423.425781 117.78125 411.898438 108.5625 C 411.898438 108.5625 404.214844 117.78125 382.699219 113.171875 C 382.699219 113.171875 370.402344 117.015625 361.179688 113.171875 C 361.179688 113.171875 361.949219 121.625 340.433594 114.710938 L 327.367188 115.476563 L 335.820313 119.320313 C 335.820313 119.320313 333.515625 123.160156 325.832031 123.929688 C 325.832031 123.929688 328.136719 130.847656 334.285156 132.382813 L 327.367188 135.457031 C 327.367188 135.457031 330.441406 140.835938 335.054688 143.144531 L 327.367188 146.214844 C 327.367188 146.214844 331.980469 152.363281 336.589844 153.132813 L 328.136719 154.671875 C 328.136719 154.671875 331.980469 160.050781 337.359375 162.355469 C 337.359375 162.355469 331.210938 169.269531 325.0625 166.964844 L 328.90625 170.039063 L 340.433594 170.039063 L 345.042969 173.882813 L 350.421875 176.1875 C 350.421875 176.1875 352.730469 178.492188 350.421875 183.871094 L 349.652344 180.027344 C 349.652344 180.027344 343.507813 183.101563 339.664063 180.027344 L 331.210938 174.648438 L 333.515625 179.261719 L 333.515625 183.101563 L 331.210938 186.945313 L 328.648438 183.101563 L 320.453125 180.027344 L 320.453125 177.722656 L 316.609375 181.566406 L 307.644531 185.664063 L 300.472656 186.945313 L 298.167969 183.101563 L 300.984375 176.953125 C 300.984375 176.953125 294.324219 172.34375 294.324219 179.261719 C 294.324219 179.261719 294.324219 168.503906 303.546875 173.882813 C 303.546875 173.882813 305.59375 168.246094 312 168.503906 L 312 165.429688 C 312 165.429688 291.855469 159.988281 296.46875 119.644531 L 276.648438 117.015625 C 276.648438 117.015625 288.175781 152.363281 269.734375 163.890625 L 264.355469 164.660156 L 264.355469 169.269531 C 264.355469 169.269531 278.953125 171.574219 277.417969 182.335938 L 265.890625 184.640625 C 265.890625 184.640625 265.121094 179.261719 257.4375 178.492188 L 254.363281 185.40625 L 243.605469 186.945313 L 245.144531 179.261719 L 239.761719 180.796875 L 238.226563 185.40625 L 235.921875 185.40625 L 232.847656 184.640625 L 231.3125 182.335938 L 230.542969 180.027344 L 227.46875 183.101563 C 227.46875 183.101563 225.160156 175.417969 230.542969 174.648438 L 234.382813 174.648438 C 234.382813 174.648438 241.300781 170.808594 245.910156 173.113281 L 252.828125 168.503906 L 252.828125 165.429688 C 252.828125 165.429688 242.835938 166.964844 236.6875 161.585938 C 236.6875 161.585938 242.066406 160.050781 245.910156 155.4375 L 240.53125 153.132813 C 240.53125 153.132813 245.910156 152.363281 246.679688 144.679688 L 241.300781 143.910156 L 248.21875 133.921875 L 242.066406 132.382813 L 248.984375 123.929688 C 248.984375 123.929688 243.605469 124.699219 239.761719 120.855469 L 246.679688 115.476563 C 246.679688 115.476563 238.996094 117.015625 232.847656 113.941406 C 232.847656 113.941406 210.5625 123.160156 210.5625 113.941406 C 210.5625 113.941406 196.730469 117.78125 189.042969 113.941406 C 189.042969 113.941406 169.0625 119.320313 159.074219 108.5625 C 159.074219 108.5625 149.851563 116.246094 132.175781 103.183594 C 132.175781 103.183594 106.816406 103.949219 99.902344 93.191406 C 99.902344 93.191406 69.164063 99.339844 61.476563 81.664063 C 61.476563 81.664063 39.191406 89.351563 30.738281 73.980469 C 30.738281 73.980469 16.90625 82.433594 7.683594 74.75 L 0 61.683594 L 6.148438 58.609375 C 6.148438 58.609375 4.609375 47.085938 19.210938 41.703125 L 44.570313 37.09375 C 44.570313 37.09375 48.414063 21.726563 67.625 21.726563 C 67.625 21.726563 119.113281 15.574219 161.378906 20.953125 C 161.378906 20.953125 211.328125 22.746094 219.015625 30.175781 C 219.015625 30.175781 242.582031 53.488281 248.730469 51.949219 C 253.765625 50.691406 256.394531 49.773438 264.15625 40.726563 C 265.867188 38.734375 273.320313 30.945313 265.835938 27.027344 C 263.496094 25.617188 260.050781 24.324219 255.132813 23.261719 C 255.132813 23.261719 246.9375 23.519531 247.191406 28.382813 C 247.449219 33.253906 241.042969 20.1875 253.339844 9.941406 C 253.339844 9.941406 273.832031 -9.527344 302.519531 5.84375 "/>
</g>
<path style=" stroke:none;fill-rule:nonzero;fill:rgb(0%,0%,0%);fill-opacity:1;" d="M 349.792969 174.203125 L 344.414063 175.742188 C 344.414063 175.742188 338.265625 170.089844 341.339844 170.746094 C 340.515625 156.898438 338.375 145.988281 328.277344 133.476563 L 329.429688 131.171875 C 342.492188 147.359375 349.695313 173.976563 349.792969 174.203125 "/>
<path style=" stroke:none;fill-rule:nonzero;fill:rgb(0%,0%,0%);fill-opacity:1;" d="M 371.011719 180.980469 L 354.191406 177.019531 L 358.128906 175.636719 C 358.128906 175.636719 359.675781 173.785156 363.316406 174.644531 C 356.480469 155.226563 343.460938 140.753906 331.351563 123.871094 L 333.910156 121.820313 C 357.988281 148.972656 371.011719 180.980469 371.011719 180.980469 "/>
<path style=" stroke:none;fill-rule:nonzero;fill:rgb(100%,100%,100%);fill-opacity:1;" d="M 550.992188 60.148438 C 550.992188 60.148438 539.46875 57.074219 540.234375 48.621094 L 535.625 47.085938 L 526.402344 44.777344 L 517.949219 44.011719 C 517.949219 44.011719 498.738281 36.324219 448.785156 31.714844 C 448.785156 31.714844 454.164063 27.871094 503.347656 32.484375 C 503.347656 32.484375 501.8125 25.566406 497.199219 26.335938 C 497.199219 26.335938 468.765625 23.261719 385.003906 25.566406 C 385.003906 25.566406 368.863281 27.101563 357.339844 35.558594 L 337.359375 53.230469 C 337.359375 53.230469 328.90625 60.148438 321.21875 57.074219 C 321.21875 57.074219 315.84375 49.390625 312 47.851563 L 315.074219 43.242188 L 305.851563 34.019531 L 309.695313 32.484375 L 301.242188 24.03125 L 304.3125 24.03125 L 298.933594 14.808594 L 301.242188 12.503906 C 301.242188 12.503906 294.324219 2.511719 282.027344 2.511719 C 282.027344 2.511719 269.734375 0.976563 255.132813 11.734375 C 255.132813 11.734375 252.828125 14.808594 258.207031 17.113281 C 258.207031 17.113281 262.816406 17.113281 258.976563 21.726563 C 258.976563 21.726563 272.039063 20.953125 272.808594 34.789063 C 272.808594 34.789063 268.964844 48.621094 250.519531 57.074219 C 250.519531 57.074219 244.375 57.84375 229.773438 47.085938 L 220.550781 38.632813 C 220.550781 38.632813 212.867188 27.871094 193.652344 27.871094 C 193.652344 27.871094 162.148438 24.796875 155.230469 25.566406 L 72.234375 26.335938 L 69.929688 32.484375 C 69.929688 32.484375 117.574219 26.335938 122.957031 32.484375 C 122.957031 32.484375 66.089844 43.242188 57.636719 44.011719 C 49.183594 44.777344 35.347656 48.621094 35.347656 48.621094 C 35.347656 48.621094 33.042969 53.230469 25.359375 60.148438 C 25.359375 60.148438 29.96875 63.222656 45.339844 59.378906 L 109.121094 43.242188 L 73.773438 60.914063 L 67.625 61.683594 L 48.414063 69.371094 C 48.414063 69.371094 63.78125 76.285156 68.394531 71.675781 L 126.796875 49.390625 C 126.796875 49.390625 113.734375 62.453125 82.996094 74.75 C 82.996094 74.75 92.984375 76.285156 99.132813 79.359375 C 99.132813 79.359375 109.121094 82.433594 113.734375 77.054688 C 113.734375 77.054688 122.957031 69.371094 154.464844 52.464844 C 154.464844 52.464844 142.167969 70.136719 109.121094 88.582031 L 123.722656 90.117188 C 123.722656 90.117188 132.945313 91.65625 136.789063 87.8125 L 176.746094 65.527344 C 176.746094 65.527344 178.285156 72.441406 149.851563 94.730469 C 149.851563 94.730469 162.148438 95.496094 168.296875 90.117188 L 190.582031 70.136719 C 190.582031 70.136719 189.8125 80.894531 174.441406 98.570313 C 174.441406 98.570313 185.203125 98.570313 190.582031 93.960938 C 190.582031 93.960938 199.035156 87.8125 209.023438 72.441406 C 209.023438 72.441406 209.792969 79.359375 200.570313 97.804688 L 206.71875 97.804688 L 211.328125 93.960938 C 211.328125 93.960938 219.78125 87.046875 223.625 73.980469 C 223.625 73.980469 225.160156 89.351563 219.78125 105.488281 C 219.78125 105.488281 226.699219 105.488281 229.003906 98.570313 C 229.003906 98.570313 235.921875 85.507813 230.542969 68.601563 C 230.542969 68.601563 241.300781 83.972656 237.457031 103.183594 L 243.605469 103.183594 C 243.605469 103.183594 245.910156 103.949219 245.910156 98.570313 C 245.910156 98.570313 242.835938 73.980469 252.058594 68.601563 C 252.058594 68.601563 245.910156 98.570313 257.4375 105.488281 L 255.132813 113.171875 C 255.132813 113.171875 252.828125 115.476563 259.742188 116.246094 L 253.597656 124.699219 C 253.597656 124.699219 255.132813 127.773438 258.976563 126.234375 L 252.058594 136.996094 C 252.058594 136.996094 253.597656 139.300781 257.4375 139.300781 C 257.4375 139.300781 256.671875 142.371094 249.753906 150.828125 C 249.753906 150.828125 262.050781 156.976563 268.964844 148.523438 L 271.269531 146.984375 C 275.921875 141.671875 276.550781 123.160156 276.636719 118.238281 L 295.152344 121.109375 L 295.371094 119.6875 L 298.167969 120.089844 C 300.472656 153.132813 308.925781 153.902344 308.925781 153.902344 C 315.328125 157.488281 317.890625 156.460938 323.527344 150.828125 C 323.527344 150.828125 322.757813 140.835938 317.378906 138.53125 L 321.988281 136.996094 C 321.988281 136.996094 321.21875 128.539063 315.84375 126.234375 L 320.453125 124.699219 L 315.84375 117.015625 L 320.453125 117.015625 C 320.453125 117.015625 322.757813 112.402344 318.914063 110.097656 C 315.074219 107.792969 319.683594 102.414063 319.683594 102.414063 C 319.683594 102.414063 325.832031 103.949219 322.757813 69.371094 C 322.757813 69.371094 332.746094 82.433594 328.90625 100.109375 L 335.054688 103.183594 C 335.054688 103.183594 331.980469 85.507813 340.433594 72.441406 C 340.433594 72.441406 335.054688 93.191406 346.578125 103.183594 L 354.265625 104.71875 C 354.265625 104.71875 345.042969 90.886719 348.886719 73.980469 C 348.886719 73.980469 352.730469 86.277344 359.644531 97.804688 L 374.246094 100.109375 C 374.246094 100.109375 361.949219 80.894531 364.253906 68.601563 C 364.253906 68.601563 377.320313 93.191406 388.847656 100.109375 L 398.066406 100.109375 C 398.066406 100.109375 380.394531 80.128906 378.855469 72.441406 C 378.855469 72.441406 408.058594 97.035156 414.976563 97.035156 L 425.730469 95.496094 C 425.730469 95.496094 403.445313 80.128906 394.996094 65.527344 L 441.871094 91.65625 L 464.15625 88.582031 C 464.15625 88.582031 421.890625 64.757813 417.28125 51.695313 C 417.28125 51.695313 448.785156 69.371094 465.691406 79.359375 L 489.515625 74.75 C 489.515625 74.75 454.164063 61.683594 446.480469 47.851563 C 446.480469 47.851563 482.601563 66.296875 506.421875 71.675781 C 511.03125 74.75 514.875 72.441406 514.875 72.441406 L 521.792969 69.371094 C 521.792969 69.371094 486.441406 57.074219 464.15625 43.242188 C 464.15625 43.242188 491.820313 49.390625 537.929688 64.757813 L 550.992188 60.148438 "/>
<path style=" stroke:none;fill-rule:nonzero;fill:rgb(13.699341%,12.199402%,12.5%);fill-opacity:1;" d="M 277.804688 45.546875 C 274.632813 43.964844 272.039063 57.457031 272.039063 57.457031 L 278.570313 57.84375 C 278.570313 57.84375 279.339844 46.316406 277.804688 45.546875 "/>
<path style=" stroke:none;fill-rule:nonzero;fill:rgb(13.699341%,12.199402%,12.5%);fill-opacity:1;" d="M 290.089844 58.804688 C 286.738281 57.035156 285.835938 74.910156 285.835938 74.910156 L 292.386719 74.796875 C 292.386719 74.796875 291.714844 59.660156 290.089844 58.804688 "/>
<path style=" stroke:none;fill-rule:nonzero;fill:rgb(13.699341%,12.199402%,12.5%);fill-opacity:1;" d="M 262.816406 68.21875 C 259.648438 66.632813 257.054688 80.128906 257.054688 80.128906 L 263.585938 80.511719 C 263.585938 80.511719 264.355469 68.984375 262.816406 68.21875 "/>
<path style=" stroke:none;fill-rule:nonzero;fill:rgb(13.699341%,12.199402%,12.5%);fill-opacity:1;" d="M 275.433594 73.753906 C 278.253906 72.546875 278.515625 86.210938 278.515625 86.210938 L 273.101563 85.84375 C 273.101563 85.84375 274.066406 74.339844 275.433594 73.753906 "/>
<path style=" stroke:none;fill-rule:nonzero;fill:rgb(13.699341%,12.199402%,12.5%);fill-opacity:1;" d="M 299.21875 55.269531 C 301.757813 53.550781 304.613281 66.914063 304.613281 66.914063 L 299.226563 67.582031 C 299.226563 67.582031 297.988281 56.105469 299.21875 55.269531 "/>
<path style=" stroke:none;fill-rule:nonzero;fill:rgb(13.699341%,12.199402%,12.5%);fill-opacity:1;" d="M 308.859375 72.300781 C 311.601563 70.925781 312.695313 84.546875 312.695313 84.546875 L 307.269531 84.511719 C 307.269531 84.511719 307.53125 72.96875 308.859375 72.300781 "/>
<path style=" stroke:none;fill-rule:nonzero;fill:rgb(13.699341%,12.199402%,12.5%);fill-opacity:1;" d="M 297.03125 82.003906 C 295.054688 81.035156 294.726563 91.28125 294.726563 91.28125 L 298.558594 91.121094 C 298.558594 91.121094 297.992188 82.46875 297.03125 82.003906 "/>
<path style=" stroke:none;fill-rule:nonzero;fill:rgb(13.699341%,12.199402%,12.5%);fill-opacity:1;" d="M 288.867188 38.410156 C 286.75 38.011719 288.503906 47.316406 288.503906 47.316406 L 292.191406 46.261719 C 292.191406 46.261719 289.894531 38.605469 288.867188 38.410156 "/>
<path style=" stroke:none;fill-rule:nonzero;fill:rgb(13.699341%,12.199402%,12.5%);fill-opacity:1;" d="M 303.851563 41.484375 C 301.734375 41.085938 303.488281 50.390625 303.488281 50.390625 L 307.175781 49.335938 C 307.175781 49.335938 304.882813 41.679688 303.851563 41.484375 "/>
<path style=" stroke:none;fill-rule:nonzero;fill:rgb(13.699341%,12.199402%,12.5%);fill-opacity:1;" d="M 294.476563 29.628906 C 292.605469 29.289063 294.113281 37.417969 294.113281 37.417969 L 297.378906 36.480469 C 297.378906 36.480469 295.382813 29.796875 294.476563 29.628906 "/>
<path style=" stroke:none;fill-rule:nonzero;fill:rgb(13.699341%,12.199402%,12.5%);fill-opacity:1;" d="M 289.152344 18.980469 C 287.523438 19.726563 291.191406 24.8125 291.191406 24.8125 L 293.578125 22.398438 C 293.578125 22.398438 289.945313 18.617188 289.152344 18.980469 "/>
<path style=" stroke:none;fill-rule:nonzero;fill:rgb(13.699341%,12.199402%,12.5%);fill-opacity:1;" d="M 281.09375 25.082031 C 279.722656 24.433594 278.949219 30.605469 278.949219 30.605469 L 281.710938 30.636719 C 281.710938 30.636719 281.757813 25.394531 281.09375 25.082031 "/>
<path style=" stroke:none;fill-rule:nonzero;fill:rgb(13.699341%,12.199402%,12.5%);fill-opacity:1;" d="M 287.855469 7.226563 C 286.714844 7.882813 290.925781 11.496094 290.925781 11.496094 L 292.273438 9.539063 C 292.273438 9.539063 288.40625 6.90625 287.855469 7.226563 "/>
<path style=" stroke:none;fill-rule:nonzero;fill:rgb(13.699341%,12.199402%,12.5%);fill-opacity:1;" d="M 284.730469 93.9375 C 286.066406 92.578125 288.464844 102.507813 288.464844 102.507813 L 285.449219 103.152344 C 285.449219 103.152344 284.082031 94.59375 284.730469 93.9375 "/>
<path style=" stroke:none;fill-rule:nonzero;fill:rgb(13.699341%,12.199402%,12.5%);fill-opacity:1;" d="M 279.722656 8.660156 C 279.722656 8.660156 284.71875 10.964844 280.105469 16.34375 C 280.105469 16.34375 273.574219 20.1875 268.964844 11.347656 C 268.964844 11.347656 267.917969 5.746094 268.964844 8.660156 "/>
<path style=" stroke:none;fill-rule:nonzero;fill:rgb(0%,0%,0%);fill-opacity:1;" d="M 225 174.203125 L 230.378906 175.742188 C 230.378906 175.742188 236.527344 170.089844 233.453125 170.746094 C 234.277344 156.898438 236.417969 145.988281 246.519531 133.476563 L 245.363281 131.171875 C 232.300781 147.359375 225.097656 173.976563 225 174.203125 "/>
<path style=" stroke:none;fill-rule:nonzero;fill:rgb(0%,0%,0%);fill-opacity:1;" d="M 203.785156 180.980469 L 220.605469 177.019531 L 216.664063 175.636719 C 216.664063 175.636719 215.121094 173.785156 211.476563 174.644531 C 218.3125 155.226563 231.335938 140.753906 243.441406 123.871094 L 240.882813 121.820313 C 216.804688 148.972656 203.785156 180.980469 203.785156 180.980469 "/>
<path style=" stroke:none;fill-rule:evenodd;fill:rgb(99.598694%,76.098633%,5.099487%);fill-opacity:1;" d="M 303.09375 216.898438 C 313.148438 217.269531 317.6875 227.128906 317.6875 239.738281 C 317.6875 252.351563 312.765625 262.765625 302.898438 262.390625 C 293.039063 262.015625 288.113281 252.351563 288.113281 239.738281 C 288.113281 227.128906 293.039063 216.527344 303.09375 216.898438 M 303.035156 225.714844 C 306.199219 225.945313 307.085938 232.023438 307.085938 239.804688 C 307.085938 247.578125 306.464844 253.816406 302.890625 253.585938 C 299.3125 253.351563 298.878906 247.578125 298.878906 239.804688 C 298.878906 232.023438 299.871094 225.488281 303.035156 225.714844 "/>
<path style=" stroke:none;fill-rule:evenodd;fill:rgb(99.598694%,76.098633%,5.099487%);fill-opacity:1;" d="M 153.773438 240.570313 C 163.601563 237.078125 168.136719 245.191406 168.261719 257.804688 C 168.386719 270.414063 163.679688 282.722656 154.039063 286.136719 C 144.398438 289.550781 139.488281 281.773438 139.363281 269.164063 C 139.238281 256.550781 143.945313 244.058594 153.773438 240.570313 M 153.804688 249.410156 C 156.898438 248.421875 157.824219 254.160156 157.902344 261.9375 C 157.980469 269.71875 157.4375 276.1875 153.9375 277.332031 C 150.441406 278.476563 149.960938 272.871094 149.882813 265.09375 C 149.804688 257.3125 150.710938 250.394531 153.804688 249.410156 "/>
<path style=" stroke:none;fill-rule:evenodd;fill:rgb(99.598694%,76.098633%,5.099487%);fill-opacity:1;" d="M 229.898438 221.039063 L 240.183594 219.675781 L 240.183594 264.105469 L 229.898438 265.472656 L 229.898438 221.039063 "/>
<path style=" stroke:none;fill-rule:evenodd;fill:rgb(99.598694%,76.098633%,5.099487%);fill-opacity:1;" d="M 249.09375 218.589844 L 260.128906 218.125 L 265.625 247.585938 L 270.738281 217.554688 L 281.785156 216.996094 L 284.589844 261.226563 L 275.570313 261.703125 L 274.253906 234.128906 L 268.914063 261.183594 L 261.328125 261.488281 L 255.9375 235.328125 L 254.859375 262.820313 L 245.847656 263.464844 L 249.09375 218.589844 "/>
<path style=" stroke:none;fill-rule:evenodd;fill:rgb(99.598694%,76.098633%,5.099487%);fill-opacity:1;" d="M 225.96875 222.035156 L 225.957031 231.636719 L 218.40625 233.011719 L 218.40625 267.816406 L 208.433594 269.722656 L 208.433594 234.835938 L 200.484375 236.285156 L 200.492188 226.6875 L 225.96875 222.035156 "/>
<path style=" stroke:none;fill-rule:evenodd;fill:rgb(99.598694%,76.098633%,5.099487%);fill-opacity:1;" d="M 322.824219 217.839844 L 322.824219 262.175781 L 331.605469 263.367188 L 331.308594 236.953125 L 341.078125 264.617188 L 350.214844 265.925781 L 350.214844 221.660156 L 341.429688 220.46875 L 342.175781 247.164063 L 332.078125 219.144531 L 322.824219 217.839844 "/>
<path style=" stroke:none;fill-rule:evenodd;fill:rgb(99.598694%,76.098633%,5.099487%);fill-opacity:1;" d="M 383.492188 228.855469 L 383.492188 273.191406 L 392.164063 275.640625 L 391.871094 249.484375 L 401.066406 278.246094 L 410.535156 280.859375 L 410.535156 236.59375 L 401.863281 234.144531 L 402.601563 261.25 L 392.628906 231.484375 L 383.492188 228.855469 "/>
<path style=" stroke:none;fill-rule:evenodd;fill:rgb(99.598694%,76.098633%,5.099487%);fill-opacity:1;" d="M 442.015625 249.136719 L 442.015625 293.421875 L 461.472656 302.164063 L 461.347656 293.222656 L 451.820313 288.824219 L 451.820313 279.222656 L 460.40625 283.128906 L 460.429688 274.1875 L 451.820313 270.269531 L 451.820313 262.582031 L 460.691406 266.617188 L 460.714844 257.523438 L 442.015625 249.136719 "/>
<path style=" stroke:none;fill-rule:evenodd;fill:rgb(99.598694%,76.098633%,5.099487%);fill-opacity:1;" d="M 357.199219 223.628906 L 357.199219 267.914063 L 378.085938 271.707031 L 378.109375 262.761719 L 367.480469 260.808594 L 367.480469 251.507813 L 376.964844 253.25 L 376.988281 244.300781 L 367.480469 242.554688 L 367.480469 234.566406 L 377.261719 236.363281 L 377.289063 227.265625 L 357.199219 223.628906 "/>
<path style=" stroke:none;fill-rule:evenodd;fill:rgb(99.598694%,76.098633%,5.099487%);fill-opacity:1;" d="M 112.578125 259.183594 L 121.429688 254.605469 C 127.621094 251.402344 132.488281 251.4375 134.953125 253.976563 C 136.382813 255.449219 137.285156 257.8125 137.300781 261.378906 C 137.339844 271.207031 131.894531 277.378906 126.675781 280.597656 L 122.523438 283.160156 L 122.523438 298.832031 L 112.578125 303.613281 L 112.578125 259.183594 M 122.523438 262.460938 L 122.523438 275.058594 C 124.148438 274.378906 125.28125 273.304688 126.277344 272.042969 C 127.425781 270.585938 128.285156 267.9375 128.261719 265.992188 C 128.230469 263.691406 127.34375 261.582031 126.011719 261.449219 C 124.742188 261.324219 123.621094 261.699219 122.523438 262.460938 "/>
<path style=" stroke:none;fill-rule:evenodd;fill:rgb(99.598694%,76.098633%,5.099487%);fill-opacity:1;" d="M 172.085938 234.703125 L 180.9375 231.523438 C 187.128906 229.300781 192.753906 229.730469 195.21875 232.65625 C 196.644531 234.355469 197.734375 236.484375 197.753906 240.050781 C 197.777344 245.480469 194.816406 249.746094 191.292969 252.695313 C 193.460938 253.835938 194.878906 254.847656 195.460938 257.4375 L 198.574219 271.238281 L 188.363281 274.128906 L 185.855469 261.398438 C 185.527344 259.730469 185.015625 258.796875 183.363281 258.800781 L 182.03125 258.800781 L 182.03125 275.734375 L 172.085938 278.472656 L 172.085938 234.703125 M 182.03125 239.550781 L 182.03125 251.109375 C 183.65625 250.6875 184.980469 249.980469 185.972656 248.875 C 187.121094 247.601563 187.980469 244.898438 187.957031 242.953125 C 187.929688 240.648438 187.085938 239.289063 185.757813 238.949219 C 184.488281 238.625 183.320313 239.152344 182.03125 239.550781 "/>
<path style=" stroke:none;fill-rule:evenodd;fill:rgb(99.598694%,76.098633%,5.099487%);fill-opacity:1;" d="M 436.578125 248.019531 L 434.917969 256.339844 C 432.65625 254.171875 430.859375 252.589844 428.351563 252.179688 C 426.855469 251.9375 425.933594 251.550781 425.410156 253.917969 C 425.222656 254.753906 425.390625 256.890625 427.640625 259.226563 C 430.753906 262.460938 433.59375 265.351563 435.523438 268.308594 C 437.714844 271.660156 438.78125 274.855469 438.542969 278.570313 C 438.085938 285.730469 433.558594 287.554688 429.859375 287.800781 C 425.011719 288.117188 418.464844 284.472656 415.140625 281.445313 L 416.574219 272.21875 C 419.117188 274.941406 421.878906 276.878906 424.425781 277.511719 C 426.859375 278.117188 427.921875 277.65625 428.425781 276.378906 C 428.898438 275.191406 428.449219 273.558594 427.0625 271.800781 C 425.734375 270.128906 424.316406 268.632813 422.449219 266.523438 C 419.121094 262.761719 415.363281 257.496094 415.21875 252.027344 C 415.027344 245.101563 419.972656 242.21875 423.820313 242.046875 C 428.503906 241.835938 433.421875 244.59375 436.578125 248.019531 "/>
</g>
</svg>
