<?xml version="1.0" encoding="UTF-8" standalone="no"?>
<!-- Generator: Adobe Illustrator 23.0.2, SVG Export Plug-In . SVG Version: 6.00 Build 0)  -->

<svg
   xmlns:dc="http://purl.org/dc/elements/1.1/"
   xmlns:cc="http://creativecommons.org/ns#"
   xmlns:rdf="http://www.w3.org/1999/02/22-rdf-syntax-ns#"
   xmlns:svg="http://www.w3.org/2000/svg"
   xmlns="http://www.w3.org/2000/svg"
   xmlns:sodipodi="http://sodipodi.sourceforge.net/DTD/sodipodi-0.dtd"
   xmlns:inkscape="http://www.inkscape.org/namespaces/inkscape"
   version="1.1"
   id="Ñëîé_1"
   x="0px"
   y="0px"
   viewBox="0 0 612 612"
   style="enable-background:new 0 0 612 612;"
   xml:space="preserve"
   sodipodi:docname="santa-clara-fc-logo.svg"
   inkscape:export-filename="G:\Users\suitedoalex\sites\santa-clara-fc-logo-0.png"
   inkscape:export-xdpi="642.50983"
   inkscape:export-ydpi="642.50983"
   inkscape:version="0.92.4 (5da689c313, 2019-01-14)"><metadata
   id="metadata335"><rdf:RDF><cc:Work
       rdf:about=""><dc:format>image/svg+xml</dc:format><dc:type
         rdf:resource="http://purl.org/dc/dcmitype/StillImage" /></cc:Work></rdf:RDF></metadata><defs
   id="defs333" /><sodipodi:namedview
   pagecolor="#ffffff"
   bordercolor="#666666"
   borderopacity="1"
   objecttolerance="10"
   gridtolerance="10"
   guidetolerance="10"
   inkscape:pageopacity="0"
   inkscape:pageshadow="2"
   inkscape:window-width="1600"
   inkscape:window-height="837"
   id="namedview331"
   showgrid="false"
   inkscape:zoom="0.38562092"
   inkscape:cx="464.15816"
   inkscape:cy="53.391742"
   inkscape:window-x="-8"
   inkscape:window-y="-8"
   inkscape:window-maximized="1"
   inkscape:current-layer="Ñëîé_1" />
<style
   type="text/css"
   id="style2">
	.st0{fill-rule:evenodd;clip-rule:evenodd;fill:#CB2031;}
	.st1{fill:#FFFFFF;}
	.st2{fill:#231F20;}
	.st3{fill-rule:evenodd;clip-rule:evenodd;fill:#E0B225;}
	.st4{fill:#E0B225;}
	.st5{fill-rule:evenodd;clip-rule:evenodd;fill:#009269;}
	.st6{fill-rule:evenodd;clip-rule:evenodd;fill:#2A7150;}
	.st7{fill-rule:evenodd;clip-rule:evenodd;fill:#1C3A6B;}
</style>
<g
   id="g328"
   inkscape:export-filename="G:\Users\suitedoalex\sites\santa-clara-fc-logo-4.png"
   inkscape:export-xdpi="70.069199"
   inkscape:export-ydpi="70.069199">
	<path
   class="st0"
   d="M510.7,387.5c76.8-145,69.1-306.8,69.1-306.8s-61.2,15.8-144.4-5.9C352.8,53.2,306,5.2,306,5.2   s-46.8,48-129.4,69.6C93.4,96.5,32.2,80.7,32.2,80.7s-7.7,161.7,69.1,306.8C183.9,543.4,306,606.8,306,606.8   S428.1,543.4,510.7,387.5z"
   id="path4" />
	<path
   class="st1"
   d="M179.7,86.5C245,69.5,288.5,36.8,306,21.7c17.5,15.1,61,47.8,126.3,64.8c61.9,16.1,111.8,12.3,135.5,8.8   c-0.3,41.9-6.4,170.5-67.9,286.5c-41.6,78.6-93.6,132.6-129.9,164.1c-29.5,25.6-53.6,40.8-64.1,47c-10.5-6.2-34.6-21.4-64.1-47   c-36.3-31.5-88.3-85.5-129.9-164.1c-61.4-116-67.6-244.6-67.9-286.5C67.9,98.8,117.8,102.7,179.7,86.5z"
   id="path6" />
	<path
   class="st2"
   d="M447.3,319c4.5,13.7,6.9,28.2,6.9,43.3c0,79.2-66.5,143.7-148.2,143.7c-81.7,0-148.2-64.4-148.2-143.7   c0-15.1,2.4-29.6,6.9-43.3l-0.3,0.2c-13,9.1-20.5,15.9-20.5,15.9s2.1-18.1,16.4-37.6c0,0-13.7-3.3-34.1-0.8   c0,0,11.4-14.6,61.8-36.2c8-3.4,15.4-6.2,22.4-8.4l0.8-0.2c21.3-17.2,47.6-28.8,76.4-32.3l0.3,0c0.6-2.1,0.5-4.8,0.5-4.8   c-2.6-2.2-5.1-5.6-5.1-5.6s-11,9.5-14.9,11c-3.9,1.4-5.6-0.6-5.6-4.3c0-3.8-0.4-5.5-0.4-5.5s-10,2.6-12.7,2.3   c-2.7-0.3-2.9-5.6-2.9-5.6s-3.6,2.3-10.7,3.9c-7.1,1.6-7.6-0.7-7.5-3.5c0.1-3.2-0.9-4.6-0.9-4.6s-10,3.2-14.9,3   c-4.9-0.1-8.4-5.2-8.4-5.2s-5.2,0.4-16.8,0.6c-11.6,0.1-11.7-2.7-14.2-5.1c-2.5-2.3-11.8-7.2-14.9-7.8c-3-0.6-8.2,0.7-12-2.6   c-3.8-3.3-3.5-7.1-3.5-7.1s-3.9,1-10.4-3.3c-6.5-4.3-16.9-12.4-22.4-21.4c-3.5-5.7,0.1-7.4,4.3-5.6c4.2,1.7,12.7,5.6,37.3,6.5   c19.2,0.7,48.1-2.5,65.7-4.6c17.6-2.2,33.2-1.9,40.9,4.9c6.4,5.7,6.5,13,12,20.5c4.1,5.7,6.5,8.2,8.8,7.1c2.1-1.1,0.7-7.7-4.2-13.7   c-4.9-6.1-9.8-10.1-9.8-10.1s0-3.2,3.8-4.5c3.8-1.3,5.3-0.1,7.4,0.9c0,0,0.6-1.6,5.1-1.6c4.5,0,8.2,3.4,14.3,8.4   c6.5,5.3,8.1,8.7,8.1,8.7s-3.3,0.9-2.7,2.9c0.4,1.5,5.5,5.5,9.7,8.1c4.2,2.6,12.6,3.8,17-0.7c6.8-6.8,2.7-10.8,6.9-17.5   c4.2-6.6,13.1-14.5,31.5-15.2c18.9-0.7,45.9,4.5,79.7,3.2c33-1.3,46.9-6.2,51.1-8.1c1-0.5,1.3,0.1,0.7,1.5   c-2.7,6.9-12.6,27.3-38.2,35.4c0,0-2.9,10-28.7,10c0,0-2.7,9.8-17,12.3c-11.7,2-19.6-2.5-19.6-2.5s-3.6,6.1-10.3,6.2   c-6.6,0.1-9.8-2.2-9.8-2.2s0.7,5.2-4.6,6.1c-5.3,0.9-11.7-0.6-11.7-0.6s-0.3,2.9-4,4.2c-2.5,0.9-7.7,0-7.7,0s-2.5,2.6-2.5,5.3   c0,1.4-0.5,2.6-1.4,3.5l0.6,0.2c21.7,5.4,41.4,15.4,58.1,28.9l0.4,0.1c7.1,2.2,14.7,5,22.8,8.5c50.4,21.6,61.8,36.2,61.8,36.2   c-20.4-2.5-34.1,0.8-34.1,0.8c14.2,19.4,16.4,37.6,16.4,37.6s-7.4-6.8-20.3-15.8L447.3,319z"
   id="path8" />
	<g
   id="g12">
		<path
   class="st3"
   d="M388.7,297.1c-17.1,6-50.7,16.2-82.7,16.2c-32,0-65.5-10.1-82.7-16.2l-1.6-0.6l0.1,1.7    c1.1,20.6,5.5,61.8,23.1,105.9c18.6,46.7,48.4,76.7,60.4,87.4l0.8,0.7l0.8-0.7c12-10.7,41.8-40.6,60.4-87.4    c17.5-44.1,22-85.3,23.1-105.9l0.1-1.7L388.7,297.1z M397.4,292c-0.5,17.5-3.8,64.2-23.8,114.7c-22.8,57.4-62,90.1-67.6,94.6    c-5.6-4.5-44.8-37.1-67.6-94.6c-19.9-50.1-23.3-96.5-23.8-114.3l0-0.3c2.9-1,5.7-1.8,8.4-2.5l0.5,0.2c16.7,6,50.7,16.6,82.5,16.6    c32.1,0,66.5-10.8,83-16.7l0.5,0.1c2.4,0.6,4.8,1.3,7.3,2.2L397.4,292z"
   id="path10" />
	</g>
	<g
   id="g16">
		<path
   class="st4"
   d="M255.5,525.2l-2.4,2.6c-0.7,0.8-0.5,1.7,0.6,2.2l-0.2,0.6l-4.7-1.9l0.2-0.6c0.7,0.3,1.6,0.2,2.3-0.4    c1.9-1.6,7.9-8,12.1-12.3l1.4,0.6c-0.1,5.4-0.3,13.5-0.2,16c0.1,1.5,0.2,2.4,1.3,2.9l-0.2,0.6l-6-2.4l0.2-0.6    c1.6,0.6,2.1-0.1,2.1-1.2l0.1-3.4L255.5,525.2z M262.1,526.8l0.3-8.6l-0.1,0l-6.1,6.3L262.1,526.8z"
   id="path14" />
	</g>
	<path
   class="st4"
   d="M288.1,536.1l-1.5,2.9c-0.1,0.5-0.6,0.5-1.4,0.6c-1.1,0.1-3.1,0.1-5.4-0.4c-0.5-0.1-0.9-0.2-1.4-0.4l-0.9,1.2   c0.3,0,0.5,0,0.8,0.1c1.1,0.2,2.1,1,1.9,2.2c-0.3,1.3-2.2,1.7-3.9,1.3c-0.7-0.2-1.5-0.5-2.1-0.9l0.5-0.7c0.4,0.2,1.2,0.6,1.6,0.7   c0.9,0.2,1.6,0,1.8-0.7c0.1-0.6-0.2-1-0.8-1.1c-0.4-0.1-0.8-0.2-1.2-0.2l-0.2-0.2l1.6-2.1c-4.4-1.6-7.5-4.9-6.3-10.5   c0.8-3.8,5.4-8,12.7-6.4c2.6,0.6,3.8,1.3,5,2c0.7,0.4,0.9,0.8,0.8,1.2l-0.7,3.1l-0.7-0.2c0.3-2-0.6-4.4-4.9-5.3   c-5.1-1.1-8.2,1.7-9.2,6c-1.1,4.8,0.6,8.8,6.2,10c3.6,0.8,5.7-0.7,7-2.4L288.1,536.1z"
   id="path18" />
	<g
   id="g22">
		<path
   class="st4"
   d="M291.9,532.6c0.2-5.4,5-9.2,10.7-9c6,0.2,9.3,5,9.2,8.8c-0.2,5.3-4.7,9.4-10.8,9.2    C295.7,541.4,291.7,537.4,291.9,532.6z M308.6,533.1c0.2-6-3.3-8.5-6.7-8.6c-4.7-0.2-6.8,3.6-6.9,7c-0.2,6,3.1,9.2,6.7,9.4    C306.9,541,308.5,536.4,308.6,533.1z"
   id="path20" />
	</g>
	<g
   id="g26">
		<path
   class="st4"
   d="M325.4,536.4c-1.7-1.8-3.3-3.8-3.3-3.8l-2.2,0.3l0.6,4.6c0.3,2.3,0.2,2.2,2.7,2.1l0.1,0.6l-7.4,1l-0.1-0.6    c2.4-0.6,2.3-0.5,2-2.8l-1.5-11.1c-0.3-2.3-0.2-2.2-2.7-2.1l-0.1-0.6l8-1.1c2.8-0.4,5.7,0.6,6.1,3.5c0.3,2.5-1.2,4.5-3.2,5.6    l3.2,3.3c1.6,1.6,3.4,3.1,4.4,3.5l0,0.3C329.1,539.6,327.5,538.7,325.4,536.4z M319.9,532.1l2.3-0.3c2.4-0.3,3.3-2.1,2.9-4.9    c-0.4-2.7-2.1-3.4-4.1-3.1l-2.1,0.3L319.9,532.1z"
   id="path24" />
	</g>
	<path
   class="st4"
   d="M334.8,537.8c2.3-0.9,2.3-0.8,1.6-3l-3-10.8c-0.6-2.2-0.5-2.1-3-1.7l-0.2-0.6l11.9-3.3l1.1,3.9l-0.7,0.2   c-0.8-1.7-1.7-2.9-3.6-2.3l-3.6,1l1.9,6.9l2.2-0.6c1.7-0.5,2.2-1.3,1.9-2.8l0.7-0.2l1.4,5.1l-0.7,0.2c-0.5-1.4-1.3-2.1-3.1-1.6   l-2.2,0.6l1.5,5.4c0.6,2,1.7,1.9,4.1,1.2c3.9-1.1,3.4-2,3.9-4.9l0.7-0.2l0.4,4.5l-13.1,3.7L334.8,537.8z"
   id="path28" />
	<path
   class="st4"
   d="M355.2,517c-0.9-1.5-2.4-2.4-4.4-1.6c-1.5,0.6-2.5,1.9-1.8,3.6c0.7,1.6,2.9,1.8,6.1,2.5   c3.5,0.7,4.8,1.5,5.6,3.4c1.1,2.7-1.3,5.6-4.4,6.8c-1.6,0.7-3.2,1-4.7,1.1c-0.1,0-0.2-0.1-0.3-0.2l-1.4-3.3l0.7-0.3   c1.3,2.4,3.6,2.7,5.6,1.9c1.8-0.8,2.8-2.6,2.1-4.3c-0.6-1.5-2-2.3-6.8-3c-1.7-0.3-3.8-0.4-4.9-2.9c-0.9-2.1,1-4.8,4-6   c1.1-0.5,2.6-1,3.8-1.1c0.2,0,0.2,0.1,0.3,0.2l1.3,3L355.2,517z"
   id="path30" />
	<path
   class="st4"
   d="M185.7,105.3c-2.4,0.1-4.1,2-4.2,4.7c-0.1,2.7,2.7,4.3,6.5,7.1c4,3,5.3,5,5.3,8.1c0,4.5-4.7,7.5-9.2,7.1   c-4.7-0.4-5.5-2.4-5.5-2.4v-5.5h1c0.4,4.2,1.9,6.6,4.8,6.6c2.7,0,4.9-2.1,4.9-4.8c0-2.5-1.3-4.5-7.1-8.3c-2.1-1.4-4.7-2.9-4.6-7   c0-3.3,3-5.9,6.3-6.6c3.3-0.7,7.5,0.3,7.5,0.3v5.4l-1.2,0C189.8,107,188,105.2,185.7,105.3z"
   id="path32" />
	<g
   id="g36">
		<path
   class="st4"
   d="M201,123.9l-1.8,4.6c-0.5,1.3,0.2,2.5,1.9,2.5v0.9h-6.9v-0.9c1,0,2.1-0.6,2.7-1.7c1.6-3,6.1-14.2,9.3-21.8    h2.1c2.6,6.9,6.5,17.5,7.8,20.5c0.8,1.9,1.4,3,3.1,3v0.9h-8.9v-0.9c2.4,0,2.6-1.1,2-2.6l-1.6-4.4H201z M210.2,122.6l-4-11.2h-0.1    l-4.5,11.2H210.2z"
   id="path34" />
	</g>
	<path
   class="st4"
   d="M224.6,107.8h0.9c0,0,13.2,12.5,18.9,18.7h0.1v-14.1c0-0.7-0.2-1.3-0.2-1.9c-0.2-1.2-1.5-1.7-4-1.9v-0.9h9.3   v0.9c-1.8,0.2-3.1,0.7-3.3,1.9c-0.1,0.5-0.2,1.1-0.2,1.9v19.4h-1.3c-6.1-6.5-18.6-18.6-18.6-18.6v13.9c0,0.7,0.2,1.3,0.2,1.9   c0.2,1.2,1.5,1.7,4,1.9v0.9h-9.3v-0.9c1.8-0.2,3.1-0.7,3.3-1.9c0.1-0.5,0.2-1.1,0.2-1.9L224.6,107.8z"
   id="path38" />
	<path
   class="st4"
   d="M263.6,127.5c0,3.2-0.2,3,3.3,3.4v0.9h-10.3v-0.9c3.4-0.4,3.3-0.2,3.3-3.4v-18.6h-3.4c-3.3,0-4.1,1.9-5.3,4.2   h-1l1-5.3h21.1l1,5.3h-1c-1.3-2.3-2-4.2-5.3-4.2h-3.4V127.5z"
   id="path40" />
	<g
   id="g44">
		<path
   class="st4"
   d="M277.8,123.9l-1.8,4.6c-0.5,1.3,0.2,2.5,1.9,2.5v0.9H271v-0.9c1,0,2.1-0.6,2.7-1.7c1.6-3,6.1-14.2,9.3-21.8    h2.1c2.6,6.9,6.5,17.5,7.8,20.5c0.8,1.9,1.4,3,3.1,3v0.9h-8.9v-0.9c2.4,0,2.6-1.1,2-2.6l-1.6-4.4H277.8z M287,122.6l-4-11.2h-0.1    l-4.5,11.2H287z"
   id="path42" />
	</g>
	<path
   class="st4"
   d="M333.3,120.6c0,0,0.2,2.5-0.6,5.3c-1,3.1-3.6,6.2-9.7,6.3c-7.8,0.2-14.9-3.7-14.9-14c0-5.9,4.8-14.5,15-14.2   c7.4,0.2,9,3.3,9,3.3v4.9h-1c-0.1-3.1-2.3-6.9-8.4-6.9c-7.1,0-10.3,5.7-10.4,12.5c0,7.6,3.1,12.9,10.9,12.6c4.7-0.1,7.3-3.4,8-6.7   L333.3,120.6z"
   id="path46" />
	<path
   class="st4"
   d="M334.8,130.9c3.4-0.4,3.3-0.2,3.3-3.4v-15.4c0-3.2,0.2-3-3.3-3.4v-0.9H345v0.9c-3.4,0.4-3.3,0.2-3.3,3.4v16   c0,2.4,1.5,2.6,4.9,2.6c5.5,0,5.3-1.4,7.1-5.1h1l-1.1,6.2h-18.7V130.9z"
   id="path48" />
	<g
   id="g52">
		<path
   class="st4"
   d="M363,123.9l-1.8,4.6c-0.5,1.3,0.2,2.5,1.9,2.5v0.9h-6.9v-0.9c1,0,2.1-0.6,2.7-1.7c1.6-3,6.1-14.2,9.3-21.8    h2.1c2.6,6.9,6.5,17.5,7.8,20.5c0.8,1.9,1.4,3,3.1,3v0.9h-8.9v-0.9c2.4,0,2.6-1.1,2-2.6l-1.6-4.4H363z M372.2,122.6l-4-11.2h-0.1    l-4.5,11.2H372.2z"
   id="path50" />
	</g>
	<g
   id="g56">
		<path
   class="st4"
   d="M394.1,121.2h-3v6.3c0,3.2-0.2,3,3.3,3.4v0.9h-10.3v-0.9c3.4-0.4,3.3-0.2,3.3-3.4v-15.4c0-3.2,0.2-3-3.3-3.4    v-0.9h11.1c3.9,0,7.7,1.8,7.7,5.8c0,3.5-2.4,6-5.3,7l3.7,5.1c1.9,2.5,4,4.9,5.4,5.6v0.4C403,131.8,400,130.3,394.1,121.2z     M391.1,120.1h3.2c3.3,0,4.8-2.3,4.8-6.1c0-3.7-2.3-5-5.1-5h-2.9V120.1z"
   id="path54" />
	</g>
	<g
   id="g60">
		<path
   class="st4"
   d="M416.1,123.9l-1.8,4.6c-0.5,1.3,0.2,2.5,1.9,2.5v0.9h-6.9v-0.9c1,0,2.1-0.6,2.7-1.7c1.6-3,6.1-14.2,9.3-21.8    h2.1c2.6,6.9,6.5,17.5,7.8,20.5c0.8,1.9,1.4,3,3.1,3v0.9h-8.9v-0.9c2.4,0,2.6-1.1,2-2.6l-1.6-4.4H416.1z M425.3,122.6l-4-11.2    h-0.1l-4.5,11.2H425.3z"
   id="path58" />
	</g>
	<path
   class="st3"
   d="M301,223.1c-2.4-2.1-5.2-1.4-8.5,1.4c-3.3,2.9-3.6,5.8-2.2,9c1.4,3.2,2.5,7.7,1.7,10.8c0,0-9.8,2.6-9.2,6.2   c0,0,1.9,0.1,3.3-0.4c1.4-0.6,4.2-0.3,4.2-0.3s0,2.2,0.9,3.5c0,0,2.3-1,4.2-2.2c1.9-1.2,2.9-1.3,2.9-1.3s1.6,2.3,4,2.3   c0,0,1.2-3-0.9-5.5c-2-2.5-2.5-3.6-2.5-6.9c0-3.3,1.4-4.9,2.6-6.2C302.8,232.2,304.9,226.6,301,223.1z"
   id="path62" />
	<path
   class="st3"
   d="M285,234.9c-0.9-0.5-3,2-5.3,5.8c-2.3,3.8-3,5.1-1.2,4.5c1.9-0.6,2.9-3,5.2-5.2   C286,237.8,285.7,235.4,285,234.9z"
   id="path64" />
	<path
   class="st3"
   d="M283.1,242.9c-2.4,3.2-3,4-2.2,4c0.9,0,3.5-1.9,5.3-3.2c1.9-1.3,2-3.5,1.2-3.8   C286.6,239.7,284.9,240.6,283.1,242.9z"
   id="path66" />
	<path
   class="st3"
   d="M302.1,235.1c-2,2.2-3,4.6-0.7,7.9c2.3,3.3,3.8,6.2,4.3,5.9c0.6-0.3,2.5-1.6,3.5-3.8c1-2.2,0.4-4.8-0.7-5.6   c-1.2-0.9-1.7-0.3-1.6,1.9c0.1,2.2-0.7,3.5-0.7,3.5s-0.3-3.3-1.6-4.8c-1.3-1.4-1.3-2.7-0.1-2.3c1.2,0.4,1.7,2.6,1.6-1.3   C305.8,232.6,303.6,233.4,302.1,235.1z"
   id="path68" />
	<path
   class="st3"
   d="M323.1,227.1c0.4,2.1,1.4,6.8,1.4,9c0,2.2-0.1,7.2-0.1,7.2s1.7,1.9,3.3,3.6c0,0,0.6-2,0.3-5.2   c0,0,2,2.7,3.3,4.5c1.3,1.7,1.3,2.6,3.6,2c2.3-0.6,0.9-2-1-4.8c-1.9-2.7-4-5.1-5.8-7.7c-1.7-2.6-2.5-4.6-3-6.8   C324.6,226.9,322.7,224.8,323.1,227.1z"
   id="path70" />
	<path
   class="st3"
   d="M328,227.6c-1.6-0.7-1.9,1.2-1,3.3c0.9,2.2,1.6,4.6,2.2,3.2C329.8,232.6,329.5,228.2,328,227.6z"
   id="path72" />
	<path
   class="st3"
   d="M329.3,216.2c-2.5-0.7-4.6,0.6-3.2,1.7c1.4,1.2,2.7,2.3,3.6,2.2C330.6,219.9,330.4,216.5,329.3,216.2z"
   id="path74" />
	<g
   id="g78">
		<path
   class="st3"
   d="M267.5,158c0,0,0.6-2,3.9-2.5c3.3-0.4,5.6,2.9,5.6,2.9s2.3-3,4.8-2.7c3.5,0.4,9.8,5.8,15.7,12.4    c0,0-3.6,2-0.9,6.2c2.7,4.2,7.9,9,9.2,14.2c0,0-2.2-0.3-3.8,0.1c0,0,2.6,3.3,5.1,5.1c0,0-2.3,0.4-5.6-1.4c0,0,1,2.5,4,3.5    c3,1,3.9,2.6,4.3,4c0,0-2.9-0.9-5.3-0.4c0,0,0.1,2.6,2.7,5.1c0,0-1.6,0.6-4,0.3c-2.5-0.3-4.9-1.2-6.9,0.3c0,0,4.6,2.7,8.1,3.2    c0,0,0.7,1.6-0.6,2.7c-1.3,1.2-5.9-0.1-5.9-0.1s1.2,2.2,4.3,2.6c0,0-1.3,1.6-2.3,2c0,0,2.5,2.6,5.8,4.5c3.3,1.9,7.1,2.6,10.5,3.2    c3.5,0.6,5.2,3.3,5.2,5.9c0,2.6-0.4,5.8-1.7,8.2c-1.3,2.5-1.3,5.8-1,7.7c0,0,3.5,0.6,5.6,1.9c2.9,1.7,3.8,5.3,3.8,5.3    s-1.4,0.1-3.5-0.9c-2-1-4.8-0.3-4.8-0.3s0.1,1.7-0.4,2.6c0,0-1.7-0.4-3.2-1.2c-1.4-0.7-1.9-1.9-1.9-1.9s-1.6,0-3,0.6    c-1.4,0.6-3.2,1.4-3.2,1.4s-0.4-3,0.9-4.6c1.3-1.6,2.2-3.6,2-6.8c-0.1-3.2-2.2-6.5-3.2-8.8c-1-2.3-1-7.1-1-8.7    c0,0-3.6-1.2-5.8-2.5c-2.2-1.3-4.5-1.4-6.9-1.6c-2.5-0.1-2.5-1.3-2.2-3c0.3-1.7,2.3-3.9,2.3-3.9s-3.8,0.1-5.9-2.2    c-2.2-2.3-4-3.2-4-13.7c0-10.5,0.3-15.9-3.8-23.3C276.1,165,267.5,158,267.5,158z M284.3,160.7c-1.2-1.4-3.3-0.7-3.3-0.7    s2,2.5,3.3,5.2C284.3,165.2,285.4,162.1,284.3,160.7z M301.2,200.7c1.2,1.2,2.5,1.3,2.5,1.3s-0.4-3.6-3.2-3.8    c-2.7-0.1-2.9,1.3-2.9,1.3S300,199.6,301.2,200.7z"
   id="path76" />
	</g>
	<path
   class="st3"
   d="M268.7,211.4c-2,2.4-2.9,4.2-2,5.1c0.9,0.9,1.9,0.4,6.4-3.2c4.5-3.6,6.2-4.3,5.8-6.9   C278.4,203.7,275.2,203.6,268.7,211.4z"
   id="path80" />
	<path
   class="st3"
   d="M257,203.7c-2.6,1.7-3.9,5.3-2.6,5.8c1.3,0.4,3.8-0.6,8.7-3c4.9-2.5,7.8-3.3,8.5-4.3c0.7-1,0.6-0.6-2.6-1   C265.8,200.7,261.6,200.9,257,203.7z"
   id="path82" />
	<path
   class="st3"
   d="M325,186.3c-4.4,1.6-5.1,3.5-3.2,4.3c1.9,0.9,7.7,1.2,12.3-4.2c4.6-5.3,7.1-14.2,11.1-19.1   c4-4.9,10.5-10.4,23.8-11c13.3-0.6,37.8,1.9,52.1,2.6c14.3,0.7,24.8,1.4,41.7-0.9c16.9-2.3,25-4.6,25.7-6.1   c0.7-1.4-0.4-1.2-8.5,0.1c-8.1,1.3-29.5,4-53.1,2.5c-23.7-1.6-47.1-2.9-57.3-2.7c-12,0.1-19.5,1.2-26.1,6.8   c-6.6,5.6-6.5,12-7.7,16.9C334.7,180.5,331.4,184,325,186.3z"
   id="path84" />
	<path
   class="st3"
   d="M387.7,170.5c-3.4-0.3-5.8,0.3-2.9,1.6c2.9,1.3,8.5,1.6,11.7,1.6c3.2,0,9.7,2.9,14.4,3.8   c4.8,0.9,14.6,1.2,24.4,1c9.8-0.1,22.7-0.1,25.9-1.4c3.2-1.3,5.3-4.9,1.9-4.5c-3.5,0.4-14.7,1-33.7,0.6   C410.5,172.7,399.7,171.7,387.7,170.5z"
   id="path86" />
	<path
   class="st3"
   d="M354.8,173.6c-2.8-1.6-5.9-1.3-5.1,0.3c0.9,1.6,1.4,2.3,0.6,2.6c-0.9,0.3-1.4,2.6,1,5.1   c2.5,2.5,5.6,3.5,11.7,3.8c6.1,0.3,11.3,1.4,14.7,3.2c3.5,1.7,4.8,2,4.8-0.1c0-2.2-2-2.6-6.5-3.9c-4.5-1.3-10.7-1.9-15-2.6   c-4.3-0.7-4.9-2.3-4.9-3.9S356.1,174.3,354.8,173.6z"
   id="path88" />
	<path
   class="st3"
   d="M365.6,173.6c-2-1.3-2.9,0.9-1.9,2.3c1,1.4,2.2,3.6,3.6,3.5C368.8,179.2,372,177.6,365.6,173.6z"
   id="path90" />
	<path
   class="st3"
   d="M440.8,163c-3.2-0.1-4.3,1.4-1.6,3.3c2.7,1.9,3.3,2.9,11.8,2.7c8.5-0.1,15.9-0.3,20.7-1.7   c4.8-1.4,7.2-4.5,7.5-5.3c0.3-0.9-1-1-7.2-0.3C465.8,162.4,451.4,163.3,440.8,163z"
   id="path92" />
	<path
   class="st3"
   d="M386.7,160.6c-4.7-0.5-7.1,0.6-5.5,2.2c1.6,1.6,4.3,1.6,7.5,1.9c3.2,0.3,8.2,1,9.1,0.4   c0.9-0.6,0.1-1.7-2.2-2.3C393.3,162.1,390.6,161,386.7,160.6z"
   id="path94" />
	<path
   class="st3"
   d="M377.2,165.3c-1.6-0.3-3.9,0-5.9,2c-2,2-1.4,3.2,0.1,3c1.6-0.1,3.8-1.3,5.5-1.9   C378.6,167.9,379.2,165.8,377.2,165.3z"
   id="path96" />
	<path
   class="st3"
   d="M368.9,164.5c2.1-1.1,3-2.6,1-2.9c-2-0.3-3.8,1.2-4.9,2.9C363.9,166.2,364,167.1,368.9,164.5z"
   id="path98" />
	<path
   class="st3"
   d="M359.5,166c-1.3-1.3-1.9-1.2-1.6,1.7c0.3,2.9,1.3,3.8,2.5,3.5C361.6,171,362.1,168.6,359.5,166z"
   id="path100" />
	<path
   class="st3"
   d="M380.9,176c-2.4-1-3.8,0.1-1.7,1.6c2,1.4,5.6,2.2,7.4,3.2c1.7,1,5.2,1.6,5.3,0.3c0.1-1.3-0.1-4-2.2-4.2   c-2-0.1-1.9-1.6-3.2-2.2C385.2,174.1,382.9,176.9,380.9,176z"
   id="path102" />
	<path
   class="st3"
   d="M401.9,178.9c-2-0.2-1.9,2.3,0.6,4.5c2.5,2.2,5.3,2.9,6.8,2.5c1.4-0.4,3.5-3.2,2-3.8   C409.8,181.5,404.7,179.2,401.9,178.9z"
   id="path104" />
	<path
   class="st3"
   d="M391.7,186.7c-1.9-0.2-4.9,0.9-1.3,1.6c3.6,0.7,6.6,2.6,11.4,2.7c4.8,0.1,10,0.3,14.4,0.9   c4.5,0.6,6.4,0.3,6.4-1.3c0-1.6-1.3-2.2-7.2-2.3C409.5,188.1,401.9,187.7,391.7,186.7z"
   id="path106" />
	<path
   class="st3"
   d="M386.3,192.2c-3.8,0.2-4.5,0.6-1.9,3c2.6,2.5,5.5,3.8,5.9,1.9c0.4-1.9,0.7-3,3.5-1.2c2.7,1.9,4.3,2.7,9.2,2.9   c4.9,0.1,5.9,1.4,9.5,0.9c3.6-0.6,5.8-2.6,6.2-4c0.4-1.4-1-2.3-5.6-2.5c-4.6-0.1-11-0.7-15-1C394.1,191.9,390.6,191.9,386.3,192.2z   "
   id="path108" />
	<path
   class="st3"
   d="M375.1,190.6c-3.8-0.4-4.5-1.3-4.2,0.4c0.3,1.7,1.4,1.4,2.9,2.5c1.4,1,3,1.2,4.2,0.4   C379.2,193.2,377.7,190.9,375.1,190.6z"
   id="path110" />
	<path
   class="st3"
   d="M362.4,188.9c-2.4-1.5-6.1-1.3-5.9,0.4c0.1,1.7,1.2,2.5,3.3,2.7c2.2,0.3,2.5,1.2,3.9,1.2   C365.2,193.2,365.2,190.6,362.4,188.9z"
   id="path112" />
	<path
   class="st3"
   d="M348.3,192.3c-2.5-1.2-5.1-0.4-4.5,1.3c0.6,1.7,1.7,2,3.5,2.2c1.7,0.1,3.6,2.3,4.6,1.4   C352.9,196.4,351.4,193.8,348.3,192.3z"
   id="path114" />
	<path
   class="st3"
   d="M356.6,194.1c-2.2-0.2-2.6,0.3-1.4,1.6c1.2,1.3,2.6,2.2,3.6,2C359.8,197.5,360.4,194.5,356.6,194.1z"
   id="path116" />
	<path
   class="st3"
   d="M340.6,195.9c-1.1-0.7-3.2-0.1-2.9,0.9c0.3,1,1.6,1,2.9,0.9C341.9,197.5,341.8,196.7,340.6,195.9z"
   id="path118" />
	<path
   class="st3"
   d="M334.7,202c0.9-2.4-1.2-3.3-3.2-2c-2,1.3-3.9,2.6-3.6,3.8c0.3,1.2,1,2.2,2.7,2.2   C332.4,205.9,334.1,203.6,334.7,202z"
   id="path120" />
	<path
   class="st3"
   d="M331.8,210.2c-2.3-0.4-3.3,0.7-1.4,3.2c1.9,2.5,2.6,2.9,4.2,2.7c1.6-0.1,2-2,3.2-3.9c1.2-1.9,3-3.2,5.5-2.2   c2.5,1,3.8,1.6,5.8,1.2c2-0.4,2.9-2.7,0-3.6c-2.9-0.9-5.9-2.6-8.1-2.6c-2.2,0-2.7,0.9-4.5,3C334.7,210.2,334.3,210.7,331.8,210.2z"
   id="path122" />
	<path
   class="st3"
   d="M339.7,200c-2.3-0.2-3.8,0.1-1,1.7c2.7,1.6,5.1,0.1,12.6,2.5c7.5,2.3,10,4.2,12.9,4c2.9-0.1,4.6-3.6,1.3-4.6   c-3.3-1-9.5-2.7-13.3-2.9C348.4,200.6,343.9,200.3,339.7,200z"
   id="path124" />
	<path
   class="st3"
   d="M366.5,195.5c-4.3-0.2-5.5,1-2.6,3c2.9,2,4.9,2.7,6.2,1.7c1.3-1,2.6,0,4.9,1.9c2.3,1.9,7.2,2.5,9.5,1.9   c2.3-0.6,3.5-4.2,0.7-4.9c-2.7-0.7-7.2-1.4-9.5-2C373.4,196.5,370.5,195.7,366.5,195.5z"
   id="path126" />
	<path
   class="st3"
   d="M410.7,164.2c-3.6-1.1-4.5-1.3-4.2,0.1c0.3,1.4,0.9,2.5,4,2.5C413.7,166.8,414.6,165.3,410.7,164.2z"
   id="path128" />
	<path
   class="st3"
   d="M426.3,167.1c-2.1-0.6-3.8-0.1-2.5,0.9c1.3,1,2.2,2.5,3.6,1.9C428.9,169.2,428.7,167.8,426.3,167.1z"
   id="path130" />
	<path
   class="st3"
   d="M433.6,164.6c-2.4-1.3-5.8-0.4-3.8,0.7c2,1.2,4.5,4,5.9,3.9C437.2,169.1,436.7,166.2,433.6,164.6z"
   id="path132" />
	<path
   class="st3"
   d="M421.9,180.5c-4.5,0-6.6,0.9-5.8,2.2c0.9,1.3,5.3,5.1,11.8,5.1s11.7-0.1,14.7-2.6c3-2.5,4-3.8,0.7-3.8   C440.1,181.4,429.1,180.5,421.9,180.5z"
   id="path134" />
	<path
   class="st3"
   d="M262.9,165.3c2.1,4.1,1.9,10.8,3.8,14c1.5,2.6,7.8,5.2,11.3,6.9c3.5,1.7,3.2,6.5,0.4,7.2   c-2.7,0.7-6.2,0.1-11-5.8c-4.8-5.9-5.5-13.4-14.9-21.7c-9.4-8.2-23.4-8.4-37.3-8.8c-13.9-0.4-26.7,1.7-38.9,2.3   c-12.1,0.6-26.6,0.7-37-0.6c-10.4-1.3-16.9-3-17.9-4.3c-1-1.3-0.5-2.3,4-1.2c10.7,2.6,18.6,3.6,33.1,3.8c14.4,0.1,30-2.2,48.1-3.8   c18.1-1.6,31.3-2.5,41.3,0.1C255.2,155.5,260.5,160.4,262.9,165.3z"
   id="path136" />
	<path
   class="st3"
   d="M129.9,161.1c-5.9-1-9.5-0.3-6.1,1.6c3.5,1.9,9.7,4.8,17.8,5.8c8.1,1,21.5,0.9,29.8-0.7c8.2-1.6,15-3.5,21.4-4   c6.4-0.6,7.7-1,8.7-1.2c1-0.1,2.5,0.7,3.6,1.3c1.2,0.6,6.5,0.3,8.4,0c1.9-0.3,3.5-2.3,5.6-1.2c2.2,1.2,4.5,3.3,6.8,2.9   c2.3-0.4,3-2.3,3-3.3c0-1-2-3.3-7.4-3.2c-5.3,0.1-20.2,1.7-32.5,2.5C176.7,162.3,147.4,164.2,129.9,161.1z"
   id="path138" />
	<path
   class="st3"
   d="M141.3,171.2c-3.9-0.1-4.6,0.7-0.1,2.7c4.5,2,10.8,3.3,15.7,3.6c4.9,0.3,15.2,0.3,22.4-2.7   c7.2-3,7.8-3.2,10-1.7c2.2,1.4,3.2-0.1,4.8-1.6c1.6-1.4,4.3-1.4,7.1-0.1c2.7,1.3,4,1.7,4.6-0.4c0.6-2.2-0.1-3.5-4.2-2.9   c-4,0.6-20.9,2.6-28.6,2.9C165.3,171.2,153.9,171.5,141.3,171.2z"
   id="path140" />
	<path
   class="st3"
   d="M155.3,180.3c-4.9-0.1-7.7,0.9-3.9,3c3.8,2.2,9,3.3,20.1,2.9c11.1-0.4,17.5-2.5,24-4.6   c6.5-2.2,6.8-2.7,10.7-1.9c3.9,0.9,4.2-0.3,8.5-0.4c4.3-0.1,5.2,1.3,7.7,1.3c2.5,0,2-1,3.6-1.7c1.6-0.7,2.6,0,4,1   c1.4,1,6.4,3,3.9,0.3c-2.5-2.7-4.5-4.8-9.2-4.3c-4.8,0.4-22.4,1.4-34.2,2.3C178.6,179,164.7,180.5,155.3,180.3z"
   id="path142" />
	<path
   class="st3"
   d="M182.3,188.7c-1.4,1.6-0.4,2,4.2,2.2c4.6,0.1,7.4-1.4,14.4-1.9c7.1-0.4,10,0.1,13.3,0.6   c3.3,0.4,4.5,1.7-0.3,2.2c-4.8,0.4-9.7,1-17.2,1.2c-7.5,0.1-9.8,2.5-9.8,3.5s1.9,1.7,8.5,0.7c6.6-1,16-0.7,21.4-2.5   c5.3-1.7,6.8-4.5,3.2-5.9c-3.6-1.4-5.3-3.2-7.7-4c-2.3-0.9-4.6-0.7-7.4-0.4c-2.7,0.3-6.9,0.4-10.8,0.6   C190.3,185,184.6,186,182.3,188.7z"
   id="path144" />
	<path
   class="st3"
   d="M220.2,197.1c-4.3,0.7-5.1,2-4.5,3.5c0.6,1.4,2.9,3,8.5,0.7c5.6-2.3,12.6-5.8,15.3-7.1c2.7-1.3,2.3-2.3,0.3-2   c-2,0.3-6.1,2.3-8.4,3C229.1,195.9,224.8,196.4,220.2,197.1z"
   id="path146" />
	<path
   class="st3"
   d="M234.6,187.1c-2.5-0.9-3.3,0-1.6,1.7c1.7,1.7,3.6,2.3,5.2,1.9c1.6-0.4,1.7-2.5,0.4-2.5   S235.8,187.6,234.6,187.1z"
   id="path148" />
	<path
   class="st3"
   d="M211.1,167.9c-2.5,0.1-4.8,1.6-2.2,1.9c2.6,0.3,4.5,1,5.3,1.7c0.9,0.7,2.3,0.9,3.6,0.7c1.3-0.1,2-1,0.6-1.2   c-1.4-0.1-2.6-0.9-1-2c1.6-1.2,1.3-2.2-0.1-2.3C215.8,166.6,213.8,167.8,211.1,167.9z"
   id="path150" />
	<path
   class="st3"
   d="M225.9,169.9c-3.2-0.3-5.2,0.7-3.3,1.2c1.9,0.4,3.5,1.7,4.8,2.7c1.3,1,3,1.7,2.7-0.3   C229.8,171.5,228.8,170.2,225.9,169.9z"
   id="path152" />
	<path
   class="st3"
   d="M236.3,171.8c-2.7-0.7-4,0.4-2.2,1.4c1.9,1,4,2.9,5.9,2.5c1.9-0.4,2-1.3,0.4-2.5   C238.9,172.1,237.9,172.3,236.3,171.8z"
   id="path154" />
	<path
   class="st3"
   d="M236.5,163.3c-1.4-1.3-1.4,1.2-1,3.3c0.4,2.2,1.3,3.5,2.6,3.2C239.4,169.5,239.8,166.3,236.5,163.3z"
   id="path156" />
	<path
   class="st3"
   d="M242.8,163.7c-3-1.3-3.6,0.6-2,1.7c1.6,1.2,3.2,2.5,4.2,2.3C246,167.6,246.7,165.5,242.8,163.7z"
   id="path158" />
	<path
   class="st3"
   d="M242.4,181.2c-2.3-0.1-2.7,0.7-0.7,2c2,1.3,4.3,1,4.3-0.1S245.1,181.4,242.4,181.2z"
   id="path160" />
	<path
   class="st3"
   d="M237.2,201c-3.4,2.2-4.5,3.2-2.9,4c1.6,0.9,5.1,1.2,7.5,0.6c2.5-0.6,5.9-2.9,7.2-3.8c1.3-0.9,2.9-3.2,0.3-3.3   C246.7,198.4,243.6,197,237.2,201z"
   id="path162" />
	<path
   class="st3"
   d="M250.5,173.4c-2.9-2.9-4.6-2.6-4.6-0.7c0,1.9,1.6,3.6,2.9,4.6c1.3,1,4,1.2,4.8,0.4   C254.2,177,252.5,175.4,250.5,173.4z"
   id="path164" />
	<path
   class="st3"
   d="M254,181.4c0.6,1.5,1.4,4,3.9,4.8c2.5,0.7,4.6,1.7,4.6,2.7c0,1-1.3,1.6-4.5,0.3c-3.2-1.3-5.9-3.8-6.4-5.2   C251.2,182.5,252.9,179,254,181.4z"
   id="path166" />
	<path
   class="st3"
   d="M253.7,190.6c-3.8-1-5.6,0-3.5,2c2.2,2,5.8,4.3,7.8,4.8c2,0.4,3.8,0.3,3.6-1.4   C261.5,194.2,259,192,253.7,190.6z"
   id="path168" />
	<path
   class="st5"
   d="M306,276.3c-0.5-0.8-0.7-1.9-0.7-3c0-0.5,0-2,0.7-3.1l0,0.2v5.7L306,276.3z"
   id="path170" />
	<path
   class="st0"
   d="M306,279.3l0,8.2c8.7,0,15.9-1.2,23.5-2.5c6.9-1.1,14-2.3,22.5-2.7c23.4-1,43.6,1.6,72.2,17.5   c16.2,9,28.9,18.1,36.9,24.3c-2.3-6.6-6.1-15.2-12.7-24.2l-3.6-4.9l5.9-1.4c0.5-0.1,9.3-2.1,23.2-1.7c-8.4-6.2-24.1-15.8-51.6-27.6   c-31.8-13.6-57.8-17.9-79.6-13.2c-12.4,2.7-26.5,4.3-36.9,4.3h0v11.8l0,0.2c0.7-0.3,1.5-0.5,2.4-0.5c0.7,0,2.4,0,3.8,1.3   c0.6,0.6,1,1.3,1.2,2.2L311,271c-0.3-1.3-1.4-2-2.7-2c-1.1,0-1.9,0.5-2.3,1.2l0,0.2v5.7l0,0.2c0,0,0,0,0,0.1   c0.5,0.7,1.3,1.2,2.4,1.2c1.7,0,2.4-1.3,2.7-2.7l2.4,0.7c-0.2,1-1,4-5,4.1c-0.9,0-1.8-0.1-2.5-0.5V279.3z"
   id="path172" />
	<path
   class="st6"
   d="M306,279.4l0,8.2c-8.7,0-15.9-1.2-23.5-2.5c-6.9-1.1-14-2.3-22.5-2.7c-23.4-1-43.6,1.6-72.2,17.5   c-16.2,9-28.9,18.1-36.9,24.3c2.3-6.6,6.1-15.2,12.7-24.2l3.6-4.9l-5.9-1.4c-0.5-0.1-9.3-2.1-23.2-1.7c8.4-6.2,24.1-15.8,51.6-27.6   c31.8-13.6,57.8-17.9,79.6-13.2c12.4,2.7,26.5,4.3,36.9,4.3v11.8l0,0.2c-2.3,1-3.3,3.5-3.3,6.2c0.1,2.8,1.3,4.8,3.3,5.7V279.4z"
   id="path174" />
	<path
   class="st1"
   d="M343,246.9c1.4-0.3,2.8-0.5,4.3-0.8l0.3,0c-3.4-1.1-7-2.2-10.5-3l-0.4-0.1c0.5,1,1,1.9,1.6,2.8l0.3,0   c1.4,0.4,2.7,0.7,4.1,1.1L343,246.9z"
   id="path176" />
	<path
   class="st1"
   d="M269.7,246.9c1.9-0.6,3.8-1.1,5.7-1.5l0.3,0c0.3-0.9,0.6-1.8,1.1-2.7l-0.3,0.1c-3.9,0.9-7.8,2-11.6,3.2   l-0.5,0.2c1.7,0.2,3.3,0.5,4.9,0.9L269.7,246.9z"
   id="path178" />
	<path
   class="st1"
   d="M236.3,246c1.5-0.8,3-1.7,4.6-2.5l-1.3-1.9c-3.3,1.7-6.6,3.6-9.7,5.5l-0.3,0.2c-2,0.4-4.1,0.8-6.2,1.3l0.4-0.3   c3.9-2.6,7.9-5.1,12-7.3l-0.8-1.7l-0.2-0.4c15.9-8.7,33.6-14.5,52.4-16.9l-0.1,0.4c-0.5,2-1,4.2-1.4,5.8c-0.6,2.2-3.2,5.9-6.2,10.3   c-0.3,0.5-0.6,0.9-0.9,1.4l-0.2,0c-6.5,1.4-12.9,3.2-19,5.5l-0.2,0c-7-0.6-14.7-0.4-23.3,0.8L236.3,246z"
   id="path180" />
	<path
   class="st1"
   d="M338.8,224.5c14.2,3.2,27.5,8.3,39.8,15.2l0.3,0.2l0.3,2.8c3.3,1.9,6.4,3.9,9.5,6l-0.2,0   c-1.9-0.4-3.8-0.8-5.6-1.2l-0.3-0.1c-2.3-1.4-4.7-2.8-7.1-4.1l-1.5,1.8c0.8,0.4,1.5,0.8,2.3,1.3l-0.4,0c-8.4-1.1-15.9-1.3-22.8-0.8   l-0.3,0c-5.5-2.1-11.2-3.8-17.1-5.1l-0.4-0.1c-1.7-3.7-2.8-7.4-2.9-9.5c-0.1-3.8,2-6.1,5.8-6.4L338.8,224.5z"
   id="path182" />
	<path
   class="st1"
   d="M331.2,480.3c56.9-11.3,99.9-59.9,99.9-118.1c0-23.6-7.1-45.7-19.3-64.3l0.4,0.1c1,0.5,2,0.9,3,1.4l0.6,0.3   c11.2,18.3,17.7,39.6,17.7,62.4c0,60.5-45.5,110.9-105.3,121l0.4-0.4c0.7-0.8,1.5-1.6,2.2-2.5L331.2,480.3z"
   id="path184" />
	<path
   class="st1"
   d="M280.8,480.3c-56.9-11.3-99.9-59.9-99.9-118.1c0-23.5,7-45.5,19.2-64.1l0.2-0.3c-1.3,0.6-2.6,1.3-4,1.9   l-0.2,0.4c-11.1,18.2-17.4,39.4-17.4,62c0,60.3,45.2,110.5,104.7,120.9l0.5,0c-0.8-0.9-1.6-1.8-2.5-2.7L280.8,480.3z"
   id="path186" />
	<path
   class="st1"
   d="M325.3,486.3c-9.5,10-16.6,15.7-18.2,17l-0.3,0.2c5.1,0,10.1-0.3,15.1-0.8l0.4-0.1l0.4-2.3   c41.5-4.7,77.7-26.6,100.7-58.2l0.6,2.1l0.2,0.7c17.4-23.3,27.7-51.9,27.7-82.7c0-15.7-2.7-30.9-7.6-45l-0.1-0.5   c-1.1-0.7-2.1-1.4-3.3-2.2l0.2,0.6c5.5,14.7,8.5,30.6,8.5,47.1c0,29.1-9.3,56.2-25.2,78.5l-0.7-3c14.9-21.7,23.6-47.6,23.6-75.6   c0-17.4-3.4-34-9.5-49.4l-0.2-0.5c-1.1-0.7-2.2-1.4-3.4-2.1l0.2,0.6c6.8,15.8,10.6,33.2,10.6,51.4c0,63.6-45.8,117-107.2,130.9   l-0.3-2.3c60.2-13.8,105.2-66.2,105.2-128.6c0-19-4.2-37.1-11.7-53.5l-0.3-0.6c-1.2-0.7-2.4-1.4-3.6-2.1l0.3,0.5   c8.3,16.9,13,35.8,13,55.7c0,59.7-42,110.1-98.9,125.2l-0.8-2.2c56.1-14.7,97.4-64.3,97.4-123c0-20.9-5.2-40.6-14.5-58l-0.2-0.4   c-0.4-0.2-0.7-0.4-1.1-0.6c-0.8-0.4-2.7-1.5-2.7-1.5c10.3,17.9,16.1,38.5,16.1,60.4c0,62.6-47.8,114.6-110,123.7L325.3,486.3z"
   id="path188" />
	<path
   class="st1"
   d="M285.9,485.9c-62-9.3-109.6-61.2-109.6-123.7c0-21.8,5.8-42.2,15.9-60.1l0.2-0.4c-0.9,0.5-1.8,1-2.8,1.5   c-0.4,0.2-0.7,0.4-1.1,0.6l-0.2,0.5c-9.2,17.4-14.4,37-14.4,57.8c0,29.4,10.4,56.5,27.7,78.1l-1.5,1.8   c-17.9-22-28.6-49.8-28.6-79.9c0-20,4.7-38.9,13.1-55.9l0.2-0.4c-1.2,0.7-2.4,1.4-3.6,2.1l-0.2,0.4c-7.6,16.4-11.8,34.6-11.8,53.7   c0,33.6,13,64.2,34.4,87.6l-1.5,1.7c-21.9-23.8-35.2-55.1-35.2-89.3c0-18.3,3.8-35.8,10.7-51.7l0.1-0.3c-1.2,0.7-2.3,1.4-3.4,2.1   l-0.1,0.4c-6.2,15.3-9.6,32-9.6,49.4c0,41.2,19,78.3,48.9,103.4l-1.2,2c-30.6-25.5-50-63.3-50-105.4c0-16.6,3-32.5,8.6-47.3   l0.1-0.4c-1.1,0.7-2.2,1.5-3.2,2.2l-0.1,0.3c-5,14.2-7.6,29.4-7.6,45.2c0,77.7,65,140.9,145.1,141.3l-0.3-0.3   c-1.7-1.4-8.9-7.2-18.5-17.3L285.9,485.9z"
   id="path190" />
	<polygon
   class="st2"
   points="170.5,284.3 173.8,282.6 179.6,289.1 179.7,289.1 177.8,280.6 181.1,278.9 186.8,289.9 184.7,291    180.3,282.3 180.2,282.3 182.5,292.1 180.4,293.2 173.8,285.6 173.7,285.6 178.2,294.3 176.1,295.4  "
   id="polygon192" />
	<polygon
   class="st2"
   points="183.7,277.6 192.2,273.9 193,275.8 186.9,278.6 188,281.1 193.7,278.6 194.5,280.5 188.8,283    190.2,286.1 196.5,283.3 197.4,285.2 188.8,289  "
   id="polygon194" />
	<polygon
   class="st2"
   points="194.8,272.8 197.1,272 204.7,278.1 204.7,278.1 201.9,270.3 204.1,269.5 208.3,281.1 205.9,282    198.5,276.1 198.5,276.1 201.3,283.7 199.1,284.5  "
   id="polygon196" />
	<path
   class="st2"
   d="M211.1,275.9c0.3,0.6,1.1,2.2,3.2,1.6c1.7-0.5,2.1-1.5,1.9-2.3c-0.3-1-1.2-1-3.5-0.9c-1.3,0-4.1,0.1-4.8-2.5   c-0.4-1.3-0.1-3.6,3.4-4.5c2.3-0.6,4.7-0.3,5.6,2.4l-2.4,0.8c-0.3-0.6-0.8-1.7-2.7-1.1c-0.7,0.2-2,0.8-1.7,1.7   c0.2,0.8,1.1,0.9,3.1,0.8c1.9-0.1,4.6-0.2,5.4,2.8c0.4,1.5-0.2,2.9-1.1,3.7c-0.9,0.8-2.1,1.2-2.7,1.3c-1.3,0.4-4.5,1.1-6.1-2.7   L211.1,275.9z"
   id="path198" />
	
		<rect
   x="219.6"
   y="271.8"
   transform="matrix(0.9794 -0.2019 0.2019 0.9794 -50.5423 50.4273)"
   class="st2"
   width="4.7"
   height="2.4"
   id="rect200" />
	<path
   class="st2"
   d="M227.9,272.1c0.2,0.6,0.8,2.3,3,2c1.7-0.2,2.3-1.2,2.2-2c-0.1-1-1-1.1-3.4-1.4c-1.3-0.1-4.1-0.4-4.4-3.1   c-0.2-1.3,0.4-3.6,4-4.1c2.4-0.3,4.7,0.3,5.2,3.1L232,267c-0.2-0.6-0.5-1.7-2.5-1.5c-0.7,0.1-2,0.5-1.9,1.5c0.1,0.8,0.9,1,3,1.2   c1.9,0.2,4.6,0.4,5,3.5c0.2,1.5-0.6,2.9-1.6,3.5c-1,0.7-2.3,0.9-2.8,1c-1.3,0.2-4.6,0.5-5.6-3.5L227.9,272.1z"
   id="path202" />
	<path
   class="st2"
   d="M246.1,274.7l-1.2-2.7l-5,0.3L239,275l-2.7,0.1l4.2-12.6l2.6-0.1l5.6,12.1L246.1,274.7z M243.9,269.9l-2-4.5   l-1.4,4.7L243.9,269.9z"
   id="path204" />
	<polygon
   class="st2"
   points="250,262.2 252.4,262.2 257.3,270.6 257.4,270.6 257.5,262.3 259.8,262.3 259.6,274.7 257.1,274.7    252.3,266.5 252.3,266.5 252.1,274.6 249.8,274.6  "
   id="polygon206" />
	<path
   class="st2"
   d="M270.3,275.5l-0.8-2.9l-4.9-0.4l-1.3,2.7l-2.7-0.2l5.8-12l2.6,0.2l3.9,12.8L270.3,275.5z M268.9,270.5   l-1.3-4.7l-2.1,4.5L268.9,270.5z"
   id="path208" />
	<rect
   x="275"
   y="269.4"
   transform="matrix(0.1307 -0.9914 0.9914 0.1307 -29.2719 510.03)"
   class="st2"
   width="2.4"
   height="4.7"
   id="rect210" />
	
		<rect
   x="275.3"
   y="269.5"
   transform="matrix(0.1458 -0.9893 0.9893 0.1458 -27.3605 509.7671)"
   class="st2"
   width="12.4"
   height="2.5"
   id="rect212" />
	<polygon
   class="st2"
   points="285.9,265.1 288.3,265.5 292.2,274.4 292.2,274.4 293.4,266.2 295.7,266.5 293.9,278.8 291.4,278.5    287.7,269.7 287.6,269.7 286.5,277.8 284.2,277.4  "
   id="polygon214" />
	
		<rect
   x="297.6"
   y="272.4"
   transform="matrix(7.604199e-02 -0.9971 0.9971 7.604199e-02 2.1989 551.7573)"
   class="st2"
   width="2.4"
   height="4.7"
   id="rect216" />
	<path
   class="st2"
   d="M320.2,265.8c4-0.5,6.3,2,6.8,5.6c0.4,3.2-0.8,6.6-5.1,7.1c-4.6,0.6-6.4-2.6-6.8-5.5   C314.6,269.1,316.4,266.3,320.2,265.8z M318.7,275.2c0.5,0.7,1.5,1.4,3,1.2c1.3-0.2,3.3-1.2,2.8-4.7c-0.2-1.4-0.9-4.1-4-3.7   c-2.8,0.4-3.1,2.9-2.8,4.7C317.9,274,318.3,274.7,318.7,275.2z"
   id="path218" />
	<path
   class="st2"
   d="M328,264.8l5.2-0.7c1.8-0.3,2.5-0.1,2.9-0.1c1.5,0.3,2.3,1.7,2.4,2.9c0.2,1.3-0.3,2.6-1.5,3.3   c-0.4,0.2-0.8,0.4-1.3,0.6l0,0c1.1,0.4,1.7,0.8,3.2,2.6l1.8,2.2l-3,0.4l-2.2-2.4c-1.8-2-2-2.2-3.7-2l-0.5,0.1l0.7,5.1l-2.5,0.3   L328,264.8z M331.2,269.6l1.8-0.3c0.8-0.1,1.8-0.3,2.2-0.5c0.8-0.4,0.8-1.2,0.7-1.6c-0.1-0.5-0.3-1-0.8-1.2   c-0.5-0.2-0.8-0.2-2.5,0.1l-1.9,0.3L331.2,269.6z"
   id="path220" />
	<path
   class="st2"
   d="M340.8,263.1l4-0.3c2.2-0.2,2.9-0.1,3.5,0.1c0.8,0.3,2.1,1.2,2.2,3.3c0.2,2.2-1,3.2-1.8,3.6   c-0.8,0.5-2.2,0.6-3.3,0.7l-1.6,0.1l0.4,4.7l-2.5,0.2L340.8,263.1z M343.5,265l0.3,3.5l1.4-0.1c1.3-0.1,3-0.2,2.9-2   c0-0.4-0.2-0.9-0.7-1.2c-0.6-0.4-1.2-0.4-2.7-0.3L343.5,265z"
   id="path222" />
	<path
   class="st2"
   d="M358.3,262c4.1,0,6,2.7,6.1,6.4c0,3.2-1.6,6.4-5.9,6.5c-4.7,0-6.1-3.4-6.1-6.3   C352.3,264.6,354.4,262.1,358.3,262z M355.6,271.2c0.4,0.7,1.3,1.5,2.8,1.5c1.3,0,3.4-0.7,3.4-4.3c0-1.4-0.4-4.2-3.5-4.2   c-2.8,0-3.4,2.5-3.4,4.3C354.9,269.9,355.3,270.7,355.6,271.2z"
   id="path224" />
	<path
   class="st2"
   d="M366.9,262.3l5.3,0.3c1.9,0.1,2.4,0.3,2.8,0.5c1.4,0.6,1.9,2.1,1.8,3.3c-0.1,1.3-0.8,2.5-2.1,2.9   c-0.4,0.2-0.9,0.3-1.4,0.3l0,0c1,0.7,1.5,1.1,2.6,3.2l1.3,2.5l-3-0.2l-1.6-2.8c-1.4-2.3-1.5-2.6-3.2-2.7l-0.5,0l-0.3,5.2l-2.5-0.2   L366.9,262.3z M369.1,267.7l1.8,0.1c0.8,0,1.8,0.1,2.3,0c0.9-0.2,1-1,1-1.4c0-0.5-0.1-1-0.6-1.3c-0.4-0.3-0.8-0.3-2.4-0.4l-2-0.1   L369.1,267.7z"
   id="path226" />
	<polygon
   class="st2"
   points="380,263.2 389.1,264.6 388.8,266.7 382.2,265.7 381.8,268.4 387.9,269.3 387.6,271.4 381.5,270.5    381,273.8 387.8,274.8 387.5,276.9 378.2,275.5  "
   id="polygon228" />
	
		<rect
   x="390.5"
   y="271"
   transform="matrix(0.2142 -0.9768 0.9768 0.2142 40.8496 597.3784)"
   class="st2"
   width="2.4"
   height="4.7"
   id="rect230" />
	<path
   class="st2"
   d="M397.5,274.9c-0.1,0.6-0.2,2.4,1.9,3c1.7,0.5,2.6-0.2,2.8-1c0.3-1-0.5-1.5-2.5-2.6c-1.1-0.6-3.5-2-2.8-4.7   c0.4-1.3,1.8-3.1,5.3-2.1c2.3,0.7,4.2,2.2,3.5,4.9l-2.4-0.6c0.1-0.6,0.2-1.8-1.7-2.4c-0.7-0.2-2.1-0.4-2.4,0.6   c-0.2,0.8,0.4,1.3,2.2,2.3c1.7,1,4,2.2,3.2,5.2c-0.4,1.4-1.7,2.4-2.8,2.6c-1.2,0.2-2.4-0.1-3-0.3c-1.3-0.4-4.4-1.4-3.7-5.5   L397.5,274.9z"
   id="path232" />
	<path
   class="st2"
   d="M413.1,284.6l0-3l-4.6-1.7l-1.9,2.3l-2.5-0.9l8.9-9.9l2.5,0.9l0.3,13.4L413.1,284.6z M413.1,279.4l0-4.9   l-3.2,3.7L413.1,279.4z"
   id="path234" />
	<polygon
   class="st2"
   points="421.7,274.7 423.9,275.7 425.1,285.3 425.1,285.4 428.5,277.8 430.6,278.8 425.5,290.1 423.2,289    422.1,279.6 422,279.6 418.7,287 416.6,286  "
   id="polygon236" />
	<path
   class="st2"
   d="M438.2,282.4c3.6,1.9,4,5.3,2.4,8.5c-1.5,2.9-4.4,4.9-8.3,2.9c-4.1-2.1-3.8-5.9-2.4-8.4   C431.7,281.9,434.8,280.6,438.2,282.4z M431.5,289.2c0,0.8,0.4,2,1.8,2.7c1.2,0.6,3.4,0.9,5-2.2c0.6-1.2,1.6-3.9-1.1-5.3   c-2.5-1.3-4.2,0.6-5,2.2C431.6,287.8,431.5,288.6,431.5,289.2z"
   id="path238" />
	<path
   class="st1"
   d="M362.3,286.2c7.3,0.1,14.5,0.7,22,2.3l0.5,0.1c-7.1,2.5-16.5,5.5-27.3,8.2L362.3,286.2z"
   id="path240" />
	<path
   class="st1"
   d="M332.7,301.8c7.6-1.2,15-2.7,22-4.4l5.1-11.3c-2.5,0-5,0.1-7.6,0.2c-5.7,0.2-10.8,0.9-15.6,1.6L332.7,301.8z"
   id="path242" />
	<path
   class="st1"
   d="M317.5,290.9c5.7-0.6,11.1-1.6,16.7-2.5l-3.9,13.8c-4.7,0.7-9.4,1.2-14.1,1.5L317.5,290.9z"
   id="path244" />
	<path
   class="st1"
   d="M296.9,291.1c2.9,0.3,5.9,0.4,9.1,0.4h0c3.2,0,6.2-0.2,9.1-0.4l-1.3,12.6c-2.6,0.1-5.2,0.2-7.8,0.2   c-2.6,0-5.2-0.1-7.8-0.2L296.9,291.1z"
   id="path246" />
	<path
   class="st1"
   d="M277.9,288.4c5.6,0.9,10.9,1.9,16.7,2.5l1.4,12.7c-4.7-0.3-9.5-0.8-14.1-1.5L277.9,288.4z"
   id="path248" />
	<path
   class="st1"
   d="M252.2,286.2c2.5,0,5,0.1,7.6,0.2c5.7,0.2,10.7,0.9,15.5,1.6l3.9,13.8c-7.6-1.2-15-2.7-22-4.4L252.2,286.2z"
   id="path250" />
	<path
   class="st1"
   d="M254.4,296.7c-10.5-2.6-19.8-5.6-26.8-8l-0.4-0.2c7.7-1.6,15-2.3,22.5-2.4L254.4,296.7z"
   id="path252" />
	<path
   class="st1"
   d="M393.4,346.9c1.7-8.7,3-16.9,3.9-24.2l17.7-8.5c4.1,8.5,7.1,17.5,8.9,26.9L393.4,346.9z"
   id="path254" />
	<path
   class="st1"
   d="M425.6,369.8c0.2-2.5,0.3-5,0.3-7.6c0-6.4-0.6-12.8-1.6-18.9l-31.4,6c-1.2,5.8-2.5,11.8-4.1,18.1L425.6,369.8z   "
   id="path256" />
	<path
   class="st1"
   d="M419.3,399.9c3.2-8.8,5.3-18.1,6.1-27.8l-37.3-2.4c-1.4,5.1-2.9,10.4-4.6,15.7L419.3,399.9z"
   id="path258" />
	<path
   class="st1"
   d="M362.1,464.1c7.9-4,15.2-8.9,21.9-14.4l-18.8-19.3c-3.6,6.8-7.3,13.2-11.2,19.2L362.1,464.1z"
   id="path260" />
	<path
   class="st1"
   d="M352.6,451.8c-5.5,8.3-11.1,15.7-16.3,22.1l0.6-0.2c8.1-2.1,15.8-4.9,23.1-8.5L352.6,451.8z"
   id="path262" />
	<path
   class="st1"
   d="M385.8,448.2c7.1-6.1,13.4-13,18.8-20.5l-29-19.8c-2.9,7.2-6,14-9.3,20.4L385.8,448.2z"
   id="path264" />
	<path
   class="st1"
   d="M405.9,425.9c5.1-7.4,9.3-15.4,12.6-23.8l-35.6-14.4c-1.9,6-4.1,12-6.5,18.1L405.9,425.9z"
   id="path266" />
	<path
   class="st1"
   d="M413.9,312c-3.1-6.2-6.8-12.1-11-17.6l-0.3-0.5c-0.9-0.3-2.9-1.1-2.9-1.1c-0.2,6.2-0.7,15.5-2.1,27.1   L413.9,312z"
   id="path268" />
	<path
   class="st0"
   d="M266.3,388.4l-18.1,16.6l-0.4,0.4c-0.3-0.7-0.5-1.3-0.8-2c-17-42.7-21.6-82.5-22.8-103.5   c17.4,6,49.4,15.4,80.3,15.7l0.3,0v16.8l-0.3,0c-22.3,0.8-40.2,19.1-40.2,41.6c0,4.9,0.9,9.7,2.4,14.1L266.3,388.4z"
   id="path270" />
	<path
   class="st0"
   d="M304.3,415.6c-5-0.2-9.9-1.3-14.3-3.2l-0.5-0.2l-26,23.7l-0.3,0.3c15.2,25.5,32,42.9,41.3,51.6l0.3,0.3v-72.5   L304.3,415.6z"
   id="path272" />
	<path
   class="st1"
   d="M323.7,336l28.5-26.1l-0.6,0.1c-13.7,3-28.9,5.3-43.9,5.4l-0.5,0v16.8l0.3,0c5.6,0.2,10.9,1.5,15.7,3.7   l0.3,0.2L323.7,336z"
   id="path274" />
	<path
   class="st1"
   d="M307.2,416V488l0.2-0.2c13-12,40.2-40.8,57.6-84.5c11.5-29,17.4-56.8,20.3-78.1l0-0.5L345.6,361l0.1,0.3   c1.3,4,2,8.3,2,12.7c0,22.6-18,41-40.4,41.6L307.2,416z"
   id="path276" />
	<path
   class="st7"
   d="M356.1,309.8l0.3-0.1c12.2-2.9,22.9-6.3,30.7-9c-0.3,5.7-0.9,12.8-1.9,21l0,0.3L261.6,434.9l-0.2,0.2   c-4.7-8.1-9.2-17-13.3-26.6l0.3-0.3L356.1,309.8z"
   id="path278" />
	<path
   class="st1"
   d="M289.6,395.4c0.8,1.5,3.3,6.4-1.9,11.1c-4.3,3.9-10.1,3.5-14.6-1.5c-4-4.4-5.4-10.4-0.2-15.1   c0.9-0.8,3.2-2.7,6.5-2.6c1.5,0.1,2.8,0.6,4.1,1.5l-2.5,3.7c-2-1.4-4.1-1.1-5.8,0.4c-3.9,3.6,0,8,1,9c1.4,1.5,2.9,2.8,4.5,3.2   c1.4,0.4,3.1,0.1,4.5-1.2c2.1-1.9,1.6-4.5,0.4-6.5L289.6,395.4z"
   id="path280" />
	
		<rect
   x="294.8"
   y="392.8"
   transform="matrix(0.7384 -0.6743 0.6743 0.7384 -188.6457 303.4849)"
   class="st1"
   width="4.1"
   height="4.1"
   id="rect282" />
	<path
   class="st1"
   d="M296.6,368.8c1.8-1.6,4.4-4,8.6-2.9c1.3,0.4,3.4,1.1,6.3,4.2c0.9,1,3.5,3.8,3.5,7.9c0,3.3-2.6,5.7-3.7,6.6   l-6,5.5l-14.5-15.9L296.6,368.8z M296.3,374l9.6,10.5l2.4-2.2c2.5-2.3,4.3-4.2-0.4-9.3c-4.8-5.3-7.1-3.2-10.2-0.4L296.3,374z"
   id="path284" />
	
		<rect
   x="319.3"
   y="370.5"
   transform="matrix(0.7383 -0.6745 0.6745 0.7383 -167.189 314.2296)"
   class="st1"
   width="4.1"
   height="4.1"
   id="rect286" />
	<path
   class="st1"
   d="M327,360.1c0.9,0.7,3.4,2.5,6.2-0.1c2.2-2,2.1-4,1.1-5.1c-1.2-1.3-2.6-0.6-6.2,1.4c-1.9,1-6.2,3.4-9.4-0.1   c-1.6-1.7-2.9-5.5,1.7-9.7c3.1-2.8,7.1-4.2,10.5-0.7l-3.1,3.1c-0.9-0.7-2.5-2-5,0.3c-1,0.9-2.4,2.7-1.2,4c0.9,1,2.3,0.6,5.4-1.2   c2.9-1.6,6.9-3.9,10.5,0c1.8,1.9,2,4.7,1.2,6.5c-0.8,2-2.4,3.5-3.1,4.1c-1.7,1.6-6.1,5.3-11.5,0.5L327,360.1z"
   id="path288" />
	
		<rect
   x="345.7"
   y="346.3"
   transform="matrix(0.7383 -0.6745 0.6745 0.7383 -143.9642 325.7388)"
   class="st1"
   width="4.1"
   height="4.1"
   id="rect290" />
	<path
   class="st1"
   d="M364.9,326.6c0.8,1.5,3.3,6.4-1.9,11.1c-4.3,3.9-10.1,3.5-14.6-1.5c-4-4.4-5.4-10.4-0.2-15.1   c0.9-0.8,3.2-2.7,6.5-2.6c1.5,0.1,2.8,0.6,4.1,1.5l-2.5,3.7c-2-1.4-4.1-1.1-5.8,0.4c-3.9,3.6,0,8,1,9c1.4,1.5,2.9,2.8,4.5,3.2   c1.4,0.4,3.1,0.1,4.5-1.2c2.1-1.9,1.6-4.5,0.4-6.5L364.9,326.6z"
   id="path292" />
	
		<rect
   x="370.1"
   y="324"
   transform="matrix(0.7383 -0.6745 0.6745 0.7383 -122.5487 336.3588)"
   class="st1"
   width="4.1"
   height="4.1"
   id="rect294" />
	<path
   class="st1"
   d="M198.1,312.1c3.2-6.3,6.9-12.3,11.2-17.9l0.2-0.2c1-0.4,1.9-0.7,2.8-1.1l0,0.3c0.2,6.2,0.7,15.4,2.1,26.8   L198.1,312.1z"
   id="path296" />
	<path
   class="st1"
   d="M218.6,346.9c-1.7-8.7-3-16.9-3.9-24.2l-17.7-8.5c-4.1,8.5-7.1,17.5-8.9,26.9L218.6,346.9z"
   id="path298" />
	<path
   class="st1"
   d="M186.4,369.8c-0.2-2.5-0.3-5-0.3-7.6c0-6.4,0.6-12.8,1.6-18.9l31.4,6c1.2,5.8,2.5,11.8,4.1,18.1L186.4,369.8z"
   id="path300" />
	<path
   class="st1"
   d="M228.4,385.4c-1.7-5.3-3.2-10.6-4.5-15.7l-37.3,2.5c0.9,9.6,2.9,18.9,6.1,27.8L228.4,385.4z"
   id="path302" />
	<path
   class="st1"
   d="M235.6,405.7c-2.4-6.1-4.5-12.2-6.5-18.1L193.5,402c3.2,8.5,7.5,16.5,12.6,23.8L235.6,405.7z"
   id="path304" />
	<path
   class="st1"
   d="M226.2,448.2c-7.1-6.1-13.4-13-18.8-20.5l29-19.9c2.9,7.2,6,14,9.3,20.4L226.2,448.2z"
   id="path306" />
	<path
   class="st1"
   d="M258,449.6c-3.8-5.9-7.6-12.3-11.1-19.1L228,449.7c6.7,5.5,14,10.4,21.9,14.4L258,449.6z"
   id="path308" />
	<path
   class="st1"
   d="M251.9,465.2c7.5,3.6,15.4,6.6,23.7,8.7l-0.3-0.4c-5.1-6.3-10.6-13.5-15.9-21.6L251.9,465.2z"
   id="path310" />
	<path
   class="st3"
   d="M309.7,348.3c-4.5-3.2-8.2-5.1-10-5.9l-0.2-0.1c0.6-2.9,2-5.6,3.2-7.5l0.3,0c1-0.1,2-0.1,3.1-0.1   c5.5,0,10.7,1.1,15.5,3.2l0.2,0.1L310,348.5L309.7,348.3z"
   id="path312" />
	<path
   class="st3"
   d="M276.2,361.4c0.4-2.7,1.9-8.2,8.1-13.4c5.3-4.4,10.4-5.7,12.6-6l0.3,0c0.5-2.5,1.5-4.9,2.6-6.8l-0.4,0.1   c-14.6,2.5-26.5,13-30.9,26.9l0,0.2c3.1-0.4,6.1-0.5,7.7-0.5L276.2,361.4z"
   id="path314" />
	<path
   class="st3"
   d="M285,371c-3.8-3.5-6.8-5.9-8-6.8l-0.2-0.1c-1.2,0-5.2,0.1-9.1,0.6l-0.1,0.3c-0.7,2.9-1,5.9-1,9   c0,4.3,0.7,8.4,2,12.3l0.2-0.2l16.3-14.9L285,371z"
   id="path316" />
	<path
   class="st3"
   d="M308,349.9c-5.1-3.6-9.2-5.4-10.1-5.8c-1.1,0.1-6.5,0.9-12.2,5.6c-6.3,5.2-7.2,10.8-7.4,12.6   c1.2,0.9,4.4,3.4,8.3,7l0.2,0.2l21.3-19.5L308,349.9z"
   id="path318" />
	<path
   class="st3"
   d="M308.1,402.7c-0.2,1.5-0.7,5.6-2,10.3l-0.1,0.3c-5,0-9.8-0.9-14.2-2.7l-0.4-0.1l14.2-12.9l0.3-0.3   c0.8,1.6,1.6,3.3,2.3,5L308.1,402.7z"
   id="path320" />
	<path
   class="st3"
   d="M310.3,403.7c-0.2,1.9-0.8,5.4-1.9,9.5l0.3,0c14.9-1,27.5-10.3,33.3-23.3l0.1-0.2c-3.4-0.6-5.7-1.4-6.9-2   l-0.2,0.5c-1.3,2.9-4.3,8.6-9.3,11.9c-5.4,3.5-12.6,3.5-15.4,3.3L310.3,403.7z"
   id="path322" />
	<path
   class="st3"
   d="M331.6,374.3c1.5,3.3,2.8,6.9,3.9,10.8l0.1,0.3c0.9,0.4,3.2,1.5,7.3,2.2l0.1-0.3c1.5-4.2,2.3-8.7,2.3-13.3   c0-3.8-0.5-7.5-1.6-11l-0.1-0.2l-12.2,11.2L331.6,374.3z"
   id="path324" />
	<path
   class="st3"
   d="M329.3,375.9l-21.5,19.6l-0.2,0.2c0.9,1.7,1.7,3.5,2.5,5.4c2.1,0.2,9.3,0.4,14.3-2.9c5.3-3.5,8.3-10.5,9-12.1   c-1-3.8-2.2-7.3-3.7-10.5L329.3,375.9z"
   id="path326" />
</g>
</svg>