<svg id="svg" version="1.1" xmlns="http://www.w3.org/2000/svg" xmlns:xlink="http://www.w3.org/1999/xlink" width="400" height="400.80321285140565" viewBox="0, 0, 400,400.80321285140565"><g id="svgg"><path id="path0" d="M4.400 0.517 C 4.400 1.166,1.139 4.400,0.485 4.400 C 0.106 4.400,0.001 47.195,0.003 200.700 L 0.005 397.000 1.214 397.688 C 1.879 398.067,2.733 398.921,3.112 399.586 L 3.800 400.795 200.669 400.797 L 397.538 400.800 398.769 399.569 L 400.000 398.338 400.000 200.596 C 400.000 3.891,399.996 2.853,399.208 2.603 C 398.773 2.464,398.104 1.822,397.722 1.176 L 397.028 0.000 200.714 0.000 C 40.542 0.000,4.400 0.095,4.400 0.517 M388.026 13.214 C 388.986 13.728,389.279 387.361,388.320 388.320 C 387.361 389.279,13.728 388.986,13.214 388.026 C 12.443 386.585,12.656 14.201,13.429 13.429 C 14.201 12.656,386.585 12.443,388.026 13.214 M96.007 82.785 C 91.944 90.902,92.276 90.583,87.200 91.258 C 85.550 91.477,83.120 91.816,81.800 92.010 C 80.480 92.204,78.590 92.476,77.600 92.614 C 76.610 92.753,75.548 92.946,75.240 93.043 C 74.883 93.157,76.659 95.231,80.145 98.773 C 87.332 106.075,87.195 105.663,85.609 115.200 C 84.286 123.158,84.021 122.915,90.400 119.591 C 92.930 118.273,96.117 116.621,97.482 115.920 L 99.964 114.646 107.346 118.423 C 111.406 120.500,114.861 122.068,115.024 121.907 C 115.187 121.745,114.817 118.595,114.203 114.907 C 113.589 111.218,113.001 107.605,112.897 106.877 C 112.717 105.625,113.027 105.231,118.628 99.585 C 121.885 96.302,124.430 93.496,124.283 93.350 C 124.136 93.203,123.068 92.920,121.908 92.722 C 120.749 92.523,118.810 92.187,117.600 91.975 C 116.390 91.763,114.078 91.434,112.462 91.244 C 108.362 90.762,107.979 90.372,103.944 82.582 C 102.016 78.859,100.257 75.752,100.035 75.678 C 99.814 75.605,98.001 78.803,96.007 82.785 M153.148 102.100 C 149.966 105.527,149.782 107.840,152.424 111.183 L 154.019 113.200 235.776 113.200 L 317.533 113.200 318.772 111.635 C 321.622 108.037,321.620 105.898,318.761 102.651 L 317.132 100.800 235.743 100.800 L 154.355 100.800 153.148 102.100 M96.040 183.602 C 91.954 192.356,92.760 191.648,86.000 192.423 C 77.522 193.395,76.000 193.715,76.000 194.526 C 76.000 194.768,78.545 197.532,81.655 200.669 C 87.295 206.358,87.308 206.376,87.054 207.886 C 86.427 211.600,86.010 213.956,85.618 216.000 C 84.085 223.992,83.714 223.823,92.921 219.317 L 100.043 215.831 107.424 219.516 C 111.484 221.542,114.894 223.200,115.003 223.200 C 115.439 223.200,114.761 218.259,112.934 208.132 C 112.721 206.946,113.057 206.491,118.153 201.072 C 124.808 193.994,124.865 193.631,119.400 193.043 C 116.141 192.693,111.117 192.013,109.400 191.691 L 107.800 191.390 104.000 183.901 C 101.910 179.782,100.020 176.410,99.800 176.407 C 99.580 176.405,97.888 179.643,96.040 183.602 M153.148 202.500 C 149.966 205.927,149.782 208.240,152.424 211.583 L 154.019 213.600 235.776 213.600 L 317.533 213.600 318.772 212.035 C 321.622 208.437,321.620 206.298,318.761 203.051 L 317.132 201.200 235.743 201.200 L 154.355 201.200 153.148 202.500 M98.765 281.286 C 92.536 293.623,91.559 295.200,90.145 295.200 C 89.249 295.200,87.526 295.441,79.818 296.645 C 74.829 297.424,74.777 297.178,81.355 303.927 C 84.570 307.225,87.200 310.197,87.200 310.531 C 87.200 310.866,87.020 312.008,86.799 313.069 C 84.678 323.295,84.318 326.400,85.253 326.400 C 85.776 326.400,89.229 324.666,95.114 321.449 C 100.224 318.656,99.175 318.540,107.357 322.800 C 116.445 327.532,115.890 327.858,114.162 318.800 C 113.596 315.830,113.034 312.637,112.915 311.705 L 112.697 310.010 118.605 303.981 C 122.231 300.282,124.370 297.810,124.142 297.582 C 123.745 297.185,119.425 296.398,113.056 295.563 C 107.914 294.888,107.882 294.858,103.815 286.806 C 99.865 278.988,99.904 279.030,98.765 281.286 M153.148 302.900 C 149.966 306.327,149.782 308.640,152.424 311.983 L 154.019 314.000 235.776 314.000 L 317.533 314.000 318.772 312.435 C 321.622 308.837,321.620 306.698,318.761 303.451 L 317.132 301.600 235.743 301.600 L 154.355 301.600 153.148 302.900 " stroke="none" fill="#080808" fill-rule="evenodd"></path><path id="path1" d="M0.000 1.883 L 0.000 3.767 1.800 2.000 C 3.986 -0.145,3.986 0.000,1.800 0.000 L 0.000 0.000 0.000 1.883 M398.800 1.000 C 399.317 1.550,399.798 2.000,399.870 2.000 C 399.941 2.000,400.000 1.550,400.000 1.000 C 400.000 0.183,399.805 0.000,398.930 0.000 L 397.861 0.000 398.800 1.000 M14.267 14.267 C 14.120 14.413,14.000 98.473,14.000 201.067 L 14.000 387.600 200.800 387.600 L 387.600 387.600 387.600 200.800 L 387.600 14.000 201.067 14.000 C 98.473 14.000,14.413 14.120,14.267 14.267 M104.607 81.613 C 108.858 90.107,108.535 89.783,113.400 90.433 C 128.001 92.381,127.776 92.051,119.800 99.820 C 113.276 106.176,113.589 105.489,114.607 111.200 C 117.122 125.306,117.492 124.877,107.357 119.600 C 99.030 115.264,100.708 115.264,92.562 119.598 C 82.664 124.866,82.687 124.891,85.230 111.445 C 86.201 106.314,85.516 105.041,77.893 97.787 C 72.893 93.030,72.654 92.358,75.804 91.928 C 83.072 90.935,88.128 90.180,90.130 89.786 C 91.657 89.486,91.668 89.469,95.525 81.743 C 98.347 76.091,99.580 74.000,100.093 74.000 C 100.605 74.000,101.829 76.064,104.607 81.613 M319.093 101.500 C 322.786 105.455,322.820 108.443,319.219 112.500 L 317.532 114.400 235.746 114.400 L 153.959 114.400 152.574 112.900 C 148.807 108.820,148.725 106.015,152.245 101.719 L 153.654 100.000 235.673 100.000 L 317.692 100.000 319.093 101.500 M104.600 182.800 L 108.600 190.600 110.400 190.904 C 111.390 191.072,113.550 191.379,115.200 191.586 C 127.221 193.098,127.240 193.142,119.347 201.211 L 113.894 206.785 114.112 208.493 C 114.231 209.432,114.803 213.156,115.382 216.768 C 116.830 225.803,117.258 225.569,107.846 220.876 C 99.026 216.479,100.583 216.552,93.390 220.198 C 82.809 225.562,82.970 225.653,84.738 215.312 C 85.444 211.181,86.017 207.445,86.011 207.012 C 86.004 206.530,83.816 204.117,80.390 200.812 C 74.536 195.164,74.114 194.468,75.860 193.324 C 76.901 192.642,77.962 192.438,84.800 191.604 C 92.245 190.697,91.578 190.949,92.593 188.654 C 96.357 180.148,99.217 174.744,99.889 174.869 C 100.360 174.956,101.952 177.637,104.600 182.800 M319.093 201.900 C 322.786 205.855,322.820 208.843,319.219 212.900 L 317.532 214.800 235.746 214.800 L 153.959 214.800 152.574 213.300 C 148.807 209.220,148.725 206.415,152.245 202.119 L 153.654 200.400 235.673 200.400 L 317.692 200.400 319.093 201.900 M104.363 285.826 C 108.891 294.746,107.810 293.971,117.400 295.186 C 127.641 296.485,127.580 296.171,119.280 304.846 L 113.686 310.691 114.447 314.846 C 116.761 327.490,116.768 327.600,115.260 327.600 C 114.596 327.600,109.183 324.959,102.053 321.155 C 100.873 320.526,99.793 320.074,99.653 320.153 C 83.583 329.177,82.760 329.195,84.381 320.489 C 84.861 317.910,85.452 314.472,85.695 312.849 L 86.137 309.899 83.205 307.049 C 78.884 302.850,74.399 298.097,74.406 297.725 C 74.432 296.331,77.442 295.637,88.600 294.454 L 91.000 294.200 94.402 287.600 C 99.162 278.367,99.143 278.399,99.910 278.406 C 100.401 278.410,101.686 280.551,104.363 285.826 M319.093 302.300 C 322.786 306.255,322.820 309.243,319.219 313.300 L 317.532 315.200 235.746 315.200 L 153.959 315.200 152.574 313.700 C 148.807 309.620,148.725 306.815,152.245 302.519 L 153.654 300.800 235.673 300.800 L 317.692 300.800 319.093 302.300 M0.000 399.400 C 0.000 400.747,0.055 400.800,1.478 400.800 L 2.957 400.800 1.600 399.400 C 0.854 398.630,0.188 398.000,0.122 398.000 C 0.055 398.000,0.000 398.630,0.000 399.400 M399.200 400.200 C 398.792 400.691,398.820 400.800,399.351 400.800 C 399.708 400.800,400.000 400.530,400.000 400.200 C 400.000 399.870,399.932 399.600,399.849 399.600 C 399.766 399.600,399.474 399.870,399.200 400.200 " stroke="none" fill="#fbfbfb" fill-rule="evenodd"></path><path id="path2" d="M2.155 2.300 C 1.031 3.455,0.319 4.400,0.572 4.400 C 1.183 4.400,4.533 0.972,4.346 0.538 C 4.266 0.352,3.280 1.145,2.155 2.300 M397.200 0.253 C 397.200 0.872,399.069 2.800,399.670 2.800 C 399.949 2.800,399.784 2.524,399.302 2.187 C 398.821 1.849,398.151 1.179,397.813 0.698 C 397.476 0.216,397.200 0.016,397.200 0.253 M13.429 13.429 C 12.656 14.201,12.443 386.585,13.214 388.026 C 13.728 388.986,387.361 389.279,388.320 388.320 C 389.279 387.361,388.986 13.728,388.026 13.214 C 386.585 12.443,14.201 12.656,13.429 13.429 M387.626 13.614 C 388.586 14.128,388.879 386.961,387.920 387.920 C 386.961 388.879,14.128 388.586,13.614 387.626 C 12.843 386.185,13.056 14.601,13.829 13.829 C 14.601 13.056,386.185 12.843,387.626 13.614 M95.839 82.323 C 91.611 90.769,92.246 90.155,87.000 90.875 C 85.460 91.087,83.120 91.420,81.800 91.616 C 80.480 91.811,78.349 92.094,77.065 92.244 C 73.709 92.637,73.808 92.879,79.799 98.904 C 86.929 106.076,86.801 105.689,85.205 115.200 C 83.724 124.028,83.376 123.911,94.031 118.170 C 100.645 114.605,99.327 114.633,105.494 117.927 C 115.867 123.466,116.099 123.503,115.284 119.476 L 114.864 117.400 115.078 119.700 C 115.354 122.663,115.696 122.723,107.131 118.321 L 99.973 114.641 97.487 115.918 C 96.119 116.620,92.930 118.273,90.400 119.591 C 84.021 122.915,84.286 123.158,85.609 115.200 C 87.195 105.663,87.332 106.075,80.145 98.773 C 76.659 95.231,74.883 93.157,75.240 93.043 C 75.548 92.946,76.610 92.753,77.600 92.614 C 78.590 92.476,80.480 92.204,81.800 92.010 C 83.120 91.816,85.550 91.477,87.200 91.258 C 92.276 90.583,91.944 90.902,96.007 82.785 C 98.001 78.803,99.814 75.605,100.035 75.678 C 100.257 75.752,102.016 78.859,103.944 82.582 C 107.979 90.372,108.362 90.762,112.462 91.244 C 114.078 91.434,116.390 91.763,117.600 91.975 C 118.810 92.187,120.749 92.523,121.908 92.722 C 123.068 92.920,124.136 93.203,124.283 93.350 C 124.430 93.496,121.906 96.281,118.675 99.538 C 113.312 104.944,112.804 105.579,112.846 106.830 L 112.892 108.200 113.187 106.677 C 113.434 105.400,114.393 104.269,119.141 99.658 C 126.177 92.823,126.162 92.960,120.000 92.010 C 118.350 91.755,116.349 91.379,115.554 91.174 C 114.758 90.968,113.318 90.800,112.354 90.799 C 108.850 90.798,108.242 90.160,104.168 82.214 C 102.142 78.262,100.292 74.964,100.058 74.886 C 99.824 74.808,97.925 78.155,95.839 82.323 M153.731 100.993 C 152.781 101.659,150.390 105.104,150.418 105.769 C 150.427 106.006,150.774 105.570,151.189 104.800 C 151.603 104.030,152.485 102.815,153.149 102.100 L 154.355 100.800 235.743 100.800 L 317.132 100.800 318.770 102.661 C 319.672 103.685,320.571 105.080,320.768 105.761 C 321.006 106.580,321.140 106.729,321.162 106.200 C 321.204 105.234,320.155 103.460,318.501 101.700 L 317.279 100.400 235.929 100.400 C 164.687 100.400,154.473 100.474,153.731 100.993 M150.027 106.913 C 149.981 108.134,151.060 110.243,152.608 111.956 L 154.093 113.600 235.772 113.600 L 317.450 113.600 318.461 112.500 C 320.071 110.747,321.201 108.937,321.184 108.138 C 321.175 107.678,320.950 107.903,320.587 108.738 C 320.268 109.475,319.450 110.780,318.770 111.638 L 317.533 113.200 235.793 113.200 L 154.054 113.200 152.588 111.411 C 151.782 110.428,150.882 108.853,150.588 107.911 C 150.294 106.970,150.041 106.521,150.027 106.913 M113.482 110.200 C 113.609 111.300,113.777 112.275,113.856 112.367 C 114.155 112.714,113.928 109.764,113.597 109.000 C 113.374 108.485,113.333 108.913,113.482 110.200 M114.281 114.800 C 114.406 116.010,114.574 117.075,114.654 117.167 C 114.935 117.487,114.717 114.591,114.387 113.600 C 114.171 112.954,114.134 113.380,114.281 114.800 M99.285 176.100 C 99.059 176.375,97.359 179.835,95.508 183.789 C 91.691 191.947,92.481 191.251,86.200 191.992 C 72.992 193.552,73.166 193.216,81.526 201.023 L 87.000 206.136 81.500 200.563 C 74.219 193.185,73.871 193.814,86.000 192.423 C 92.760 191.648,91.954 192.356,96.040 183.602 C 97.888 179.643,99.580 176.405,99.800 176.407 C 100.020 176.410,101.910 179.782,104.000 183.901 L 107.800 191.390 109.400 191.691 C 111.117 192.013,116.141 192.693,119.400 193.043 C 124.864 193.631,124.808 193.994,118.154 201.071 C 112.791 206.774,112.712 206.885,112.970 208.331 C 113.115 209.139,113.568 211.690,113.976 214.000 C 114.385 216.310,114.734 217.750,114.752 217.200 C 114.770 216.650,114.522 214.760,114.201 213.000 C 112.933 206.052,112.410 207.526,118.287 201.501 C 124.176 195.464,124.690 194.748,123.786 193.843 C 123.115 193.172,122.606 193.071,115.500 192.189 C 107.519 191.199,108.497 192.011,103.587 182.307 C 100.104 175.424,99.985 175.252,99.285 176.100 M153.731 201.393 C 152.781 202.059,150.390 205.504,150.418 206.169 C 150.427 206.406,150.774 205.970,151.189 205.200 C 151.603 204.430,152.485 203.215,153.149 202.500 L 154.355 201.200 235.743 201.200 L 317.132 201.200 318.770 203.061 C 319.672 204.085,320.571 205.480,320.768 206.161 C 321.006 206.980,321.140 207.129,321.162 206.600 C 321.204 205.634,320.155 203.860,318.501 202.100 L 317.279 200.800 235.929 200.800 C 164.687 200.800,154.473 200.874,153.731 201.393 M86.665 207.800 C 86.081 211.296,85.620 213.901,85.214 216.000 C 83.582 224.441,83.425 224.365,92.913 219.721 L 100.025 216.240 107.369 219.920 C 116.303 224.397,116.517 224.383,115.185 219.400 C 114.980 218.633,114.943 219.102,115.084 220.700 C 115.353 223.762,116.190 223.891,107.424 219.516 L 100.043 215.831 92.921 219.317 C 84.035 223.667,83.977 223.659,85.173 218.277 C 85.378 217.355,85.746 215.430,85.991 214.000 C 86.236 212.570,86.631 210.479,86.869 209.353 C 87.107 208.228,87.219 207.058,87.117 206.753 C 87.016 206.449,86.812 206.920,86.665 207.800 M150.027 207.313 C 149.981 208.534,151.060 210.643,152.608 212.356 L 154.093 214.000 235.772 214.000 L 317.450 214.000 318.461 212.900 C 320.071 211.147,321.201 209.337,321.184 208.538 C 321.175 208.078,320.950 208.303,320.587 209.138 C 320.268 209.875,319.450 211.180,318.770 212.038 L 317.533 213.600 235.793 213.600 L 154.054 213.600 152.588 211.811 C 151.782 210.828,150.882 209.253,150.588 208.311 C 150.294 207.370,150.041 206.921,150.027 207.313 M99.294 279.700 C 99.071 279.975,97.226 283.410,95.193 287.332 C 93.160 291.255,91.295 294.522,91.049 294.592 C 90.802 294.662,88.980 294.933,87.000 295.194 C 81.729 295.889,75.857 296.841,75.506 297.058 C 74.779 297.507,75.515 298.436,81.053 304.054 C 87.596 310.692,87.022 309.420,85.995 315.000 C 85.752 316.320,85.473 318.120,85.376 319.000 C 85.217 320.441,85.430 319.549,86.794 313.069 C 87.017 312.008,87.200 310.866,87.200 310.531 C 87.200 310.197,84.570 307.225,81.355 303.927 C 74.777 297.178,74.829 297.424,79.818 296.645 C 87.538 295.439,89.249 295.200,90.158 295.200 C 91.457 295.200,91.715 294.825,95.800 286.993 C 97.780 283.197,99.580 280.026,99.800 279.946 C 100.020 279.866,101.766 282.860,103.680 286.600 C 107.927 294.901,107.914 294.888,113.028 295.559 C 119.426 296.398,123.744 297.184,124.142 297.582 C 124.370 297.810,122.251 300.261,118.656 303.929 C 112.179 310.539,112.364 310.161,113.425 314.600 C 114.004 317.019,113.972 315.955,113.350 312.019 L 113.100 310.438 118.850 304.396 C 124.402 298.563,125.219 297.506,124.516 297.072 C 124.137 296.837,118.223 295.860,113.000 295.168 C 108.102 294.519,108.194 294.608,104.035 286.426 C 100.366 279.206,100.052 278.762,99.294 279.700 M153.731 301.793 C 152.781 302.459,150.390 305.904,150.418 306.569 C 150.427 306.806,150.774 306.370,151.189 305.600 C 151.603 304.830,152.485 303.615,153.149 302.900 L 154.355 301.600 235.743 301.600 L 317.132 301.600 318.770 303.461 C 319.672 304.485,320.571 305.880,320.768 306.561 C 321.006 307.380,321.140 307.529,321.162 307.000 C 321.204 306.034,320.155 304.260,318.501 302.500 L 317.279 301.200 235.929 301.200 C 164.687 301.200,154.473 301.274,153.731 301.793 M150.027 307.713 C 149.981 308.934,151.060 311.043,152.608 312.756 L 154.093 314.400 235.772 314.400 L 317.450 314.400 318.461 313.300 C 320.071 311.547,321.201 309.737,321.184 308.938 C 321.175 308.478,320.950 308.703,320.587 309.538 C 320.268 310.275,319.450 311.580,318.770 312.438 L 317.533 314.000 235.793 314.000 L 154.054 314.000 152.588 312.211 C 151.782 311.228,150.882 309.653,150.588 308.711 C 150.294 307.770,150.041 307.321,150.027 307.713 M114.272 319.000 C 114.399 320.100,114.569 321.075,114.651 321.167 C 114.932 321.482,114.720 318.999,114.380 318.000 C 114.151 317.326,114.116 317.651,114.272 319.000 M95.400 321.264 C 84.541 327.312,84.631 327.293,84.894 323.500 C 85.006 321.876,84.954 320.952,84.776 321.400 C 84.200 322.843,84.340 326.402,84.983 326.649 C 85.566 326.873,88.518 325.476,95.560 321.645 C 100.100 319.176,99.758 319.188,103.759 321.355 C 115.779 327.864,116.995 327.976,115.198 322.400 C 115.003 321.796,114.962 322.389,115.095 323.900 C 115.376 327.104,115.714 327.152,107.357 322.800 C 99.304 318.607,100.008 318.697,95.400 321.264 M0.930 398.016 C 1.501 398.465,2.335 399.299,2.784 399.870 C 3.233 400.441,3.600 400.686,3.600 400.414 C 3.600 399.772,1.028 397.200,0.386 397.200 C 0.114 397.200,0.359 397.567,0.930 398.016 M398.598 399.602 C 397.575 400.732,398.010 400.837,399.086 399.720 C 399.573 399.214,399.826 398.800,399.648 398.800 C 399.470 398.800,398.997 399.161,398.598 399.602 " stroke="none" fill="#6c6c6c" fill-rule="evenodd"></path><path id="path3" d="M1.800 2.000 C -0.399 4.233,-0.398 4.676,1.801 2.745 C 3.028 1.669,4.303 0.000,3.899 0.000 C 3.828 -0.000,2.883 0.900,1.800 2.000 M397.600 0.125 C 397.600 0.194,398.185 0.779,398.900 1.425 L 400.200 2.600 399.025 1.300 C 397.930 0.088,397.600 -0.184,397.600 0.125 M13.785 14.100 C 13.681 14.375,13.641 98.570,13.698 201.200 L 13.800 387.800 200.800 387.800 L 387.800 387.800 387.800 200.800 L 387.800 13.800 200.888 13.700 C 51.567 13.619,13.937 13.700,13.785 14.100 M387.600 200.800 L 387.600 387.600 200.800 387.600 L 14.000 387.600 14.000 201.067 C 14.000 98.473,14.120 14.413,14.267 14.267 C 14.413 14.120,98.473 14.000,201.067 14.000 L 387.600 14.000 387.600 200.800 M95.546 81.700 L 91.701 89.400 89.539 89.900 C 88.350 90.175,86.752 90.413,85.988 90.428 C 85.225 90.444,84.240 90.604,83.800 90.785 C 82.698 91.237,87.717 90.785,89.986 90.227 L 91.800 89.781 95.659 82.191 C 97.801 77.975,99.758 74.600,100.059 74.600 C 100.357 74.600,102.218 77.758,104.200 81.627 C 106.180 85.493,107.952 88.879,108.139 89.152 C 108.645 89.895,110.278 90.416,113.400 90.831 C 114.940 91.036,117.190 91.376,118.400 91.588 C 119.610 91.799,121.454 92.093,122.497 92.241 C 126.067 92.748,125.944 93.045,119.470 99.530 C 113.131 105.879,112.925 106.258,114.002 109.600 C 114.196 110.203,114.237 109.605,114.104 108.091 L 113.884 105.583 119.742 99.876 C 127.784 92.043,128.012 92.382,113.400 90.433 C 108.535 89.783,108.858 90.107,104.607 81.613 C 101.829 76.064,100.605 74.000,100.093 74.000 C 99.580 74.000,98.352 76.081,95.546 81.700 M78.682 91.451 C 78.544 91.589,77.391 91.814,76.120 91.951 C 72.600 92.330,72.780 92.922,77.893 97.787 C 83.794 103.401,85.581 105.759,85.664 108.037 C 85.721 109.596,85.747 109.643,85.893 108.445 C 86.189 106.020,85.643 105.198,79.743 99.183 C 73.366 92.680,73.351 92.646,76.688 92.217 C 77.960 92.054,79.900 91.783,81.000 91.616 L 83.000 91.313 80.967 91.256 C 79.848 91.225,78.820 91.313,78.682 91.451 M152.245 101.719 C 150.290 104.105,149.598 105.567,149.650 107.200 C 149.689 108.448,149.729 108.391,150.017 106.675 C 150.240 105.349,150.862 104.075,152.019 102.575 L 153.697 100.400 235.633 100.400 L 317.569 100.400 318.435 101.300 C 318.912 101.795,319.819 103.000,320.451 103.978 C 321.083 104.956,321.599 105.586,321.599 105.378 C 321.596 104.778,320.233 102.717,318.901 101.300 L 317.679 100.000 235.666 100.000 L 153.654 100.000 152.245 101.719 M321.660 106.940 C 321.574 108.575,320.474 110.688,318.787 112.462 L 317.324 114.000 235.737 114.000 L 154.150 114.000 153.116 112.900 C 152.547 112.295,151.613 111.100,151.041 110.244 C 150.468 109.388,150.000 108.880,150.000 109.114 C 150.000 109.622,152.625 113.191,153.521 113.900 C 154.022 114.296,171.094 114.400,235.842 114.400 L 317.532 114.400 319.219 112.500 C 321.195 110.273,322.110 108.337,321.883 106.859 L 321.720 105.800 321.660 106.940 M85.033 112.433 C 84.883 113.566,84.841 114.574,84.939 114.672 C 85.037 114.771,85.245 113.928,85.400 112.800 C 85.555 111.672,85.598 110.664,85.494 110.561 C 85.391 110.458,85.184 111.300,85.033 112.433 M114.440 112.233 C 114.462 112.875,114.633 113.850,114.820 114.400 C 115.049 115.074,115.084 114.749,114.928 113.400 C 114.669 111.150,114.379 110.459,114.440 112.233 M84.215 117.415 C 84.061 118.654,84.017 119.750,84.119 119.852 C 84.220 119.954,84.430 119.023,84.585 117.785 C 84.739 116.546,84.783 115.450,84.681 115.348 C 84.580 115.246,84.370 116.177,84.215 117.415 M95.400 117.668 C 86.846 122.502,84.052 123.440,83.954 121.513 C 83.918 120.805,83.865 120.762,83.721 121.319 C 83.494 122.193,84.259 123.201,85.149 123.198 C 85.507 123.198,88.843 121.578,92.562 119.598 C 100.708 115.264,99.030 115.264,107.357 119.600 C 115.291 123.731,116.511 123.984,116.375 121.467 C 116.361 121.210,116.187 121.405,115.988 121.900 C 115.411 123.335,113.683 122.700,104.440 117.653 C 99.854 115.149,99.858 115.149,95.400 117.668 M115.247 116.833 C 115.273 117.585,115.441 118.740,115.620 119.400 C 115.835 120.189,115.870 119.778,115.723 118.200 C 115.477 115.555,115.173 114.681,115.247 116.833 M96.340 180.669 C 94.779 183.931,93.084 187.545,92.573 188.700 C 91.729 190.608,91.523 190.803,90.322 190.828 C 89.595 190.844,88.640 191.012,88.200 191.203 C 87.682 191.427,88.106 191.470,89.400 191.325 C 91.994 191.033,91.810 191.272,95.378 183.600 C 98.632 176.606,99.401 175.200,99.975 175.200 C 100.172 175.200,102.081 178.665,104.218 182.900 C 106.355 187.135,108.164 190.668,108.236 190.751 C 108.462 191.009,111.648 191.588,115.200 192.017 C 126.655 193.400,126.532 193.071,118.700 201.344 C 113.278 207.072,113.057 207.499,114.007 210.400 C 114.213 211.027,114.252 210.541,114.112 209.095 L 113.889 206.791 119.344 201.214 C 127.240 193.142,127.221 193.098,115.200 191.586 C 113.550 191.379,111.390 191.072,110.400 190.904 L 108.600 190.600 104.600 182.800 C 99.566 172.983,99.967 173.087,96.340 180.669 M81.600 192.000 C 81.050 192.176,79.880 192.339,79.000 192.362 C 77.115 192.410,74.804 193.691,74.790 194.694 C 74.784 195.086,77.299 197.830,80.446 200.865 L 86.111 206.330 85.888 208.865 C 85.746 210.468,85.782 210.959,85.985 210.200 C 86.914 206.723,86.798 206.495,81.500 201.374 C 73.020 193.178,72.964 193.337,84.800 192.016 L 87.400 191.726 85.000 191.703 C 83.680 191.690,82.150 191.824,81.600 192.000 M152.245 202.119 C 150.290 204.505,149.598 205.967,149.650 207.600 C 149.689 208.848,149.729 208.791,150.017 207.075 C 150.240 205.749,150.862 204.475,152.019 202.975 L 153.697 200.800 235.633 200.800 L 317.569 200.800 318.435 201.700 C 318.912 202.195,319.819 203.400,320.451 204.378 C 321.083 205.356,321.599 205.986,321.599 205.778 C 321.596 205.178,320.233 203.117,318.901 201.700 L 317.679 200.400 235.666 200.400 L 153.654 200.400 152.245 202.119 M321.660 207.340 C 321.574 208.975,320.474 211.088,318.787 212.862 L 317.324 214.400 235.737 214.400 L 154.150 214.400 153.116 213.300 C 152.547 212.695,151.613 211.500,151.041 210.644 C 150.468 209.788,150.000 209.280,150.000 209.514 C 150.000 210.022,152.625 213.591,153.521 214.300 C 154.022 214.696,171.094 214.800,235.842 214.800 L 317.532 214.800 319.219 212.900 C 321.195 210.673,322.110 208.737,321.883 207.259 L 321.720 206.200 321.660 207.340 M84.640 215.840 C 84.245 218.159,84.000 220.134,84.096 220.229 C 84.192 220.325,84.595 218.508,84.992 216.192 C 85.389 213.876,85.634 211.900,85.536 211.803 C 85.438 211.705,85.035 213.521,84.640 215.840 M114.486 212.800 C 114.483 213.570,114.624 214.650,114.800 215.200 C 115.250 216.604,115.265 215.137,114.823 213.000 L 114.492 211.400 114.486 212.800 M95.600 218.656 C 93.730 219.669,90.670 221.192,88.800 222.040 C 86.930 222.887,85.673 223.585,86.008 223.591 C 86.342 223.596,89.477 222.160,92.975 220.400 C 100.677 216.524,99.013 216.473,107.819 220.863 C 115.543 224.714,116.442 224.902,116.375 222.651 L 116.349 221.800 116.003 222.659 C 115.402 224.149,115.067 224.056,107.800 220.389 C 99.521 216.211,99.989 216.277,95.600 218.656 M115.293 218.000 C 115.295 219.765,115.891 222.388,115.930 220.800 C 115.943 220.250,115.805 219.080,115.623 218.200 L 115.292 216.600 115.293 218.000 M83.660 221.820 C 83.600 223.041,84.191 224.011,84.980 223.987 C 85.211 223.980,85.100 223.747,84.734 223.468 C 84.368 223.190,83.990 222.431,83.894 221.781 L 83.720 220.600 83.660 221.820 M98.513 279.700 C 98.123 280.415,96.274 283.970,94.402 287.600 L 91.000 294.200 88.600 294.454 C 77.442 295.637,74.432 296.331,74.406 297.725 C 74.399 298.109,79.051 303.031,83.171 307.000 L 86.078 309.800 85.863 312.200 C 85.724 313.754,85.767 314.248,85.984 313.600 C 86.987 310.614,86.803 310.284,80.600 303.960 C 73.466 296.686,73.502 296.925,79.400 296.063 C 80.940 295.838,83.508 295.462,85.107 295.227 C 86.707 294.992,88.614 294.800,89.345 294.800 C 91.098 294.800,91.355 294.460,94.946 287.400 C 98.503 280.406,99.443 278.800,99.982 278.800 C 100.198 278.800,101.816 281.635,103.576 285.100 C 108.584 294.959,108.163 294.511,112.800 294.904 C 114.356 295.036,114.998 294.995,114.400 294.802 C 113.850 294.625,112.716 294.462,111.880 294.440 C 108.894 294.362,108.419 293.818,104.365 285.829 C 100.322 277.864,99.806 277.324,98.513 279.700 M116.600 295.425 C 123.236 296.350,125.200 296.855,125.200 297.637 C 125.200 297.887,122.590 300.738,119.400 303.973 C 116.210 307.208,113.600 310.063,113.600 310.318 C 113.600 310.921,124.739 299.285,125.306 298.089 C 126.051 296.520,124.114 295.813,118.000 295.423 C 116.570 295.332,115.940 295.333,116.600 295.425 M152.245 302.519 C 150.290 304.905,149.598 306.367,149.650 308.000 C 149.689 309.248,149.729 309.191,150.017 307.475 C 150.240 306.149,150.862 304.875,152.019 303.375 L 153.697 301.200 235.633 301.200 L 317.569 301.200 318.435 302.100 C 318.912 302.595,319.819 303.800,320.451 304.778 C 321.083 305.756,321.599 306.386,321.599 306.178 C 321.596 305.578,320.233 303.517,318.901 302.100 L 317.679 300.800 235.666 300.800 L 153.654 300.800 152.245 302.519 M321.660 307.740 C 321.574 309.375,320.474 311.488,318.787 313.262 L 317.324 314.800 235.737 314.800 L 154.150 314.800 153.116 313.700 C 152.547 313.095,151.613 311.900,151.041 311.044 C 150.468 310.188,150.000 309.680,150.000 309.914 C 150.000 310.422,152.625 313.991,153.521 314.700 C 154.022 315.096,171.094 315.200,235.842 315.200 L 317.532 315.200 319.219 313.300 C 321.195 311.073,322.110 309.137,321.883 307.659 L 321.720 306.600 321.660 307.740 M113.640 312.233 C 113.662 312.875,113.833 313.850,114.020 314.400 C 114.249 315.074,114.284 314.749,114.128 313.400 C 113.869 311.150,113.579 310.459,113.640 312.233 M85.000 316.800 C 84.846 317.710,84.811 318.544,84.921 318.654 C 85.031 318.764,85.246 318.110,85.400 317.200 C 85.554 316.290,85.589 315.456,85.479 315.346 C 85.369 315.236,85.154 315.890,85.000 316.800 M114.440 316.633 C 114.462 317.275,114.633 318.250,114.820 318.800 C 115.049 319.474,115.084 319.149,114.928 317.800 C 114.669 315.550,114.379 314.859,114.440 316.633 M84.218 321.018 C 84.065 322.039,84.022 322.955,84.122 323.055 C 84.222 323.155,84.429 322.402,84.582 321.382 C 84.735 320.361,84.778 319.445,84.678 319.345 C 84.578 319.245,84.371 319.998,84.218 321.018 M93.008 323.255 C 85.281 327.383,84.347 327.564,83.957 325.000 C 83.735 323.543,83.708 323.513,83.657 324.667 C 83.482 328.565,85.876 327.890,99.653 320.153 C 99.901 320.013,100.723 320.422,108.338 324.470 C 110.394 325.563,112.140 326.394,112.217 326.316 C 112.294 326.239,111.512 325.732,110.479 325.190 C 109.445 324.648,106.980 323.328,105.000 322.257 C 103.020 321.185,101.023 320.164,100.562 319.988 C 99.912 319.739,98.210 320.475,93.008 323.255 M115.240 321.033 C 115.262 321.675,115.433 322.650,115.620 323.200 C 115.849 323.874,115.884 323.549,115.728 322.200 C 115.469 319.950,115.179 319.259,115.240 321.033 M115.981 325.600 C 115.791 327.067,115.160 327.312,113.434 326.586 C 112.917 326.368,112.756 326.406,112.939 326.701 C 113.995 328.410,116.529 327.545,116.310 325.551 L 116.161 324.200 115.981 325.600 M1.400 399.200 C 2.259 400.080,3.052 400.800,3.162 400.800 C 3.272 400.800,2.659 400.080,1.800 399.200 C 0.941 398.320,0.148 397.600,0.038 397.600 C -0.072 397.600,0.541 398.320,1.400 399.200 " stroke="none" fill="#a3a3a3" fill-rule="evenodd"></path><path id="path4" d="M388.198 200.800 C 388.198 303.430,388.244 345.415,388.300 294.100 C 388.356 242.785,388.356 158.815,388.300 107.500 C 388.244 56.185,388.198 98.170,388.198 200.800 M80.400 99.800 C 81.595 101.010,82.663 102.000,82.773 102.000 C 82.883 102.000,81.995 101.010,80.800 99.800 C 79.605 98.590,78.537 97.600,78.427 97.600 C 78.317 97.600,79.205 98.590,80.400 99.800 M84.000 121.176 C 84.000 121.823,84.142 122.441,84.316 122.548 C 84.490 122.656,84.561 122.127,84.473 121.372 C 84.276 119.691,84.000 119.577,84.000 121.176 M116.589 203.300 L 113.800 206.200 116.700 203.411 C 118.295 201.877,119.600 200.572,119.600 200.511 C 119.600 200.217,119.180 200.606,116.589 203.300 M107.500 388.300 C 158.815 388.356,242.785 388.356,294.100 388.300 C 345.415 388.244,303.430 388.198,200.800 388.198 C 98.170 388.198,56.185 388.244,107.500 388.300 M1.600 399.000 C 2.346 399.770,3.047 400.400,3.157 400.400 C 3.267 400.400,2.746 399.770,2.000 399.000 C 1.254 398.230,0.553 397.600,0.443 397.600 C 0.333 397.600,0.854 398.230,1.600 399.000 " stroke="none" fill="#8c8c8c" fill-rule="evenodd"></path><path id="path5" d="M107.500 13.500 C 158.815 13.556,242.785 13.556,294.100 13.500 C 345.415 13.444,303.430 13.398,200.800 13.398 C 98.170 13.398,56.185 13.444,107.500 13.500 M13.398 200.800 C 13.398 303.430,13.444 345.415,13.500 294.100 C 13.556 242.785,13.556 158.815,13.500 107.500 C 13.444 56.185,13.398 98.170,13.398 200.800 M76.800 96.200 C 77.546 96.970,78.247 97.600,78.357 97.600 C 78.467 97.600,77.946 96.970,77.200 96.200 C 76.454 95.430,75.753 94.800,75.643 94.800 C 75.533 94.800,76.054 95.430,76.800 96.200 M116.378 102.300 L 115.000 103.800 116.500 102.422 C 117.896 101.138,118.184 100.800,117.878 100.800 C 117.812 100.800,117.137 101.475,116.378 102.300 M195.332 113.900 C 217.734 113.957,254.274 113.957,276.532 113.900 C 298.789 113.843,280.460 113.796,235.800 113.796 C 191.140 113.796,172.929 113.843,195.332 113.900 M82.200 202.000 C 83.283 203.100,84.260 204.000,84.370 204.000 C 84.480 204.000,83.683 203.100,82.600 202.000 C 81.517 200.900,80.540 200.000,80.430 200.000 C 80.320 200.000,81.117 200.900,82.200 202.000 M195.332 214.300 C 217.734 214.357,254.274 214.357,276.532 214.300 C 298.789 214.243,280.460 214.196,235.800 214.196 C 191.140 214.196,172.929 214.243,195.332 214.300 M120.975 302.100 L 119.800 303.400 121.100 302.225 C 122.312 301.130,122.584 300.800,122.275 300.800 C 122.206 300.800,121.621 301.385,120.975 302.100 M81.000 304.400 C 82.750 306.160,84.271 307.600,84.381 307.600 C 84.491 307.600,83.150 306.160,81.400 304.400 C 79.650 302.640,78.129 301.200,78.019 301.200 C 77.909 301.200,79.250 302.640,81.000 304.400 M195.332 314.700 C 217.734 314.757,254.274 314.757,276.532 314.700 C 298.789 314.643,280.460 314.596,235.800 314.596 C 191.140 314.596,172.929 314.643,195.332 314.700 M115.632 325.867 C 115.614 326.343,115.375 326.824,115.100 326.935 C 114.708 327.093,114.711 327.144,115.113 327.168 C 115.720 327.206,116.161 326.240,115.869 325.513 C 115.756 325.231,115.649 325.390,115.632 325.867 " stroke="none" fill="#7c7c7c" fill-rule="evenodd"></path></g></svg>