<?xml version="1.0" encoding="utf-8"?>
<!-- Generator: Adobe Illustrator 16.0.0, SVG Export Plug-In . SVG Version: 6.00 Build 0)  -->
<!DOCTYPE svg PUBLIC "-//W3C//DTD SVG 1.1//EN" "http://www.w3.org/Graphics/SVG/1.1/DTD/svg11.dtd">
<svg version="1.1" id="Capa_1" xmlns="http://www.w3.org/2000/svg" xmlns:xlink="http://www.w3.org/1999/xlink" x="0px" y="0px"
	 width="1200px" height="1200px" viewBox="0 0 1200 1200" enable-background="new 0 0 1200 1200" xml:space="preserve">
<g>
	<polygon fill="#262D4B" points="630.656,59.525 522.004,382.339 184.945,382.209 458.633,589.199 356.43,902.67 637.262,709.084 
		909.199,898.248 806.008,585.262 1086.082,380.861 741.816,382.175 	"/>
	<polygon fill="#FFFFFF" points="630.656,137.155 538.719,404.45 257.668,405.756 484.344,578.718 405.07,836.84 636.996,682.23 
		865.621,836.84 781.113,576.748 1014.988,403.142 724.121,403.142 	"/>
	<polygon fill="none" points="632.602,207.913 557.188,427.148 326.668,428.236 512.594,570.087 439.801,789.67 637.805,654.994 
		825.34,781.807 756.012,568.471 947.852,426.073 709.266,426.073 	"/>
	<polygon fill="none" points="631.676,209.877 556.266,429.119 325.734,430.201 511.66,572.031 438.871,791.629 636.871,656.959 
		824.414,783.764 755.094,570.429 946.922,428.051 708.336,428.051 	"/>
	<polygon fill="none" points="632.602,207.913 557.188,427.148 326.668,428.236 512.594,570.087 439.801,789.67 637.805,654.994 
		825.34,781.807 756.012,568.471 947.852,426.073 709.266,426.073 	"/>
	<polygon fill="#262D4B" points="631.676,204.025 553.137,429.139 326.668,428.236 512.594,570.087 438.871,791.629 
		636.871,651.098 826.973,789.67 755.094,564.577 958.66,422.993 709.266,426.073 	"/>
	<path fill="#262D4B" d="M143.547,954.117c-7.016,0.383-7.422-4.662-28.859-5.037C78.969,949.08,50,978.047,50,1013.771v57.725
		c0,35.732,28.969,64.701,64.688,64.701c35.723,0,64.699-28.969,64.699-64.701v-22.609h-40.008v17.299
		c0,7.01-5.684,12.697-12.691,12.697h-0.008h-17.941c-7.008,0-12.695-5.688-12.703-12.697v-45.158
		c0-7.016,5.703-12.697,12.703-12.697h17.941c7.016,0,12.699,5.682,12.699,12.697v15.367h40.008v-87.74h-27.27
		C152.117,948.654,150.563,953.713,143.547,954.117L143.547,954.117z M791.594,949.08c-36.965,0-66.969,28.967-66.969,64.691v57.725
		c0,35.732,30.004,64.701,66.969,64.701c36.996,0,66.977-28.969,66.977-64.701v-57.725C858.57,978.047,828.59,949.08,791.594,949.08
		L791.594,949.08z M816.352,1041.07v25.107c0,7.018-5.668,12.691-12.684,12.699h-0.016H782.59c-7,0.006-12.684-5.676-12.684-12.686
		v-0.014v-45.156c0-7.016,5.684-12.691,12.684-12.691h21.063c7.016,0,12.699,5.682,12.699,12.691V1041.07L816.352,1041.07z
		 M696.125,1039.119c0,0,18.707-6.633,17.16-45.232c-1.582-38.811-44.465-40.174-61.629-40.174h-13.25l-138.047-0.047v54.563h4.676
		c8.578,0,6.23,9.445,6.23,9.445l-16.758,54.781l-17.16-53.227c0,0-1.555-11,8.969-11h5.453v-54.563h-72.125v54.563h3.895
		c8.582,0,6.234,9.445,6.234,9.445l-17.551,54.781l-16.762-54.781c0,0-2.344-9.445,6.234-9.445h9.359v-54.563h-82.664v54.563h10.926
		c0,0,11.699,2.436,14.031,9.445l37.438,120.117h37.238l21.266-65.514l21.246,65.514h42.313l37.434-120.117
		c3.504-9.953,16.77-9.445,16.77-9.445h8.77c0,0,12.68-0.508,13.656,9.445v54.199c-0.977,9.961-13.656,9.467-13.656,9.467h-11.492
		v56.459h93.969c0,0,55.363,1.547,55.363-55.377C713.66,1082.422,716.016,1050.818,696.125,1039.119L696.125,1039.119z
		 M657.902,1082.771l-8.586-0.357l-16.762,0.357v-20.988h25.348c5.805-0.143,10.621,4.436,10.758,10.24
		c0.137,5.791-4.449,10.611-10.246,10.748C658.234,1082.777,658.078,1082.777,657.902,1082.771z M657.902,1026.941h-25.348v-17.762
		l3.512-0.082l21.836,0.082c5.805,0,10.504,3.977,10.504,8.871C668.406,1022.965,663.707,1026.941,657.902,1026.941
		L657.902,1026.941z M1026.805,953.666h-72.137v54.563h3.891c8.582,0,6.25,9.445,6.25,9.445l-16.477,19.398l-15.109-19.398
		c0,0-5.078-9.445,3.508-9.445h9.348v-54.563h-82.66v54.563h0.391c0,0,10.129-0.699,16.762,9.445l31.188,42.891
		c0,0,6.25,7.422,6.25,11.713c0,10.137-13.273,11.309-13.273,11.309h-13.637v54.205h95.547v-52.652h-13.266
		c-2.336,0-7.395-1.943-8.969-10.527c-1.559-8.576,5.066-13.266,5.066-13.266l36.668-43.289c7.398-9.74,15.203-9.828,15.203-9.828
		h5.457V953.666L1026.805,953.666z M259.695,949.08c-36.984,0-66.969,28.967-66.969,64.691v57.725
		c0,35.732,29.984,64.701,66.969,64.701c36.996,0,66.973-28.969,66.973-64.701v-57.725
		C326.668,978.047,296.691,949.08,259.695,949.08z M284.445,1066.178c0.008,7.018-5.68,12.691-12.691,12.699l0,0h-21.063
		c-7.016,0-12.695-5.682-12.695-12.691v-0.008v-45.156c0-7.016,5.68-12.691,12.695-12.691h21.063
		c7.012,0,12.691,5.682,12.691,12.691V1066.178z M1137.953,1046.137c-9.754-14.814-48.359-23.781-48.359-23.781
		c-15.602-5.072-12.473-9.363-12.473-9.363c0.379-7.414,10.527-5.846,10.527-5.846c8.578,0.383,19.223,7.652,19.223,7.652
		l13.664,10.678h27.879v-71.373h-33.855c0,0-1.555,5.086-8.59,5.463c-7.023,0.396-7.41-6.975-28.848-7.359
		c-35.738,0-49.512,25.451-49.512,61.182c2.746,14.813-1.184,12.082,11.688,30.803c10.035,14.615,48.352,23.781,48.352,23.781
		c15.594,5.072,12.488,9.355,12.488,9.355c-0.391,7.414-10.543,5.867-10.543,5.867c-8.578-0.396-19.227-7.639-19.227-7.639
		l-13.656-10.707h-30.242v72.545h24.902c0,0,1.566-5.072,8.582-5.469c7.023-0.377,16.004,8.158,37.422,8.549
		c35.738,0,52.625-24.293,52.625-60.004C1150.023,1065.658,1147.707,1060.955,1137.953,1046.137L1137.953,1046.137z"/>
</g>
</svg>
