<?xml version="1.0" encoding="UTF-8"?>
<svg xmlns="http://www.w3.org/2000/svg" xmlns:xlink="http://www.w3.org/1999/xlink" width="24pt" height="24pt" viewBox="0 0 24 24" version="1.1">
<g id="surface1">
<path style=" stroke:none;fill-rule:evenodd;fill:rgb(3.137255%,3.137255%,3.137255%);fill-opacity:1;" d="M 0.265625 0.03125 C 0.265625 0.0703125 0.0664062 0.261719 0.0273438 0.261719 C 0.0078125 0.261719 0 2.824219 0 12.011719 L 0 23.761719 L 0.0742188 23.800781 C 0.113281 23.824219 0.164062 23.875 0.1875 23.914062 L 0.226562 23.988281 L 23.851562 23.988281 L 24 23.839844 L 24 12.003906 C 24 0.234375 24 0.171875 23.953125 0.15625 C 23.925781 0.148438 23.886719 0.109375 23.863281 0.0703125 L 23.820312 0 L 12.042969 0 C 2.433594 0 0.265625 0.00390625 0.265625 0.03125 M 23.28125 0.789062 C 23.339844 0.820312 23.355469 23.183594 23.300781 23.242188 C 23.242188 23.296875 0.824219 23.28125 0.792969 23.222656 C 0.746094 23.136719 0.757812 0.851562 0.804688 0.804688 C 0.851562 0.757812 23.195312 0.746094 23.28125 0.789062 M 5.761719 4.953125 C 5.515625 5.441406 5.535156 5.421875 5.230469 5.460938 C 5.132812 5.476562 4.988281 5.496094 4.90625 5.507812 C 4.828125 5.519531 4.714844 5.535156 4.65625 5.542969 C 4.597656 5.550781 4.53125 5.5625 4.515625 5.570312 C 4.492188 5.574219 4.597656 5.699219 4.808594 5.910156 C 5.238281 6.347656 5.230469 6.324219 5.136719 6.894531 C 5.058594 7.371094 5.042969 7.355469 5.425781 7.15625 C 5.574219 7.078125 5.765625 6.980469 5.847656 6.9375 L 5.996094 6.863281 L 6.441406 7.085938 C 6.683594 7.210938 6.890625 7.304688 6.902344 7.296875 C 6.910156 7.285156 6.890625 7.097656 6.851562 6.878906 C 6.816406 6.65625 6.78125 6.441406 6.773438 6.398438 C 6.761719 6.320312 6.78125 6.296875 7.117188 5.960938 C 7.3125 5.765625 7.464844 5.597656 7.457031 5.585938 C 7.449219 5.578125 7.382812 5.5625 7.316406 5.550781 C 7.246094 5.539062 7.128906 5.515625 7.054688 5.503906 C 6.984375 5.492188 6.84375 5.472656 6.746094 5.460938 C 6.5 5.433594 6.480469 5.410156 6.238281 4.941406 C 6.121094 4.71875 6.015625 4.535156 6.003906 4.53125 C 5.988281 4.523438 5.878906 4.714844 5.761719 4.953125 M 9.1875 6.109375 C 8.996094 6.316406 8.988281 6.453125 9.144531 6.65625 L 9.242188 6.773438 L 19.050781 6.773438 L 19.125 6.679688 C 19.296875 6.464844 19.296875 6.339844 19.125 6.144531 L 19.027344 6.03125 L 9.261719 6.03125 L 9.1875 6.109375 M 5.761719 10.988281 C 5.515625 11.511719 5.566406 11.46875 5.160156 11.515625 C 4.652344 11.574219 4.558594 11.59375 4.558594 11.640625 C 4.558594 11.65625 4.710938 11.824219 4.898438 12.011719 C 5.238281 12.351562 5.238281 12.351562 5.222656 12.441406 C 5.1875 12.664062 5.160156 12.804688 5.136719 12.925781 C 5.046875 13.40625 5.023438 13.394531 5.574219 13.125 L 6.003906 12.917969 L 6.445312 13.136719 C 6.6875 13.257812 6.894531 13.359375 6.898438 13.359375 C 6.925781 13.359375 6.886719 13.0625 6.777344 12.457031 C 6.761719 12.386719 6.785156 12.359375 7.089844 12.035156 C 7.488281 11.609375 7.492188 11.589844 7.164062 11.554688 C 6.96875 11.53125 6.667969 11.492188 6.5625 11.472656 L 6.46875 11.453125 L 6.238281 11.007812 C 6.113281 10.761719 6 10.558594 5.988281 10.558594 C 5.976562 10.558594 5.875 10.75 5.761719 10.988281 M 9.1875 12.121094 C 8.996094 12.324219 8.988281 12.464844 9.144531 12.664062 L 9.242188 12.785156 L 19.050781 12.785156 L 19.125 12.691406 C 19.296875 12.476562 19.296875 12.347656 19.125 12.152344 L 19.027344 12.042969 L 9.261719 12.042969 L 9.1875 12.121094 M 5.925781 16.835938 C 5.550781 17.574219 5.492188 17.667969 5.410156 17.667969 C 5.355469 17.667969 5.25 17.683594 4.789062 17.753906 C 4.488281 17.800781 4.488281 17.785156 4.882812 18.191406 C 5.074219 18.386719 5.230469 18.566406 5.230469 18.585938 C 5.230469 18.605469 5.222656 18.671875 5.207031 18.738281 C 5.082031 19.347656 5.058594 19.535156 5.113281 19.535156 C 5.148438 19.535156 5.355469 19.429688 5.707031 19.238281 C 6.011719 19.070312 5.949219 19.066406 6.441406 19.320312 C 6.988281 19.601562 6.953125 19.621094 6.851562 19.082031 C 6.816406 18.902344 6.78125 18.710938 6.773438 18.65625 L 6.761719 18.554688 L 7.117188 18.195312 C 7.332031 17.972656 7.460938 17.824219 7.449219 17.808594 C 7.425781 17.785156 7.164062 17.738281 6.785156 17.691406 C 6.476562 17.648438 6.472656 17.648438 6.230469 17.164062 C 5.992188 16.699219 5.996094 16.699219 5.925781 16.835938 M 9.1875 18.128906 C 8.996094 18.332031 8.988281 18.472656 9.144531 18.671875 L 9.242188 18.792969 L 19.050781 18.792969 L 19.125 18.699219 C 19.296875 18.484375 19.296875 18.355469 19.125 18.160156 L 19.027344 18.050781 L 9.261719 18.050781 L 9.1875 18.128906 "/>
<path style=" stroke:none;fill-rule:evenodd;fill:rgb(98.431373%,98.431373%,98.431373%);fill-opacity:1;" d="M 0 0.113281 L 0 0.226562 L 0.109375 0.121094 C 0.238281 -0.0078125 0.238281 0 0.109375 0 L 0 0 L 0 0.113281 M 23.929688 0.0585938 C 23.960938 0.09375 23.988281 0.121094 23.992188 0.121094 C 23.996094 0.121094 24 0.09375 24 0.0585938 C 24 0.0117188 23.988281 0 23.9375 0 L 23.871094 0 L 23.929688 0.0585938 M 0.855469 0.855469 C 0.847656 0.863281 0.839844 5.894531 0.839844 12.035156 L 0.839844 23.199219 L 23.257812 23.199219 L 23.257812 0.839844 L 12.0625 0.839844 C 5.910156 0.839844 0.863281 0.84375 0.855469 0.855469 M 6.277344 4.882812 C 6.53125 5.394531 6.511719 5.375 6.804688 5.414062 C 7.679688 5.527344 7.667969 5.507812 7.1875 5.972656 C 6.796875 6.355469 6.816406 6.3125 6.875 6.65625 C 7.027344 7.5 7.050781 7.472656 6.441406 7.15625 C 5.941406 6.898438 6.042969 6.898438 5.554688 7.15625 C 4.960938 7.472656 4.960938 7.476562 5.113281 6.671875 C 5.171875 6.363281 5.132812 6.285156 4.671875 5.851562 C 4.375 5.566406 4.359375 5.527344 4.546875 5.5 C 4.984375 5.441406 5.289062 5.398438 5.40625 5.375 C 5.5 5.355469 5.5 5.355469 5.730469 4.890625 C 5.902344 4.554688 5.976562 4.429688 6.003906 4.429688 C 6.035156 4.429688 6.109375 4.550781 6.277344 4.882812 M 19.144531 6.074219 C 19.367188 6.3125 19.371094 6.492188 19.152344 6.734375 L 19.050781 6.847656 L 9.238281 6.847656 L 9.15625 6.757812 C 8.929688 6.511719 8.921875 6.34375 9.132812 6.089844 L 9.21875 5.984375 L 19.0625 5.984375 L 19.144531 6.074219 M 6.277344 10.941406 L 6.515625 11.40625 L 6.625 11.425781 C 6.683594 11.4375 6.8125 11.453125 6.910156 11.464844 C 7.632812 11.558594 7.632812 11.558594 7.160156 12.042969 L 6.832031 12.375 L 6.847656 12.476562 C 6.855469 12.535156 6.886719 12.757812 6.921875 12.972656 C 7.011719 13.515625 7.035156 13.5 6.472656 13.21875 C 5.941406 12.957031 6.035156 12.960938 5.601562 13.179688 C 4.96875 13.5 4.976562 13.503906 5.085938 12.886719 C 5.125 12.640625 5.160156 12.414062 5.160156 12.390625 C 5.160156 12.359375 5.027344 12.214844 4.824219 12.019531 C 4.472656 11.679688 4.445312 11.640625 4.550781 11.570312 C 4.613281 11.53125 4.675781 11.515625 5.089844 11.46875 C 5.535156 11.414062 5.496094 11.429688 5.554688 11.289062 C 5.78125 10.78125 5.953125 10.457031 5.992188 10.464844 C 6.023438 10.472656 6.117188 10.632812 6.277344 10.941406 M 19.144531 12.082031 C 19.367188 12.320312 19.371094 12.5 19.152344 12.742188 L 19.050781 12.855469 L 9.238281 12.855469 L 9.15625 12.765625 C 8.929688 12.523438 8.921875 12.355469 9.132812 12.097656 L 9.21875 11.992188 L 19.0625 11.992188 L 19.144531 12.082031 M 6.261719 17.105469 C 6.535156 17.640625 6.46875 17.59375 7.042969 17.667969 C 7.660156 17.746094 7.65625 17.726562 7.15625 18.246094 L 6.820312 18.59375 L 6.867188 18.84375 C 7.003906 19.601562 7.007812 19.605469 6.914062 19.605469 C 6.875 19.605469 6.550781 19.449219 6.125 19.222656 C 6.050781 19.183594 5.988281 19.15625 5.980469 19.160156 C 5.015625 19.703125 4.964844 19.703125 5.0625 19.179688 C 5.089844 19.027344 5.128906 18.820312 5.140625 18.722656 L 5.167969 18.546875 L 4.992188 18.378906 C 4.734375 18.125 4.464844 17.839844 4.464844 17.820312 C 4.464844 17.734375 4.648438 17.695312 5.316406 17.625 L 5.460938 17.609375 L 5.664062 17.214844 C 5.949219 16.660156 5.949219 16.664062 5.996094 16.664062 C 6.023438 16.664062 6.101562 16.792969 6.261719 17.105469 M 19.144531 18.09375 C 19.367188 18.328125 19.371094 18.507812 19.152344 18.75 L 19.050781 18.863281 L 9.238281 18.863281 L 9.15625 18.773438 C 8.929688 18.53125 8.921875 18.363281 9.132812 18.105469 L 9.21875 18.003906 L 19.0625 18.003906 L 19.144531 18.09375 M 0 23.902344 C 0 23.984375 0.00390625 23.988281 0.0898438 23.988281 L 0.175781 23.988281 L 0.0976562 23.902344 C 0.0507812 23.859375 0.0117188 23.820312 0.0078125 23.820312 C 0.00390625 23.820312 0 23.859375 0 23.902344 M 23.953125 23.953125 C 23.925781 23.980469 23.929688 23.988281 23.960938 23.988281 C 23.984375 23.988281 24 23.972656 24 23.953125 C 24 23.933594 23.996094 23.917969 23.992188 23.917969 C 23.984375 23.917969 23.96875 23.933594 23.953125 23.953125 "/>
<path style=" stroke:none;fill-rule:evenodd;fill:rgb(42.352941%,42.352941%,42.352941%);fill-opacity:1;" d="M 0.128906 0.136719 C 0.0625 0.207031 0.0195312 0.261719 0.0351562 0.261719 C 0.0703125 0.261719 0.273438 0.0585938 0.261719 0.03125 C 0.257812 0.0195312 0.195312 0.0703125 0.128906 0.136719 M 23.832031 0.015625 C 23.832031 0.0507812 23.945312 0.167969 23.980469 0.167969 C 23.996094 0.167969 23.988281 0.152344 23.957031 0.132812 C 23.929688 0.109375 23.890625 0.0703125 23.867188 0.0429688 C 23.847656 0.0117188 23.832031 0 23.832031 0.015625 M 0.804688 0.804688 C 0.757812 0.851562 0.746094 23.136719 0.792969 23.222656 C 0.824219 23.28125 23.242188 23.296875 23.300781 23.242188 C 23.355469 23.183594 23.339844 0.820312 23.28125 0.789062 C 23.195312 0.746094 0.851562 0.757812 0.804688 0.804688 M 23.257812 0.816406 C 23.316406 0.84375 23.332031 23.160156 23.273438 23.21875 C 23.21875 23.273438 0.847656 23.257812 0.816406 23.199219 C 0.769531 23.113281 0.785156 0.875 0.828125 0.828125 C 0.875 0.78125 23.171875 0.769531 23.257812 0.816406 M 5.75 4.925781 C 5.496094 5.433594 5.535156 5.394531 5.21875 5.4375 C 5.128906 5.453125 4.988281 5.472656 4.90625 5.484375 C 4.828125 5.496094 4.699219 5.511719 4.625 5.519531 C 4.421875 5.542969 4.429688 5.558594 4.789062 5.917969 C 5.214844 6.347656 5.207031 6.324219 5.113281 6.894531 C 5.023438 7.421875 5.003906 7.417969 5.640625 7.074219 C 6.039062 6.859375 5.960938 6.859375 6.328125 7.058594 C 6.953125 7.390625 6.964844 7.390625 6.917969 7.152344 L 6.890625 7.027344 L 6.90625 7.164062 C 6.921875 7.339844 6.941406 7.34375 6.429688 7.082031 L 6 6.859375 L 5.847656 6.9375 C 5.765625 6.980469 5.574219 7.078125 5.425781 7.15625 C 5.042969 7.355469 5.058594 7.371094 5.136719 6.894531 C 5.230469 6.324219 5.238281 6.347656 4.808594 5.910156 C 4.597656 5.699219 4.492188 5.574219 4.515625 5.570312 C 4.53125 5.5625 4.597656 5.550781 4.65625 5.542969 C 4.714844 5.535156 4.828125 5.519531 4.90625 5.507812 C 4.988281 5.496094 5.132812 5.476562 5.230469 5.460938 C 5.535156 5.421875 5.515625 5.441406 5.761719 4.953125 C 5.878906 4.714844 5.988281 4.523438 6.003906 4.53125 C 6.015625 4.535156 6.121094 4.71875 6.238281 4.941406 C 6.480469 5.410156 6.5 5.433594 6.746094 5.460938 C 6.84375 5.472656 6.984375 5.492188 7.054688 5.503906 C 7.128906 5.515625 7.246094 5.539062 7.316406 5.550781 C 7.382812 5.5625 7.449219 5.578125 7.457031 5.585938 C 7.464844 5.597656 7.3125 5.761719 7.121094 5.957031 C 6.796875 6.28125 6.769531 6.320312 6.769531 6.394531 L 6.773438 6.476562 L 6.792969 6.382812 C 6.804688 6.308594 6.863281 6.242188 7.148438 5.964844 C 7.570312 5.554688 7.570312 5.5625 7.199219 5.507812 C 7.101562 5.492188 6.980469 5.46875 6.933594 5.457031 C 6.886719 5.445312 6.800781 5.433594 6.742188 5.433594 C 6.53125 5.433594 6.496094 5.394531 6.25 4.921875 C 6.128906 4.683594 6.015625 4.488281 6.003906 4.480469 C 5.988281 4.476562 5.875 4.675781 5.75 4.925781 M 9.222656 6.042969 C 9.167969 6.085938 9.023438 6.289062 9.023438 6.332031 C 9.027344 6.34375 9.046875 6.320312 9.070312 6.273438 C 9.097656 6.226562 9.148438 6.152344 9.1875 6.109375 L 9.261719 6.03125 L 19.027344 6.03125 L 19.125 6.144531 C 19.179688 6.207031 19.234375 6.289062 19.246094 6.328125 C 19.261719 6.378906 19.269531 6.386719 19.269531 6.355469 C 19.273438 6.296875 19.210938 6.191406 19.109375 6.085938 L 19.035156 6.007812 L 14.15625 6.007812 C 9.882812 6.007812 9.269531 6.011719 9.222656 6.042969 M 9 6.398438 C 9 6.472656 9.0625 6.597656 9.15625 6.699219 L 9.246094 6.800781 L 19.046875 6.800781 L 19.109375 6.734375 C 19.203125 6.628906 19.273438 6.519531 19.269531 6.472656 C 19.269531 6.445312 19.257812 6.457031 19.234375 6.507812 C 19.214844 6.550781 19.167969 6.628906 19.125 6.679688 L 19.050781 6.773438 L 9.242188 6.773438 L 9.15625 6.667969 C 9.105469 6.609375 9.054688 6.515625 9.035156 6.457031 C 9.019531 6.402344 9.003906 6.375 9 6.398438 M 6.808594 6.59375 C 6.816406 6.660156 6.828125 6.71875 6.832031 6.726562 C 6.847656 6.746094 6.835938 6.570312 6.816406 6.523438 C 6.800781 6.492188 6.800781 6.519531 6.808594 6.59375 M 6.855469 6.871094 C 6.863281 6.941406 6.875 7.007812 6.878906 7.011719 C 6.894531 7.03125 6.882812 6.859375 6.863281 6.800781 C 6.851562 6.761719 6.847656 6.785156 6.855469 6.871094 M 5.957031 10.539062 C 5.945312 10.554688 5.839844 10.761719 5.730469 11 C 5.5 11.488281 5.550781 11.445312 5.171875 11.492188 C 4.378906 11.585938 4.390625 11.5625 4.890625 12.03125 L 5.21875 12.335938 L 4.890625 12.003906 C 4.453125 11.5625 4.433594 11.601562 5.160156 11.515625 C 5.566406 11.46875 5.515625 11.511719 5.761719 10.988281 C 5.875 10.75 5.976562 10.558594 5.988281 10.558594 C 6 10.558594 6.113281 10.761719 6.238281 11.007812 L 6.46875 11.453125 L 6.5625 11.472656 C 6.667969 11.492188 6.96875 11.53125 7.164062 11.554688 C 7.492188 11.589844 7.488281 11.609375 7.089844 12.035156 C 6.765625 12.375 6.761719 12.382812 6.777344 12.46875 C 6.785156 12.515625 6.8125 12.667969 6.839844 12.808594 C 6.863281 12.945312 6.882812 13.03125 6.886719 13 C 6.886719 12.964844 6.871094 12.851562 6.851562 12.75 C 6.777344 12.332031 6.746094 12.421875 7.097656 12.058594 C 7.449219 11.699219 7.480469 11.65625 7.425781 11.601562 C 7.386719 11.5625 7.355469 11.554688 6.929688 11.503906 C 6.449219 11.441406 6.511719 11.492188 6.214844 10.910156 C 6.007812 10.5 6 10.488281 5.957031 10.539062 M 9.222656 12.054688 C 9.167969 12.09375 9.023438 12.300781 9.023438 12.339844 C 9.027344 12.351562 9.046875 12.328125 9.070312 12.28125 C 9.097656 12.234375 9.148438 12.164062 9.1875 12.121094 L 9.261719 12.042969 L 19.027344 12.042969 L 19.125 12.152344 C 19.179688 12.214844 19.234375 12.296875 19.246094 12.339844 C 19.261719 12.386719 19.269531 12.398438 19.269531 12.363281 C 19.273438 12.308594 19.210938 12.199219 19.109375 12.097656 L 19.035156 12.019531 L 14.15625 12.019531 C 9.882812 12.019531 9.269531 12.023438 9.222656 12.054688 M 5.199219 12.4375 C 5.164062 12.644531 5.136719 12.800781 5.113281 12.925781 C 5.015625 13.433594 5.003906 13.429688 5.574219 13.148438 L 6 12.941406 L 6.441406 13.164062 C 6.976562 13.429688 6.992188 13.429688 6.910156 13.132812 C 6.898438 13.085938 6.898438 13.113281 6.90625 13.207031 C 6.921875 13.390625 6.972656 13.398438 6.445312 13.136719 L 6.003906 12.917969 L 5.574219 13.125 C 5.042969 13.386719 5.039062 13.386719 5.109375 13.0625 C 5.121094 13.007812 5.144531 12.894531 5.160156 12.808594 C 5.175781 12.722656 5.199219 12.597656 5.210938 12.53125 C 5.226562 12.460938 5.234375 12.390625 5.226562 12.375 C 5.222656 12.355469 5.207031 12.382812 5.199219 12.4375 M 9 12.40625 C 9 12.480469 9.0625 12.605469 9.15625 12.710938 L 9.246094 12.808594 L 19.046875 12.808594 L 19.109375 12.742188 C 19.203125 12.636719 19.273438 12.527344 19.269531 12.480469 C 19.269531 12.453125 19.257812 12.46875 19.234375 12.515625 C 19.214844 12.5625 19.167969 12.640625 19.125 12.691406 L 19.050781 12.785156 L 9.242188 12.785156 L 9.15625 12.675781 C 9.105469 12.617188 9.054688 12.523438 9.035156 12.46875 C 9.019531 12.410156 9.003906 12.382812 9 12.40625 M 5.957031 16.738281 C 5.945312 16.757812 5.832031 16.960938 5.710938 17.195312 C 5.589844 17.433594 5.476562 17.628906 5.464844 17.632812 C 5.449219 17.636719 5.339844 17.652344 5.21875 17.667969 C 4.902344 17.710938 4.550781 17.765625 4.53125 17.777344 C 4.488281 17.804688 4.53125 17.863281 4.863281 18.199219 C 5.253906 18.59375 5.222656 18.519531 5.160156 18.851562 C 5.144531 18.933594 5.128906 19.039062 5.121094 19.09375 C 5.113281 19.179688 5.125 19.125 5.207031 18.738281 C 5.222656 18.671875 5.230469 18.605469 5.230469 18.585938 C 5.230469 18.566406 5.074219 18.386719 4.882812 18.191406 C 4.488281 17.785156 4.488281 17.800781 4.789062 17.753906 C 5.253906 17.683594 5.355469 17.667969 5.410156 17.667969 C 5.488281 17.667969 5.503906 17.644531 5.746094 17.175781 C 5.867188 16.949219 5.976562 16.757812 5.988281 16.753906 C 6 16.75 6.105469 16.929688 6.222656 17.152344 C 6.476562 17.648438 6.476562 17.648438 6.78125 17.6875 C 7.164062 17.738281 7.425781 17.785156 7.449219 17.808594 C 7.460938 17.824219 7.335938 17.972656 7.121094 18.191406 C 6.730469 18.585938 6.742188 18.5625 6.804688 18.828125 C 6.839844 18.972656 6.839844 18.910156 6.800781 18.675781 L 6.785156 18.578125 L 7.132812 18.21875 C 7.464844 17.867188 7.511719 17.804688 7.472656 17.78125 C 7.449219 17.765625 7.09375 17.707031 6.78125 17.664062 C 6.484375 17.628906 6.492188 17.632812 6.242188 17.144531 C 6.023438 16.710938 6.003906 16.683594 5.957031 16.738281 M 9.222656 18.0625 C 9.167969 18.101562 9.023438 18.308594 9.023438 18.347656 C 9.027344 18.363281 9.046875 18.335938 9.070312 18.289062 C 9.097656 18.246094 9.148438 18.171875 9.1875 18.128906 L 9.261719 18.050781 L 19.027344 18.050781 L 19.125 18.164062 C 19.179688 18.222656 19.234375 18.308594 19.246094 18.347656 C 19.261719 18.398438 19.269531 18.40625 19.269531 18.375 C 19.273438 18.316406 19.210938 18.210938 19.109375 18.105469 L 19.035156 18.027344 L 14.15625 18.027344 C 9.882812 18.027344 9.269531 18.03125 9.222656 18.0625 M 9 18.417969 C 9 18.488281 9.0625 18.617188 9.15625 18.71875 L 9.246094 18.816406 L 19.046875 18.816406 L 19.109375 18.75 C 19.203125 18.644531 19.273438 18.539062 19.269531 18.488281 C 19.269531 18.460938 19.257812 18.476562 19.234375 18.527344 C 19.214844 18.570312 19.167969 18.648438 19.125 18.699219 L 19.050781 18.792969 L 9.242188 18.792969 L 9.15625 18.6875 C 9.105469 18.628906 9.054688 18.53125 9.035156 18.476562 C 9.019531 18.421875 9.003906 18.394531 9 18.417969 M 6.855469 19.09375 C 6.863281 19.15625 6.875 19.214844 6.878906 19.222656 C 6.894531 19.242188 6.882812 19.09375 6.863281 19.03125 C 6.847656 18.992188 6.847656 19.011719 6.855469 19.09375 M 5.722656 19.226562 C 5.074219 19.589844 5.078125 19.589844 5.09375 19.363281 C 5.101562 19.265625 5.097656 19.210938 5.085938 19.234375 C 5.050781 19.324219 5.058594 19.535156 5.097656 19.550781 C 5.132812 19.5625 5.3125 19.480469 5.734375 19.25 C 6.007812 19.101562 5.984375 19.105469 6.226562 19.234375 C 6.945312 19.621094 7.019531 19.628906 6.910156 19.296875 C 6.898438 19.257812 6.898438 19.296875 6.90625 19.386719 C 6.921875 19.578125 6.941406 19.582031 6.441406 19.320312 C 5.957031 19.070312 6 19.074219 5.722656 19.226562 M 0.0546875 23.820312 C 0.0898438 23.847656 0.140625 23.898438 0.167969 23.933594 C 0.195312 23.964844 0.214844 23.980469 0.214844 23.964844 C 0.214844 23.925781 0.0625 23.773438 0.0234375 23.773438 C 0.0078125 23.773438 0.0234375 23.792969 0.0546875 23.820312 M 23.914062 23.917969 C 23.855469 23.984375 23.878906 23.992188 23.945312 23.921875 C 23.972656 23.894531 23.988281 23.867188 23.980469 23.867188 C 23.96875 23.867188 23.941406 23.890625 23.914062 23.917969 "/>
<path style=" stroke:none;fill-rule:evenodd;fill:rgb(63.921569%,63.921569%,63.921569%);fill-opacity:1;" d="M 0.109375 0.121094 C -0.0234375 0.253906 -0.0234375 0.28125 0.109375 0.164062 C 0.183594 0.101562 0.257812 0 0.234375 0 C 0.230469 0 0.171875 0.0546875 0.109375 0.121094 M 23.855469 0.0078125 C 23.855469 0.0117188 23.890625 0.046875 23.933594 0.0859375 L 24.011719 0.15625 L 23.941406 0.078125 C 23.875 0.00390625 23.855469 -0.0117188 23.855469 0.0078125 M 0.828125 0.84375 C 0.820312 0.859375 0.820312 5.898438 0.820312 12.042969 L 0.828125 23.210938 L 23.269531 23.210938 L 23.269531 0.824219 L 12.054688 0.820312 C 3.09375 0.816406 0.835938 0.820312 0.828125 0.84375 M 23.257812 12.019531 L 23.257812 23.199219 L 0.839844 23.199219 L 0.839844 12.035156 C 0.839844 5.894531 0.847656 0.863281 0.855469 0.855469 C 0.863281 0.84375 5.910156 0.839844 12.0625 0.839844 L 23.257812 0.839844 L 23.257812 12.019531 M 5.734375 4.890625 L 5.503906 5.351562 L 5.371094 5.378906 C 5.300781 5.398438 5.207031 5.410156 5.160156 5.414062 C 5.113281 5.414062 5.054688 5.421875 5.027344 5.433594 C 4.960938 5.460938 5.261719 5.433594 5.398438 5.398438 L 5.507812 5.375 L 5.738281 4.917969 C 5.867188 4.667969 5.984375 4.464844 6.003906 4.464844 C 6.019531 4.464844 6.132812 4.652344 6.253906 4.886719 C 6.371094 5.117188 6.476562 5.320312 6.488281 5.335938 C 6.519531 5.378906 6.617188 5.410156 6.804688 5.4375 C 6.894531 5.449219 7.03125 5.46875 7.105469 5.480469 C 7.175781 5.496094 7.289062 5.511719 7.351562 5.519531 C 7.5625 5.550781 7.554688 5.570312 7.167969 5.957031 C 6.789062 6.335938 6.777344 6.359375 6.839844 6.558594 C 6.851562 6.59375 6.855469 6.558594 6.847656 6.46875 L 6.832031 6.320312 L 7.183594 5.976562 C 7.667969 5.507812 7.679688 5.527344 6.804688 5.414062 C 6.511719 5.375 6.53125 5.394531 6.277344 4.882812 C 6.109375 4.550781 6.035156 4.429688 6.003906 4.429688 C 5.976562 4.429688 5.902344 4.554688 5.734375 4.890625 M 4.722656 5.472656 C 4.710938 5.480469 4.644531 5.496094 4.566406 5.503906 C 4.355469 5.527344 4.367188 5.5625 4.671875 5.851562 C 5.027344 6.1875 5.136719 6.328125 5.140625 6.464844 C 5.144531 6.558594 5.144531 6.5625 5.152344 6.492188 C 5.171875 6.34375 5.136719 6.296875 4.785156 5.9375 C 4.402344 5.546875 4.402344 5.542969 4.601562 5.519531 C 4.675781 5.507812 4.792969 5.492188 4.859375 5.484375 L 4.980469 5.464844 L 4.859375 5.460938 C 4.789062 5.460938 4.730469 5.464844 4.722656 5.472656 M 9.132812 6.089844 C 9.015625 6.230469 8.976562 6.316406 8.980469 6.414062 C 8.980469 6.492188 8.984375 6.488281 9 6.382812 C 9.015625 6.304688 9.050781 6.230469 9.121094 6.140625 L 9.222656 6.007812 L 19.054688 6.007812 L 19.105469 6.0625 C 19.132812 6.09375 19.1875 6.164062 19.226562 6.222656 C 19.265625 6.28125 19.296875 6.320312 19.296875 6.308594 C 19.296875 6.269531 19.214844 6.148438 19.132812 6.0625 L 19.0625 5.984375 L 9.21875 5.984375 L 9.132812 6.089844 M 19.300781 6.402344 C 19.292969 6.5 19.226562 6.625 19.128906 6.730469 L 19.039062 6.824219 L 9.25 6.824219 L 9.1875 6.757812 C 9.152344 6.722656 9.097656 6.648438 9.0625 6.597656 C 9.027344 6.546875 9 6.515625 9 6.53125 C 9 6.5625 9.15625 6.773438 9.210938 6.816406 C 9.242188 6.839844 10.265625 6.847656 14.152344 6.847656 L 19.050781 6.847656 L 19.152344 6.734375 C 19.273438 6.601562 19.328125 6.484375 19.3125 6.394531 L 19.304688 6.332031 L 19.300781 6.402344 M 5.101562 6.730469 C 5.09375 6.796875 5.089844 6.855469 5.097656 6.863281 C 5.101562 6.867188 5.113281 6.820312 5.125 6.75 C 5.132812 6.683594 5.136719 6.625 5.128906 6.617188 C 5.125 6.609375 5.109375 6.660156 5.101562 6.730469 M 6.867188 6.71875 C 6.867188 6.753906 6.878906 6.8125 6.890625 6.847656 C 6.902344 6.886719 6.90625 6.867188 6.894531 6.785156 C 6.878906 6.652344 6.863281 6.609375 6.867188 6.71875 M 5.054688 7.027344 C 5.042969 7.101562 5.042969 7.167969 5.046875 7.171875 C 5.054688 7.179688 5.066406 7.125 5.074219 7.050781 C 5.085938 6.976562 5.085938 6.910156 5.082031 6.902344 C 5.074219 6.898438 5.0625 6.953125 5.054688 7.027344 M 5.722656 7.042969 C 5.210938 7.332031 5.042969 7.386719 5.039062 7.273438 C 5.035156 7.230469 5.03125 7.226562 5.023438 7.261719 C 5.007812 7.3125 5.054688 7.375 5.109375 7.375 C 5.128906 7.375 5.332031 7.277344 5.554688 7.15625 C 6.042969 6.898438 5.941406 6.898438 6.441406 7.15625 C 6.917969 7.40625 6.992188 7.421875 6.984375 7.269531 C 6.980469 7.253906 6.972656 7.265625 6.960938 7.296875 C 6.925781 7.382812 6.820312 7.34375 6.265625 7.042969 C 5.992188 6.890625 5.992188 6.890625 5.722656 7.042969 M 6.914062 6.992188 C 6.917969 7.039062 6.925781 7.105469 6.9375 7.144531 C 6.949219 7.191406 6.953125 7.167969 6.945312 7.074219 C 6.929688 6.914062 6.910156 6.863281 6.914062 6.992188 M 5.78125 10.8125 C 5.6875 11.007812 5.585938 11.226562 5.554688 11.292969 C 5.503906 11.40625 5.492188 11.417969 5.417969 11.421875 C 5.375 11.421875 5.320312 11.433594 5.292969 11.445312 C 5.261719 11.457031 5.285156 11.460938 5.363281 11.449219 C 5.519531 11.433594 5.507812 11.449219 5.722656 10.988281 C 5.917969 10.570312 5.964844 10.484375 6 10.484375 C 6.011719 10.484375 6.125 10.691406 6.253906 10.945312 C 6.382812 11.199219 6.488281 11.410156 6.496094 11.417969 C 6.507812 11.433594 6.699219 11.464844 6.910156 11.492188 C 7.597656 11.574219 7.59375 11.554688 7.121094 12.050781 C 6.796875 12.394531 6.785156 12.417969 6.839844 12.59375 C 6.851562 12.628906 6.855469 12.601562 6.847656 12.515625 L 6.832031 12.375 L 7.160156 12.042969 C 7.632812 11.558594 7.632812 11.558594 6.910156 11.464844 C 6.8125 11.453125 6.683594 11.4375 6.625 11.425781 L 6.515625 11.40625 L 6.277344 10.941406 C 5.972656 10.351562 5.996094 10.359375 5.78125 10.8125 M 4.894531 11.492188 C 4.863281 11.5 4.792969 11.511719 4.738281 11.511719 C 4.625 11.515625 4.488281 11.59375 4.488281 11.652344 C 4.488281 11.675781 4.636719 11.839844 4.828125 12.023438 L 5.167969 12.347656 L 5.152344 12.5 C 5.144531 12.597656 5.148438 12.625 5.160156 12.582031 C 5.214844 12.371094 5.207031 12.359375 4.890625 12.050781 C 4.382812 11.5625 4.378906 11.570312 5.089844 11.492188 L 5.242188 11.476562 L 5.101562 11.472656 C 5.019531 11.472656 4.929688 11.480469 4.894531 11.492188 M 9.132812 12.097656 C 9.015625 12.238281 8.976562 12.328125 8.980469 12.425781 C 8.980469 12.5 8.984375 12.496094 9 12.394531 C 9.015625 12.3125 9.050781 12.238281 9.121094 12.148438 L 9.222656 12.019531 L 19.054688 12.019531 L 19.105469 12.070312 C 19.132812 12.101562 19.1875 12.171875 19.226562 12.230469 C 19.265625 12.289062 19.296875 12.328125 19.296875 12.316406 C 19.296875 12.28125 19.214844 12.15625 19.132812 12.070312 L 19.0625 11.992188 L 9.21875 11.992188 L 9.132812 12.097656 M 19.300781 12.410156 C 19.292969 12.507812 19.226562 12.632812 19.128906 12.738281 L 19.039062 12.832031 L 9.25 12.832031 L 9.1875 12.765625 C 9.152344 12.730469 9.097656 12.660156 9.0625 12.605469 C 9.027344 12.554688 9 12.527344 9 12.539062 C 9 12.570312 9.15625 12.785156 9.210938 12.824219 C 9.242188 12.851562 10.265625 12.855469 14.152344 12.855469 L 19.050781 12.855469 L 19.152344 12.742188 C 19.273438 12.609375 19.328125 12.492188 19.3125 12.40625 L 19.304688 12.339844 L 19.300781 12.410156 M 5.078125 12.917969 C 5.054688 13.058594 5.039062 13.175781 5.046875 13.179688 C 5.050781 13.1875 5.074219 13.078125 5.097656 12.9375 C 5.125 12.800781 5.136719 12.683594 5.132812 12.675781 C 5.125 12.671875 5.101562 12.78125 5.078125 12.917969 M 6.871094 12.734375 C 6.867188 12.78125 6.878906 12.847656 6.886719 12.878906 C 6.914062 12.964844 6.914062 12.875 6.890625 12.75 L 6.871094 12.652344 L 6.871094 12.734375 M 5.734375 13.085938 C 5.625 13.148438 5.441406 13.238281 5.328125 13.289062 C 5.214844 13.339844 5.140625 13.382812 5.160156 13.382812 C 5.179688 13.382812 5.367188 13.296875 5.578125 13.191406 C 6.039062 12.960938 5.941406 12.957031 6.46875 13.21875 C 6.933594 13.449219 6.988281 13.460938 6.984375 13.324219 L 6.980469 13.273438 L 6.960938 13.328125 C 6.925781 13.414062 6.902344 13.410156 6.46875 13.191406 C 5.972656 12.941406 6 12.945312 5.734375 13.085938 M 6.917969 13.046875 C 6.917969 13.152344 6.953125 13.308594 6.957031 13.214844 C 6.957031 13.183594 6.949219 13.113281 6.9375 13.058594 L 6.917969 12.964844 L 6.917969 13.046875 M 5.019531 13.277344 C 5.015625 13.347656 5.050781 13.40625 5.097656 13.40625 C 5.113281 13.40625 5.105469 13.390625 5.085938 13.375 C 5.0625 13.359375 5.039062 13.3125 5.035156 13.273438 L 5.023438 13.203125 L 5.019531 13.277344 M 5.910156 16.738281 C 5.886719 16.78125 5.777344 16.996094 5.664062 17.214844 L 5.460938 17.609375 L 5.316406 17.625 C 4.648438 17.695312 4.464844 17.734375 4.464844 17.820312 C 4.464844 17.84375 4.742188 18.136719 4.992188 18.375 L 5.164062 18.542969 L 5.152344 18.683594 C 5.144531 18.777344 5.144531 18.808594 5.160156 18.769531 C 5.21875 18.589844 5.207031 18.570312 4.835938 18.191406 C 4.40625 17.757812 4.410156 17.769531 4.765625 17.71875 C 4.855469 17.707031 5.011719 17.683594 5.105469 17.667969 C 5.203125 17.65625 5.316406 17.644531 5.359375 17.644531 C 5.464844 17.644531 5.480469 17.625 5.695312 17.199219 C 5.910156 16.78125 5.964844 16.6875 6 16.6875 C 6.011719 16.6875 6.109375 16.855469 6.214844 17.0625 C 6.515625 17.652344 6.488281 17.625 6.769531 17.648438 C 6.863281 17.65625 6.898438 17.65625 6.863281 17.644531 C 6.832031 17.632812 6.761719 17.625 6.710938 17.621094 C 6.535156 17.617188 6.503906 17.585938 6.261719 17.105469 C 6.019531 16.628906 5.988281 16.597656 5.910156 16.738281 M 6.996094 17.679688 C 7.394531 17.738281 7.511719 17.765625 7.511719 17.8125 C 7.511719 17.828125 7.355469 18 7.164062 18.191406 C 6.972656 18.386719 6.816406 18.558594 6.816406 18.574219 C 6.816406 18.609375 7.484375 17.914062 7.519531 17.839844 C 7.5625 17.746094 7.445312 17.703125 7.078125 17.679688 C 6.996094 17.675781 6.957031 17.675781 6.996094 17.679688 M 9.132812 18.105469 C 9.015625 18.25 8.976562 18.335938 8.980469 18.433594 C 8.980469 18.507812 8.984375 18.503906 9 18.402344 C 9.015625 18.324219 9.050781 18.246094 9.121094 18.15625 L 9.222656 18.027344 L 19.054688 18.027344 L 19.105469 18.082031 C 19.132812 18.109375 19.1875 18.183594 19.226562 18.242188 C 19.265625 18.300781 19.296875 18.335938 19.296875 18.324219 C 19.296875 18.289062 19.214844 18.164062 19.132812 18.082031 L 19.0625 18.003906 L 9.21875 18.003906 L 9.132812 18.105469 M 19.300781 18.417969 C 19.292969 18.515625 19.226562 18.644531 19.128906 18.75 L 19.039062 18.839844 L 9.25 18.839844 L 9.1875 18.773438 C 9.152344 18.738281 9.097656 18.667969 9.0625 18.617188 C 9.027344 18.566406 9 18.535156 9 18.546875 C 9 18.578125 9.15625 18.792969 9.210938 18.835938 C 9.242188 18.859375 10.265625 18.863281 14.152344 18.863281 L 19.050781 18.863281 L 19.152344 18.75 C 19.273438 18.617188 19.328125 18.503906 19.3125 18.414062 L 19.304688 18.351562 L 19.300781 18.417969 M 6.820312 18.6875 C 6.820312 18.726562 6.828125 18.785156 6.839844 18.816406 C 6.855469 18.855469 6.855469 18.835938 6.847656 18.757812 C 6.832031 18.621094 6.816406 18.582031 6.820312 18.6875 M 5.101562 18.960938 C 5.089844 19.015625 5.089844 19.066406 5.09375 19.070312 C 5.101562 19.078125 5.113281 19.039062 5.125 18.984375 C 5.132812 18.929688 5.136719 18.878906 5.128906 18.875 C 5.121094 18.867188 5.109375 18.90625 5.101562 18.960938 M 6.867188 18.949219 C 6.867188 18.988281 6.878906 19.046875 6.890625 19.082031 C 6.902344 19.121094 6.90625 19.101562 6.894531 19.019531 C 6.878906 18.886719 6.863281 18.84375 6.867188 18.949219 M 5.054688 19.214844 C 5.042969 19.273438 5.042969 19.328125 5.046875 19.335938 C 5.054688 19.339844 5.066406 19.296875 5.074219 19.234375 C 5.085938 19.171875 5.085938 19.117188 5.082031 19.113281 C 5.074219 19.105469 5.0625 19.152344 5.054688 19.214844 M 5.582031 19.347656 C 5.117188 19.59375 5.0625 19.605469 5.039062 19.453125 C 5.023438 19.363281 5.023438 19.363281 5.019531 19.429688 C 5.007812 19.664062 5.152344 19.625 5.980469 19.160156 C 5.992188 19.152344 6.042969 19.175781 6.5 19.417969 C 6.625 19.484375 6.726562 19.535156 6.734375 19.53125 C 6.738281 19.527344 6.691406 19.496094 6.628906 19.460938 C 6.566406 19.429688 6.417969 19.351562 6.300781 19.289062 C 6.179688 19.222656 6.0625 19.160156 6.035156 19.152344 C 5.996094 19.136719 5.894531 19.179688 5.582031 19.347656 M 6.914062 19.214844 C 6.914062 19.253906 6.925781 19.3125 6.9375 19.34375 C 6.949219 19.382812 6.953125 19.363281 6.945312 19.285156 C 6.929688 19.148438 6.910156 19.109375 6.914062 19.214844 M 6.957031 19.488281 C 6.949219 19.574219 6.910156 19.589844 6.804688 19.546875 C 6.773438 19.535156 6.765625 19.535156 6.777344 19.554688 C 6.839844 19.65625 6.992188 19.605469 6.980469 19.484375 L 6.96875 19.402344 L 6.957031 19.488281 M 0.0859375 23.890625 C 0.136719 23.945312 0.183594 23.988281 0.191406 23.988281 C 0.195312 23.988281 0.160156 23.945312 0.109375 23.890625 C 0.0546875 23.839844 0.0078125 23.796875 0.00390625 23.796875 C -0.00390625 23.796875 0.03125 23.839844 0.0859375 23.890625 "/>
<path style=" stroke:none;fill-rule:evenodd;fill:rgb(54.901961%,54.901961%,54.901961%);fill-opacity:1;" d="M 23.292969 12.019531 C 23.292969 18.160156 23.292969 20.671875 23.296875 17.601562 C 23.300781 14.53125 23.300781 9.503906 23.296875 6.433594 C 23.292969 3.363281 23.292969 5.875 23.292969 12.019531 M 4.824219 5.972656 C 4.894531 6.046875 4.960938 6.105469 4.964844 6.105469 C 4.972656 6.105469 4.917969 6.046875 4.847656 5.972656 C 4.777344 5.902344 4.710938 5.839844 4.707031 5.839844 C 4.699219 5.839844 4.753906 5.902344 4.824219 5.972656 M 5.039062 7.253906 C 5.039062 7.292969 5.046875 7.328125 5.058594 7.335938 C 5.070312 7.339844 5.074219 7.308594 5.070312 7.265625 C 5.054688 7.164062 5.039062 7.15625 5.039062 7.253906 M 6.996094 12.167969 L 6.828125 12.339844 L 7.003906 12.175781 C 7.097656 12.082031 7.175781 12.003906 7.175781 12 C 7.175781 11.984375 7.152344 12.007812 6.996094 12.167969 M 6.449219 23.238281 C 9.527344 23.242188 14.566406 23.242188 17.644531 23.238281 C 20.726562 23.238281 18.207031 23.234375 12.046875 23.234375 C 5.890625 23.234375 3.371094 23.238281 6.449219 23.238281 M 0.0976562 23.878906 C 0.140625 23.925781 0.183594 23.964844 0.1875 23.964844 C 0.195312 23.964844 0.164062 23.925781 0.121094 23.878906 C 0.0742188 23.835938 0.03125 23.796875 0.0273438 23.796875 C 0.0195312 23.796875 0.0507812 23.835938 0.0976562 23.878906 "/>
<path style=" stroke:none;fill-rule:evenodd;fill:rgb(48.627451%,48.627451%,48.627451%);fill-opacity:1;" d="M 6.449219 0.808594 C 9.527344 0.8125 14.566406 0.8125 17.644531 0.808594 C 20.726562 0.804688 18.207031 0.800781 12.046875 0.800781 C 5.890625 0.800781 3.371094 0.804688 6.449219 0.808594 M 0.804688 12.019531 C 0.804688 18.160156 0.804688 20.671875 0.808594 17.601562 C 0.8125 14.53125 0.8125 9.503906 0.808594 6.433594 C 0.804688 3.363281 0.804688 5.875 0.804688 12.019531 M 4.609375 5.757812 C 4.652344 5.804688 4.695312 5.839844 4.703125 5.839844 C 4.707031 5.839844 4.675781 5.804688 4.632812 5.757812 C 4.585938 5.710938 4.546875 5.671875 4.539062 5.671875 C 4.53125 5.671875 4.5625 5.710938 4.609375 5.757812 M 6.984375 6.121094 L 6.898438 6.210938 L 6.988281 6.128906 C 7.074219 6.054688 7.089844 6.03125 7.074219 6.03125 C 7.070312 6.03125 7.027344 6.074219 6.984375 6.121094 M 11.71875 6.816406 C 13.0625 6.820312 15.257812 6.820312 16.59375 6.816406 C 17.925781 6.8125 16.828125 6.8125 14.148438 6.8125 C 11.46875 6.8125 10.375 6.8125 11.71875 6.816406 M 4.933594 12.089844 C 4.996094 12.15625 5.054688 12.210938 5.0625 12.210938 C 5.070312 12.210938 5.019531 12.15625 4.957031 12.089844 C 4.890625 12.023438 4.832031 11.96875 4.824219 11.96875 C 4.820312 11.96875 4.867188 12.023438 4.933594 12.089844 M 11.71875 12.824219 C 13.0625 12.828125 15.257812 12.828125 16.59375 12.824219 C 17.925781 12.824219 16.828125 12.820312 14.148438 12.820312 C 11.46875 12.820312 10.375 12.824219 11.71875 12.824219 M 7.257812 18.082031 L 7.1875 18.160156 L 7.265625 18.089844 C 7.339844 18.023438 7.355469 18.003906 7.335938 18.003906 C 7.332031 18.003906 7.296875 18.039062 7.257812 18.082031 M 4.859375 18.21875 C 4.964844 18.324219 5.054688 18.410156 5.0625 18.410156 C 5.070312 18.410156 4.988281 18.324219 4.882812 18.21875 C 4.777344 18.113281 4.6875 18.027344 4.679688 18.027344 C 4.675781 18.027344 4.753906 18.113281 4.859375 18.21875 M 11.71875 18.835938 C 13.0625 18.839844 15.257812 18.839844 16.59375 18.835938 C 17.925781 18.832031 16.828125 18.828125 14.148438 18.828125 C 11.46875 18.828125 10.375 18.832031 11.71875 18.835938 M 6.9375 19.503906 C 6.9375 19.53125 6.921875 19.558594 6.90625 19.566406 C 6.882812 19.578125 6.882812 19.578125 6.90625 19.582031 C 6.941406 19.582031 6.96875 19.527344 6.953125 19.480469 C 6.945312 19.464844 6.9375 19.476562 6.9375 19.503906 "/>
</g>
</svg>
