<?xml version="1.0" encoding="UTF-8"?>
<svg xmlns="http://www.w3.org/2000/svg" xmlns:xlink="http://www.w3.org/1999/xlink" width="400pt" height="400pt" viewBox="0 0 400 400" version="1.1">
<g id="surface1">
<path style=" stroke:none;fill-rule:evenodd;fill:rgb(3.137255%,3.137255%,3.137255%);fill-opacity:1;" d="M 4.398438 0.515625 C 4.398438 1.164062 1.140625 4.390625 0.484375 4.390625 C 0.105469 4.390625 0 47.078125 0.00390625 200.199219 L 0.00390625 396.011719 L 1.214844 396.695312 C 1.878906 397.074219 2.734375 397.925781 3.113281 398.589844 L 3.800781 399.796875 L 200.667969 399.796875 L 397.539062 399.800781 L 398.769531 398.574219 L 400 397.34375 L 400 200.097656 C 400 3.882812 399.996094 2.847656 399.207031 2.597656 C 398.773438 2.457031 398.105469 1.816406 397.722656 1.171875 L 397.027344 0 L 200.714844 0 C 40.542969 0 4.398438 0.09375 4.398438 0.515625 M 388.027344 13.179688 C 388.984375 13.695312 389.277344 386.394531 388.320312 387.351562 C 387.359375 388.308594 13.726562 388.015625 13.214844 387.058594 C 12.441406 385.621094 12.65625 14.164062 13.429688 13.394531 C 14.199219 12.625 386.585938 12.410156 388.027344 13.179688 M 96.007812 82.578125 C 91.945312 90.675781 92.277344 90.355469 87.199219 91.03125 C 85.550781 91.25 83.121094 91.585938 81.800781 91.78125 C 80.480469 91.972656 78.589844 92.246094 77.601562 92.382812 C 76.609375 92.523438 75.546875 92.714844 75.238281 92.8125 C 74.882812 92.925781 76.660156 94.992188 80.144531 98.527344 C 87.332031 105.808594 87.195312 105.398438 85.609375 114.914062 C 84.285156 122.851562 84.019531 122.609375 90.398438 119.292969 C 92.929688 117.976562 96.117188 116.332031 97.480469 115.632812 L 99.964844 114.359375 L 107.347656 118.128906 C 111.40625 120.199219 114.859375 121.761719 115.023438 121.601562 C 115.1875 121.441406 114.816406 118.300781 114.203125 114.621094 C 113.589844 110.941406 113 107.335938 112.898438 106.609375 C 112.71875 105.363281 113.027344 104.96875 118.628906 99.335938 C 121.886719 96.0625 124.429688 93.261719 124.28125 93.117188 C 124.136719 92.96875 123.066406 92.6875 121.90625 92.492188 C 120.75 92.292969 118.808594 91.957031 117.601562 91.746094 C 116.390625 91.535156 114.078125 91.207031 112.460938 91.015625 C 108.363281 90.535156 107.980469 90.148438 103.945312 82.375 C 102.015625 78.664062 100.257812 75.5625 100.035156 75.488281 C 99.8125 75.417969 98 78.605469 96.007812 82.578125 M 153.148438 101.84375 C 149.964844 105.265625 149.78125 107.570312 152.425781 110.90625 L 154.019531 112.917969 L 317.53125 112.917969 L 318.773438 111.355469 C 321.621094 107.769531 321.621094 105.632812 318.761719 102.394531 L 317.132812 100.546875 L 154.355469 100.546875 L 153.148438 101.84375 M 96.039062 183.144531 C 91.953125 191.875 92.761719 191.171875 86 191.941406 C 77.523438 192.914062 76 193.230469 76 194.039062 C 76 194.28125 78.546875 197.039062 81.65625 200.167969 C 87.296875 205.84375 87.308594 205.863281 87.054688 207.367188 C 86.425781 211.074219 86.011719 213.421875 85.617188 215.460938 C 84.085938 223.433594 83.714844 223.265625 92.921875 218.769531 L 100.042969 215.292969 L 107.425781 218.96875 C 111.484375 220.988281 114.894531 222.644531 115.003906 222.644531 C 115.4375 222.644531 114.761719 217.714844 112.933594 207.613281 C 112.722656 206.429688 113.058594 205.976562 118.152344 200.570312 C 124.808594 193.511719 124.863281 193.148438 119.398438 192.5625 C 116.140625 192.210938 111.117188 191.535156 109.398438 191.214844 L 107.800781 190.914062 L 104 183.441406 C 101.910156 179.332031 100.019531 175.96875 99.800781 175.96875 C 99.578125 175.964844 97.886719 179.195312 96.039062 183.144531 M 153.148438 201.996094 C 149.964844 205.414062 149.78125 207.71875 152.425781 211.054688 L 154.019531 213.066406 L 317.53125 213.066406 L 318.773438 211.507812 C 321.621094 207.917969 321.621094 205.785156 318.761719 202.542969 L 317.132812 200.699219 L 154.355469 200.699219 L 153.148438 201.996094 M 98.765625 280.585938 C 92.535156 292.890625 91.558594 294.464844 90.144531 294.464844 C 89.25 294.464844 87.527344 294.703125 79.816406 295.90625 C 74.828125 296.683594 74.777344 296.4375 81.355469 303.167969 C 84.570312 306.457031 87.199219 309.421875 87.199219 309.757812 C 87.199219 310.089844 87.019531 311.230469 86.800781 312.289062 C 84.679688 322.488281 84.316406 325.585938 85.253906 325.585938 C 85.777344 325.585938 89.230469 323.855469 95.113281 320.648438 C 100.222656 317.863281 99.175781 317.746094 107.355469 321.996094 C 116.445312 326.714844 115.890625 327.039062 114.160156 318.003906 C 113.597656 315.042969 113.035156 311.855469 112.914062 310.925781 L 112.695312 309.238281 L 118.605469 303.222656 C 122.230469 299.53125 124.371094 297.066406 124.140625 296.839844 C 123.746094 296.445312 119.425781 295.660156 113.054688 294.824219 C 107.914062 294.152344 107.882812 294.121094 103.816406 286.089844 C 99.863281 278.292969 99.902344 278.335938 98.765625 280.585938 M 153.148438 302.144531 C 149.964844 305.5625 149.78125 307.871094 152.425781 311.203125 L 154.019531 313.21875 L 317.53125 313.21875 L 318.773438 311.65625 C 321.621094 308.066406 321.621094 305.933594 318.761719 302.695312 L 317.132812 300.847656 L 154.355469 300.847656 L 153.148438 302.144531 "/>
<path style=" stroke:none;fill-rule:evenodd;fill:rgb(98.431373%,98.431373%,98.431373%);fill-opacity:1;" d="M 0 1.878906 L 0 3.757812 L 1.800781 1.996094 C 3.984375 -0.144531 3.984375 0 1.800781 0 L 0 0 L 0 1.878906 M 398.800781 0.996094 C 399.316406 1.546875 399.796875 1.996094 399.871094 1.996094 C 399.941406 1.996094 400 1.546875 400 0.996094 C 400 0.183594 399.804688 0 398.929688 0 L 397.859375 0 L 398.800781 0.996094 M 14.265625 14.230469 C 14.121094 14.378906 14 98.226562 14 200.566406 L 14 386.632812 L 387.601562 386.632812 L 387.601562 13.964844 L 201.066406 13.964844 C 98.472656 13.964844 14.414062 14.085938 14.265625 14.230469 M 104.605469 81.410156 C 108.859375 89.882812 108.535156 89.558594 113.398438 90.207031 C 128 92.152344 127.777344 91.820312 119.800781 99.570312 C 113.277344 105.910156 113.589844 105.226562 114.605469 110.921875 C 117.121094 124.992188 117.492188 124.566406 107.355469 119.300781 C 99.03125 114.976562 100.707031 114.976562 92.5625 119.300781 C 82.664062 124.554688 82.6875 124.578125 85.230469 111.167969 C 86.199219 106.050781 85.515625 104.777344 77.894531 97.542969 C 72.894531 92.796875 72.652344 92.128906 75.804688 91.699219 C 83.070312 90.707031 88.128906 89.957031 90.128906 89.5625 C 91.65625 89.261719 91.667969 89.246094 95.523438 81.539062 C 98.347656 75.902344 99.578125 73.816406 100.09375 73.816406 C 100.605469 73.816406 101.828125 75.875 104.605469 81.410156 M 319.09375 101.246094 C 322.785156 105.191406 322.820312 108.171875 319.21875 112.21875 L 317.53125 114.113281 L 153.960938 114.113281 L 152.574219 112.617188 C 148.808594 108.546875 148.726562 105.75 152.246094 101.464844 L 153.652344 99.75 L 317.691406 99.75 L 319.09375 101.246094 M 104.601562 182.34375 L 108.601562 190.125 L 110.398438 190.429688 C 111.390625 190.59375 113.550781 190.902344 115.199219 191.109375 C 127.222656 192.617188 127.238281 192.660156 119.347656 200.710938 L 113.894531 206.269531 L 114.113281 207.972656 C 114.230469 208.910156 114.804688 212.625 115.382812 216.226562 C 116.828125 225.238281 117.257812 225.007812 107.847656 220.324219 C 99.027344 215.9375 100.582031 216.011719 93.390625 219.648438 C 82.808594 225 82.96875 225.089844 84.738281 214.773438 C 85.445312 210.65625 86.015625 206.925781 86.011719 206.496094 C 86.003906 206.015625 83.816406 203.609375 80.390625 200.3125 C 74.535156 194.675781 74.113281 193.984375 75.859375 192.84375 C 76.902344 192.160156 77.960938 191.957031 84.800781 191.125 C 92.246094 190.222656 91.578125 190.472656 92.59375 188.183594 C 96.355469 179.699219 99.21875 174.308594 99.890625 174.433594 C 100.359375 174.519531 101.953125 177.195312 104.601562 182.34375 M 319.09375 201.398438 C 322.785156 205.339844 322.820312 208.320312 319.21875 212.367188 L 317.53125 214.265625 L 153.960938 214.265625 L 152.574219 212.769531 C 148.808594 208.699219 148.726562 205.898438 152.246094 201.613281 L 153.652344 199.898438 L 317.691406 199.898438 L 319.09375 201.398438 M 104.363281 285.113281 C 108.890625 294.011719 107.808594 293.238281 117.398438 294.449219 C 127.640625 295.746094 127.578125 295.433594 119.28125 304.085938 L 113.6875 309.917969 L 114.445312 314.0625 C 116.761719 326.671875 116.769531 326.78125 115.261719 326.78125 C 114.597656 326.78125 109.183594 324.148438 102.054688 320.355469 C 100.871094 319.726562 99.792969 319.277344 99.652344 319.355469 C 83.582031 328.355469 82.761719 328.375 84.382812 319.691406 C 84.859375 317.117188 85.453125 313.6875 85.695312 312.070312 L 86.136719 309.125 L 83.203125 306.285156 C 78.882812 302.09375 74.398438 297.355469 74.40625 296.984375 C 74.433594 295.59375 77.441406 294.898438 88.601562 293.71875 L 91 293.464844 L 94.402344 286.882812 C 99.160156 277.671875 99.144531 277.703125 99.910156 277.710938 C 100.402344 277.714844 101.6875 279.851562 104.363281 285.113281 M 319.09375 301.546875 C 322.785156 305.492188 322.820312 308.472656 319.21875 312.519531 L 317.53125 314.414062 L 153.960938 314.414062 L 152.574219 312.917969 C 148.808594 308.847656 148.726562 306.050781 152.246094 301.765625 L 153.652344 300.050781 L 317.691406 300.050781 L 319.09375 301.546875 M 0 398.402344 C 0 399.746094 0.0546875 399.800781 1.476562 399.800781 L 2.957031 399.800781 L 1.601562 398.402344 C 0.855469 397.636719 0.1875 397.007812 0.121094 397.007812 C 0.0546875 397.007812 0 397.636719 0 398.402344 M 399.199219 399.203125 C 398.792969 399.691406 398.820312 399.800781 399.351562 399.800781 C 399.707031 399.800781 400 399.53125 400 399.203125 C 400 398.871094 399.933594 398.601562 399.847656 398.601562 C 399.765625 398.601562 399.472656 398.871094 399.199219 399.203125 "/>
<path style=" stroke:none;fill-rule:evenodd;fill:rgb(42.352941%,42.352941%,42.352941%);fill-opacity:1;" d="M 2.15625 2.292969 C 1.03125 3.445312 0.320312 4.390625 0.570312 4.390625 C 1.183594 4.390625 4.53125 0.96875 4.347656 0.535156 C 4.265625 0.351562 3.28125 1.140625 2.15625 2.292969 M 397.199219 0.253906 C 397.199219 0.871094 399.070312 2.792969 399.671875 2.792969 C 399.949219 2.792969 399.785156 2.519531 399.300781 2.179688 C 398.820312 1.84375 398.152344 1.175781 397.8125 0.695312 C 397.476562 0.214844 397.199219 0.015625 397.199219 0.253906 M 13.429688 13.394531 C 12.65625 14.164062 12.441406 385.621094 13.214844 387.058594 C 13.726562 388.015625 387.359375 388.308594 388.320312 387.351562 C 389.277344 386.394531 388.984375 13.695312 388.027344 13.179688 C 386.585938 12.410156 14.199219 12.625 13.429688 13.394531 M 387.625 13.578125 C 388.585938 14.09375 388.878906 385.996094 387.921875 386.953125 C 386.960938 387.910156 14.128906 387.617188 13.613281 386.660156 C 12.84375 385.222656 13.054688 14.566406 13.828125 13.792969 C 14.601562 13.023438 386.183594 12.8125 387.625 13.578125 M 95.839844 82.117188 C 91.609375 90.542969 92.246094 89.929688 87 90.648438 C 85.460938 90.859375 83.121094 91.191406 81.800781 91.386719 C 80.480469 91.582031 78.347656 91.863281 77.066406 92.015625 C 73.710938 92.40625 73.808594 92.648438 79.800781 98.65625 C 86.929688 105.8125 86.800781 105.425781 85.203125 114.914062 C 83.722656 123.71875 83.375 123.601562 94.03125 117.875 C 100.644531 114.320312 99.328125 114.347656 105.492188 117.632812 C 115.867188 123.15625 116.097656 123.195312 115.285156 119.179688 L 114.863281 117.105469 L 115.078125 119.402344 C 115.355469 122.355469 115.695312 122.417969 107.132812 118.027344 L 99.972656 114.355469 L 97.488281 115.628906 C 96.117188 116.328125 92.929688 117.976562 90.398438 119.292969 C 84.019531 122.609375 84.285156 122.851562 85.609375 114.914062 C 87.195312 105.398438 87.332031 105.808594 80.144531 98.527344 C 76.660156 94.992188 74.882812 92.925781 75.238281 92.8125 C 75.546875 92.714844 76.609375 92.523438 77.601562 92.382812 C 78.589844 92.246094 80.480469 91.972656 81.800781 91.78125 C 83.121094 91.585938 85.550781 91.25 87.199219 91.03125 C 92.277344 90.355469 91.945312 90.675781 96.007812 82.578125 C 98 78.605469 99.8125 75.417969 100.035156 75.488281 C 100.257812 75.5625 102.015625 78.664062 103.945312 82.375 C 107.980469 90.148438 108.363281 90.535156 112.460938 91.015625 C 114.078125 91.207031 116.390625 91.535156 117.601562 91.746094 C 118.808594 91.957031 120.75 92.292969 121.90625 92.492188 C 123.066406 92.6875 124.136719 92.96875 124.28125 93.117188 C 124.429688 93.261719 121.90625 96.039062 118.675781 99.289062 C 113.3125 104.683594 112.804688 105.316406 112.847656 106.5625 L 112.890625 107.929688 L 113.1875 106.410156 C 113.433594 105.136719 114.394531 104.007812 119.140625 99.410156 C 126.175781 92.589844 126.160156 92.726562 120 91.78125 C 118.351562 91.527344 116.347656 91.152344 115.554688 90.945312 C 114.757812 90.742188 113.316406 90.574219 112.355469 90.574219 C 108.851562 90.570312 108.242188 89.933594 104.167969 82.007812 C 102.140625 78.066406 100.292969 74.777344 100.058594 74.699219 C 99.824219 74.621094 97.925781 77.960938 95.839844 82.117188 M 153.730469 100.742188 C 152.78125 101.40625 150.390625 104.84375 150.417969 105.503906 C 150.425781 105.742188 150.773438 105.308594 151.1875 104.539062 C 151.601562 103.769531 152.484375 102.558594 153.148438 101.84375 L 154.355469 100.546875 L 317.132812 100.546875 L 318.769531 102.40625 C 319.671875 103.425781 320.570312 104.816406 320.769531 105.496094 C 321.007812 106.3125 321.140625 106.460938 321.160156 105.933594 C 321.203125 104.972656 320.15625 103.203125 318.5 101.445312 L 317.277344 100.148438 L 235.929688 100.148438 C 164.6875 100.148438 154.472656 100.222656 153.730469 100.742188 M 150.027344 106.644531 C 149.980469 107.863281 151.058594 109.96875 152.609375 111.675781 L 154.09375 113.316406 L 317.449219 113.316406 L 318.460938 112.21875 C 320.070312 110.472656 321.199219 108.664062 321.183594 107.867188 C 321.175781 107.410156 320.949219 107.632812 320.585938 108.46875 C 320.269531 109.203125 319.449219 110.503906 318.769531 111.359375 L 317.53125 112.917969 L 154.054688 112.917969 L 152.589844 111.132812 C 151.78125 110.152344 150.882812 108.582031 150.589844 107.640625 C 150.292969 106.703125 150.039062 106.253906 150.027344 106.644531 M 113.480469 109.925781 C 113.609375 111.023438 113.777344 111.996094 113.855469 112.085938 C 114.15625 112.433594 113.929688 109.492188 113.597656 108.726562 C 113.375 108.214844 113.332031 108.640625 113.480469 109.925781 M 114.28125 114.515625 C 114.40625 115.71875 114.574219 116.78125 114.652344 116.875 C 114.933594 117.195312 114.71875 114.304688 114.386719 113.316406 C 114.171875 112.671875 114.132812 113.097656 114.28125 114.515625 M 99.285156 175.660156 C 99.058594 175.933594 97.359375 179.386719 95.507812 183.332031 C 91.691406 191.46875 92.480469 190.773438 86.199219 191.511719 C 72.992188 193.070312 73.164062 192.734375 81.527344 200.523438 L 87 205.621094 L 81.5 200.0625 C 74.21875 192.703125 73.871094 193.332031 86 191.941406 C 92.761719 191.171875 91.953125 191.875 96.039062 183.144531 C 97.886719 179.195312 99.578125 175.964844 99.800781 175.96875 C 100.019531 175.96875 101.910156 179.332031 104 183.441406 L 107.800781 190.914062 L 109.398438 191.214844 C 111.117188 191.535156 116.140625 192.210938 119.398438 192.5625 C 124.863281 193.148438 124.808594 193.511719 118.152344 200.570312 C 112.789062 206.257812 112.710938 206.367188 112.96875 207.8125 C 113.113281 208.617188 113.566406 211.160156 113.976562 213.464844 C 114.386719 215.769531 114.734375 217.207031 114.753906 216.660156 C 114.769531 216.109375 114.523438 214.222656 114.199219 212.46875 C 112.933594 205.539062 112.410156 207.007812 118.285156 201 C 124.175781 194.976562 124.691406 194.261719 123.785156 193.359375 C 123.113281 192.691406 122.605469 192.589844 115.5 191.710938 C 107.519531 190.722656 108.496094 191.53125 103.585938 181.851562 C 100.105469 174.988281 99.984375 174.816406 99.285156 175.660156 M 153.730469 200.890625 C 152.78125 201.554688 150.390625 204.992188 150.417969 205.65625 C 150.425781 205.890625 150.773438 205.457031 151.1875 204.6875 C 151.601562 203.921875 152.484375 202.707031 153.148438 201.996094 L 154.355469 200.699219 L 317.132812 200.699219 L 318.769531 202.554688 C 319.671875 203.574219 320.570312 204.96875 320.769531 205.648438 C 321.007812 206.464844 321.140625 206.613281 321.160156 206.085938 C 321.203125 205.121094 320.15625 203.351562 318.5 201.597656 L 317.277344 200.300781 L 235.929688 200.300781 C 164.6875 200.300781 154.472656 200.375 153.730469 200.890625 M 86.664062 207.28125 C 86.082031 210.769531 85.621094 213.367188 85.214844 215.460938 C 83.582031 223.882812 83.425781 223.804688 92.914062 219.171875 L 100.023438 215.699219 L 107.367188 219.371094 C 116.304688 223.835938 116.515625 223.824219 115.183594 218.851562 C 114.980469 218.085938 114.941406 218.554688 115.085938 220.148438 C 115.351562 223.203125 116.191406 223.332031 107.425781 218.96875 L 100.042969 215.292969 L 92.921875 218.769531 C 84.035156 223.109375 83.976562 223.101562 85.171875 217.734375 C 85.378906 216.8125 85.746094 214.894531 85.992188 213.464844 C 86.234375 212.039062 86.632812 209.953125 86.867188 208.832031 C 87.105469 207.707031 87.21875 206.542969 87.117188 206.238281 C 87.015625 205.933594 86.8125 206.402344 86.664062 207.28125 M 150.027344 206.796875 C 149.980469 208.015625 151.058594 210.117188 152.609375 211.828125 L 154.09375 213.464844 L 317.449219 213.464844 L 318.460938 212.367188 C 320.070312 210.621094 321.199219 208.816406 321.183594 208.019531 C 321.175781 207.558594 320.949219 207.785156 320.585938 208.617188 C 320.269531 209.351562 319.449219 210.652344 318.769531 211.507812 L 317.53125 213.066406 L 154.054688 213.066406 L 152.589844 211.28125 C 151.78125 210.300781 150.882812 208.730469 150.589844 207.792969 C 150.292969 206.851562 150.039062 206.40625 150.027344 206.796875 M 99.292969 279.003906 C 99.070312 279.277344 97.226562 282.703125 95.191406 286.617188 C 93.160156 290.527344 91.296875 293.789062 91.050781 293.855469 C 90.800781 293.925781 88.980469 294.199219 87 294.457031 C 81.730469 295.152344 75.855469 296.101562 75.507812 296.316406 C 74.777344 296.765625 75.515625 297.691406 81.054688 303.296875 C 87.597656 309.917969 87.023438 308.648438 85.996094 314.214844 C 85.753906 315.53125 85.472656 317.328125 85.375 318.203125 C 85.21875 319.640625 85.429688 318.753906 86.792969 312.289062 C 87.015625 311.230469 87.199219 310.089844 87.199219 309.757812 C 87.199219 309.421875 84.570312 306.457031 81.355469 303.167969 C 74.777344 296.4375 74.828125 296.683594 79.816406 295.90625 C 87.539062 294.703125 89.25 294.464844 90.15625 294.464844 C 91.457031 294.464844 91.714844 294.089844 95.800781 286.277344 C 97.78125 282.492188 99.578125 279.328125 99.800781 279.246094 C 100.019531 279.167969 101.765625 282.15625 103.679688 285.886719 C 107.925781 294.164062 107.914062 294.152344 113.027344 294.820312 C 119.425781 295.660156 123.742188 296.441406 124.140625 296.839844 C 124.371094 297.066406 122.25 299.511719 118.65625 303.171875 C 112.179688 309.765625 112.363281 309.386719 113.425781 313.816406 C 114.003906 316.226562 113.972656 315.167969 113.351562 311.242188 L 113.101562 309.664062 L 118.851562 303.636719 C 124.402344 297.820312 125.21875 296.765625 124.515625 296.332031 C 124.136719 296.097656 118.222656 295.121094 113 294.433594 C 108.101562 293.785156 108.195312 293.875 104.035156 285.710938 C 100.367188 278.507812 100.050781 278.066406 99.292969 279.003906 M 153.730469 301.039062 C 152.78125 301.703125 150.390625 305.140625 150.417969 305.804688 C 150.425781 306.039062 150.773438 305.605469 151.1875 304.839844 C 151.601562 304.070312 152.484375 302.859375 153.148438 302.144531 L 154.355469 300.847656 L 317.132812 300.847656 L 318.769531 302.703125 C 319.671875 303.726562 320.570312 305.117188 320.769531 305.796875 C 321.007812 306.613281 321.140625 306.761719 321.160156 306.234375 C 321.203125 305.269531 320.15625 303.5 318.5 301.746094 L 317.277344 300.449219 L 235.929688 300.449219 C 164.6875 300.449219 154.472656 300.523438 153.730469 301.039062 M 150.027344 306.945312 C 149.980469 308.164062 151.058594 310.265625 152.609375 311.976562 L 154.09375 313.617188 L 317.449219 313.617188 L 318.460938 312.519531 C 320.070312 310.769531 321.199219 308.964844 321.183594 308.167969 C 321.175781 307.707031 320.949219 307.933594 320.585938 308.765625 C 320.269531 309.5 319.449219 310.804688 318.769531 311.660156 L 317.53125 313.21875 L 154.054688 313.21875 L 152.589844 311.433594 C 151.78125 310.453125 150.882812 308.878906 150.589844 307.941406 C 150.292969 307.003906 150.039062 306.554688 150.027344 306.945312 M 114.273438 318.203125 C 114.398438 319.300781 114.570312 320.273438 114.652344 320.367188 C 114.933594 320.679688 114.71875 318.203125 114.378906 317.207031 C 114.152344 316.535156 114.117188 316.859375 114.273438 318.203125 M 95.398438 320.460938 C 84.539062 326.496094 84.632812 326.476562 84.894531 322.691406 C 85.007812 321.074219 84.953125 320.152344 84.777344 320.597656 C 84.199219 322.039062 84.339844 325.589844 84.984375 325.835938 C 85.566406 326.058594 88.519531 324.664062 95.558594 320.84375 C 100.101562 318.378906 99.757812 318.390625 103.757812 320.554688 C 115.777344 327.046875 116.996094 327.15625 115.199219 321.597656 C 115.003906 320.992188 114.960938 321.585938 115.09375 323.09375 C 115.375 326.289062 115.714844 326.335938 107.355469 321.996094 C 99.304688 317.8125 100.007812 317.902344 95.398438 320.460938 M 0.929688 397.023438 C 1.5 397.472656 2.335938 398.304688 2.785156 398.871094 C 3.234375 399.441406 3.601562 399.6875 3.601562 399.414062 C 3.601562 398.773438 1.027344 396.210938 0.386719 396.210938 C 0.113281 396.210938 0.359375 396.574219 0.929688 397.023438 M 398.597656 398.605469 C 397.574219 399.734375 398.011719 399.835938 399.085938 398.722656 C 399.574219 398.21875 399.824219 397.804688 399.648438 397.804688 C 399.46875 397.804688 398.996094 398.164062 398.597656 398.605469 "/>
<path style=" stroke:none;fill-rule:evenodd;fill:rgb(63.921569%,63.921569%,63.921569%);fill-opacity:1;" d="M 1.800781 1.996094 C -0.398438 4.222656 -0.398438 4.664062 1.800781 2.738281 C 3.027344 1.664062 4.304688 0 3.898438 0 C 3.828125 0 2.882812 0.898438 1.800781 1.996094 M 397.601562 0.125 C 397.601562 0.195312 398.183594 0.777344 398.898438 1.421875 L 400.199219 2.59375 L 399.023438 1.296875 C 397.929688 0.0859375 397.601562 -0.183594 397.601562 0.125 M 13.785156 14.066406 C 13.679688 14.339844 13.640625 98.324219 13.699219 200.699219 L 13.800781 386.832031 L 387.800781 386.832031 L 387.800781 13.765625 L 200.886719 13.664062 C 51.566406 13.585938 13.9375 13.664062 13.785156 14.066406 M 387.601562 200.300781 L 387.601562 386.632812 L 14 386.632812 L 14 200.566406 C 14 98.226562 14.121094 14.378906 14.265625 14.230469 C 14.414062 14.085938 98.472656 13.964844 201.066406 13.964844 L 387.601562 13.964844 L 387.601562 200.300781 M 95.546875 81.496094 L 91.699219 89.175781 L 89.539062 89.675781 C 88.351562 89.949219 86.753906 90.1875 85.988281 90.203125 C 85.226562 90.21875 84.238281 90.378906 83.800781 90.558594 C 82.699219 91.007812 87.71875 90.558594 89.984375 90.003906 L 91.800781 89.558594 L 95.660156 81.984375 C 97.800781 77.78125 99.757812 74.414062 100.058594 74.414062 C 100.355469 74.414062 102.21875 77.5625 104.199219 81.421875 C 106.179688 85.28125 107.953125 88.65625 108.140625 88.929688 C 108.644531 89.671875 110.277344 90.191406 113.398438 90.605469 C 114.941406 90.808594 117.191406 91.148438 118.398438 91.359375 C 119.609375 91.570312 121.453125 91.863281 122.496094 92.011719 C 126.066406 92.515625 125.945312 92.8125 119.46875 99.28125 C 113.132812 105.613281 112.925781 105.992188 114.003906 109.328125 C 114.195312 109.929688 114.238281 109.332031 114.105469 107.820312 L 113.882812 105.320312 L 119.742188 99.625 C 127.785156 91.8125 128.011719 92.152344 113.398438 90.207031 C 108.535156 89.558594 108.859375 89.882812 104.605469 81.410156 C 101.828125 75.875 100.605469 73.816406 100.09375 73.816406 C 99.578125 73.816406 98.351562 75.890625 95.546875 81.496094 M 78.683594 91.222656 C 78.542969 91.359375 77.390625 91.585938 76.121094 91.722656 C 72.601562 92.101562 72.78125 92.691406 77.894531 97.542969 C 83.792969 103.144531 85.582031 105.496094 85.664062 107.769531 C 85.722656 109.324219 85.746094 109.371094 85.894531 108.175781 C 86.1875 105.753906 85.644531 104.9375 79.742188 98.9375 C 73.367188 92.449219 73.351562 92.414062 76.6875 91.988281 C 77.960938 91.824219 79.898438 91.554688 81 91.386719 L 83 91.085938 L 80.96875 91.027344 C 79.847656 90.996094 78.820312 91.085938 78.683594 91.222656 M 152.246094 101.464844 C 150.289062 103.84375 149.597656 105.304688 149.648438 106.933594 C 149.6875 108.175781 149.730469 108.121094 150.015625 106.410156 C 150.238281 105.085938 150.863281 103.816406 152.019531 102.320312 L 153.695312 100.148438 L 317.570312 100.148438 L 318.433594 101.046875 C 318.910156 101.542969 319.820312 102.742188 320.449219 103.71875 C 321.082031 104.695312 321.597656 105.324219 321.597656 105.113281 C 321.597656 104.515625 320.234375 102.460938 318.902344 101.046875 L 317.679688 99.75 L 153.652344 99.75 L 152.246094 101.464844 M 321.660156 106.671875 C 321.574219 108.304688 320.472656 110.410156 318.785156 112.179688 L 317.324219 113.714844 L 154.148438 113.714844 L 153.117188 112.617188 C 152.546875 112.015625 151.613281 110.824219 151.039062 109.96875 C 150.46875 109.113281 150 108.609375 150 108.84375 C 150 109.347656 152.625 112.910156 153.519531 113.617188 C 154.023438 114.011719 171.09375 114.113281 235.84375 114.113281 L 317.53125 114.113281 L 319.21875 112.21875 C 321.195312 109.996094 322.109375 108.066406 321.882812 106.59375 L 321.71875 105.535156 L 321.660156 106.671875 M 85.03125 112.152344 C 84.882812 113.28125 84.839844 114.289062 84.9375 114.386719 C 85.035156 114.484375 85.246094 113.644531 85.398438 112.519531 C 85.554688 111.394531 85.597656 110.386719 85.492188 110.285156 C 85.390625 110.183594 85.183594 111.023438 85.03125 112.152344 M 114.441406 111.953125 C 114.460938 112.59375 114.632812 113.566406 114.820312 114.113281 C 115.050781 114.785156 115.085938 114.460938 114.929688 113.117188 C 114.667969 110.871094 114.378906 110.183594 114.441406 111.953125 M 84.214844 117.121094 C 84.0625 118.359375 84.015625 119.453125 84.117188 119.554688 C 84.21875 119.65625 84.429688 118.726562 84.585938 117.492188 C 84.738281 116.253906 84.78125 115.160156 84.679688 115.058594 C 84.578125 114.957031 84.371094 115.886719 84.214844 117.121094 M 95.398438 117.375 C 86.847656 122.195312 84.050781 123.132812 83.953125 121.210938 C 83.917969 120.503906 83.863281 120.460938 83.722656 121.015625 C 83.492188 121.886719 84.257812 122.894531 85.148438 122.890625 C 85.507812 122.890625 88.84375 121.273438 92.5625 119.300781 C 100.707031 114.976562 99.03125 114.976562 107.355469 119.300781 C 115.289062 123.421875 116.511719 123.675781 116.375 121.164062 C 116.359375 120.90625 116.1875 121.101562 115.988281 121.597656 C 115.410156 123.027344 113.683594 122.394531 104.441406 117.359375 C 99.855469 114.863281 99.859375 114.863281 95.398438 117.375 M 115.246094 116.542969 C 115.273438 117.292969 115.441406 118.445312 115.621094 119.101562 C 115.835938 119.890625 115.871094 119.480469 115.722656 117.90625 C 115.476562 115.265625 115.171875 114.394531 115.246094 116.542969 M 96.339844 180.21875 C 94.777344 183.472656 93.085938 187.078125 92.574219 188.230469 C 91.730469 190.132812 91.523438 190.328125 90.320312 190.351562 C 89.59375 190.367188 88.640625 190.535156 88.199219 190.726562 C 87.683594 190.949219 88.105469 190.992188 89.398438 190.847656 C 91.992188 190.554688 91.808594 190.796875 95.378906 183.140625 C 98.632812 176.164062 99.402344 174.761719 99.976562 174.761719 C 100.171875 174.761719 102.082031 178.21875 104.21875 182.445312 C 106.355469 186.667969 108.164062 190.191406 108.234375 190.273438 C 108.460938 190.53125 111.648438 191.109375 115.199219 191.539062 C 126.65625 192.917969 126.53125 192.589844 118.699219 200.84375 C 113.277344 206.554688 113.058594 206.980469 114.007812 209.875 C 114.214844 210.5 114.253906 210.015625 114.113281 208.574219 L 113.890625 206.273438 L 119.34375 200.710938 C 127.238281 192.660156 127.222656 192.617188 115.199219 191.109375 C 113.550781 190.902344 111.390625 190.59375 110.398438 190.429688 L 108.601562 190.125 L 104.601562 182.34375 C 99.566406 172.550781 99.96875 172.65625 96.339844 180.21875 M 81.601562 191.519531 C 81.050781 191.695312 79.878906 191.859375 79 191.882812 C 77.113281 191.929688 74.804688 193.207031 74.789062 194.207031 C 74.785156 194.597656 77.300781 197.335938 80.445312 200.363281 L 86.109375 205.816406 L 85.886719 208.34375 C 85.746094 209.941406 85.78125 210.433594 85.984375 209.675781 C 86.914062 206.207031 86.796875 205.980469 81.5 200.871094 C 73.019531 192.695312 72.964844 192.855469 84.800781 191.539062 L 87.398438 191.246094 L 85 191.226562 C 83.679688 191.210938 82.148438 191.34375 81.601562 191.519531 M 152.246094 201.613281 C 150.289062 203.996094 149.597656 205.453125 149.648438 207.082031 C 149.6875 208.328125 149.730469 208.269531 150.015625 206.558594 C 150.238281 205.234375 150.863281 203.964844 152.019531 202.46875 L 153.695312 200.300781 L 317.570312 200.300781 L 318.433594 201.195312 C 318.910156 201.691406 319.820312 202.894531 320.449219 203.867188 C 321.082031 204.84375 321.597656 205.472656 321.597656 205.265625 C 321.597656 204.667969 320.234375 202.609375 318.902344 201.195312 L 317.679688 199.898438 L 153.652344 199.898438 L 152.246094 201.613281 M 321.660156 206.824219 C 321.574219 208.453125 320.472656 210.5625 318.785156 212.332031 L 317.324219 213.867188 L 154.148438 213.867188 L 153.117188 212.769531 C 152.546875 212.164062 151.613281 210.972656 151.039062 210.117188 C 150.46875 209.265625 150 208.757812 150 208.992188 C 150 209.5 152.625 213.058594 153.519531 213.765625 C 154.023438 214.160156 171.09375 214.265625 235.84375 214.265625 L 317.53125 214.265625 L 319.21875 212.367188 C 321.195312 210.148438 322.109375 208.214844 321.882812 206.742188 L 321.71875 205.6875 L 321.660156 206.824219 M 84.640625 215.300781 C 84.246094 217.613281 84 219.585938 84.097656 219.679688 C 84.191406 219.777344 84.59375 217.964844 84.992188 215.652344 C 85.390625 213.34375 85.632812 211.371094 85.535156 211.273438 C 85.4375 211.175781 85.035156 212.988281 84.640625 215.300781 M 114.484375 212.269531 C 114.484375 213.039062 114.625 214.113281 114.800781 214.664062 C 115.25 216.0625 115.265625 214.601562 114.824219 212.46875 L 114.492188 210.871094 L 114.484375 212.269531 M 95.601562 218.109375 C 93.730469 219.121094 90.671875 220.640625 88.800781 221.484375 C 86.929688 222.332031 85.671875 223.027344 86.007812 223.035156 C 86.34375 223.039062 89.476562 221.605469 92.976562 219.851562 C 100.675781 215.984375 99.011719 215.933594 107.820312 220.3125 C 115.542969 224.152344 116.441406 224.339844 116.375 222.097656 L 116.347656 221.246094 L 116.003906 222.105469 C 115.402344 223.589844 115.066406 223.496094 107.800781 219.839844 C 99.519531 215.671875 99.988281 215.738281 95.601562 218.109375 M 115.292969 217.457031 C 115.296875 219.21875 115.890625 221.832031 115.929688 220.25 C 115.941406 219.699219 115.804688 218.535156 115.621094 217.65625 L 115.292969 216.058594 L 115.292969 217.457031 M 83.660156 221.265625 C 83.601562 222.484375 84.191406 223.453125 84.980469 223.429688 C 85.210938 223.421875 85.101562 223.1875 84.734375 222.910156 C 84.367188 222.632812 83.988281 221.875 83.894531 221.226562 L 83.71875 220.050781 L 83.660156 221.265625 M 98.511719 279.003906 C 98.121094 279.714844 96.273438 283.261719 94.402344 286.882812 L 91 293.464844 L 88.601562 293.71875 C 77.441406 294.898438 74.433594 295.59375 74.40625 296.984375 C 74.398438 297.367188 79.050781 302.273438 83.171875 306.234375 L 86.078125 309.027344 L 85.863281 311.421875 C 85.722656 312.972656 85.765625 313.464844 85.984375 312.816406 C 86.988281 309.839844 86.804688 309.511719 80.601562 303.203125 C 73.464844 295.945312 73.503906 296.183594 79.398438 295.324219 C 80.941406 295.101562 83.507812 294.726562 85.105469 294.492188 C 86.707031 294.257812 88.613281 294.066406 89.34375 294.066406 C 91.097656 294.066406 91.355469 293.726562 94.945312 286.683594 C 98.503906 279.707031 99.441406 278.105469 99.980469 278.105469 C 100.199219 278.105469 101.816406 280.933594 103.574219 284.390625 C 108.585938 294.222656 108.164062 293.777344 112.800781 294.167969 C 114.355469 294.300781 114.996094 294.257812 114.398438 294.066406 C 113.851562 293.890625 112.714844 293.726562 111.878906 293.707031 C 108.894531 293.628906 108.417969 293.085938 104.363281 285.117188 C 100.320312 277.171875 99.804688 276.632812 98.511719 279.003906 M 116.601562 294.6875 C 123.234375 295.609375 125.199219 296.113281 125.199219 296.894531 C 125.199219 297.144531 122.589844 299.988281 119.398438 303.214844 C 116.210938 306.441406 113.601562 309.289062 113.601562 309.542969 C 113.601562 310.144531 124.738281 298.539062 125.304688 297.34375 C 126.050781 295.78125 124.113281 295.074219 118 294.6875 C 116.570312 294.59375 115.941406 294.597656 116.601562 294.6875 M 152.246094 301.765625 C 150.289062 304.144531 149.597656 305.601562 149.648438 307.230469 C 149.6875 308.476562 149.730469 308.421875 150.015625 306.707031 C 150.238281 305.386719 150.863281 304.113281 152.019531 302.617188 L 153.695312 300.449219 L 317.570312 300.449219 L 318.433594 301.347656 C 318.910156 301.839844 319.820312 303.042969 320.449219 304.019531 C 321.082031 304.992188 321.597656 305.621094 321.597656 305.414062 C 321.597656 304.816406 320.234375 302.761719 318.902344 301.347656 L 317.679688 300.050781 L 153.652344 300.050781 L 152.246094 301.765625 M 321.660156 306.972656 C 321.574219 308.601562 320.472656 310.710938 318.785156 312.480469 L 317.324219 314.015625 L 154.148438 314.015625 L 153.117188 312.917969 C 152.546875 312.3125 151.613281 311.121094 151.039062 310.269531 C 150.46875 309.414062 150 308.90625 150 309.140625 C 150 309.648438 152.625 313.207031 153.519531 313.914062 C 154.023438 314.308594 171.09375 314.414062 235.84375 314.414062 L 317.53125 314.414062 L 319.21875 312.519531 C 321.195312 310.296875 322.109375 308.367188 321.882812 306.890625 L 321.71875 305.835938 L 321.660156 306.972656 M 113.640625 311.453125 C 113.660156 312.09375 113.832031 313.066406 114.019531 313.617188 C 114.25 314.289062 114.285156 313.964844 114.128906 312.617188 C 113.867188 310.375 113.578125 309.683594 113.640625 311.453125 M 85 316.011719 C 84.847656 316.917969 84.8125 317.75 84.921875 317.859375 C 85.03125 317.96875 85.246094 317.316406 85.398438 316.410156 C 85.554688 315.5 85.589844 314.667969 85.480469 314.558594 C 85.367188 314.449219 85.152344 315.101562 85 316.011719 M 114.441406 315.84375 C 114.460938 316.484375 114.632812 317.457031 114.820312 318.003906 C 115.050781 318.675781 115.085938 318.351562 114.929688 317.007812 C 114.667969 314.761719 114.378906 314.074219 114.441406 315.84375 M 84.21875 320.21875 C 84.066406 321.234375 84.023438 322.148438 84.121094 322.25 C 84.222656 322.347656 84.429688 321.597656 84.582031 320.582031 C 84.734375 319.5625 84.777344 318.648438 84.679688 318.546875 C 84.578125 318.449219 84.371094 319.199219 84.21875 320.21875 M 93.007812 322.449219 C 85.28125 326.566406 84.347656 326.746094 83.957031 324.191406 C 83.734375 322.734375 83.707031 322.707031 83.65625 323.855469 C 83.480469 327.746094 85.875 327.074219 99.652344 319.355469 C 99.902344 319.214844 100.722656 319.621094 108.339844 323.660156 C 110.394531 324.75 112.140625 325.578125 112.21875 325.503906 C 112.292969 325.425781 111.511719 324.917969 110.480469 324.378906 C 109.445312 323.839844 106.980469 322.523438 105 321.453125 C 103.019531 320.382812 101.023438 319.367188 100.5625 319.191406 C 99.910156 318.941406 98.210938 319.675781 93.007812 322.449219 M 115.238281 320.230469 C 115.261719 320.871094 115.433594 321.84375 115.621094 322.394531 C 115.847656 323.066406 115.882812 322.742188 115.726562 321.398438 C 115.46875 319.152344 115.179688 318.460938 115.238281 320.230469 M 115.980469 324.789062 C 115.789062 326.25 115.160156 326.496094 113.433594 325.773438 C 112.917969 325.554688 112.757812 325.59375 112.9375 325.886719 C 113.996094 327.589844 116.527344 326.726562 116.308594 324.738281 L 116.160156 323.390625 L 115.980469 324.789062 M 1.398438 398.203125 C 2.257812 399.082031 3.050781 399.800781 3.160156 399.800781 C 3.273438 399.800781 2.660156 399.082031 1.800781 398.203125 C 0.941406 397.328125 0.148438 396.609375 0.0390625 396.609375 C -0.0703125 396.609375 0.539062 397.328125 1.398438 398.203125 "/>
<path style=" stroke:none;fill-rule:evenodd;fill:rgb(54.901961%,54.901961%,54.901961%);fill-opacity:1;" d="M 388.199219 200.300781 C 388.199219 302.671875 388.242188 344.554688 388.300781 293.367188 C 388.355469 242.179688 388.355469 158.417969 388.300781 107.230469 C 388.242188 56.042969 388.199219 97.925781 388.199219 200.300781 M 80.398438 99.550781 C 81.59375 100.757812 82.664062 101.746094 82.773438 101.746094 C 82.882812 101.746094 81.996094 100.757812 80.800781 99.550781 C 79.605469 98.34375 78.535156 97.355469 78.425781 97.355469 C 78.316406 97.355469 79.203125 98.34375 80.398438 99.550781 M 84 120.875 C 84 121.519531 84.140625 122.136719 84.316406 122.242188 C 84.488281 122.351562 84.5625 121.824219 84.472656 121.070312 C 84.277344 119.390625 84 119.277344 84 120.875 M 116.589844 202.792969 L 113.800781 205.6875 L 116.699219 202.902344 C 118.296875 201.375 119.601562 200.070312 119.601562 200.011719 C 119.601562 199.71875 119.179688 200.105469 116.589844 202.792969 M 107.5 387.332031 C 158.816406 387.386719 242.785156 387.386719 294.101562 387.332031 C 345.414062 387.277344 303.429688 387.230469 200.800781 387.230469 C 98.171875 387.230469 56.183594 387.277344 107.5 387.332031 M 1.601562 398.003906 C 2.347656 398.773438 3.046875 399.402344 3.15625 399.402344 C 3.265625 399.402344 2.746094 398.773438 2 398.003906 C 1.253906 397.238281 0.554688 396.609375 0.441406 396.609375 C 0.332031 396.609375 0.855469 397.238281 1.601562 398.003906 "/>
<path style=" stroke:none;fill-rule:evenodd;fill:rgb(48.627451%,48.627451%,48.627451%);fill-opacity:1;" d="M 107.5 13.464844 C 158.816406 13.523438 242.785156 13.523438 294.101562 13.464844 C 345.414062 13.410156 303.429688 13.363281 200.800781 13.363281 C 98.171875 13.363281 56.183594 13.410156 107.5 13.464844 M 13.398438 200.300781 C 13.398438 302.671875 13.445312 344.554688 13.5 293.367188 C 13.554688 242.179688 13.554688 158.417969 13.5 107.230469 C 13.445312 56.042969 13.398438 97.925781 13.398438 200.300781 M 76.800781 95.960938 C 77.546875 96.726562 78.246094 97.355469 78.355469 97.355469 C 78.46875 97.355469 77.945312 96.726562 77.199219 95.960938 C 76.453125 95.191406 75.753906 94.5625 75.644531 94.5625 C 75.53125 94.5625 76.054688 95.191406 76.800781 95.960938 M 116.378906 102.042969 L 115 103.542969 L 116.5 102.167969 C 117.894531 100.886719 118.183594 100.546875 117.878906 100.546875 C 117.8125 100.546875 117.136719 101.222656 116.378906 102.042969 M 195.332031 113.617188 C 217.734375 113.671875 254.273438 113.671875 276.53125 113.617188 C 298.789062 113.558594 280.460938 113.511719 235.800781 113.511719 C 191.140625 113.511719 172.929688 113.558594 195.332031 113.617188 M 82.199219 201.496094 C 83.28125 202.59375 84.261719 203.492188 84.371094 203.492188 C 84.480469 203.492188 83.683594 202.59375 82.601562 201.496094 C 81.515625 200.398438 80.539062 199.5 80.429688 199.5 C 80.320312 199.5 81.117188 200.398438 82.199219 201.496094 M 195.332031 213.765625 C 217.734375 213.824219 254.273438 213.824219 276.53125 213.765625 C 298.789062 213.707031 280.460938 213.660156 235.800781 213.660156 C 191.140625 213.660156 172.929688 213.707031 195.332031 213.765625 M 120.976562 301.347656 L 119.800781 302.644531 L 121.101562 301.472656 C 122.3125 300.378906 122.585938 300.050781 122.273438 300.050781 C 122.207031 300.050781 121.621094 300.632812 120.976562 301.347656 M 81 303.640625 C 82.75 305.398438 84.269531 306.832031 84.382812 306.832031 C 84.492188 306.832031 83.148438 305.398438 81.398438 303.640625 C 79.648438 301.886719 78.128906 300.449219 78.019531 300.449219 C 77.910156 300.449219 79.25 301.886719 81 303.640625 M 195.332031 313.914062 C 217.734375 313.972656 254.273438 313.972656 276.53125 313.914062 C 298.789062 313.859375 280.460938 313.8125 235.800781 313.8125 C 191.140625 313.8125 172.929688 313.859375 195.332031 313.914062 M 115.632812 325.054688 C 115.613281 325.527344 115.375 326.007812 115.101562 326.121094 C 114.707031 326.277344 114.710938 326.328125 115.113281 326.351562 C 115.71875 326.390625 116.160156 325.425781 115.867188 324.703125 C 115.757812 324.421875 115.648438 324.578125 115.632812 325.054688 "/>
</g>
</svg>
