<?xml version="1.0" encoding="UTF-8"?>
<svg xmlns="http://www.w3.org/2000/svg" xmlns:xlink="http://www.w3.org/1999/xlink" width="300pt" height="300pt" viewBox="0 0 300 300" version="1.1">
<g id="surface1">
<path style=" stroke:none;fill-rule:evenodd;fill:rgb(98.431373%,98.431373%,98.431373%);fill-opacity:1;" d="M 0 1.527344 C 0 2.738281 0.0898438 3.023438 0.433594 2.890625 C 0.726562 2.78125 0.8125 2.867188 0.703125 3.15625 C 0.609375 3.394531 0.414062 3.589844 0.269531 3.589844 C -0.253906 3.589844 -0.0703125 296.53125 0.449219 297.050781 C 1.027344 297.628906 1.027344 298.085938 0.449219 297.863281 C 0.101562 297.730469 0 297.933594 0 298.769531 C 0 299.835938 0.015625 299.851562 1.238281 299.851562 C 2.300781 299.851562 2.421875 299.789062 2.101562 299.402344 C 1.605469 298.808594 2.210938 298.808594 2.808594 299.402344 C 3.207031 299.800781 20.03125 299.851562 150.609375 299.851562 L 297.960938 299.851562 L 298.980469 298.832031 L 300 297.816406 L 300 150.234375 C 300 19.449219 299.949219 2.601562 299.550781 2.203125 C 298.953125 1.605469 298.953125 1.003906 299.550781 1.496094 C 299.933594 1.8125 300 1.730469 300 0.933594 C 300 0.132812 299.890625 0 299.230469 0 C 298.589844 0 298.492188 0.101562 298.65625 0.617188 C 298.835938 1.179688 298.796875 1.199219 298.226562 0.84375 C 297.882812 0.628906 297.601562 0.351562 297.601562 0.226562 C 297.601562 0.101562 231.449219 0 150.601562 0 C 64.542969 0 3.601562 0.109375 3.601562 0.265625 C 3.601562 0.414062 3.402344 0.609375 3.164062 0.699219 C 2.875 0.8125 2.785156 0.722656 2.898438 0.433594 C 3.03125 0.0898438 2.746094 0 1.53125 0 L 0 0 L 0 1.527344 M 291.429688 9.746094 C 292.152344 10.46875 292.152344 289.980469 291.429688 290.703125 C 290.707031 291.421875 10.496094 291.421875 9.773438 290.703125 C 9.027344 289.957031 9.050781 10.644531 9.796875 9.824219 C 10.511719 9.035156 290.636719 8.957031 291.429688 9.746094 M 74.296875 58.128906 C 74.070312 58.5 72.90625 60.6875 71.710938 62.992188 C 70.515625 65.296875 69.316406 67.316406 69.046875 67.480469 C 67.808594 68.222656 65.726562 68.828125 64.40625 68.828125 C 63.609375 68.828125 62.675781 68.980469 62.328125 69.164062 C 61.980469 69.351562 60.929688 69.484375 59.996094 69.464844 C 57.34375 69.402344 56.695312 70.285156 58.355469 71.6875 C 61.453125 74.304688 62.488281 75.3125 62.898438 76.101562 C 63.140625 76.570312 63.804688 77.558594 64.371094 78.300781 C 65.5 79.777344 65.667969 80.882812 64.917969 81.949219 C 64.5625 82.453125 64.488281 82.976562 64.636719 83.945312 C 64.78125 84.917969 64.703125 85.453125 64.339844 86.007812 C 64 86.527344 63.910156 87.046875 64.050781 87.6875 C 64.171875 88.226562 64.101562 88.992188 63.886719 89.503906 C 63.683594 89.992188 63.609375 90.480469 63.714844 90.589844 C 63.953125 90.828125 66.753906 89.886719 67.800781 89.21875 C 69.183594 88.332031 74.464844 85.886719 74.992188 85.886719 C 75.71875 85.886719 80.039062 87.890625 81.226562 88.777344 C 82.261719 89.554688 85.039062 90.507812 85.472656 90.242188 C 86.015625 89.90625 86.148438 87.441406 85.667969 86.519531 C 85.386719 85.972656 85.277344 85.28125 85.386719 84.730469 C 85.496094 84.179688 85.40625 83.605469 85.144531 83.234375 C 84.863281 82.832031 84.742188 81.933594 84.78125 80.527344 L 84.835938 78.421875 L 88.394531 74.652344 C 90.347656 72.582031 91.992188 70.769531 92.042969 70.625 C 92.285156 69.953125 89.457031 69.226562 85.800781 69.019531 C 84.453125 68.941406 82.714844 68.480469 81.300781 67.816406 C 80.761719 67.566406 79.871094 66.152344 78.148438 62.820312 C 74.988281 56.703125 75.097656 56.835938 74.296875 58.128906 M 115.726562 76.085938 C 115.066406 76.589844 112.800781 79.65625 112.800781 80.042969 C 112.804688 80.574219 114.410156 82.777344 115.394531 83.601562 L 116.335938 84.390625 L 237.789062 84.390625 L 238.546875 83.566406 C 241.136719 80.753906 241.101562 79.277344 238.371094 76.234375 C 237.757812 75.550781 116.613281 75.402344 115.726562 76.085938 M 72.253906 137.878906 C 69.207031 144.101562 69.34375 143.941406 67.214844 143.941406 C 66.28125 143.941406 65.359375 144.097656 65.167969 144.292969 C 64.949219 144.507812 64 144.625 62.726562 144.589844 C 61.578125 144.558594 60.554688 144.667969 60.453125 144.835938 C 60.347656 145 59.75 145.136719 59.117188 145.136719 C 56.828125 145.136719 56.921875 145.820312 59.570312 148.320312 C 60.878906 149.554688 62.453125 150.890625 63.066406 151.292969 C 64.882812 152.46875 65.179688 153.152344 64.972656 155.671875 C 64.871094 156.871094 64.757812 158.664062 64.71875 159.652344 C 64.675781 160.636719 64.472656 161.753906 64.257812 162.125 C 64.046875 162.5 63.964844 162.953125 64.074219 163.128906 C 64.183594 163.308594 64.101562 163.980469 63.890625 164.621094 C 63.675781 165.261719 63.589844 165.875 63.699219 165.984375 C 64.082031 166.367188 67.957031 164.875 72.046875 162.773438 C 74.976562 161.269531 74.660156 161.230469 79.839844 163.691406 C 85.375 166.316406 85.53125 166.339844 85.882812 164.617188 C 86.082031 163.660156 86.046875 163.085938 85.757812 162.523438 C 85.539062 162.09375 85.335938 161.003906 85.304688 160.101562 C 85.273438 159.195312 85.15625 157.878906 85.042969 157.175781 C 84.679688 154.9375 85.058594 153.980469 87.101562 151.941406 C 91.84375 147.207031 92.785156 145.585938 90.976562 145.261719 C 90.355469 145.148438 89.699219 144.941406 89.519531 144.796875 C 89.335938 144.652344 88.285156 144.5625 87.1875 144.589844 C 85.980469 144.625 85.046875 144.507812 84.835938 144.292969 C 84.640625 144.097656 83.71875 143.941406 82.785156 143.941406 C 80.648438 143.941406 80.769531 144.082031 77.765625 137.878906 C 76.429688 135.125 75.195312 132.867188 75.023438 132.867188 C 74.851562 132.867188 73.605469 135.125 72.253906 137.878906 M 115.726562 151.195312 C 115.09375 151.683594 112.800781 154.761719 112.800781 155.128906 C 112.800781 155.613281 114.53125 158.128906 115.507812 159.058594 L 116.4375 159.949219 L 176.195312 160.035156 C 209.058594 160.082031 236.386719 160.042969 236.917969 159.949219 C 238.046875 159.746094 240.605469 156.496094 240.59375 155.273438 C 240.589844 154.601562 239.390625 152.484375 238.371094 151.347656 C 237.757812 150.664062 116.613281 150.515625 115.726562 151.195312 M 74.003906 211.03125 C 73.765625 211.410156 72.78125 213.460938 71.8125 215.585938 C 69.390625 220.902344 68.839844 221.445312 65.90625 221.445312 C 64.65625 221.445312 63.550781 221.582031 63.449219 221.746094 C 63.347656 221.910156 62.457031 222.042969 61.472656 222.042969 C 59.679688 222.042969 58.199219 222.632812 58.199219 223.347656 C 58.199219 223.53125 59.746094 225.234375 61.640625 227.128906 L 65.078125 230.574219 L 65.144531 232.667969 C 65.183594 233.914062 65.054688 235.046875 64.828125 235.464844 C 64.621094 235.851562 64.53125 236.492188 64.628906 236.886719 C 64.734375 237.300781 64.613281 237.996094 64.351562 238.503906 C 64.085938 239.007812 63.964844 239.707031 64.066406 240.113281 C 64.171875 240.53125 64.039062 241.234375 63.753906 241.789062 C 63.21875 242.820312 63.324219 243.589844 64.003906 243.589844 C 64.675781 243.589844 69.949219 241.0625 72.078125 239.726562 C 74.585938 238.144531 74.277344 238.09375 80.308594 241.046875 C 85.898438 243.785156 86.605469 244.007812 86.25 242.917969 C 86.128906 242.546875 86.050781 241.722656 86.074219 241.089844 C 86.097656 240.453125 85.957031 239.742188 85.761719 239.503906 C 85.566406 239.269531 85.421875 238.59375 85.445312 238.007812 C 85.464844 237.417969 85.339844 236.671875 85.164062 236.339844 C 84.988281 236.011719 84.796875 234.796875 84.742188 233.644531 L 84.636719 231.542969 L 86.863281 229.113281 C 91.257812 224.308594 92.195312 223.238281 92.074219 223.148438 C 90.875 222.285156 90.105469 222.042969 88.527344 222.042969 C 87.542969 222.042969 86.652344 221.910156 86.550781 221.746094 C 86.449219 221.582031 85.574219 221.445312 84.609375 221.445312 C 81.414062 221.445312 80.429688 220.777344 78.878906 217.546875 C 75.226562 209.933594 74.933594 209.542969 74.003906 211.03125 M 115.726562 226.308594 C 115.09375 226.796875 112.800781 229.875 112.800781 230.238281 C 112.800781 230.722656 114.53125 233.238281 115.507812 234.171875 L 116.4375 235.0625 L 176.195312 235.148438 C 209.058594 235.195312 236.386719 235.15625 236.917969 235.0625 C 238.046875 234.859375 240.605469 231.609375 240.59375 230.386719 C 240.589844 229.714844 239.390625 227.597656 238.371094 226.457031 C 237.757812 225.777344 116.613281 225.628906 115.726562 226.308594 M 299.398438 299.402344 C 299.09375 299.769531 299.113281 299.851562 299.511719 299.851562 C 299.78125 299.851562 300 299.648438 300 299.402344 C 300 299.15625 299.949219 298.953125 299.886719 298.953125 C 299.824219 298.953125 299.605469 299.15625 299.398438 299.402344 "/>
<path style=" stroke:none;fill-rule:evenodd;fill:rgb(1.568627%,1.568627%,1.568627%);fill-opacity:1;" d="M 10.859375 10.832031 C 10.292969 11.398438 10.339844 289.171875 10.90625 289.640625 C 11.207031 289.886719 47.960938 289.957031 150.929688 289.898438 L 290.550781 289.824219 L 290.625 150.390625 C 290.6875 39.042969 290.625 10.910156 290.324219 10.71875 C 289.667969 10.304688 11.277344 10.414062 10.859375 10.832031 M 77.699219 59.171875 C 78.773438 61.324219 79.859375 63.332031 80.117188 63.636719 C 80.375 63.941406 80.835938 64.765625 81.140625 65.46875 C 81.542969 66.390625 81.914062 66.789062 82.472656 66.90625 C 82.902344 66.996094 83.519531 67.226562 83.851562 67.414062 C 84.179688 67.605469 85.191406 67.792969 86.101562 67.835938 C 88.996094 67.957031 91.023438 68.253906 91.996094 68.699219 C 92.515625 68.933594 93.140625 69.128906 93.386719 69.128906 C 93.84375 69.128906 94.199219 69.730469 94.199219 70.503906 C 94.199219 70.742188 93.480469 71.640625 92.601562 72.5 C 91.722656 73.359375 89.886719 75.246094 88.523438 76.6875 L 86.046875 79.3125 L 86.203125 81.027344 C 86.289062 81.972656 86.519531 83.550781 86.710938 84.539062 C 86.902344 85.527344 87.082031 87.007812 87.105469 87.832031 C 87.132812 88.652344 87.339844 89.769531 87.570312 90.3125 C 88.039062 91.433594 87.65625 92.769531 86.863281 92.769531 C 86.617188 92.769531 83.925781 91.554688 80.882812 90.074219 C 74.265625 86.851562 75.6875 86.890625 69.75 89.777344 C 64.75 92.207031 63.433594 92.558594 62.570312 91.699219 C 62.003906 91.132812 61.976562 90.558594 62.464844 89.679688 C 62.667969 89.320312 62.859375 88.285156 62.894531 87.382812 C 62.984375 85.109375 63.441406 82.332031 63.925781 81.175781 C 64.308594 80.257812 64.28125 80.160156 63.398438 79.230469 C 62.886719 78.695312 62.253906 77.835938 61.996094 77.320312 C 61.738281 76.808594 60.035156 75.003906 58.210938 73.316406 C 54.71875 70.074219 54.175781 69.128906 55.808594 69.128906 C 56.3125 69.128906 57.058594 68.90625 57.46875 68.636719 C 58.019531 68.277344 58.605469 68.195312 59.675781 68.320312 C 60.691406 68.441406 61.304688 68.363281 61.691406 68.070312 C 62 67.839844 62.914062 67.644531 63.730469 67.640625 C 65.058594 67.632812 66.144531 67.398438 67.949219 66.734375 C 68.339844 66.59375 69.53125 64.609375 71.34375 61.09375 C 75.15625 53.695312 74.996094 53.742188 77.699219 59.171875 M 238.5 74.8125 C 239.621094 75.128906 241.65625 77.917969 241.996094 79.601562 C 242.195312 80.605469 241.03125 82.996094 239.601562 84.503906 L 238.578125 85.585938 L 115.683594 85.585938 L 114.574219 84.820312 C 112.855469 83.632812 111.429688 80.753906 111.855469 79.339844 C 112.304688 77.867188 114.277344 75.214844 115.199219 74.855469 C 116.234375 74.449219 237.066406 74.410156 238.5 74.8125 M 75.675781 131.296875 C 75.933594 131.585938 77.316406 134.175781 78.742188 137.058594 C 81.789062 143.203125 81.53125 142.875 83.234375 142.785156 C 83.988281 142.746094 84.96875 142.917969 85.46875 143.175781 C 86.089844 143.496094 86.773438 143.578125 87.722656 143.449219 C 88.589844 143.328125 89.441406 143.410156 90.066406 143.667969 C 90.605469 143.890625 91.320312 144.039062 91.652344 143.996094 C 92.597656 143.871094 93.398438 144.640625 93.398438 145.675781 C 93.398438 146.75 92.007812 148.664062 88.417969 152.519531 L 86.046875 155.066406 L 86.238281 156.609375 C 86.34375 157.460938 86.464844 158.769531 86.503906 159.519531 C 86.546875 160.269531 86.757812 161.316406 86.976562 161.84375 C 87.210938 162.398438 87.304688 163.257812 87.199219 163.882812 C 87.089844 164.570312 87.1875 165.28125 87.472656 165.828125 C 88.964844 168.707031 86.292969 168.335938 78.371094 164.558594 C 74.601562 162.761719 73.644531 162.753906 71.636719 164.511719 C 71.355469 164.757812 70.277344 165.265625 69.238281 165.640625 C 68.199219 166.015625 66.4375 166.6875 65.320312 167.132812 C 62.492188 168.261719 61.46875 167.484375 62.40625 164.917969 C 62.621094 164.324219 62.839844 163.300781 62.886719 162.644531 C 62.933594 161.984375 63.121094 160.503906 63.300781 159.351562 C 63.476562 158.199219 63.699219 156.535156 63.792969 155.652344 L 63.960938 154.050781 L 61.605469 151.828125 C 60.308594 150.605469 58.875 149.402344 58.417969 149.15625 C 55.328125 147.484375 55.09375 143.804688 58.089844 143.976562 C 58.726562 144.015625 59.578125 143.871094 59.976562 143.65625 C 60.453125 143.398438 61.273438 143.324219 62.375 143.4375 C 63.585938 143.558594 64.210938 143.488281 64.632812 143.175781 C 64.96875 142.925781 65.890625 142.742188 66.8125 142.742188 L 68.40625 142.742188 L 69.03125 141.320312 C 71.632812 135.410156 74.191406 130.773438 74.851562 130.773438 C 75.046875 130.773438 75.417969 131.007812 75.675781 131.296875 M 238.5 149.925781 C 239.621094 150.242188 241.65625 153.03125 241.996094 154.714844 C 242.203125 155.753906 240.992188 158.167969 239.449219 159.785156 L 238.292969 160.996094 L 115.917969 160.996094 L 114.703125 160.105469 C 112.867188 158.761719 111.421875 155.886719 111.855469 154.453125 C 112.304688 152.976562 114.277344 150.328125 115.199219 149.964844 C 116.234375 149.5625 237.066406 149.519531 238.5 149.925781 M 78.539062 213.664062 C 81.671875 219.878906 81.992188 220.214844 84.84375 220.238281 C 85.722656 220.242188 86.714844 220.394531 87.050781 220.574219 C 87.386719 220.753906 88.425781 220.941406 89.355469 220.992188 C 93.777344 221.222656 95.617188 222.246094 94.007812 223.578125 C 93.734375 223.800781 91.804688 225.804688 89.710938 228.027344 L 85.914062 232.070312 L 86.148438 233.867188 C 86.273438 234.851562 86.519531 236.433594 86.691406 237.382812 C 87.320312 240.882812 87.578125 242.269531 87.765625 243.183594 C 88.066406 244.644531 87.464844 245.496094 86.296875 245.261719 C 85.164062 245.035156 77.984375 241.691406 76.503906 240.699219 C 75.058594 239.730469 74.539062 239.804688 72.007812 241.363281 C 65.078125 245.625 60.238281 245.824219 62.421875 241.757812 C 62.597656 241.429688 62.789062 240.53125 62.847656 239.757812 C 62.910156 238.984375 63.105469 237.613281 63.289062 236.707031 C 63.46875 235.804688 63.695312 234.308594 63.792969 233.390625 L 63.964844 231.722656 L 62.207031 229.761719 C 61.242188 228.683594 59.335938 226.761719 57.976562 225.492188 C 54.34375 222.101562 54.84375 221.25 60.605469 221.011719 C 61.519531 220.972656 62.578125 220.773438 62.960938 220.570312 C 63.34375 220.367188 64.351562 220.226562 65.203125 220.261719 C 66.054688 220.296875 66.960938 220.308594 67.21875 220.285156 C 67.730469 220.246094 69.601562 217.777344 69.601562 217.140625 C 69.601562 216.386719 72.84375 210.160156 73.8125 209.058594 C 75.277344 207.394531 75.476562 207.585938 78.539062 213.664062 M 238.5 225.039062 C 239.621094 225.355469 241.65625 228.144531 241.996094 229.828125 C 242.203125 230.867188 240.992188 233.277344 239.449219 234.898438 L 238.292969 236.109375 L 115.917969 236.109375 L 114.703125 235.21875 C 112.867188 233.871094 111.421875 231 111.855469 229.566406 C 112.304688 228.089844 114.277344 225.4375 115.199219 225.078125 C 116.234375 224.671875 237.066406 224.632812 238.5 225.039062 "/>
<path style=" stroke:none;fill-rule:evenodd;fill:rgb(36.862745%,36.862745%,36.862745%);fill-opacity:1;" d="M 10.339844 10.546875 C 10.261719 10.753906 10.230469 73.742188 10.273438 150.523438 L 10.351562 290.125 L 150.449219 290.199219 C 281.90625 290.273438 290.574219 290.246094 290.925781 289.769531 C 291.417969 289.101562 291.480469 11.671875 290.988281 10.753906 C 290.597656 10.023438 10.617188 9.816406 10.339844 10.546875 M 290.324219 10.71875 C 290.625 10.910156 290.6875 39.042969 290.625 150.390625 L 290.550781 289.824219 L 150.929688 289.898438 C 47.960938 289.957031 11.207031 289.886719 10.90625 289.640625 C 10.339844 289.171875 10.292969 11.398438 10.859375 10.832031 C 11.277344 10.414062 289.667969 10.304688 290.324219 10.71875 M 74.644531 55.375 C 74.367188 55.539062 72.878906 58.109375 71.34375 61.09375 C 69.53125 64.609375 68.339844 66.59375 67.949219 66.734375 C 66.144531 67.398438 65.058594 67.632812 63.730469 67.640625 C 62.914062 67.644531 62 67.839844 61.691406 68.070312 C 61.304688 68.363281 60.691406 68.441406 59.675781 68.320312 C 58.605469 68.195312 58.019531 68.277344 57.46875 68.636719 C 57.058594 68.90625 56.3125 69.128906 55.808594 69.128906 C 54.175781 69.128906 54.71875 70.074219 58.210938 73.316406 C 60.035156 75.003906 61.738281 76.808594 61.996094 77.320312 C 62.253906 77.835938 62.886719 78.695312 63.398438 79.230469 C 64.28125 80.160156 64.308594 80.257812 63.925781 81.175781 C 63.441406 82.332031 62.984375 85.109375 62.894531 87.382812 C 62.859375 88.285156 62.667969 89.320312 62.464844 89.679688 C 61.976562 90.558594 62.003906 91.132812 62.570312 91.699219 C 63.433594 92.558594 64.75 92.207031 69.75 89.777344 C 75.6875 86.890625 74.265625 86.851562 80.882812 90.074219 C 83.925781 91.554688 86.617188 92.769531 86.863281 92.769531 C 87.65625 92.769531 88.039062 91.433594 87.570312 90.3125 C 87.339844 89.769531 87.132812 88.652344 87.105469 87.832031 C 87.082031 87.007812 86.902344 85.527344 86.710938 84.539062 C 86.519531 83.550781 86.289062 81.972656 86.203125 81.027344 L 86.046875 79.3125 L 88.523438 76.6875 C 89.886719 75.246094 91.722656 73.359375 92.601562 72.5 C 93.480469 71.640625 94.199219 70.742188 94.199219 70.503906 C 94.199219 69.730469 93.84375 69.128906 93.386719 69.128906 C 93.140625 69.128906 92.515625 68.933594 91.996094 68.699219 C 91.023438 68.253906 88.996094 67.957031 86.101562 67.835938 C 85.191406 67.792969 84.179688 67.605469 83.851562 67.414062 C 83.519531 67.226562 82.902344 66.996094 82.472656 66.90625 C 81.914062 66.789062 81.542969 66.390625 81.140625 65.46875 C 80.835938 64.765625 80.375 63.941406 80.117188 63.636719 C 79.859375 63.332031 78.773438 61.324219 77.699219 59.171875 C 75.683594 55.121094 75.492188 54.882812 74.644531 55.375 M 77.367188 59.476562 C 79.972656 64.675781 81.320312 67.066406 81.707031 67.15625 C 81.894531 67.203125 82.523438 67.414062 83.101562 67.625 C 83.675781 67.839844 84.960938 68.125 85.949219 68.261719 C 95.160156 69.539062 94.964844 69.210938 89.726562 74.691406 L 85.855469 78.742188 L 85.652344 80.488281 C 85.527344 81.570312 85.570312 82.46875 85.773438 82.84375 C 85.953125 83.179688 86.101562 83.992188 86.101562 84.652344 C 86.101562 85.3125 86.234375 85.933594 86.398438 86.035156 C 86.566406 86.136719 86.699219 86.976562 86.699219 87.902344 C 86.699219 88.828125 86.863281 90.03125 87.058594 90.578125 C 87.863281 92.789062 87.601562 92.726562 79.324219 88.695312 C 74.554688 86.371094 75.625 86.3125 69.730469 89.195312 C 62.710938 92.628906 62.535156 92.585938 63.292969 87.605469 C 63.460938 86.496094 63.726562 84.746094 63.882812 83.714844 C 64.039062 82.6875 64.257812 81.398438 64.371094 80.855469 C 64.539062 80.035156 64.421875 79.679688 63.683594 78.761719 C 63.195312 78.152344 62.570312 77.230469 62.300781 76.710938 C 62.03125 76.1875 60.976562 75.042969 59.957031 74.164062 C 57.347656 71.921875 56.101562 70.640625 56.101562 70.210938 C 56.101562 69.535156 58.609375 68.558594 59.910156 68.734375 C 60.683594 68.835938 61.421875 68.730469 62.011719 68.425781 C 62.566406 68.136719 63.316406 68.015625 63.9375 68.109375 C 64.589844 68.210938 65.644531 68.015625 66.898438 67.558594 C 69.097656 66.765625 68.878906 67.050781 72.332031 60.300781 C 75.148438 54.785156 75.03125 54.804688 77.367188 59.476562 M 115.199219 74.855469 C 114.277344 75.214844 112.304688 77.867188 111.855469 79.339844 C 111.429688 80.753906 112.855469 83.632812 114.574219 84.820312 L 115.683594 85.585938 L 238.578125 85.585938 L 239.601562 84.503906 C 241.03125 82.996094 242.195312 80.605469 241.996094 79.601562 C 241.65625 77.917969 239.621094 75.128906 238.5 74.8125 C 237.066406 74.410156 116.234375 74.449219 115.199219 74.855469 M 239.035156 75.578125 C 239.398438 75.835938 239.699219 76.179688 239.699219 76.347656 C 239.699219 76.511719 240.105469 77.238281 240.601562 77.957031 C 241.957031 79.921875 241.363281 82.234375 238.957031 84.34375 L 237.875 85.292969 L 176.890625 85.214844 L 115.902344 85.136719 L 114.832031 84.320312 C 111.746094 81.976562 111.558594 79.335938 114.265625 76.382812 L 115.429688 75.113281 L 176.898438 75.113281 C 232.046875 75.113281 238.433594 75.160156 239.035156 75.578125 M 74.066406 131.296875 C 73.636719 131.820312 70.210938 138.648438 69.03125 141.320312 L 68.40625 142.742188 L 66.8125 142.742188 C 65.890625 142.742188 64.96875 142.925781 64.632812 143.175781 C 64.210938 143.488281 63.585938 143.558594 62.375 143.4375 C 61.273438 143.324219 60.453125 143.398438 59.976562 143.65625 C 59.578125 143.871094 58.726562 144.015625 58.089844 143.976562 C 55.09375 143.804688 55.328125 147.484375 58.417969 149.15625 C 58.875 149.402344 60.308594 150.605469 61.605469 151.828125 L 63.960938 154.050781 L 63.792969 155.652344 C 63.699219 156.535156 63.476562 158.199219 63.300781 159.351562 C 63.121094 160.503906 62.933594 161.984375 62.886719 162.644531 C 62.839844 163.300781 62.621094 164.324219 62.40625 164.917969 C 61.46875 167.484375 62.492188 168.261719 65.320312 167.132812 C 66.4375 166.6875 68.199219 166.015625 69.238281 165.640625 C 70.277344 165.265625 71.355469 164.757812 71.636719 164.511719 C 73.644531 162.753906 74.601562 162.761719 78.371094 164.558594 C 86.292969 168.335938 88.964844 168.707031 87.472656 165.828125 C 87.1875 165.28125 87.089844 164.570312 87.199219 163.882812 C 87.304688 163.257812 87.210938 162.398438 86.976562 161.84375 C 86.757812 161.316406 86.546875 160.269531 86.503906 159.519531 C 86.464844 158.769531 86.34375 157.460938 86.238281 156.609375 L 86.046875 155.066406 L 88.417969 152.519531 C 92.007812 148.664062 93.398438 146.75 93.398438 145.675781 C 93.398438 144.640625 92.597656 143.871094 91.652344 143.996094 C 91.320312 144.039062 90.605469 143.890625 90.066406 143.667969 C 89.441406 143.410156 88.589844 143.328125 87.722656 143.449219 C 86.773438 143.578125 86.089844 143.496094 85.46875 143.175781 C 84.96875 142.917969 83.988281 142.746094 83.234375 142.785156 C 81.53125 142.875 81.789062 143.203125 78.742188 137.058594 C 76.125 131.777344 75.503906 130.773438 74.851562 130.773438 C 74.652344 130.773438 74.300781 131.007812 74.066406 131.296875 M 75.84375 132.492188 C 76.164062 132.945312 77.460938 135.46875 78.726562 138.09375 C 81.292969 143.429688 81.285156 143.421875 82.929688 143.226562 C 83.664062 143.136719 84.449219 143.257812 85.003906 143.546875 C 85.660156 143.882812 86.347656 143.957031 87.582031 143.816406 C 88.84375 143.671875 89.414062 143.738281 89.859375 144.074219 C 90.183594 144.320312 90.871094 144.523438 91.386719 144.527344 C 94.199219 144.558594 92.90625 147.308594 87.445312 152.917969 C 85.773438 154.636719 84.988281 156.875 85.738281 157.785156 C 85.90625 157.988281 86.125 158.996094 86.222656 160.023438 C 86.320312 161.054688 86.480469 162.738281 86.578125 163.765625 C 86.675781 164.792969 86.894531 165.804688 87.0625 166.007812 C 87.453125 166.480469 87.152344 167.28125 86.582031 167.28125 C 85.890625 167.28125 81.734375 165.613281 78.371094 163.984375 C 74.617188 162.167969 74.472656 162.164062 71.6875 163.835938 C 70.457031 164.574219 69.332031 165.179688 69.1875 165.183594 C 69.042969 165.183594 67.714844 165.667969 66.242188 166.257812 C 62.382812 167.796875 62.417969 167.835938 63.300781 162.941406 C 63.476562 161.957031 63.75 160.339844 63.898438 159.351562 C 64.050781 158.363281 64.261719 157.074219 64.363281 156.488281 C 64.707031 154.550781 64.058594 153.054688 62.3125 151.753906 C 56.425781 147.363281 54.988281 144.828125 58.230469 144.539062 C 59.152344 144.457031 60.113281 144.21875 60.367188 144.007812 C 60.6875 143.742188 61.335938 143.6875 62.503906 143.824219 C 63.824219 143.976562 64.351562 143.910156 64.964844 143.507812 C 65.542969 143.128906 66.058594 143.050781 66.941406 143.199219 C 68.457031 143.453125 69.066406 142.949219 69.890625 140.753906 C 70.382812 139.4375 72.882812 134.371094 74.109375 132.195312 C 74.535156 131.4375 75.171875 131.550781 75.84375 132.492188 M 115.199219 149.964844 C 114.277344 150.328125 112.304688 152.976562 111.855469 154.453125 C 111.421875 155.886719 112.867188 158.761719 114.703125 160.105469 L 115.917969 160.996094 L 238.292969 160.996094 L 239.449219 159.785156 C 240.992188 158.167969 242.203125 155.753906 241.996094 154.714844 C 241.65625 153.03125 239.621094 150.242188 238.5 149.925781 C 237.066406 149.519531 116.234375 149.5625 115.199219 149.964844 M 239.035156 150.691406 C 239.398438 150.945312 239.699219 151.292969 239.699219 151.460938 C 239.699219 151.625 240.105469 152.351562 240.601562 153.066406 C 241.910156 154.964844 241.515625 156.6875 239.128906 159.5 L 238.242188 160.546875 L 177.175781 160.625 L 116.105469 160.703125 L 114.914062 159.628906 C 111.703125 156.734375 111.523438 154.488281 114.265625 151.496094 L 115.429688 150.222656 L 176.898438 150.222656 C 232.046875 150.222656 238.433594 150.273438 239.035156 150.691406 M 73.8125 209.058594 C 72.84375 210.160156 69.601562 216.386719 69.601562 217.140625 C 69.601562 217.777344 67.730469 220.246094 67.21875 220.285156 C 66.960938 220.308594 66.054688 220.296875 65.203125 220.261719 C 64.351562 220.226562 63.34375 220.367188 62.960938 220.570312 C 62.578125 220.773438 61.519531 220.972656 60.605469 221.011719 C 54.84375 221.25 54.34375 222.101562 57.976562 225.492188 C 59.335938 226.761719 61.242188 228.683594 62.207031 229.761719 L 63.964844 231.722656 L 63.792969 233.390625 C 63.695312 234.308594 63.46875 235.804688 63.289062 236.707031 C 63.105469 237.613281 62.910156 238.984375 62.847656 239.757812 C 62.789062 240.53125 62.597656 241.429688 62.421875 241.757812 C 60.238281 245.824219 65.078125 245.625 72.007812 241.363281 C 74.539062 239.804688 75.058594 239.730469 76.503906 240.699219 C 77.984375 241.691406 85.164062 245.035156 86.296875 245.261719 C 87.464844 245.496094 88.066406 244.644531 87.765625 243.183594 C 87.578125 242.269531 87.320312 240.882812 86.691406 237.382812 C 86.519531 236.433594 86.273438 234.851562 86.148438 233.867188 L 85.914062 232.070312 L 89.710938 228.027344 C 91.804688 225.804688 93.734375 223.800781 94.007812 223.578125 C 95.617188 222.246094 93.777344 221.222656 89.355469 220.992188 C 88.425781 220.941406 87.386719 220.753906 87.050781 220.574219 C 86.714844 220.394531 85.722656 220.242188 84.84375 220.238281 C 81.992188 220.214844 81.671875 219.878906 78.539062 213.664062 C 75.476562 207.585938 75.277344 207.394531 73.8125 209.058594 M 78.242188 214.238281 C 81.175781 220.269531 82.09375 221.1875 84.769531 220.753906 C 85.5 220.632812 86.1875 220.734375 86.789062 221.042969 C 87.390625 221.355469 88.117188 221.457031 88.925781 221.351562 C 89.699219 221.246094 90.425781 221.339844 90.898438 221.605469 C 91.3125 221.835938 91.996094 222.027344 92.414062 222.035156 C 94.132812 222.058594 93.996094 222.644531 91.722656 225.078125 C 90.527344 226.351562 88.625 228.40625 87.5 229.644531 L 85.449219 231.894531 L 85.601562 233.777344 C 85.6875 234.8125 85.90625 236.46875 86.089844 237.457031 C 86.273438 238.445312 86.492188 239.789062 86.578125 240.449219 C 86.664062 241.105469 86.871094 241.925781 87.042969 242.269531 C 87.636719 243.484375 87.261719 244.644531 86.292969 244.578125 C 85.359375 244.511719 78.195312 241.234375 76.503906 240.101562 C 75.054688 239.128906 74.539062 239.207031 71.988281 240.777344 C 68.4375 242.960938 65.382812 244.246094 64.019531 244.136719 C 62.511719 244.011719 62.511719 243.8125 63.933594 236.484375 C 64.117188 235.539062 64.285156 233.921875 64.308594 232.898438 L 64.351562 231.03125 L 60.332031 227.015625 C 56.179688 222.863281 55.722656 222.058594 57.515625 222.035156 C 57.972656 222.027344 58.6875 221.835938 59.101562 221.605469 C 59.585938 221.335938 60.300781 221.246094 61.117188 221.355469 C 62.011719 221.476562 62.601562 221.382812 63.125 221.039062 C 63.695312 220.667969 64.28125 220.597656 65.609375 220.734375 C 67.691406 220.945312 68.539062 220.441406 69.515625 218.398438 C 69.851562 217.6875 70.847656 215.59375 71.726562 213.746094 C 74.738281 207.40625 74.925781 207.421875 78.242188 214.238281 M 115.199219 225.078125 C 114.277344 225.4375 112.304688 228.089844 111.855469 229.566406 C 111.421875 231 112.867188 233.871094 114.703125 235.21875 L 115.917969 236.109375 L 238.292969 236.109375 L 239.449219 234.898438 C 240.992188 233.277344 242.203125 230.867188 241.996094 229.828125 C 241.65625 228.144531 239.621094 225.355469 238.5 225.039062 C 237.066406 224.632812 116.234375 224.671875 115.199219 225.078125 M 239.035156 225.804688 C 239.398438 226.058594 239.699219 226.40625 239.699219 226.570312 C 239.699219 226.738281 240.105469 227.460938 240.601562 228.179688 C 241.910156 230.078125 241.515625 231.800781 239.128906 234.613281 L 238.242188 235.660156 L 177.175781 235.738281 L 116.105469 235.816406 L 114.914062 234.742188 C 111.703125 231.847656 111.523438 229.597656 114.265625 226.609375 L 115.429688 225.335938 L 176.898438 225.335938 C 232.046875 225.335938 238.433594 225.382812 239.035156 225.804688 "/>
<path style=" stroke:none;fill-rule:evenodd;fill:rgb(42.352941%,42.352941%,42.352941%);fill-opacity:1;" d="M 80.625 10.101562 C 119.109375 10.140625 182.089844 10.140625 220.574219 10.101562 C 259.0625 10.058594 227.574219 10.023438 150.601562 10.023438 C 73.628906 10.023438 42.140625 10.058594 80.625 10.101562 M 10.046875 150.222656 C 10.046875 227.003906 10.082031 258.414062 10.125 220.023438 C 10.167969 181.632812 10.167969 118.8125 10.125 80.425781 C 10.082031 42.035156 10.046875 73.445312 10.046875 150.222656 M 90.898438 73.167969 C 89.671875 74.402344 88.734375 75.410156 88.816406 75.410156 C 88.898438 75.410156 89.972656 74.402344 91.199219 73.167969 C 92.429688 71.933594 93.367188 70.921875 93.285156 70.921875 C 93.203125 70.921875 92.128906 71.933594 90.898438 73.167969 M 60.449219 74.515625 C 61.09375 75.171875 61.6875 75.710938 61.773438 75.710938 C 61.855469 75.710938 61.394531 75.171875 60.75 74.515625 C 60.105469 73.855469 59.511719 73.316406 59.429688 73.316406 C 59.347656 73.316406 59.804688 73.855469 60.449219 74.515625 M 86.53125 77.878906 L 85.648438 78.851562 L 86.625 77.972656 C 87.535156 77.15625 87.738281 76.90625 87.507812 76.90625 C 87.453125 76.90625 87.015625 77.34375 86.53125 77.878906 M 146.800781 85.210938 C 163.601562 85.253906 191.003906 85.253906 207.699219 85.210938 C 224.390625 85.167969 210.644531 85.132812 177.148438 85.132812 C 143.65625 85.132812 129.996094 85.167969 146.800781 85.210938 M 86.898438 90.945312 C 87.082031 91.898438 87.046875 91.953125 86.402344 91.785156 C 85.910156 91.65625 85.804688 91.695312 86.035156 91.925781 C 86.859375 92.746094 87.683594 91.417969 86.996094 90.375 C 86.789062 90.058594 86.757812 90.226562 86.898438 90.945312 M 60.449219 150.222656 C 61.09375 150.882812 61.6875 151.421875 61.773438 151.421875 C 61.855469 151.421875 61.394531 150.882812 60.75 150.222656 C 60.105469 149.566406 59.511719 149.027344 59.429688 149.027344 C 59.347656 149.027344 59.804688 149.566406 60.449219 150.222656 M 87.441406 152.691406 L 85.648438 154.5625 L 87.523438 152.777344 C 89.265625 151.117188 89.539062 150.824219 89.316406 150.824219 C 89.269531 150.824219 88.425781 151.664062 87.441406 152.691406 M 114.449219 159.203125 C 115.09375 159.859375 115.6875 160.398438 115.773438 160.398438 C 115.855469 160.398438 115.394531 159.859375 114.75 159.203125 C 114.105469 158.542969 113.511719 158.003906 113.429688 158.003906 C 113.347656 158.003906 113.804688 158.542969 114.449219 159.203125 M 87 166.464844 C 87 166.726562 86.695312 167 86.324219 167.070312 L 85.648438 167.199219 L 86.335938 167.242188 C 86.992188 167.28125 87.570312 166.554688 87.1875 166.171875 C 87.085938 166.070312 87 166.199219 87 166.464844 M 56.5 222.515625 C 56.402344 222.773438 56.464844 223.128906 56.644531 223.304688 C 56.875 223.535156 56.921875 223.453125 56.804688 223.011719 C 56.691406 222.582031 56.808594 222.355469 57.195312 222.257812 C 57.707031 222.125 57.707031 222.113281 57.214844 222.078125 C 56.921875 222.0625 56.601562 222.257812 56.5 222.515625 M 92.945312 222.359375 C 93.363281 222.527344 93.554688 222.777344 93.421875 222.984375 C 93.285156 223.207031 93.339844 223.253906 93.570312 223.113281 C 94.046875 222.816406 93.429688 222.039062 92.738281 222.0625 C 92.417969 222.078125 92.488281 222.179688 92.945312 222.359375 M 60.449219 227.132812 C 62.257812 228.941406 63.808594 230.425781 63.890625 230.425781 C 63.972656 230.425781 62.558594 228.941406 60.75 227.132812 C 58.941406 225.320312 57.394531 223.839844 57.308594 223.839844 C 57.226562 223.839844 58.640625 225.320312 60.449219 227.132812 M 87.140625 229.898438 L 85.351562 231.769531 L 87.226562 229.984375 C 88.964844 228.324219 89.238281 228.03125 89.015625 228.03125 C 88.96875 228.03125 88.125 228.871094 87.140625 229.898438 M 114.449219 234.3125 C 115.09375 234.972656 115.6875 235.511719 115.773438 235.511719 C 115.855469 235.511719 115.394531 234.972656 114.75 234.3125 C 114.105469 233.65625 113.511719 233.117188 113.429688 233.117188 C 113.347656 233.117188 113.804688 233.65625 114.449219 234.3125 M 290.898438 289.8125 C 290.734375 290.230469 276.730469 290.269531 150.488281 290.199219 C 73.359375 290.160156 10.320312 290.226562 10.398438 290.347656 C 10.703125 290.84375 290.59375 290.613281 291.007812 290.117188 C 291.214844 289.867188 291.316406 289.589844 291.230469 289.507812 C 291.144531 289.421875 290.992188 289.558594 290.898438 289.8125 "/>
<path style=" stroke:none;fill-rule:evenodd;fill:rgb(54.901961%,54.901961%,54.901961%);fill-opacity:1;" d="M 297.601562 0.226562 C 297.601562 0.351562 297.890625 0.636719 298.242188 0.855469 C 298.8125 1.210938 298.863281 1.199219 298.695312 0.753906 C 298.585938 0.476562 298.5 0.195312 298.5 0.125 C 298.5 0.0546875 298.296875 0 298.050781 0 C 297.800781 0 297.601562 0.101562 297.601562 0.226562 M 299.105469 1.355469 C 299.113281 1.871094 299.660156 2.53125 299.890625 2.304688 C 300.011719 2.179688 299.886719 1.851562 299.605469 1.574219 C 299.328125 1.296875 299.101562 1.199219 299.105469 1.355469 M 9.796875 9.824219 C 9.050781 10.644531 9.027344 289.957031 9.773438 290.703125 C 10.496094 291.421875 290.707031 291.421875 291.429688 290.703125 C 292.152344 289.980469 292.152344 10.46875 291.429688 9.746094 C 290.636719 8.957031 10.511719 9.035156 9.796875 9.824219 M 290.925781 10.121094 C 291.226562 10.3125 291.285156 38.5625 291.226562 150.390625 L 291.148438 290.425781 L 150.769531 290.5 C 38.660156 290.558594 10.339844 290.5 10.148438 290.199219 C 9.730469 289.542969 9.839844 10.652344 10.261719 10.234375 C 10.679688 9.816406 290.265625 9.707031 290.925781 10.121094 M 74.171875 57.21875 C 73.84375 57.761719 72.59375 60.125 71.390625 62.472656 C 70.191406 64.816406 69.058594 66.859375 68.875 67.011719 C 68.203125 67.570312 65.804688 68.222656 64.410156 68.226562 C 63.617188 68.226562 62.554688 68.445312 62.046875 68.707031 C 61.398438 69.039062 60.738281 69.125 59.847656 68.992188 C 58.851562 68.84375 58.34375 68.941406 57.488281 69.445312 C 55.914062 70.371094 55.742188 70.089844 60.402344 74.277344 C 61.367188 75.144531 62.367188 76.257812 62.621094 76.753906 C 62.878906 77.25 63.472656 78.125 63.945312 78.695312 C 64.902344 79.863281 65.011719 80.722656 64.351562 81.988281 C 64.078125 82.519531 63.976562 83.203125 64.089844 83.765625 C 64.191406 84.273438 64.109375 85.082031 63.910156 85.566406 C 63.707031 86.050781 63.503906 87.09375 63.457031 87.886719 C 63.40625 88.679688 63.265625 89.710938 63.144531 90.183594 C 62.628906 92.128906 63.324219 91.988281 69.804688 88.84375 C 72.476562 87.542969 74.796875 86.484375 74.960938 86.484375 C 75.273438 86.484375 80.3125 88.867188 81.601562 89.625 C 84.398438 91.269531 87.324219 91.839844 86.667969 90.609375 C 86.472656 90.25 86.40625 89.429688 86.511719 88.667969 C 86.632812 87.796875 86.539062 86.980469 86.242188 86.269531 C 85.992188 85.675781 85.867188 84.949219 85.960938 84.65625 C 86.054688 84.359375 85.921875 83.71875 85.667969 83.226562 C 84.289062 80.566406 85.875 77.691406 91.828125 72.058594 C 92.472656 71.445312 93 70.746094 93 70.5 C 93 69.863281 90.464844 68.808594 89.425781 69.015625 C 88.949219 69.113281 88.207031 68.996094 87.714844 68.75 C 87.222656 68.5 86.386719 68.371094 85.765625 68.449219 C 85.109375 68.53125 84.3125 68.394531 83.753906 68.109375 C 83.246094 67.84375 82.570312 67.632812 82.25 67.632812 C 81.417969 67.632812 81.140625 67.21875 78.148438 61.558594 C 75.1875 55.949219 75.035156 55.785156 74.171875 57.21875 M 75.507812 57.816406 C 75.640625 58.015625 76.828125 60.265625 78.148438 62.820312 C 79.871094 66.152344 80.761719 67.566406 81.300781 67.816406 C 82.714844 68.480469 84.453125 68.941406 85.800781 69.019531 C 89.457031 69.226562 92.285156 69.953125 92.042969 70.625 C 91.992188 70.769531 90.347656 72.582031 88.394531 74.652344 L 84.835938 78.421875 L 84.78125 80.527344 C 84.742188 81.933594 84.863281 82.832031 85.144531 83.234375 C 85.40625 83.605469 85.496094 84.179688 85.386719 84.730469 C 85.277344 85.28125 85.386719 85.972656 85.667969 86.519531 C 86.148438 87.441406 86.015625 89.90625 85.472656 90.242188 C 85.039062 90.507812 82.261719 89.554688 81.226562 88.777344 C 80.039062 87.890625 75.71875 85.886719 74.992188 85.886719 C 74.464844 85.886719 69.183594 88.332031 67.800781 89.21875 C 66.753906 89.886719 63.953125 90.828125 63.714844 90.589844 C 63.609375 90.480469 63.683594 89.992188 63.886719 89.503906 C 64.101562 88.992188 64.171875 88.226562 64.050781 87.6875 C 63.910156 87.046875 64 86.527344 64.339844 86.007812 C 64.703125 85.453125 64.78125 84.917969 64.636719 83.945312 C 64.488281 82.976562 64.5625 82.453125 64.917969 81.949219 C 65.667969 80.882812 65.5 79.777344 64.371094 78.300781 C 63.804688 77.558594 63.140625 76.570312 62.898438 76.101562 C 62.488281 75.3125 61.453125 74.304688 58.355469 71.6875 C 56.695312 70.285156 57.34375 69.402344 59.996094 69.464844 C 60.929688 69.484375 61.980469 69.351562 62.328125 69.164062 C 62.675781 68.980469 63.609375 68.828125 64.40625 68.828125 C 65.726562 68.828125 67.808594 68.222656 69.046875 67.480469 C 69.316406 67.316406 70.515625 65.296875 71.710938 62.992188 C 74.773438 57.082031 74.898438 56.914062 75.507812 57.816406 M 115.890625 75.320312 C 115.242188 75.445312 113.28125 77.8125 112.609375 79.285156 C 112.058594 80.480469 113.304688 82.84375 115.222656 84.257812 L 116.214844 84.988281 L 238.085938 84.988281 L 238.859375 84.164062 C 241.265625 81.589844 241.679688 79.804688 240.292969 77.976562 C 239.800781 77.332031 239.398438 76.617188 239.398438 76.390625 C 239.398438 75.082031 240.816406 75.109375 176.933594 75.152344 C 143.722656 75.175781 116.253906 75.25 115.890625 75.320312 M 238.371094 76.234375 C 241.101562 79.277344 241.136719 80.753906 238.546875 83.566406 L 237.789062 84.390625 L 116.335938 84.390625 L 115.394531 83.601562 C 114.410156 82.777344 112.804688 80.574219 112.800781 80.042969 C 112.800781 79.65625 115.066406 76.589844 115.726562 76.085938 C 116.613281 75.402344 237.757812 75.550781 238.371094 76.234375 M 72.382812 136.222656 C 71.207031 138.574219 70.089844 140.921875 69.898438 141.441406 C 69.265625 143.160156 68.519531 143.695312 67.058594 143.476562 C 66.097656 143.332031 65.566406 143.414062 64.984375 143.796875 C 64.367188 144.199219 63.851562 144.265625 62.570312 144.105469 C 61.316406 143.949219 60.765625 144.011719 60.203125 144.382812 C 59.792969 144.648438 58.992188 144.828125 58.386719 144.789062 C 55.078125 144.566406 56.589844 146.890625 63.234375 152.230469 C 64.527344 153.269531 65.136719 155.886719 64.40625 157.257812 C 64.226562 157.585938 64.050781 158.597656 64.007812 159.5 C 63.964844 160.40625 63.792969 161.886719 63.625 162.792969 C 62.933594 166.484375 62.921875 166.671875 63.351562 166.835938 C 63.863281 167.03125 69.65625 164.730469 72.300781 163.277344 C 74.757812 161.929688 74.785156 161.929688 77.929688 163.503906 C 83.183594 166.128906 87.003906 167.382812 86.722656 166.382812 C 86.652344 166.136719 86.578125 165.195312 86.554688 164.289062 C 86.527344 163.382812 86.335938 162.324219 86.121094 161.929688 C 85.882812 161.488281 85.808594 160.773438 85.921875 160.054688 C 86.046875 159.28125 85.957031 158.597656 85.660156 158.023438 C 84.851562 156.46875 85.4375 154.703125 87.488281 152.496094 C 92.691406 146.90625 93.8125 144.839844 91.644531 144.839844 C 91.21875 144.839844 90.460938 144.628906 89.964844 144.371094 C 89.296875 144.027344 88.636719 143.957031 87.464844 144.101562 C 86.226562 144.253906 85.699219 144.1875 85.09375 143.792969 C 84.523438 143.417969 84.003906 143.339844 83.125 143.488281 C 81.332031 143.789062 81.148438 143.570312 78.1875 137.625 C 76.601562 134.4375 75.253906 132.082031 74.984375 132.035156 C 74.652344 131.972656 73.898438 133.191406 72.382812 136.222656 M 77.765625 137.878906 C 80.769531 144.082031 80.648438 143.941406 82.785156 143.941406 C 83.71875 143.941406 84.640625 144.097656 84.835938 144.292969 C 85.046875 144.507812 85.980469 144.625 87.1875 144.589844 C 88.285156 144.5625 89.335938 144.652344 89.519531 144.796875 C 89.699219 144.941406 90.355469 145.148438 90.976562 145.261719 C 92.785156 145.585938 91.84375 147.207031 87.101562 151.941406 C 85.058594 153.980469 84.679688 154.9375 85.042969 157.175781 C 85.15625 157.878906 85.273438 159.195312 85.304688 160.101562 C 85.335938 161.003906 85.539062 162.09375 85.757812 162.523438 C 86.046875 163.085938 86.082031 163.660156 85.882812 164.617188 C 85.53125 166.339844 85.375 166.316406 79.839844 163.691406 C 74.660156 161.230469 74.976562 161.269531 72.046875 162.773438 C 67.957031 164.875 64.082031 166.367188 63.699219 165.984375 C 63.589844 165.875 63.675781 165.261719 63.890625 164.621094 C 64.101562 163.980469 64.183594 163.308594 64.074219 163.128906 C 63.964844 162.953125 64.046875 162.5 64.257812 162.125 C 64.472656 161.753906 64.675781 160.636719 64.71875 159.652344 C 64.757812 158.664062 64.871094 156.871094 64.972656 155.671875 C 65.179688 153.152344 64.882812 152.46875 63.066406 151.292969 C 62.453125 150.890625 60.878906 149.554688 59.570312 148.320312 C 56.921875 145.820312 56.828125 145.136719 59.117188 145.136719 C 59.75 145.136719 60.347656 145 60.453125 144.835938 C 60.554688 144.667969 61.578125 144.558594 62.726562 144.589844 C 64 144.625 64.949219 144.507812 65.167969 144.292969 C 65.359375 144.097656 66.28125 143.941406 67.214844 143.941406 C 69.34375 143.941406 69.207031 144.101562 72.253906 137.878906 C 73.605469 135.125 74.851562 132.867188 75.023438 132.867188 C 75.195312 132.867188 76.429688 135.125 77.765625 137.878906 M 115.90625 150.433594 C 115.253906 150.558594 112.96875 153.339844 112.496094 154.574219 C 112.152344 155.480469 113.097656 157.339844 114.773438 159.0625 L 116.078125 160.398438 L 176.988281 160.398438 C 237.84375 160.398438 237.902344 160.398438 238.511719 159.789062 C 241.03125 157.273438 241.664062 154.898438 240.292969 153.089844 C 239.800781 152.441406 239.398438 151.726562 239.398438 151.503906 C 239.398438 150.195312 240.816406 150.222656 176.933594 150.265625 C 143.722656 150.289062 116.257812 150.363281 115.90625 150.433594 M 238.371094 151.347656 C 239.390625 152.484375 240.589844 154.601562 240.59375 155.273438 C 240.605469 156.496094 238.046875 159.746094 236.917969 159.949219 C 236.386719 160.042969 209.058594 160.082031 176.195312 160.035156 L 116.4375 159.949219 L 115.507812 159.058594 C 114.53125 158.128906 112.800781 155.613281 112.800781 155.128906 C 112.800781 154.761719 115.09375 151.683594 115.726562 151.195312 C 116.613281 150.515625 237.757812 150.664062 238.371094 151.347656 M 74.1875 209.84375 C 73.480469 210.613281 70.773438 215.921875 70.210938 217.648438 C 70.007812 218.277344 69.324219 219.332031 68.6875 220 L 67.53125 221.210938 L 65.746094 221.003906 C 64.316406 220.835938 63.800781 220.898438 63.179688 221.304688 C 62.597656 221.683594 62.070312 221.765625 61.105469 221.621094 C 60.203125 221.484375 59.539062 221.566406 58.929688 221.882812 C 58.445312 222.132812 57.820312 222.339844 57.542969 222.34375 C 56.308594 222.347656 56.882812 223.226562 60.53125 226.925781 L 64.425781 230.871094 L 64.617188 232.605469 C 64.742188 233.742188 64.683594 234.566406 64.445312 235 C 64.242188 235.363281 64.046875 236.199219 64.003906 236.859375 C 63.871094 238.953125 63.433594 241.324219 63.042969 242.03125 C 61.347656 245.113281 65.6875 244.363281 71.988281 240.480469 C 74.539062 238.90625 75.054688 238.828125 76.503906 239.804688 C 77.6875 240.597656 85.863281 244.488281 86.351562 244.488281 C 87.015625 244.488281 87.234375 243.507812 86.800781 242.472656 C 86.566406 241.910156 86.449219 241.214844 86.542969 240.925781 C 86.632812 240.632812 86.5 239.894531 86.242188 239.277344 C 85.984375 238.664062 85.855469 237.90625 85.953125 237.59375 C 86.050781 237.285156 85.976562 236.734375 85.78125 236.375 C 85.585938 236.011719 85.386719 234.835938 85.332031 233.761719 L 85.238281 231.800781 L 87.164062 229.691406 C 88.222656 228.53125 90.054688 226.527344 91.226562 225.242188 C 92.402344 223.957031 93.28125 222.820312 93.175781 222.71875 C 92.671875 222.214844 90.574219 221.648438 89.101562 221.617188 C 88.191406 221.59375 87.128906 221.402344 86.742188 221.183594 C 86.292969 220.933594 85.574219 220.855469 84.789062 220.96875 C 81.9375 221.378906 81.027344 220.515625 78.0625 214.566406 C 75.261719 208.957031 75.140625 208.8125 74.1875 209.84375 M 76.5 212.648438 C 77.078125 213.816406 78.148438 216.023438 78.878906 217.546875 C 80.429688 220.777344 81.414062 221.445312 84.609375 221.445312 C 85.574219 221.445312 86.449219 221.582031 86.550781 221.746094 C 86.652344 221.910156 87.542969 222.042969 88.527344 222.042969 C 90.105469 222.042969 90.875 222.285156 92.074219 223.148438 C 92.195312 223.238281 91.257812 224.308594 86.863281 229.113281 L 84.636719 231.542969 L 84.742188 233.644531 C 84.796875 234.796875 84.988281 236.011719 85.164062 236.339844 C 85.339844 236.671875 85.464844 237.417969 85.445312 238.007812 C 85.421875 238.59375 85.566406 239.269531 85.761719 239.503906 C 85.957031 239.742188 86.097656 240.453125 86.074219 241.089844 C 86.050781 241.722656 86.128906 242.546875 86.25 242.917969 C 86.605469 244.007812 85.898438 243.785156 80.308594 241.046875 C 74.277344 238.09375 74.585938 238.144531 72.078125 239.726562 C 69.949219 241.0625 64.675781 243.589844 64.003906 243.589844 C 63.324219 243.589844 63.21875 242.820312 63.753906 241.789062 C 64.039062 241.234375 64.171875 240.53125 64.066406 240.113281 C 63.964844 239.707031 64.085938 239.007812 64.351562 238.503906 C 64.613281 237.996094 64.734375 237.300781 64.628906 236.886719 C 64.53125 236.492188 64.621094 235.851562 64.828125 235.464844 C 65.054688 235.046875 65.183594 233.914062 65.144531 232.667969 L 65.078125 230.574219 L 61.640625 227.128906 C 59.746094 225.234375 58.199219 223.53125 58.199219 223.347656 C 58.199219 222.632812 59.679688 222.042969 61.472656 222.042969 C 62.457031 222.042969 63.347656 221.910156 63.449219 221.746094 C 63.550781 221.582031 64.65625 221.445312 65.90625 221.445312 C 68.839844 221.445312 69.390625 220.902344 71.8125 215.585938 C 74.644531 209.371094 74.824219 209.257812 76.5 212.648438 M 115.90625 225.542969 C 115.253906 225.671875 112.96875 228.449219 112.496094 229.6875 C 112.152344 230.589844 113.097656 232.453125 114.773438 234.175781 L 116.078125 235.511719 L 176.988281 235.511719 C 237.84375 235.511719 237.902344 235.511719 238.511719 234.902344 C 241.03125 232.386719 241.664062 230.011719 240.292969 228.203125 C 239.800781 227.554688 239.398438 226.839844 239.398438 226.613281 C 239.398438 225.304688 240.816406 225.335938 176.933594 225.378906 C 143.722656 225.398438 116.257812 225.476562 115.90625 225.542969 M 238.371094 226.457031 C 239.390625 227.597656 240.589844 229.714844 240.59375 230.386719 C 240.605469 231.609375 238.046875 234.859375 236.917969 235.0625 C 236.386719 235.15625 209.058594 235.195312 176.195312 235.148438 L 116.4375 235.0625 L 115.507812 234.171875 C 114.53125 233.238281 112.800781 230.722656 112.800781 230.238281 C 112.800781 229.875 115.09375 226.796875 115.726562 226.308594 C 116.613281 225.628906 237.757812 225.777344 238.371094 226.457031 M 0 297.273438 C 0 297.503906 0.203125 297.769531 0.449219 297.863281 C 0.953125 298.054688 0.976562 298.007812 0.71875 297.332031 C 0.492188 296.746094 0 296.707031 0 297.273438 M 298.875 298.84375 C 298.09375 299.6875 298.050781 299.851562 298.601562 299.851562 C 299.082031 299.851562 300 298.902344 300 298.40625 C 300 297.886719 299.632812 298.03125 298.875 298.84375 M 2.179688 299.457031 C 2.457031 299.738281 2.785156 299.863281 2.910156 299.742188 C 3.03125 299.621094 2.933594 299.394531 2.691406 299.238281 C 1.960938 298.78125 1.636719 298.917969 2.179688 299.457031 "/>
<path style=" stroke:none;fill-rule:evenodd;fill:rgb(48.627451%,48.627451%,48.627451%);fill-opacity:1;" d="M 60.074219 69.035156 C 60.363281 69.109375 60.835938 69.109375 61.125 69.035156 C 61.414062 68.957031 61.175781 68.898438 60.601562 68.898438 C 60.023438 68.898438 59.785156 68.957031 60.074219 69.035156 M 90.882812 72.941406 L 89.851562 74.066406 L 90.976562 73.035156 C 91.59375 72.464844 92.101562 71.960938 92.101562 71.910156 C 92.101562 71.683594 91.847656 71.898438 90.882812 72.941406 M 87.300781 76.757812 C 86.570312 77.5 86.042969 78.105469 86.125 78.105469 C 86.207031 78.105469 86.871094 77.5 87.601562 76.757812 C 88.328125 76.015625 88.859375 75.410156 88.773438 75.410156 C 88.691406 75.410156 88.027344 76.015625 87.300781 76.757812 M 58.273438 144.746094 C 58.5625 144.820312 59.035156 144.820312 59.324219 144.746094 C 59.613281 144.667969 59.378906 144.609375 58.800781 144.609375 C 58.222656 144.609375 57.984375 144.667969 58.273438 144.746094 M 57 147.027344 C 57 147.078125 57.4375 147.515625 57.976562 148 L 58.949219 148.878906 L 58.070312 147.90625 C 57.246094 147 57 146.796875 57 147.027344 M 147.097656 160.625 C 163.570312 160.667969 190.433594 160.667969 206.800781 160.625 C 223.160156 160.582031 209.683594 160.546875 176.851562 160.546875 C 144.015625 160.546875 130.625 160.582031 147.097656 160.625 M 63.382812 163.09375 C 63.382812 163.832031 63.441406 164.136719 63.511719 163.765625 C 63.582031 163.394531 63.582031 162.789062 63.511719 162.417969 C 63.441406 162.046875 63.382812 162.351562 63.382812 163.09375 M 62.699219 165.917969 C 62.699219 166.320312 62.808594 166.714844 62.945312 166.800781 C 63.082031 166.882812 63.132812 166.554688 63.0625 166.070312 C 62.902344 165 62.699219 164.914062 62.699219 165.917969 M 66.074219 221.054688 C 66.363281 221.128906 66.835938 221.128906 67.125 221.054688 C 67.414062 220.980469 67.175781 220.917969 66.601562 220.917969 C 66.023438 220.917969 65.785156 220.980469 66.074219 221.054688 M 61.273438 221.652344 C 61.5625 221.726562 62.035156 221.726562 62.324219 221.652344 C 62.613281 221.578125 62.378906 221.515625 61.800781 221.515625 C 61.222656 221.515625 60.984375 221.578125 61.273438 221.652344 M 93.109375 222.578125 C 93.222656 222.757812 92.875 223.421875 92.34375 224.046875 C 91.480469 225.058594 91.46875 225.101562 92.214844 224.4375 C 93.324219 223.449219 93.699219 222.742188 93.253906 222.464844 C 93.046875 222.335938 92.988281 222.382812 93.109375 222.578125 M 147.097656 235.734375 C 163.570312 235.777344 190.433594 235.777344 206.800781 235.734375 C 223.160156 235.691406 209.683594 235.65625 176.851562 235.65625 C 144.015625 235.65625 130.625 235.691406 147.097656 235.734375 M 63.382812 240 C 63.382812 240.742188 63.441406 241.042969 63.511719 240.671875 C 63.582031 240.304688 63.582031 239.695312 63.511719 239.328125 C 63.441406 238.957031 63.382812 239.257812 63.382812 240 "/>
</g>
</svg>
