<?xml version="1.0" standalone="no"?>
<!DOCTYPE svg PUBLIC "-//W3C//DTD SVG 20010904//EN"
 "http://www.w3.org/TR/2001/REC-SVG-20010904/DTD/svg10.dtd">
<svg version="1.0" xmlns="http://www.w3.org/2000/svg"
 width="260.000000pt" height="300.000000pt" viewBox="0 0 260.000000 300.000000"
 preserveAspectRatio="xMidYMid meet">

<g transform="translate(0.000000,300.000000) scale(0.100000,-0.100000)"
fill="#000000" stroke="none">
<path d="M405 2875 c-21 -49 -57 -96 -69 -92 -8 3 -18 -5 -25 -19 -10 -22 -24
-28 -61 -25 -10 1 -15 -8 -16 -29 -1 -35 6 -38 31 -10 10 11 31 20 46 20 15 0
29 5 31 11 2 6 12 10 23 8 14 -3 6 -13 -38 -46 -31 -24 -60 -43 -65 -43 -14 0
-20 -32 -17 -87 3 -54 -14 -83 -51 -83 -13 0 -25 -4 -28 -9 -10 -15 19 -30 75
-39 l54 -8 -35 -19 -35 -18 28 -8 c16 -4 34 -13 42 -19 11 -9 14 -8 14 7 0 10
3 31 7 47 4 17 3 27 -2 23 -5 -3 -9 7 -8 21 1 15 3 33 3 40 1 7 16 22 34 32
35 21 93 112 82 130 -3 5 -2 10 4 10 11 0 51 75 51 97 0 15 -26 18 -35 3 -10
-17 -25 -11 -34 13 -5 13 -5 27 1 34 5 6 8 27 6 45 -3 29 -5 30 -13 13z m-30
-105 c-3 -5 -13 -10 -21 -10 -8 0 -12 5 -9 10 3 6 13 10 21 10 8 0 12 -4 9
-10z m-31 -183 c17 -13 17 -14 -8 -30 -34 -23 -36 -22 -36 13 0 33 15 38 44
17z"/>
<path d="M150 2539 c14 -25 27 -32 45 -22 12 7 8 12 -20 25 -32 14 -34 14 -25
-3z"/>
<path d="M1885 2440 c8 -25 -13 -27 -23 -2 -5 13 -8 11 -12 -13 -5 -28 -2 -32
43 -53 37 -17 48 -26 43 -38 -5 -14 -4 -15 8 -5 11 9 24 2 65 -35 28 -25 48
-51 44 -56 -3 -6 -2 -8 3 -5 6 3 16 -3 23 -15 7 -11 8 -18 3 -14 -5 3 -9 -2
-9 -10 0 -8 6 -13 13 -10 8 3 17 0 21 -7 10 -16 11 -167 1 -167 -4 0 -8 6 -8
13 0 7 -7 22 -16 33 -14 18 -15 18 -9 -6 3 -14 -6 -2 -20 25 -33 62 -28 58
-64 50 -23 -5 -30 -11 -28 -27 1 -13 -5 -22 -16 -24 -27 -4 -32 -11 -18 -28
17 -21 -25 -28 -90 -16 -60 12 -119 4 -119 -15 0 -23 36 -59 50 -50 20 12 62
13 88 2 15 -7 26 -7 33 0 7 7 18 9 25 6 23 -9 16 -52 -15 -86 -36 -39 -81
-104 -81 -117 0 -11 -55 -158 -83 -223 -23 -53 -56 -77 -105 -77 -16 0 -35 7
-42 15 -7 8 -18 15 -24 15 -7 0 -8 -3 -1 -8 6 -4 28 -28 49 -54 21 -27 45 -48
52 -48 19 0 81 -57 72 -65 -4 -4 -15 -4 -25 0 -10 5 -25 7 -34 6 -8 -1 -24 8
-35 21 l-19 22 30 -18 c17 -10 0 10 -37 45 -38 36 -68 70 -68 77 0 7 -4 11
-10 7 -5 -3 -19 14 -31 37 -12 24 -24 37 -27 30 -2 -7 3 -23 12 -37 l16 -24
-68 28 c-37 15 -96 37 -132 49 -71 24 -207 36 -213 19 -2 -7 -22 -6 -58 2 -30
7 -74 14 -99 15 -25 2 -62 10 -82 19 -54 24 -56 21 -14 -15 24 -21 40 -46 45
-68 7 -34 0 -105 -12 -117 -4 -3 -27 1 -53 10 -50 16 -74 13 -74 -9 0 -19 -33
-25 -118 -21 -60 3 -76 8 -94 27 -21 23 -21 23 -2 39 10 9 20 24 22 35 3 15
-1 18 -17 13 -22 -5 -29 7 -11 18 12 7 14 85 2 85 -12 0 -56 84 -72 135 -23
75 -53 136 -64 132 -6 -2 -14 -26 -17 -54 -4 -28 -14 -62 -23 -74 -9 -13 -16
-35 -16 -49 0 -14 -5 -31 -12 -38 -14 -14 27 -32 73 -32 33 0 39 -15 10 -23
-19 -4 -61 -77 -61 -103 0 -15 -6 -19 -40 -27 -20 -4 -30 2 -50 26 -14 17 -19
28 -13 24 13 -8 73 21 73 35 0 4 -17 10 -37 13 -21 3 -51 10 -67 15 -16 5 -31
8 -33 7 -7 -8 34 -107 41 -100 5 4 7 1 3 -9 -4 -13 -2 -15 10 -11 13 5 15 2
10 -16 -5 -20 4 -27 90 -66 52 -25 109 -56 126 -71 47 -40 218 -121 284 -134
44 -10 66 -21 94 -49 45 -45 55 -95 65 -310 6 -135 50 -452 53 -378 1 33 17
36 27 5 13 -42 36 -71 45 -56 12 18 69 -39 69 -69 0 -13 -3 -22 -7 -22 -20 3
-23 -3 -13 -21 6 -11 15 -18 19 -15 11 6 21 -29 21 -72 0 -25 -4 -31 -15 -27
-9 4 -15 0 -15 -9 0 -9 8 -18 18 -20 11 -3 7 -5 -10 -6 -18 -1 -28 5 -30 16
-2 10 -12 18 -23 18 -16 0 -21 8 -23 44 -2 28 1 47 10 53 11 6 10 10 -2 18 -9
6 -14 24 -14 49 1 22 -2 38 -6 36 -5 -3 -10 1 -12 7 -5 13 -25 -147 -34 -264
l-5 -58 104 0 104 0 -13 63 c-17 84 -41 257 -48 342 l-5 70 15 -80 c8 -44 23
-132 35 -195 11 -63 25 -124 29 -135 5 -11 10 -29 12 -40 3 -20 12 -20 444
-23 l441 -2 12 72 c7 40 14 77 15 83 7 28 30 -48 30 -97 l1 -58 178 0 c98 0
177 3 175 8 -74 147 -95 199 -117 286 -15 58 -24 111 -21 118 4 7 4 139 0 293
-8 302 -17 356 -65 413 -14 16 -39 35 -57 43 -18 7 -40 21 -49 30 -17 17 -100
21 -115 6 -4 -4 -12 -7 -17 -7 -6 0 0 11 13 25 l23 25 -29 0 c-19 0 -34 7 -42
20 -7 12 -17 18 -22 15 -6 -4 -7 2 -3 12 3 10 2 15 -2 10 -5 -4 -17 1 -27 10
-19 17 -19 16 -13 -12 l7 -30 -21 25 c-23 28 -26 40 -11 40 6 0 10 29 10 68 0
83 21 169 60 241 17 30 30 60 30 67 0 19 26 64 33 57 4 -3 7 6 7 20 0 17 5 27
15 27 11 0 15 -11 15 -37 0 -27 3 -34 9 -23 6 8 8 17 5 22 -3 4 7 25 21 48 63
100 53 217 -31 343 -24 37 -49 65 -54 62 -5 -3 -12 7 -16 22 -9 38 -22 53 -40
46 -14 -5 -64 39 -64 58 0 5 -4 9 -10 9 -5 0 -10 7 -10 15 0 8 -5 15 -11 15
-6 0 -8 -9 -4 -20z m245 -483 c0 -8 -7 -14 -15 -14 -11 0 -12 4 -4 14 6 7 13
13 15 13 2 0 4 -6 4 -13z m-110 -136 c0 -12 -20 -25 -27 -18 -7 7 6 27 18 27
5 0 9 -4 9 -9z m-543 -371 c37 -27 43 -28 51 -14 9 15 11 15 22 -5 6 -12 9
-29 6 -37 -11 -29 -43 -12 -111 58 -39 39 -56 61 -40 49 17 -12 49 -35 72 -51z
m-297 30 c0 -6 4 -9 9 -7 5 1 27 -11 49 -28 35 -26 45 -42 66 -108 14 -43 34
-137 46 -210 11 -73 25 -159 30 -192 11 -71 28 -88 102 -105 55 -12 143 -44
288 -104 47 -20 99 -36 115 -36 27 0 75 -19 49 -20 -6 0 -29 -16 -52 -36 -48
-41 -46 -41 -190 6 -89 29 -112 30 -91 4 6 -8 9 -17 6 -21 -4 -3 -3 -11 2 -17
15 -18 17 -61 4 -59 -25 5 -13 -15 15 -26 l27 -10 -30 1 c-61 4 -62 -18 -10
-137 28 -62 33 -85 9 -42 -9 16 -17 27 -20 24 -7 -6 8 -67 15 -63 4 3 7 -4 7
-15 0 -41 -22 -8 -53 82 -39 111 -41 160 -9 252 12 37 20 69 18 72 -15 15 -32
0 -48 -40 -25 -68 -35 -61 -38 30 -1 27 -14 45 -33 45 -13 0 -14 -8 -9 -52 11
-83 51 -235 90 -341 20 -54 36 -103 36 -110 -2 -34 -109 251 -171 451 -14 46
-29 77 -41 83 -11 6 -22 8 -24 6 -3 -3 16 -65 41 -138 26 -74 57 -168 69 -209
12 -41 35 -97 49 -125 31 -57 34 -75 12 -75 -8 0 -15 6 -15 13 0 6 -14 13 -30
14 -17 1 -30 -2 -30 -8 0 -6 -4 -8 -9 -5 -5 4 -11 0 -14 -6 -5 -13 -57 87 -57
109 0 28 -67 216 -104 293 -61 126 -67 140 -56 140 6 0 10 -6 10 -14 0 -8 3
-16 8 -18 4 -1 20 -28 35 -58 38 -75 86 -157 87 -147 0 11 -60 130 -69 137 -4
3 -20 36 -36 73 -31 73 -67 113 -73 79 -2 -10 11 -56 29 -103 34 -91 35 -96
73 -214 35 -114 69 -202 100 -263 15 -30 25 -56 22 -59 -13 -13 -119 220 -162
357 -20 63 -43 122 -51 130 -13 13 -14 12 -9 -10 2 -14 7 -45 11 -70 3 -24 11
-50 17 -57 7 -9 7 -13 0 -13 -6 0 -13 -8 -15 -18 -4 -13 -5 -11 -6 6 0 12 -5
22 -9 22 -5 0 -7 -13 -4 -29 2 -16 -1 -31 -6 -35 -6 -4 -12 33 -16 97 -9 147
-39 377 -49 377 -4 0 -5 5 -2 10 3 6 -2 10 -12 10 -15 0 -16 2 -3 11 10 7 11
12 4 15 -7 3 -10 15 -7 27 3 16 2 18 -5 9 -7 -11 -11 -8 -14 12 -3 14 -1 26 5
26 5 0 6 10 2 23 -3 12 -9 38 -11 57 -3 19 -9 39 -15 46 -11 14 -15 81 -6 91
4 3 7 -3 7 -15 0 -12 11 -50 24 -84 12 -35 29 -94 36 -131 12 -59 17 -68 39
-74 14 -3 42 -14 61 -24 45 -24 180 -69 180 -60 0 3 -9 40 -19 81 -10 41 -22
104 -25 140 -12 111 -38 244 -52 268 -8 12 -21 22 -29 22 -7 0 -31 16 -51 36
-21 19 -45 40 -54 45 -11 8 -12 11 -2 15 6 3 9 10 6 16 -4 6 2 5 15 -1 11 -7
21 -16 21 -21z m681 -102 c-6 -17 -11 -46 -11 -64 0 -37 -8 -41 -58 -23 -43
15 -49 38 -12 51 17 5 30 16 30 24 0 8 12 27 27 42 31 31 41 18 24 -30z
m-1030 1 c11 -18 8 -20 -37 -24 -55 -6 -73 1 -67 26 5 19 12 21 51 16 24 -3
48 -11 53 -18z m645 -119 c32 -58 84 -147 116 -199 32 -52 56 -97 53 -99 -10
-11 -122 118 -152 174 -26 50 -93 223 -93 242 0 14 21 -19 76 -118z m152 74
c23 -20 47 -45 54 -57 7 -14 -6 -7 -35 20 -26 22 -62 48 -79 57 -32 15 -32 16
-7 16 15 0 42 -15 67 -36z m282 -26 c0 -10 6 -18 13 -18 8 0 22 -9 31 -19 22
-24 5 -37 -25 -20 -20 10 -21 9 -16 -10 3 -11 1 -21 -4 -21 -5 0 -12 14 -15
30 -4 17 -10 30 -14 30 -8 0 -5 24 6 60 5 13 6 13 14 0 6 -8 10 -23 10 -32z
m265 -58 c3 -5 1 -10 -4 -10 -6 0 -11 5 -11 10 0 6 2 10 4 10 3 0 8 -4 11 -10z
m-27 -140 c2 -31 1 -33 -10 -15 -6 11 -21 28 -32 38 -21 17 -21 17 9 15 26 -3
30 -7 33 -38z m-134 4 c9 -3 16 -12 16 -19 0 -7 12 -22 26 -32 14 -11 25 -26
23 -34 -3 -9 -19 4 -47 38 -23 29 -40 53 -38 53 2 0 11 -3 20 -6z m53 -10 c-3
-3 -12 -4 -19 -1 -8 3 -5 6 6 6 11 1 17 -2 13 -5z m-797 -89 c6 -22 10 -54 8
-70 -3 -29 -7 -15 -34 135 l-4 25 9 -25 c5 -14 14 -43 21 -65z m825 -165 c40
-19 40 -19 10 -19 -25 -1 -43 13 -107 81 -43 45 -78 86 -78 90 0 4 30 -24 68
-63 37 -39 85 -79 107 -89z m-572 130 c9 -11 17 -23 17 -27 0 -3 6 -14 14 -22
7 -9 17 -29 20 -46 7 -28 7 -29 -12 -12 -10 9 -26 17 -36 17 -9 0 -14 5 -11
10 3 6 -2 11 -12 11 -17 1 -17 2 0 6 15 4 16 6 2 26 -16 23 -20 57 -7 57 4 0
15 -9 25 -20z m576 -40 c1 -13 0 -13 -9 0 -5 8 -9 24 -9 35 l0 20 9 -20 c5
-11 9 -27 9 -35z m-25 -40 c6 -8 -1 -6 -14 5 -14 11 -26 20 -26 20 -1 0 -5 11
-9 25 -7 24 -6 23 16 -5 12 -16 27 -37 33 -45z m-1131 30 c-3 -12 -8 -19 -11
-16 -5 6 5 36 12 36 2 0 2 -9 -1 -20z m144 -52 c-3 -8 -6 -5 -6 6 -1 11 2 17
5 13 3 -3 4 -12 1 -19z m413 -23 c10 -12 10 -15 -4 -15 -9 0 -16 7 -16 15 0 8
2 15 4 15 2 0 9 -7 16 -15z m734 -184 c-2 -3 -12 3 -22 13 -16 17 -16 18 5 5
12 -7 20 -15 17 -18z m-1137 -68 c-2 -16 -4 -3 -4 27 0 30 2 43 4 28 2 -16 2
-40 0 -55z m971 35 c34 -13 62 -26 62 -30 0 -3 -19 -9 -42 -13 -24 -4 -53 -13
-65 -21 -26 -16 -59 -18 -68 -4 -3 6 -13 10 -22 10 -11 0 -14 -7 -11 -23 3
-15 0 -24 -8 -24 -7 0 -11 4 -8 9 3 4 0 8 -5 8 -6 0 -11 13 -11 28 0 22 10 36
43 60 23 18 49 30 57 27 8 -2 43 -14 78 -27z m137 1 c-3 -4 -12 -6 -20 -3 -8
4 -13 10 -10 15 3 4 12 6 20 3 8 -4 13 -10 10 -15z m-29 -78 c-10 -11 -32 -25
-49 -31 -18 -7 -41 -16 -52 -20 -41 -17 -54 -19 -60 -10 -7 11 31 24 45 15 21
-13 9 13 -12 28 -22 15 -21 16 32 17 30 0 66 6 80 13 32 17 38 12 16 -12z
m-520 -18 c-10 -10 -19 5 -10 18 6 11 8 11 12 0 2 -7 1 -15 -2 -18z m234 -23
c0 -5 -5 -10 -11 -10 -6 0 -9 -7 -5 -15 3 -9 0 -15 -9 -15 -18 0 -18 5 -5 31
11 20 30 26 30 9z m-85 -18 c-3 -3 -11 0 -18 7 -9 10 -8 11 6 5 10 -3 15 -9
12 -12z m-75 -24 c0 -5 -13 -2 -30 7 -16 9 -30 17 -30 19 0 3 14 -1 30 -7 17
-6 30 -15 30 -19z m-76 -10 c8 -12 13 -25 10 -30 -3 -5 0 -7 6 -6 6 2 22 -16
35 -39 18 -32 21 -43 11 -43 -8 0 -16 3 -19 8 -2 4 -2 2 -1 -5 2 -7 -1 -15 -7
-18 -5 -4 -7 -11 -4 -16 4 -5 1 -9 -5 -9 -6 0 -20 21 -31 48 -10 26 -28 63
-39 83 -25 47 -25 49 4 49 14 0 32 -9 40 -22z m346 3 c0 -17 -20 -23 -48 -15
l-27 7 30 7 c44 11 45 11 45 1z m-793 -23 c-3 -8 -6 -5 -6 6 -1 11 2 17 5 13
3 -3 4 -12 1 -19z m645 11 c17 -9 18 -13 7 -20 -10 -6 -7 -9 11 -9 14 0 20 -4
14 -8 -6 -4 -13 -17 -16 -29 -5 -19 -2 -23 20 -23 31 0 23 -10 -23 -26 -31
-10 -35 -10 -36 5 0 9 -2 24 -4 34 -2 11 5 22 18 27 22 9 22 9 -2 9 -17 1 -22
5 -17 18 4 9 1 20 -6 25 -21 13 9 10 34 -3z m-617 -79 c7 -31 44 -107 74 -150
10 -14 20 -37 23 -53 5 -23 3 -27 -13 -22 -13 4 -19 1 -19 -9 0 -9 -5 -16 -11
-16 -6 0 -8 7 -5 16 4 11 2 15 -7 11 -14 -5 -31 50 -42 138 -3 22 -9 56 -15
75 -12 42 -12 40 -1 40 5 0 12 -14 16 -30z m549 15 c3 -8 1 -15 -4 -15 -6 0
-10 7 -10 15 0 8 2 15 4 15 2 0 6 -7 10 -15z m-726 -303 c6 -18 -15 -14 -22 4
-4 10 -1 14 6 12 6 -2 14 -10 16 -16z"/>
<path d="M1258 737 c50 -93 92 -160 98 -155 2 3 -15 50 -37 106 -35 87 -45
102 -71 111 l-29 10 39 -72z"/>
<path d="M1793 2421 c-10 -15 -18 -17 -50 -11 -43 7 -51 5 -105 -29 -33 -20
-38 -28 -37 -59 l0 -37 12 35 c10 28 17 35 37 34 14 -1 28 3 32 9 3 6 19 11
35 13 53 4 113 17 113 23 0 4 -6 15 -12 24 -12 16 -14 16 -25 -2z"/>
<path d="M1828 2314 c23 -14 50 -24 60 -22 11 3 0 12 -32 26 -66 30 -81 28
-28 -4z"/>
<path d="M1594 2204 c-18 -14 -18 -15 4 -4 12 6 22 13 22 15 0 8 -5 6 -26 -11z"/>
<path d="M1566 2171 c-3 -4 -10 -21 -16 -37 l-10 -29 20 24 c11 13 20 29 20
37 0 16 -6 18 -14 5z"/>
<path d="M1955 2140 c-3 -5 -1 -10 4 -10 6 0 11 5 11 10 0 6 -2 10 -4 10 -3 0
-8 -4 -11 -10z"/>
<path d="M1540 2081 c0 -6 0 -14 0 -18 1 -5 11 -7 23 -5 20 2 20 1 5 -8 -10
-6 -18 -15 -18 -19 0 -12 49 -20 56 -10 3 5 16 6 30 3 29 -7 33 15 7 38 -23
20 -103 34 -103 19z"/>
<path d="M275 2015 l-60 -13 61 -1 c39 -1 67 4 80 14 19 14 19 14 -1 13 -11 0
-47 -6 -80 -13z"/>
<path d="M120 1978 c0 -52 20 -170 30 -182 5 -4 5 9 0 30 -15 72 -20 167 -8
181 8 10 7 13 -6 13 -12 0 -16 -10 -16 -42z"/>
<path d="M1686 1973 c-9 -10 8 -44 19 -39 8 3 16 -2 19 -11 9 -22 3 -25 -29
-13 -21 8 -30 8 -36 -2 -6 -9 -13 -8 -28 6 -18 16 -21 17 -21 4 0 -9 9 -18 21
-21 12 -3 18 -10 14 -16 -3 -6 1 -11 9 -11 9 0 16 -4 16 -10 0 -5 7 -7 16 -3
13 5 13 7 2 14 -7 5 3 6 25 2 35 -5 37 -4 37 20 0 15 -9 35 -21 46 -12 11 -19
24 -16 29 6 8 -19 13 -27 5z"/>
<path d="M1504 1818 c4 -18 10 -61 13 -95 3 -35 10 -63 15 -63 11 0 4 90 -11
148 -14 49 -27 57 -17 10z"/>
<path d="M1585 1800 c-17 -54 13 -180 43 -180 3 0 1 5 -6 12 -16 16 -15 40 1
61 11 17 16 17 56 2 43 -15 57 -11 62 15 0 3 2 14 4 25 2 11 9 21 14 23 14 5
14 29 1 37 -6 3 -7 -1 -4 -9 3 -9 2 -16 -4 -16 -6 0 -13 6 -15 13 -3 6 -6 -1
-6 -16 -1 -28 -2 -29 -43 -22 -107 16 -130 51 -34 49 69 -2 62 12 -10 22 -48
6 -52 5 -59 -16z"/>
<path d="M2064 1785 c-10 -8 -14 -15 -8 -15 6 0 17 7 24 15 16 19 9 19 -16 0z"/>
<path d="M151 1776 c0 -5 4 -37 10 -72 10 -58 13 -62 40 -66 36 -6 37 -1 4 12
-16 6 -25 17 -25 30 0 12 5 18 10 15 18 -11 11 17 -9 34 -10 9 -21 25 -24 36
-2 11 -5 16 -6 11z"/>
<path d="M510 1666 c0 -2 7 -6 15 -10 8 -3 15 -1 15 4 0 6 -7 10 -15 10 -8 0
-15 -2 -15 -4z"/>
<path d="M1699 1615 c-25 -37 -55 -51 -90 -42 -20 5 -20 5 -3 -14 13 -14 28
-19 52 -17 31 3 35 7 52 56 10 28 17 52 16 52 -2 0 -14 -16 -27 -35z"/>
<path d="M1537 1573 c-12 -12 -7 -43 7 -43 9 0 12 8 8 25 -5 27 -6 28 -15 18z"/>
<path d="M717 1444 c6 -15 23 -19 23 -5 0 5 -7 11 -14 14 -10 4 -13 1 -9 -9z"/>
<path d="M1063 254 c-4 -10 -2 -19 5 -22 7 -2 12 -10 12 -18 0 -8 5 -14 10
-14 16 0 12 46 -5 60 -12 10 -16 9 -22 -6z"/>
</g>
</svg>
