<?xml version="1.0" encoding="UTF-8" standalone="no"?>
<!-- Generator: Adobe Illustrator 19.0.0, SVG Export Plug-In . SVG Version: 6.00 Build 0)  -->

<svg
   xmlns:dc="http://purl.org/dc/elements/1.1/"
   xmlns:cc="http://creativecommons.org/ns#"
   xmlns:rdf="http://www.w3.org/1999/02/22-rdf-syntax-ns#"
   xmlns:svg="http://www.w3.org/2000/svg"
   xmlns="http://www.w3.org/2000/svg"
   xmlns:sodipodi="http://sodipodi.sourceforge.net/DTD/sodipodi-0.dtd"
   xmlns:inkscape="http://www.inkscape.org/namespaces/inkscape"
   version="1.1"
   id="Ñëîé_1"
   x="0px"
   y="0px"
   viewBox="0 0 700 700"
   xml:space="preserve"
   sodipodi:docname="pacos-de-ferreira-logo-1.svg"
   inkscape:version="0.92.4 (5da689c313, 2019-01-14)"
   width="700"
   height="700"
   inkscape:export-filename="G:\Users\suitedoalex\sites\fc-pacos-de-ferreira-logo-0.png"
   inkscape:export-xdpi="561.73712"
   inkscape:export-ydpi="561.73712"><metadata
   id="metadata89"><rdf:RDF><cc:Work
       rdf:about=""><dc:format>image/svg+xml</dc:format><dc:type
         rdf:resource="http://purl.org/dc/dcmitype/StillImage" /><dc:title></dc:title></cc:Work></rdf:RDF></metadata><defs
   id="defs87" /><sodipodi:namedview
   pagecolor="#ffffff"
   bordercolor="#666666"
   borderopacity="1"
   objecttolerance="10"
   gridtolerance="10"
   guidetolerance="10"
   inkscape:pageopacity="0"
   inkscape:pageshadow="2"
   inkscape:window-width="1600"
   inkscape:window-height="837"
   id="namedview85"
   showgrid="false"
   inkscape:zoom="0.5"
   inkscape:cx="681.49125"
   inkscape:cy="449.24867"
   inkscape:window-x="-8"
   inkscape:window-y="-8"
   inkscape:window-maximized="1"
   inkscape:current-layer="g82" />
<style
   type="text/css"
   id="style2">
	.st0{fill:#952A16;}
	.st1{fill:#CC4537;}
	.st2{fill:#00974D;}
	.st3{fill:#9A0B2B;}
	.st4{fill:#FFFFFF;}
	.st5{fill:#FFE115;}
</style>
<g
   id="g82"
   transform="translate(0,-92)">
	<path
   class="st0"
   d="m 290.14607,261.65854 c -5.28945,10.79333 -16.36869,18.29862 -29.16343,18.29862 -17.86974,0 -32.45145,-14.51023 -32.45145,-32.45146 0,-17.86974 14.51023,-32.45145 32.45145,-32.45145 8.36304,0 15.93982,3.14507 21.65813,8.36304 l 0.21444,0.21444 c 5.21797,-11.00777 16.36869,-18.65602 29.37786,-18.65602 9.00635,0 17.22643,3.71691 23.08771,9.64966 l 0.21444,0.28592 C 341.18206,205.33311 351.61799,198.9 363.4835,198.9 c 11.79403,0 22.15848,6.36163 27.80532,15.79685 l 0.14296,0.21444 c 5.93275,-6.07571 14.15283,-9.8641 23.30214,-9.8641 12.86622,0 24.08842,7.57677 29.30638,18.51306 l 0.0715,0.14295 c 5.7898,-5.28944 13.43805,-8.50599 21.87257,-8.50599 17.86974,0 32.45146,14.51023 32.45146,32.45145 0,17.86975 -14.51024,32.45146 -32.45146,32.45146 -12.9377,0 -24.15989,-7.64825 -29.37786,-18.65602 l -0.21444,0.21444 c -5.71832,5.21797 -13.36657,8.36304 -21.72961,8.36304 -11.93699,0 -22.37292,-6.43311 -27.94828,-16.01129 l -0.28591,0.3574 c -5.86128,5.93275 -14.00988,9.64966 -23.01623,9.64966 -9.14931,0 -17.36939,-3.78839 -23.30215,-9.8641 l -0.21444,0.28591 c -5.71831,9.43523 -16.01129,15.72538 -27.73384,15.72538 -8.43452,0 -16.08277,-3.21655 -21.87257,-8.506 z m 149.89141,-3.50247 c 4.21726,10.22149 14.2958,17.44087 26.01835,17.44087 15.51094,0 28.16272,-12.65178 28.16272,-28.16272 0,-15.51093 -12.65178,-28.16271 -28.16272,-28.16271 -7.93417,0 -15.08207,3.28803 -20.22855,8.57747 l 0.0715,0.21444 c 0.85774,2.93064 1.3581,6.00424 1.3581,9.14931 0,7.79121 -2.7162,14.86763 -7.29086,20.44299 z m -50.24972,-7.86269 c 4.71761,9.07783 14.15284,15.22503 25.01764,15.22503 7.93417,0 15.15355,-3.28804 20.22855,-8.57748 l -0.0715,-0.28592 c -0.85774,-2.85916 -1.28662,-5.93275 -1.28662,-9.07783 0,-7.79121 2.7162,-14.86762 7.29086,-20.51446 l -0.0715,-0.14296 c -4.14578,-10.36445 -14.2958,-17.65531 -26.08983,-17.65531 -8.506,0 -16.08277,3.78839 -21.22925,9.72114 l 0.0715,0.21444 c 1.50106,3.71691 2.35881,7.86269 2.35881,12.15142 0,6.93347 -2.21585,13.43805 -5.93275,18.7275 z m -51.03599,-31.52223 c 3.71691,5.28945 5.93276,11.72256 5.93276,18.65602 0,4.28874 -0.85775,8.36304 -2.35881,12.15142 l -0.0715,0.14296 c 5.14649,6.00424 12.79474,9.72114 21.30074,9.72114 8.36304,0 15.86833,-3.64543 21.01481,-9.5067 l 0.21444,-0.28592 c -1.57254,-3.78838 -2.43028,-7.93416 -2.43028,-12.29438 0,-7.07642 2.28732,-13.65249 6.14719,-19.01341 l -0.0715,-0.21444 c -4.71761,-8.93487 -14.08136,-15.01058 -24.87468,-15.01058 -10.86481,0 -20.30003,6.14719 -24.94617,15.22502 z m -2.35881,4.93205 c -0.71479,2.43029 -1.07218,5.00353 -1.07218,7.64825 0,5.14649 1.3581,10.00706 3.78839,14.15284 l 0.0715,-0.28591 c 0.71479,-2.43029 1.07219,-5.07501 1.07219,-7.79121 0,-5.14649 -1.3581,-9.93558 -3.78839,-14.08136 z m -47.74795,28.94899 c 0.28591,-1.64402 0.50035,-3.35951 0.50035,-5.14649 0,-5.50388 -1.57254,-10.57889 -4.28874,-14.9391 l -0.28591,-0.3574 c -0.28592,1.64402 -0.50036,3.35951 -0.50036,5.14649 0,5.50388 1.57254,10.65037 4.36022,15.01058 z m 3.57395,4.50318 c 5.075,5.14648 12.2229,8.36304 20.01411,8.36304 10.72185,0 20.08559,-6.00424 24.80321,-14.86763 l 0.14295,-0.3574 c -3.85986,-5.36092 -6.14719,-11.86551 -6.14719,-18.94193 0,-4.36021 0.85775,-8.43451 2.43029,-12.2229 l -0.21444,-0.3574 c -5.14649,-5.78979 -12.65178,-9.43522 -21.01482,-9.43522 -11.86551,-0.0715 -22.01552,7.29086 -26.16131,17.72679 l 0.28592,0.28591 c 4.4317,5.57536 7.07642,12.5803 7.07642,20.15707 0,3.28804 -0.50035,6.43311 -1.3581,9.36375 z m -5.21797,0.50035 c -4.50317,-5.57536 -7.1479,-12.5803 -7.1479,-20.30003 0,-3.28803 0.50036,-6.43311 1.3581,-9.43523 l -0.21443,-0.21443 c -5.07501,-5.14649 -12.15143,-8.36304 -20.01412,-8.36304 -15.51093,0 -28.16271,12.65178 -28.16271,28.16271 0,15.51094 12.65178,28.16272 28.16271,28.16272 11.86551,0 22.01553,-7.36233 26.16131,-17.79826 z m 100.92832,-12.43734 c 2.3588,-4.14578 3.7169,-8.8634 3.7169,-13.9384 0,-2.64473 -0.35739,-5.21797 -1.07218,-7.64825 l -0.14296,-0.3574 c -2.43028,4.14578 -3.78838,8.93487 -3.78838,14.08136 0,2.78768 0.42887,5.50388 1.14366,8.07712 z m 50.46415,7.43381 c 2.85916,-4.4317 4.50318,-9.64966 4.50318,-15.2965 0,-1.7155 -0.14296,-3.35951 -0.42887,-4.93205 l -0.0715,-0.21444 c -2.85916,4.4317 -4.50318,9.64966 -4.50318,15.2965 0,1.7155 0.14296,3.35952 0.42888,4.93205 z"
   id="path4"
   style="fill:#cb4838;fill-opacity:1;stroke-width:0.71478975"
   inkscape:connector-curvature="0"
   inkscape:export-filename="G:\Users\suitedoalex\sites\fc-pacos-de-ferreira-logo-4.png"
   inkscape:export-xdpi="106.06626"
   inkscape:export-ydpi="106.06626" />
	<path
   class="st1"
   d="m 530.38691,512.12088 c 2.14437,20.51446 -1.00071,45.17471 -12.00847,72.90855 C 495.00481,644.14255 434.96247,685.1 361.62504,685.1 c -88.63393,0 -141.52838,-60.97157 -141.52838,-60.97157 v -66.68988 c 0,0 53.82368,73.83778 140.59916,73.83778 81.48603,0 145.24528,-65.18883 169.69109,-119.29841 z"
   id="path6"
   inkscape:connector-curvature="0"
   style="fill:#cc4537;stroke-width:0.71478975"
   inkscape:export-filename="G:\Users\suitedoalex\sites\fc-pacos-de-ferreira-logo-4.png"
   inkscape:export-xdpi="106.06626"
   inkscape:export-ydpi="106.06626" />
	
	<path
   class="st2"
   d="m 237.18014,330.1354 v -27.44793 h 252.67819 v 186.41718 c 0,69.76348 -56.53987,126.30335 -126.30335,126.30335 -69.76349,0 -126.30336,-56.53987 -126.30336,-126.30335 v -146.31747 -0.0715 c 2.85916,-3.50247 4.78909,-5.4324 4.78909,-5.4324 l -4.78909,-7.07642 z"
   id="path10"
   style="fill:#009448;fill-opacity:1;stroke-width:0.71478975"
   inkscape:connector-curvature="0"
   inkscape:export-filename="G:\Users\suitedoalex\sites\fc-pacos-de-ferreira-logo-4.png"
   inkscape:export-xdpi="106.06626"
   inkscape:export-ydpi="106.06626" />
	<path
   class="st3"
   d="m 237.10867,390.89253 c -8.72044,-6.86198 -13.72397,-13.9384 -16.51165,-19.15636 l -0.58334,-1.12732 c -0.92922,2.7162 -1.30965,6.61794 -1.95296,9.54858 -3.57395,17.72679 -4.14337,41.30401 -3.92893,56.60052 l 0.31804,0.38148 c 6.36162,5.86128 14.08055,12.33347 22.80099,19.05249 v 0 c 0,0 0.009,-43.47187 0.009,-65.17765 0,-0.0238 -0.006,-0.0129 -0.006,-0.0129 z"
   id="path12"
   inkscape:connector-curvature="0"
   style="fill:#9a0b2b;stroke-width:0.71478975"
   sodipodi:nodetypes="ccccccccscc"
   inkscape:export-filename="G:\Users\suitedoalex\sites\fc-pacos-de-ferreira-logo-4.png"
   inkscape:export-xdpi="106.06626"
   inkscape:export-ydpi="106.06626" />
	<path
   class="st3"
   d="m 488.78614,506.04516 c 16.51165,5.57536 29.66378,13.36657 35.81097,17.36939 l 0.0715,0.0715 c 2.07289,-3.85986 4.00282,-7.64825 5.64684,-11.43663 v -0.14296 c -2.50177,-23.08771 -11.72255,-40.8145 -24.37433,-51.6793 -5.36093,-4.64613 -10.86481,-8.43452 -16.08277,-11.5796 h -0.0715 v 40.45711 c 0,5.71831 -0.3574,11.43663 -1.14366,16.94051 z"
   id="path14"
   inkscape:connector-curvature="0"
   style="fill:#9a0b2b;stroke-width:0.71478975"
   inkscape:export-filename="G:\Users\suitedoalex\sites\fc-pacos-de-ferreira-logo-4.png"
   inkscape:export-xdpi="106.06626"
   inkscape:export-ydpi="106.06626" />
	<path
   class="st4"
   d="m 362.69723,665.3718 -13.79544,-0.50035 0.71479,-18.72749 13.65248,0.50035 -0.0715,2.21585 -11.07924,-0.42888 -0.21444,5.71832 10.2215,0.3574 -0.0715,2.21585 -10.2215,-0.3574 -0.21443,6.29015 11.29367,0.42888 z"
   id="path16"
   inkscape:connector-curvature="0"
   style="fill:#ffffff;stroke-width:0.71478975"
   inkscape:export-filename="G:\Users\suitedoalex\sites\fc-pacos-de-ferreira-logo-4.png"
   inkscape:export-xdpi="106.06626"
   inkscape:export-ydpi="106.06626" />
	<path
   class="st4"
   d="m 372.84724,654.93587 c -0.0715,-0.85775 -0.50035,-2.28733 -3.35951,-2.07289 -0.71479,0.0715 -2.7162,0.42888 -2.57324,2.14437 0.0715,1.14366 0.78627,1.3581 2.57324,1.64402 l 2.35881,0.42887 c 2.85916,0.50035 3.93134,1.50106 4.0743,3.28803 0.21444,2.78768 -2.00141,4.64614 -5.07501,4.86057 -5.36092,0.3574 -6.00423,-2.7162 -6.21867,-4.36021 l 2.21585,-0.14296 c 0.14296,1.07218 0.57183,2.78768 3.78838,2.50176 1.64402,-0.14295 3.0736,-0.85774 3.00212,-2.3588 -0.0715,-1.07219 -0.85775,-1.42958 -2.85916,-1.78698 l -2.7162,-0.42887 c -1.92993,-0.3574 -3.21655,-1.21514 -3.35951,-3.0736 -0.21444,-3.00211 2.14437,-4.50317 4.86057,-4.71761 4.86057,-0.35739 5.4324,3.21655 5.50388,3.85986 z"
   id="path18"
   inkscape:connector-curvature="0"
   style="fill:#ffffff;stroke-width:0.71478975"
   inkscape:export-filename="G:\Users\suitedoalex\sites\fc-pacos-de-ferreira-logo-4.png"
   inkscape:export-xdpi="106.06626"
   inkscape:export-ydpi="106.06626" />
	<path
   class="st4"
   d="m 380.35254,652.50559 1.28662,11.65107 -2.28733,0.28592 -1.28662,-11.65108 -1.85846,0.21444 -0.21443,-1.85845 1.85845,-0.21444 -0.28591,-2.35881 c -0.21444,-2.07289 0.92922,-3.14507 3.21655,-3.35951 0.35739,-0.0715 0.64331,-0.0715 1.07218,-0.0715 l 0.21444,2.07289 c -0.28592,0 -0.64331,0 -0.92923,0.0715 -1.0007,0.14296 -1.28662,0.64331 -1.14366,1.7155 l 0.21444,1.71549 2.28732,-0.28591 0.21444,1.85845 z"
   id="path20"
   inkscape:connector-curvature="0"
   style="fill:#ffffff;stroke-width:0.71478975"
   inkscape:export-filename="G:\Users\suitedoalex\sites\fc-pacos-de-ferreira-logo-4.png"
   inkscape:export-xdpi="106.06626"
   inkscape:export-ydpi="106.06626" />
	<path
   class="st4"
   d="m 388.6441,648.7172 c 4.28874,-0.64331 6.7905,2.7162 7.36233,6.14719 0.50035,3.50247 -0.85775,7.43382 -5.14649,8.07713 -4.28873,0.64331 -6.7905,-2.7162 -7.36233,-6.14719 -0.57183,-3.50247 0.85775,-7.43382 5.14649,-8.07713 z m 1.85845,12.29438 c 3.21655,-0.50035 3.43099,-3.93134 3.14507,-5.78979 -0.28591,-1.78698 -1.42957,-5.07501 -4.71761,-4.57466 -3.21655,0.50036 -3.43099,3.93135 -3.14507,5.7898 0.28591,1.78697 1.50106,5.07501 4.71761,4.57465 z"
   id="path22"
   inkscape:connector-curvature="0"
   style="fill:#ffffff;stroke-width:0.71478975"
   inkscape:export-filename="G:\Users\suitedoalex\sites\fc-pacos-de-ferreira-logo-4.png"
   inkscape:export-xdpi="106.06626"
   inkscape:export-ydpi="106.06626" />
	<path
   class="st4"
   d="m 236.75127,623.05625 -2.07289,-1.42958 7.86269,-17.29791 6.93346,4.78909 c 2.85916,1.92993 3.64543,5.21796 2.3588,8.00564 -1.07218,2.43029 -3.57394,4.28874 -6.93346,2.00141 l -4.86057,-3.35951 z m 4.21726,-9.29227 4.14578,2.85916 c 1.85845,1.28662 3.50247,1.3581 4.57466,-0.92923 1.0007,-2.21584 0,-3.78838 -1.7155,-5.00352 l -4.21726,-2.93064 z"
   id="path24"
   inkscape:connector-curvature="0"
   style="fill:#ffffff;stroke-width:0.71478975"
   inkscape:export-filename="G:\Users\suitedoalex\sites\fc-pacos-de-ferreira-logo-4.png"
   inkscape:export-xdpi="106.06626"
   inkscape:export-ydpi="106.06626" />
	<path
   class="st4"
   d="m 258.98123,620.91188 c 3.50247,2.57324 3.43099,7.00494 1.7155,10.15001 -1.7155,3.14508 -5.00353,5.28945 -8.506,2.7162 -3.50247,-2.57324 -3.43099,-7.00494 -1.7155,-10.15001 1.64402,-3.14508 5.00353,-5.28944 8.506,-2.7162 z m -5.78979,11.07924 c 2.64472,1.92993 4.78909,-0.71479 5.64683,-2.35881 0.85775,-1.64401 1.92994,-5.075 -0.78626,-7.00494 -2.64473,-1.92993 -4.7891,0.71479 -5.64684,2.35881 -0.85775,1.64402 -1.92994,5.07501 0.78627,7.00494 z"
   id="path26"
   inkscape:connector-curvature="0"
   style="fill:#ffffff;stroke-width:0.71478975"
   inkscape:export-filename="G:\Users\suitedoalex\sites\fc-pacos-de-ferreira-logo-4.png"
   inkscape:export-xdpi="106.06626"
   inkscape:export-ydpi="106.06626" />
	<path
   class="st4"
   d="m 262.41222,639.71085 -2.00141,-1.07218 5.14649,-12.72326 1.92993,1.0007 -0.85775,2.14437 h 0.0715 c 1.42958,-1.07218 2.85916,-1.50106 4.36022,-0.64331 0.28592,0.14296 0.35739,0.21444 0.50035,0.3574 l -0.92922,2.21584 -0.78627,-0.42887 c -1.85846,-1.00071 -3.71691,-0.0715 -4.4317,1.78698 z"
   id="path28"
   inkscape:connector-curvature="0"
   style="fill:#ffffff;stroke-width:0.71478975"
   inkscape:export-filename="G:\Users\suitedoalex\sites\fc-pacos-de-ferreira-logo-4.png"
   inkscape:export-xdpi="106.06626"
   inkscape:export-ydpi="106.06626" />
	<path
   class="st4"
   d="m 277.56577,647.07318 -2.28733,-1.07218 6.29015,-17.72679 7.64825,3.50247 c 3.14507,1.42958 4.28874,4.4317 3.28803,7.29086 -0.85775,2.50176 -3.21655,4.64613 -6.93346,2.93064 l -5.36092,-2.43029 z m 3.43099,-9.57818 4.57465,2.07289 c 2.07289,0.92923 3.71691,0.78627 4.57466,-1.57254 0.78627,-2.21584 -0.42888,-3.64542 -2.28733,-4.50317 l -4.64613,-2.14437 z"
   id="path30"
   inkscape:connector-curvature="0"
   style="fill:#ffffff;stroke-width:0.71478975"
   inkscape:export-filename="G:\Users\suitedoalex\sites\fc-pacos-de-ferreira-logo-4.png"
   inkscape:export-xdpi="106.06626"
   inkscape:export-ydpi="106.06626" />
	<path
   class="st4"
   d="m 293.21966,642.9274 c 0.92923,-3.14507 3.28804,-3.64542 6.50459,-2.57324 1.07218,0.3574 4.71761,1.92993 3.85986,5.28944 l -2.00141,7.64826 c -0.14296,0.57183 0.0715,0.85774 0.50036,1.0007 0.21443,0.0715 0.50035,0.14296 0.71479,0.14296 l -0.42888,1.64402 c -0.42887,0 -0.78627,0 -1.28662,-0.14296 -1.92993,-0.64331 -1.92993,-1.78698 -1.78697,-2.78768 -1.07219,0.64331 -2.71621,1.42958 -5.21797,0.57183 -2.35881,-0.78627 -3.64543,-2.93064 -3.0736,-5.21797 0.28592,-1.14366 1.28663,-3.57395 5.00353,-2.78768 l 3.71691,0.78627 c 0.50035,0.14296 1.21514,0.14296 1.57254,-1.21514 0.35739,-1.3581 -0.42888,-2.50176 -2.50177,-3.14508 -2.50176,-0.85774 -3.21655,0.57184 -3.64543,1.57254 z m 7.36234,5.14649 c -0.42888,0.14296 -1.00071,0.21444 -3.78839,-0.35739 -1.07218,-0.21444 -2.85916,-0.42888 -3.35951,1.21514 -0.3574,1.42958 0.14296,2.57324 1.71549,3.07359 2.00142,0.71479 4.36022,0 4.7891,-1.78697 z"
   id="path32"
   inkscape:connector-curvature="0"
   style="fill:#ffffff;stroke-width:0.71478975"
   inkscape:export-filename="G:\Users\suitedoalex\sites\fc-pacos-de-ferreira-logo-4.png"
   inkscape:export-xdpi="106.06626"
   inkscape:export-ydpi="106.06626" />
	<path
   class="st4"
   d="m 306.08588,661.86933 c 0.57183,0.42888 0.92922,0.64331 1.57254,0.78627 0.50035,0.14296 1.42958,0.21444 1.64401,-0.78627 0.14296,-0.78627 -0.71479,-1.21514 -1.07218,-1.28662 -0.21444,-0.0715 -0.50036,-0.0715 -1.00071,0 l -0.35739,-0.57183 1.71549,-1.57254 c -3.35951,-1.07218 -4.86057,-4.21726 -4.21726,-7.93416 0.71479,-4.14579 3.28804,-7.00494 7.71973,-6.00424 3.50247,0.78627 4.36022,3.64543 4.14578,6.07571 l -2.14437,-0.50035 c 0,-1.85845 -0.78627,-3.14507 -2.64472,-3.57395 -2.78768,-0.64331 -4.14578,1.85846 -4.57465,4.21726 -0.42888,2.28733 -0.3574,5.28945 2.7162,6.00424 1.50106,0.35739 3.00212,-0.50036 3.7169,-2.43029 l 2.14437,0.50035 c -0.57183,1.92994 -2.21584,4.50318 -5.64683,4.00283 l -1.14367,1.07218 c 0.28592,0 0.50035,0 0.78627,0.0715 1.64402,0.3574 1.92993,1.57254 1.78697,2.43029 -0.21443,1.3581 -1.50105,2.14436 -3.43099,1.71549 -0.92922,-0.21444 -1.71549,-0.71479 -2.3588,-1.14366 z"
   id="path34"
   inkscape:connector-curvature="0"
   style="fill:#ffffff;stroke-width:0.71478975"
   inkscape:export-filename="G:\Users\suitedoalex\sites\fc-pacos-de-ferreira-logo-4.png"
   inkscape:export-xdpi="106.06626"
   inkscape:export-ydpi="106.06626" />
	<path
   class="st4"
   d="m 323.52675,647.21614 c 4.36022,0.50036 6.07571,4.36022 5.7898,7.93417 -0.21444,3.50247 -2.50177,6.93346 -6.79051,6.50459 -4.36021,-0.50036 -6.07571,-4.36022 -5.78979,-7.93417 0.21443,-3.57395 2.43028,-7.00494 6.7905,-6.50459 z m -0.92923,12.36587 c 3.28803,0.35739 4.14578,-2.93064 4.28874,-4.7891 0.14296,-1.85845 -0.28592,-5.28944 -3.57395,-5.64684 -3.28803,-0.35739 -4.14578,2.93064 -4.28874,4.7891 -0.0715,1.78697 0.3574,5.28944 3.57395,5.64684 z"
   id="path36"
   inkscape:connector-curvature="0"
   style="fill:#ffffff;stroke-width:0.71478975"
   inkscape:export-filename="G:\Users\suitedoalex\sites\fc-pacos-de-ferreira-logo-4.png"
   inkscape:export-xdpi="106.06626"
   inkscape:export-ydpi="106.06626" />
	<path
   class="st4"
   d="m 339.3236,653.93517 c 0.0715,-0.85775 -0.0715,-2.35881 -2.93064,-2.78768 -0.71479,-0.0715 -2.7162,-0.14296 -2.93063,1.50105 -0.14296,1.14367 0.57183,1.50106 2.21584,2.21585 l 2.21585,0.92923 c 2.7162,1.14366 3.57395,2.28733 3.35951,4.14578 -0.35739,2.78768 -2.78768,4.14578 -5.86127,3.64543 -5.36092,-0.78627 -5.36092,-4.00282 -5.28945,-5.64684 l 2.21585,0.35739 c -0.0715,1.07219 0.0715,2.85916 3.28804,3.28804 1.64401,0.21443 3.14507,-0.21444 3.35951,-1.7155 0.14296,-1.07218 -0.57183,-1.57254 -2.43029,-2.35881 l -2.57324,-1.07218 c -1.85845,-0.71479 -2.93064,-1.92993 -2.7162,-3.78839 0.35739,-3.00211 2.93064,-3.93134 5.57536,-3.57394 4.78909,0.71479 4.71761,4.36021 4.64613,5.00352 z"
   id="path38"
   inkscape:connector-curvature="0"
   style="fill:#ffffff;stroke-width:0.71478975"
   inkscape:export-filename="G:\Users\suitedoalex\sites\fc-pacos-de-ferreira-logo-4.png"
   inkscape:export-xdpi="106.06626"
   inkscape:export-ydpi="106.06626" />
	<path
   class="st4"
   d="m 493.93263,594.39318 c -2.00141,-2.64472 -1.42958,-5.21797 0.85775,-7.79121 0.71479,-0.78627 3.57395,-3.50247 5.78979,-0.78627 l 5.00353,6.14719 c 0.3574,0.42888 0.71479,0.42888 1.00071,0.0715 0.14296,-0.14296 0.28591,-0.42887 0.42887,-0.64331 l 1.07219,1.28662 c -0.21444,0.3574 -0.28592,0.71479 -0.64331,1.14367 -1.3581,1.50106 -2.21585,0.92922 -2.93064,0.14295 0,1.42958 -0.0715,3.431 -1.85846,5.43241 -1.64401,1.85845 -3.85986,1.92993 -5.36092,0.14295 -0.71479,-0.92922 -2.21585,-3.21655 0,-6.4331 l 2.21585,-3.21656 c 0.35739,-0.42887 0.64331,-1.07218 -0.21444,-2.14437 -0.92922,-1.14366 -2.14437,-0.92922 -3.57395,0.64331 -1.71549,1.92994 -0.92922,3.50247 -0.35739,4.4317 z m 7.1479,-4.28874 c -0.0715,0.50035 -0.28592,1.07218 -1.92994,3.50247 -0.64331,0.92923 -1.64401,2.57324 -0.50035,3.93134 0.92923,1.14367 2.00141,1.28662 3.14508,0 1.42958,-1.57253 1.92993,-4.21726 0.78627,-5.64684 z"
   id="path40"
   inkscape:connector-curvature="0"
   style="fill:#ffffff;stroke-width:0.71478975"
   inkscape:export-filename="G:\Users\suitedoalex\sites\fc-pacos-de-ferreira-logo-4.png"
   inkscape:export-xdpi="106.06626"
   inkscape:export-ydpi="106.06626" />
	<path
   class="st4"
   d="m 485.99846,593.32099 -1.57253,-2.07289 1.57253,-1.64401 1.64402,2.07289 z m 11.5796,11.2222 -1.57254,1.64402 -8.43452,-10.93628 1.57254,-1.64402 z"
   id="path42"
   inkscape:connector-curvature="0"
   style="fill:#ffffff;stroke-width:0.71478975"
   inkscape:export-filename="G:\Users\suitedoalex\sites\fc-pacos-de-ferreira-logo-4.png"
   inkscape:export-xdpi="106.06626"
   inkscape:export-ydpi="106.06626" />
	<path
   class="st4"
   d="m 491.50234,610.61891 -1.64401,1.57253 -8.22008,-11.00776 1.57253,-1.50106 1.3581,1.85846 0.0715,-0.0715 c -0.28591,-1.92994 -0.0715,-3.64543 1.14367,-4.86057 0.21443,-0.21444 0.28591,-0.28592 0.50035,-0.3574 l 1.42958,1.92993 -0.64331,0.57184 c -1.50106,1.50105 -1.50106,3.78838 -0.28592,5.36092 z"
   id="path44"
   inkscape:connector-curvature="0"
   style="fill:#ffffff;stroke-width:0.71478975"
   inkscape:export-filename="G:\Users\suitedoalex\sites\fc-pacos-de-ferreira-logo-4.png"
   inkscape:export-xdpi="106.06626"
   inkscape:export-ydpi="106.06626" />
	<path
   class="st4"
   d="m 474.9907,606.04425 c 3.28803,-2.78768 6.86198,-1.0007 8.86339,1.92993 2.00142,2.93064 2.50177,7.29086 -0.78626,10.15002 -3.28804,2.78768 -6.86199,1.0007 -8.8634,-1.92993 -2.00141,-3.00212 -2.57324,-7.36234 0.78627,-10.15002 z m 6.93346,10.36445 c 2.50177,-2.14437 1.14367,-5.4324 0.0715,-6.93346 -1.00071,-1.50106 -3.43099,-3.93134 -5.93275,-1.78697 -2.50177,2.14437 -1.14367,5.4324 -0.0715,6.93346 1.0007,1.50106 3.43099,3.93134 5.93275,1.78697 z m -7.29085,-11.93699 -1.3581,1.14367 -0.28592,-4.57466 2.14437,-1.85845 z"
   id="path46"
   inkscape:connector-curvature="0"
   style="fill:#ffffff;stroke-width:0.71478975"
   inkscape:export-filename="G:\Users\suitedoalex\sites\fc-pacos-de-ferreira-logo-4.png"
   inkscape:export-xdpi="106.06626"
   inkscape:export-ydpi="106.06626" />
	<path
   class="st4"
   d="m 469.27238,613.6925 4.50318,7.71973 c 0.57183,0.92923 1.28662,0.42888 1.64401,0.14296 l 0.64332,-0.50035 0.92922,1.57253 c -0.64331,0.57184 -1.14366,1.00071 -1.28662,1.14367 -1.85845,1.3581 -2.85916,0.50035 -3.71691,-0.92923 l -4.57465,-7.79121 -1.50106,1.07219 -0.92923,-1.64402 1.50106,-1.07218 -1.92993,-3.28804 1.85845,-1.3581 1.92994,3.28804 1.78697,-1.28663 0.92923,1.64402 z"
   id="path48"
   inkscape:connector-curvature="0"
   style="fill:#ffffff;stroke-width:0.71478975"
   inkscape:export-filename="G:\Users\suitedoalex\sites\fc-pacos-de-ferreira-logo-4.png"
   inkscape:export-xdpi="106.06626"
   inkscape:export-ydpi="106.06626" />
	<path
   class="st4"
   d="m 471.13084,627.48794 -1.85846,1.35811 -7.07642,-11.72256 1.85846,-1.3581 z m -10.29298,-12.50882 -1.3581,-2.21584 1.85846,-1.35811 1.3581,2.21585 z"
   id="path50"
   inkscape:connector-curvature="0"
   style="fill:#ffffff;stroke-width:0.71478975"
   inkscape:export-filename="G:\Users\suitedoalex\sites\fc-pacos-de-ferreira-logo-4.png"
   inkscape:export-xdpi="106.06626"
   inkscape:export-ydpi="106.06626" />
	<path
   class="st4"
   d="m 456.12025,615.12208 2.35881,-1.57254 3.35951,20.22855 -2.21585,1.50106 -14.72467,-12.72325 2.35881,-1.57254 12.15142,11.07924 h 0.0715 z"
   id="path52"
   inkscape:connector-curvature="0"
   style="fill:#ffffff;stroke-width:0.71478975"
   inkscape:export-filename="G:\Users\suitedoalex\sites\fc-pacos-de-ferreira-logo-4.png"
   inkscape:export-xdpi="106.06626"
   inkscape:export-ydpi="106.06626" />
	<path
   class="st4"
   d="m 445.89876,638.20979 c 0.21443,0.64331 0.42887,2.7162 -0.57183,4.57466 -0.3574,0.64331 -0.92923,1.57253 -2.85916,2.57324 -3.35952,1.78697 -6.57607,0.21444 -8.22009,-3.35951 -1.71549,-3.85987 -1.3581,-7.86269 2.64473,-10.00706 3.50247,-1.85845 6.50458,0.14296 8.50599,4.50318 l -8.79191,4.64613 c 1.14366,2.57324 3.00212,3.50247 5.36092,2.21585 1.92994,-1.00071 2.35881,-3.14508 2.00141,-4.0743 z m -3.43099,-2.28733 c -1.00071,-1.85845 -2.57325,-3.21655 -5.07501,-1.92993 -1.85845,1.00071 -2.50177,3.57395 -1.64402,5.50388 z"
   id="path54"
   inkscape:connector-curvature="0"
   style="fill:#ffffff;stroke-width:0.71478975"
   inkscape:export-filename="G:\Users\suitedoalex\sites\fc-pacos-de-ferreira-logo-4.png"
   inkscape:export-xdpi="106.06626"
   inkscape:export-ydpi="106.06626" />
	<path
   class="st4"
   d="m 420.52372,639.63937 c 4.21726,-1.14366 6.93346,2.00141 7.64825,5.4324 0.71479,3.43099 -0.42887,7.57677 -4.64613,8.64896 -4.21726,1.14366 -6.93346,-2.00141 -7.64825,-5.4324 -0.71479,-3.43099 0.42887,-7.5053 4.64613,-8.64896 z m 2.64472,12.15143 c 3.14508,-0.85775 3.14508,-4.36022 2.7162,-6.1472 -0.35739,-1.78697 -1.71549,-4.93204 -4.93205,-4.0743 -3.14507,0.85775 -3.14507,4.36022 -2.7162,6.1472 0.3574,1.78697 1.7155,4.93204 4.93205,4.0743 z"
   id="path56"
   inkscape:connector-curvature="0"
   style="fill:#ffffff;stroke-width:0.71478975"
   inkscape:export-filename="G:\Users\suitedoalex\sites\fc-pacos-de-ferreira-logo-4.png"
   inkscape:export-xdpi="106.06626"
   inkscape:export-ydpi="106.06626" />
	<path
   class="st4"
   d="m 410.23075,662.36969 c 0.71479,0.0715 1.07218,0.0715 1.71549,-0.0715 0.50036,-0.14296 1.3581,-0.50036 1.14367,-1.50106 -0.21444,-0.78627 -1.07219,-0.71479 -1.42958,-0.64331 -0.21444,0.0715 -0.42888,0.21443 -0.92923,0.50035 l -0.57183,-0.35739 0.85775,-2.21585 c -3.43099,0.71479 -6.07572,-1.42958 -7.00494,-5.07501 -1.00071,-4.0743 0.14295,-7.93417 4.43169,-9.14931 3.43099,-1.00071 5.36093,1.14366 6.1472,3.43099 l -2.14437,0.64331 c -0.71479,-1.71549 -1.92994,-2.50176 -3.78839,-1.92993 -2.7162,0.78627 -2.93064,3.64543 -2.35881,6.00423 0.57184,2.28733 1.85846,4.93205 4.86057,4.07431 1.50106,-0.42888 2.50177,-1.92994 2.35881,-4.07431 l 2.14437,-0.64331 c 0.28592,2.00141 -0.14296,5.07501 -3.43099,6.36163 l -0.64331,1.50106 c 0.28591,-0.14296 0.42887,-0.21444 0.78627,-0.35739 1.64401,-0.50036 2.3588,0.50035 2.57324,1.28662 0.35739,1.28662 -0.50035,2.64472 -2.35881,3.21655 -0.92922,0.28592 -1.85845,0.21444 -2.57324,0.14296 z"
   id="path58"
   inkscape:connector-curvature="0"
   style="fill:#ffffff;stroke-width:0.71478975"
   inkscape:export-filename="G:\Users\suitedoalex\sites\fc-pacos-de-ferreira-logo-4.png"
   inkscape:export-xdpi="106.06626"
   inkscape:export-ydpi="106.06626" />
	<path
   class="st4"
   d="m 401.2244,660.72567 -2.21585,0.57183 -3.00212,-13.29509 2.07289,-0.50035 0.50035,2.21585 h 0.0715 c 0.57184,-1.78698 1.50106,-3.14508 3.14508,-3.50247 0.28591,-0.0715 0.42887,-0.0715 0.57183,-0.0715 l 0.50035,2.28732 -0.85774,0.21444 c -2.0729,0.50035 -3.00212,2.50177 -2.57325,4.4317 z"
   id="path60"
   inkscape:connector-curvature="0"
   style="fill:#ffffff;stroke-width:0.71478975"
   inkscape:export-filename="G:\Users\suitedoalex\sites\fc-pacos-de-ferreira-logo-4.png"
   inkscape:export-xdpi="106.06626"
   inkscape:export-ydpi="106.06626" />
	<path
   d="m 423.16844,318.19841 c -5.57536,4.64614 -8.36304,11.43664 -8.36304,20.08559 0,6.50459 1.57254,11.86551 4.71761,16.08277 3.14508,4.14578 6.93347,7.07642 11.29368,8.79192 4.28874,1.64401 9.93558,2.50176 16.6546,2.50176 5.57536,0 10.2215,-0.71479 13.86693,-2.07289 3.64542,-1.3581 6.71902,-3.43099 9.22078,-6.07571 2.50177,-2.64472 4.28874,-6.07571 5.43241,-10.00706 l 0.14295,-0.50035 -17.79826,-4.4317 -0.14296,0.50036 c -0.78627,3.14507 -2.14437,5.50388 -3.93134,7.14789 -1.78698,1.57254 -4.4317,2.43029 -7.93417,2.43029 -3.64543,0 -6.43311,-1.00071 -8.43452,-3.00212 -2.00141,-2.00141 -3.00212,-5.7898 -3.00212,-11.36516 0,-4.43169 0.85775,-7.71973 2.50177,-9.79262 2.21585,-2.78768 5.4324,-4.14578 9.57818,-4.14578 1.85846,0 3.50247,0.28592 5.00353,0.92923 1.50106,0.64331 2.7162,1.50106 3.71691,2.64472 0.57183,0.64331 1.21514,1.78698 1.78697,3.28804 l 0.14296,0.42887 17.94122,-3.28803 -0.21443,-0.57184 c -2.21585,-5.50388 -5.64684,-9.64966 -10.15002,-12.36586 -4.50317,-2.64472 -10.79332,-4.00282 -18.65601,-4.00282 -10.00706,-0.21444 -17.86975,2.14437 -23.37363,6.7905 z"
   id="path62"
   inkscape:connector-curvature="0"
   style="stroke-width:0.71478975"
   inkscape:export-filename="G:\Users\suitedoalex\sites\fc-pacos-de-ferreira-logo-4.png"
   inkscape:export-xdpi="106.06626"
   inkscape:export-ydpi="106.06626" />
	<path
   d="m 313.30525,364.08791 -0.71478,0.50036 0.92922,0.50035 c 22.58736,13.00917 37.81238,35.59653 40.74302,60.47121 -24.87469,-2.93063 -47.46204,-18.15566 -60.47122,-40.81449 l -0.50035,-0.92923 -0.50035,0.71479 c -10.43593,14.72467 -16.01129,32.09406 -16.01129,50.17824 0,18.08419 5.50388,35.45358 16.01129,50.17825 l 0.42887,0.57183 0.57183,-0.64331 v -0.0715 c 13.00918,-22.73032 35.59653,-37.95534 60.5427,-40.88598 -2.93064,24.80321 -18.08418,47.39056 -40.67154,60.39974 l -1.00071,0.64331 0.64331,0.50035 c 14.72467,10.43593 32.09407,16.01129 50.17825,16.01129 18.15566,0 35.45357,-5.50388 50.17824,-16.01129 l 0.71479,-0.50035 -1.14367,-0.57183 c -22.51587,-13.00918 -37.66942,-35.59653 -40.60005,-60.39974 24.87468,2.93064 47.46204,18.15566 60.54269,40.8145 l 0.50035,0.78627 0.42888,-0.64331 c 10.43593,-14.72467 16.01129,-32.09406 16.01129,-50.17825 0,-18.08418 -5.50388,-35.45357 -16.01129,-50.17824 l -0.42888,-0.57183 -0.50035,0.71479 c -13.08065,22.73031 -35.66801,37.95534 -60.54269,40.88597 2.93063,-24.87468 18.15566,-47.53351 40.88597,-60.54269 l 0.0715,-0.0715 0.78627,-0.42887 -0.71479,-0.50035 c -14.72467,-10.50741 -32.09406,-16.0113 -50.17824,-16.0113 -18.08418,0.0715 -35.45358,5.64684 -50.17825,16.08277 z"
   id="path64"
   inkscape:connector-curvature="0"
   style="stroke-width:0.71478975"
   inkscape:export-filename="G:\Users\suitedoalex\sites\fc-pacos-de-ferreira-logo-4.png"
   inkscape:export-xdpi="106.06626"
   inkscape:export-ydpi="106.06626" />
	<path
   d="m 298.79502,312.05122 h -47.81943 v 52.68001 h 20.30003 c 0,0 0,-20.0856 0,-21.0863 1.0007,0 23.94545,0 23.94545,0 v -11.50812 c 0,0 -22.94475,0 -23.94545,0 0,-0.85775 0,-7.07642 0,-7.93416 1.0007,0 28.01976,0 28.01976,0 v -12.15143 z"
   id="path66"
   inkscape:connector-curvature="0"
   style="stroke-width:0.71478975"
   inkscape:export-filename="G:\Users\suitedoalex\sites\fc-pacos-de-ferreira-logo-4.png"
   inkscape:export-xdpi="106.06626"
   inkscape:export-ydpi="106.06626" />
	<path
   class="st5"
   d="m 431.17409,362.0865 c -4.14578,-1.57253 -7.79121,-4.43169 -10.79333,-8.43452 -3.00211,-4.00282 -4.50317,-9.1493 -4.50317,-15.43945 0,-8.29157 2.7162,-14.79615 8.00564,-19.22785 5.36093,-4.50318 13.00918,-6.71902 22.8018,-6.71902 7.64825,0 13.79544,1.28662 18.15566,3.85986 4.14578,2.43029 7.29085,6.21867 9.43522,11.2222 -1.21514,0.21444 -15.01058,2.78768 -15.79685,2.93064 -0.57183,-1.42958 -1.14367,-2.50177 -1.78698,-3.21656 -1.14366,-1.28662 -2.50176,-2.28732 -4.14578,-2.93063 -1.64401,-0.71479 -3.43099,-1.00071 -5.4324,-1.00071 -4.50318,0 -8.00565,1.50106 -10.43593,4.57466 -1.78698,2.21584 -2.7162,5.71831 -2.7162,10.43593 0,5.78979 1.07218,9.86409 3.28803,12.07994 2.21585,2.21585 5.28945,3.35952 9.14931,3.35952 3.78839,0 6.71902,-0.92923 8.64896,-2.71621 1.85845,-1.64401 3.21655,-4.0743 4.0743,-7.14789 0.85775,0.21443 14.72467,3.64542 15.72537,3.93134 -1.07218,3.57395 -2.78768,6.64754 -5.00353,9.07783 -2.3588,2.57324 -5.28944,4.50318 -8.79191,5.7898 -3.50247,1.28662 -8.07712,2.00141 -13.50953,2.00141 -6.64754,-0.0715 -12.15142,-0.85775 -16.36868,-2.43029 z"
   id="path68"
   inkscape:connector-curvature="0"
   style="fill:#ffe115;stroke-width:0.71478975"
   inkscape:export-filename="G:\Users\suitedoalex\sites\fc-pacos-de-ferreira-logo-4.png"
   inkscape:export-xdpi="106.06626"
   inkscape:export-ydpi="106.06626" />
	<path
   d="m 310.23166,519.69765 c 7.00494,0 12.36586,1.42958 15.86833,4.21726 3.57395,2.85916 5.36093,6.93346 5.36093,12.15142 0,5.36093 -1.92994,9.57819 -5.7898,12.65178 -3.78839,3.00212 -9.72114,4.50318 -17.51235,4.50318 0,0 -8.93487,0 -9.8641,0 0,1.0007 0,19.15636 0,19.15636 h -20.30003 v -52.68 h 0.57183 z m -12.00847,11.57959 c 0,0.92923 0,9.50671 0,10.43593 0.85775,0 4.14578,0 4.14578,0 3.57395,0 6.00424,-0.50035 7.43382,-1.50106 1.3581,-1.0007 2.00141,-2.14437 2.00141,-3.64542 0,-1.50106 -0.57184,-2.71621 -1.78698,-3.71691 -1.21514,-1.00071 -3.50247,-1.57254 -6.93346,-1.57254 0.0715,0 -3.93134,0 -4.86057,0 z"
   id="path70"
   inkscape:connector-curvature="0"
   style="stroke-width:0.71478975"
   inkscape:export-filename="G:\Users\suitedoalex\sites\fc-pacos-de-ferreira-logo-4.png"
   inkscape:export-xdpi="106.06626"
   inkscape:export-ydpi="106.06626" />
	<path
   d="m 454.54771,519.69765 h -47.81943 v 52.68 h 20.30003 c 0,0 0,-20.08559 0,-21.08629 1.0007,0 23.94545,0 23.94545,0 v -11.50812 c 0,0 -22.94475,0 -23.94545,0 0,-0.85775 0,-7.07642 0,-7.93417 1.0007,0 28.01976,0 28.01976,0 v -12.15142 z"
   id="path72"
   inkscape:connector-curvature="0"
   style="stroke-width:0.71478975"
   inkscape:export-filename="G:\Users\suitedoalex\sites\fc-pacos-de-ferreira-logo-4.png"
   inkscape:export-xdpi="106.06626"
   inkscape:export-ydpi="106.06626" />
	<path
   class="st5"
   d="m 298.22319,313.1234 c 0,0.92923 0,9.07783 0,10.00706 -1.0007,0 -28.01976,0 -28.01976,0 V 333.209 c 0,0 22.94475,0 23.94546,0 0,0.92922 0,8.43452 0,9.36374 -1.00071,0 -23.94546,0 -23.94546,0 0,0 0,20.0856 0,21.0863 -1.0007,0 -17.15495,0 -18.15566,0 0,-1.07218 0,-49.46345 0,-50.53564 1.00071,0 45.17472,0 46.17542,0 z"
   id="path74"
   inkscape:connector-curvature="0"
   style="fill:#ffe115;stroke-width:0.71478975"
   inkscape:export-filename="G:\Users\suitedoalex\sites\fc-pacos-de-ferreira-logo-4.png"
   inkscape:export-xdpi="106.06626"
   inkscape:export-ydpi="106.06626" />
	<path
   class="st5"
   d="m 310.23166,520.76983 c 6.7905,0 11.86551,1.3581 15.22502,4.00282 3.28803,2.64473 4.93205,6.43311 4.93205,11.29368 0,5.00353 -1.78697,9.00635 -5.4324,11.79403 -3.64543,2.85916 -9.29227,4.28874 -16.79756,4.28874 h -10.93628 c 0,0 0,18.15566 0,19.15637 -1.00071,0 -17.15496,0 -18.15567,0 0,-1.07219 0,-49.46345 0,-50.53564 1.00071,0 31.16484,0 31.16484,0 z m -12.50882,9.43523 h -0.57183 v 12.5803 h 5.21796 c 3.78839,0 6.43311,-0.57183 8.07713,-1.7155 1.64401,-1.14366 2.43028,-2.7162 2.43028,-4.57465 0,-1.78698 -0.71479,-3.28804 -2.14437,-4.50318 -1.42958,-1.21514 -3.93134,-1.85845 -7.64825,-1.85845 h -5.36092 z"
   id="path76"
   inkscape:connector-curvature="0"
   style="fill:#ffe115;stroke-width:0.71478975"
   inkscape:export-filename="G:\Users\suitedoalex\sites\fc-pacos-de-ferreira-logo-4.png"
   inkscape:export-xdpi="106.06626"
   inkscape:export-ydpi="106.06626" />
	<path
   class="st5"
   d="m 453.97588,520.76983 c 0,0.92923 0,9.07783 0,10.00706 -1.0007,0 -28.01976,0 -28.01976,0 v 10.07853 c 0,0 22.94475,0 23.94546,0 0,0.92923 0,8.43452 0,9.36375 -1.00071,0 -23.94546,0 -23.94546,0 0,0 0,20.08559 0,21.0863 -1.0007,0 -17.15495,0 -18.15566,0 0,-1.07219 0,-49.46345 0,-50.53564 1.00071,0 45.17472,0 46.17542,0 z"
   id="path78"
   inkscape:connector-curvature="0"
   style="fill:#ffe115;stroke-width:0.71478975"
   inkscape:export-filename="G:\Users\suitedoalex\sites\fc-pacos-de-ferreira-logo-4.png"
   inkscape:export-xdpi="106.06626"
   inkscape:export-ydpi="106.06626" />
	<path
   class="st1"
   d="m 363.4835,349.14881 c 17.58382,0 34.45286,5.28944 48.89162,15.36798 -22.8018,13.36657 -38.02682,36.23984 -40.8145,61.40044 v 0.28592 0.57183 l 0.57183,-0.0715 c 25.30356,-2.78768 48.24831,-18.0127 61.61488,-40.88598 10.00706,14.36728 15.36798,31.23632 15.36798,48.89162 0,17.58383 -5.28944,34.45287 -15.36798,48.89162 -13.36657,-22.80179 -36.31132,-38.09829 -61.61488,-40.88597 l -0.57183,-0.0715 v 0.78627 c 2.78768,25.23208 18.08418,48.17683 40.8145,61.47192 -14.36728,10.00706 -31.23632,15.36798 -48.89162,15.36798 -17.58383,0 -34.45287,-5.28945 -48.89162,-15.36798 22.73031,-13.29509 38.02681,-36.23984 40.81449,-61.40044 v 0 -0.85775 l -0.57183,0.0715 c -25.30356,2.78768 -48.24831,18.0127 -61.61488,40.88597 -10.00705,-14.36727 -15.36798,-31.23631 -15.36798,-48.89162 0,-17.58382 5.28945,-34.45286 15.36798,-48.89162 13.36657,22.87328 36.31132,38.0983 61.61488,40.88598 l 0.64331,0.0715 -0.0715,-0.85775 c -2.85916,-25.23208 -18.08418,-48.10535 -40.81449,-61.40044 14.43875,-10.00706 31.30779,-15.36798 48.89162,-15.36798 z"
   id="path80"
   style="fill:#cb4838;fill-opacity:1;stroke-width:0.71478975"
   inkscape:connector-curvature="0"
   inkscape:export-filename="G:\Users\suitedoalex\sites\fc-pacos-de-ferreira-logo-4.png"
   inkscape:export-xdpi="106.06626"
   inkscape:export-ydpi="106.06626" />
<path
   class="st1"
   d="m 214.44983,437.13943 c -24.22555,-19.97081 -35.16068,-34.70213 -39.95533,-43.28274 -6.72931,-12.14955 -10.09397,-33.41124 6.72933,-59.76056 16.82328,-26.34933 37.45194,-46.00322 37.45194,-46.00322 l 31.37545,41.71494 c 0,0 -25.67566,21.52544 -31.22735,46.81167 -4.20581,18.83179 -4.62639,44.11803 -4.37404,60.36804 z"
   id="path8"
   style="fill:#cb4838;fill-opacity:1;stroke-width:0.79920918"
   inkscape:connector-curvature="0"
   sodipodi:nodetypes="ccsccccc"
   inkscape:export-filename="G:\Users\suitedoalex\sites\fc-pacos-de-ferreira-logo-4.png"
   inkscape:export-xdpi="106.06626"
   inkscape:export-ydpi="106.06626" /></g>
</svg>