<?xml version="1.0" standalone="no"?>
<!DOCTYPE svg PUBLIC "-//W3C//DTD SVG 20010904//EN"
 "http://www.w3.org/TR/2001/REC-SVG-20010904/DTD/svg10.dtd">
<svg version="1.0" xmlns="http://www.w3.org/2000/svg"
 width="1280.000000pt" height="877.000000pt" viewBox="0 0 1280.000000 877.000000"
 preserveAspectRatio="xMidYMid meet">
<g transform="translate(0.000000,877.000000) scale(0.100000,-0.100000)"
fill="#000000" stroke="none">
<path d="M10970 8767 c-3 -3 -50 -10 -105 -16 -747 -82 -1452 -447 -2081
-1075 -564 -564 -956 -1255 -1090 -1920 -34 -171 -33 -166 -47 -166 -9 0 -30
-82 -66 -247 -109 -513 -200 -870 -297 -1163 -88 -267 -255 -589 -503 -968
-92 -140 -111 -158 -139 -130 -10 10 -33 -9 -110 -85 -53 -53 -102 -97 -107
-97 -6 0 -46 36 -90 80 -52 52 -83 76 -89 70 -43 -43 -111 40 -319 385 -99
164 -235 434 -287 566 -99 255 -217 696 -341 1279 -33 155 -58 252 -69 265 -9
11 -22 54 -29 95 -17 111 -66 298 -116 445 -353 1046 -1281 2030 -2295 2433
-268 107 -536 171 -839 202 -938 94 -1692 -407 -1891 -1257 -47 -197 -68 -441
-51 -576 6 -50 16 -130 22 -177 129 -1025 947 -2117 2037 -2719 321 -177 695
-312 1030 -371 52 -10 76 -19 83 -32 5 -10 17 -18 25 -18 32 0 628 -134 869
-195 524 -133 770 -226 1115 -423 141 -80 392 -238 466 -293 53 -39 55 -41 40
-63 -14 -22 -11 -26 85 -122 54 -54 99 -106 99 -114 0 -8 -314 -329 -698 -713
l-697 -697 -110 0 -110 0 -87 -87 c-49 -48 -88 -92 -88 -98 0 -5 154 -164 343
-353 l342 -342 87 87 88 88 9 95 10 94 708 708 c389 389 712 708 718 708 5 0
328 -318 717 -708 l708 -707 0 -110 0 -110 94 -94 c81 -81 97 -93 110 -82 13
11 20 10 42 -4 l27 -17 346 346 346 346 -85 85 c-82 82 -88 86 -145 95 -33 5
-78 10 -100 10 -39 0 -48 8 -777 737 -406 406 -738 745 -738 753 0 9 41 56 90
105 50 49 90 95 90 101 0 6 -7 17 -15 24 -8 7 -15 19 -15 27 0 25 413 287 654
413 306 161 594 258 1181 398 197 47 636 142 657 142 8 0 23 8 32 19 11 12 43
23 93 31 206 33 510 128 752 236 877 390 1685 1182 2067 2027 208 459 305 967
256 1342 -32 242 -81 412 -172 600 -158 327 -398 567 -725 725 -187 91 -363
141 -595 171 -99 13 -313 23 -320 16z m183 -273 c20 -4 37 -12 37 -17 0 -14
-101 -117 -114 -117 -12 0 -126 110 -126 121 0 17 130 25 203 13z m-257 -106
c52 -50 94 -99 94 -107 0 -20 -330 -351 -350 -351 -8 0 -91 76 -184 169 -188
189 -182 173 -104 248 47 45 102 65 283 102 87 18 113 23 159 30 5 0 51 -40
102 -91z m585 58 c167 -42 369 -129 369 -159 0 -7 -79 -91 -175 -187 l-175
-175 -177 177 -178 178 95 95 c72 72 101 95 121 95 15 0 69 -11 120 -24z
m-9646 -5 c0 -8 -8 -19 -17 -25 -14 -8 -21 -7 -34 6 -9 9 -13 21 -9 28 10 15
60 8 60 -9z m-208 -73 c35 -34 63 -67 63 -73 0 -13 -302 -315 -315 -315 -14 0
-295 282 -295 296 0 15 136 76 240 108 131 40 152 44 200 45 42 1 48 -3 107
-61z m643 28 c168 -43 260 -76 274 -99 9 -15 -11 -40 -147 -174 l-158 -157
-154 154 c-85 85 -155 159 -155 165 0 5 30 40 67 77 82 82 82 82 273 34z
m7860 -123 c0 -12 -333 -343 -345 -343 -11 0 -115 101 -115 112 0 11 170 109
309 177 118 58 151 70 151 54z m1902 -101 c40 -33 93 -81 118 -108 50 -54 140
-176 140 -190 0 -13 -353 -364 -365 -364 -13 0 -345 332 -345 345 0 11 361
375 372 375 4 0 40 -26 80 -58z m-780 -139 c93 -92 168 -172 168 -178 0 -13
-342 -355 -355 -355 -13 0 -345 332 -345 345 0 13 342 355 355 355 5 0 85 -75
177 -167z m-10145 5 c84 -84 153 -159 153 -168 0 -8 -70 -85 -155 -170 l-155
-155 -167 167 -167 167 27 38 c71 103 255 273 294 273 9 0 85 -68 170 -152z
m9285 -15 c93 -92 168 -172 168 -177 0 -12 -308 -324 -334 -338 -16 -9 -42 13
-187 158 -93 93 -169 176 -169 184 0 19 320 340 340 340 8 0 90 -75 182 -167z
m-8420 0 c82 -81 148 -155 148 -163 0 -20 -290 -310 -310 -310 -9 0 -82 67
-164 149 -126 127 -146 152 -138 168 14 24 296 303 308 303 5 0 75 -66 156
-147z m863 -13 l150 -150 -155 -155 c-85 -85 -159 -155 -165 -155 -6 0 -78 68
-160 150 l-150 150 155 155 c85 85 159 155 165 155 6 0 78 -68 160 -150z m277
19 l23 -18 -22 -23 -23 -22 -60 59 c-78 77 -78 96 -1 54 33 -18 70 -41 83 -50z
m6538 -115 l63 -66 -174 -174 c-95 -96 -178 -174 -183 -174 -5 0 -48 38 -94
84 -64 64 -82 88 -75 100 19 35 362 296 388 296 6 0 40 -30 75 -66z m-6240
-90 c141 -106 210 -165 210 -176 0 -16 -82 -98 -99 -98 -20 0 -301 279 -301
299 0 21 40 61 61 61 9 0 67 -39 129 -86z m6552 -221 c93 -92 168 -175 168
-183 0 -16 -329 -350 -345 -350 -16 0 -345 334 -345 350 0 16 329 350 346 350
5 0 84 -75 176 -167z m858 -8 l175 -175 -178 -178 -177 -177 -177 177 -178
178 175 175 c96 96 177 175 180 175 3 0 84 -79 180 -175z m863 7 c92 -93 167
-170 167 -173 0 -2 -81 -85 -180 -184 l-179 -179 -171 169 c-93 93 -170 176
-170 185 0 20 330 350 350 350 9 0 91 -76 183 -168z m704 111 c54 -122 97
-265 118 -398 l13 -79 -76 -78 c-41 -43 -80 -78 -86 -78 -17 0 -346 333 -346
350 0 18 320 340 338 340 7 0 25 -26 39 -57z m-11692 -123 l150 -150 -155
-155 c-85 -85 -159 -155 -165 -155 -5 0 -40 30 -77 67 -50 50 -68 75 -68 94 0
92 126 449 158 449 4 0 75 -68 157 -150z m858 2 c81 -82 147 -152 147 -157 0
-12 -302 -315 -315 -315 -16 0 -305 293 -305 310 0 20 291 310 310 310 9 0 82
-67 163 -148z m854 -4 c79 -79 143 -147 143 -153 0 -12 -301 -315 -314 -315
-16 0 -296 283 -296 299 0 20 290 311 310 311 8 0 79 -64 157 -142z m850 0
c79 -79 143 -150 143 -158 0 -17 -290 -310 -306 -310 -12 0 -304 292 -304 305
0 16 293 305 310 305 8 0 79 -64 157 -142z m5936 -71 c48 -46 87 -88 87 -93 0
-5 -78 -88 -174 -183 l-175 -175 -85 84 c-47 46 -86 91 -86 100 0 19 316 350
334 350 6 0 51 -37 99 -83z m-5294 -134 c78 -80 141 -153 141 -162 0 -17 -78
-101 -95 -101 -6 0 -78 67 -160 150 l-150 150 55 55 c30 30 57 55 61 55 4 0
71 -66 148 -147z m8203 -200 c92 -92 168 -174 168 -183 0 -19 -330 -350 -350
-350 -8 0 -91 76 -184 169 -145 145 -167 171 -158 187 14 25 336 344 347 344
5 0 84 -75 177 -167z m-2579 10 c82 -82 158 -161 169 -176 l20 -28 -168 -170
c-93 -93 -175 -169 -184 -169 -16 0 -350 328 -350 345 0 16 333 345 349 345 8
0 82 -66 164 -147z m869 -20 c93 -92 168 -172 168 -178 0 -16 -334 -345 -350
-345 -9 0 -92 77 -185 170 l-169 171 174 174 c96 96 179 175 185 175 5 0 85
-75 177 -167z m850 0 c93 -92 168 -172 168 -178 0 -13 -332 -345 -345 -345
-13 0 -345 332 -345 345 0 13 332 345 345 345 5 0 85 -75 177 -167z m-10120
-10 c82 -81 148 -152 148 -158 0 -6 -70 -80 -155 -165 l-156 -154 -154 154
c-85 85 -155 159 -155 165 0 16 293 305 310 305 8 0 81 -66 162 -147z m855 5
c79 -78 143 -149 143 -158 0 -8 -70 -85 -155 -170 l-155 -155 -150 150 c-82
82 -150 154 -150 160 0 12 301 315 314 315 5 0 74 -64 153 -142z m857 -7 l149
-149 -21 -29 c-11 -15 -81 -88 -156 -161 -113 -111 -138 -132 -153 -123 -10 5
-80 72 -156 149 -118 119 -137 143 -129 159 14 25 296 303 308 303 5 0 76 -67
158 -149z m848 2 c82 -81 148 -152 148 -158 0 -6 -70 -80 -155 -165 l-156
-154 -149 149 c-83 83 -150 154 -150 160 0 10 300 315 310 315 3 0 71 -66 152
-147z m5090 -80 c43 -43 78 -82 78 -88 0 -13 -332 -345 -345 -345 -6 0 -34 24
-63 53 l-53 53 52 80 c93 144 231 324 247 324 4 0 42 -35 84 -77z m-4584 -37
c38 -44 161 -217 195 -277 27 -46 27 -46 7 -64 -20 -18 -23 -16 -170 130 -83
82 -150 154 -150 159 0 11 70 86 81 86 4 0 20 -15 37 -34z m8340 -37 c3 -94
-8 -104 -60 -52 l-42 43 39 40 c22 22 44 39 50 37 5 -2 11 -32 13 -68z
m-12124 19 c8 -14 6 -22 -11 -39 -11 -12 -26 -18 -32 -15 -12 8 -15 59 -4 70
11 11 35 3 47 -16z m12034 -182 c81 -83 77 -57 41 -240 -20 -104 -69 -283 -94
-342 -26 -64 -34 -59 -216 122 -93 93 -169 173 -169 179 0 13 342 355 356 355
6 0 43 -33 82 -74z m-3324 -105 c145 -145 167 -171 158 -187 -14 -26 -326
-334 -338 -334 -5 0 -88 79 -184 175 l-174 174 169 171 c93 93 176 170 185
170 8 0 91 -76 184 -169z m853 7 c90 -89 163 -169 163 -177 0 -17 -328 -351
-345 -351 -13 0 -345 332 -345 345 0 16 333 345 349 345 8 0 88 -73 178 -162z
m858 -8 l169 -171 -174 -174 c-96 -96 -179 -175 -184 -175 -12 0 -324 308
-338 334 -9 16 13 42 158 187 93 93 176 169 184 169 9 0 92 -77 185 -170z
m847 3 c93 -92 168 -172 168 -178 0 -13 -332 -345 -345 -345 -16 0 -345 333
-345 350 0 19 320 340 340 340 8 0 90 -75 182 -167z m-10980 0 c82 -81 148
-155 148 -163 0 -20 -290 -310 -311 -310 -29 0 -67 54 -88 125 -36 124 -72
324 -62 343 12 22 146 152 157 152 5 0 75 -66 156 -147z m863 -13 l150 -150
-155 -155 c-85 -85 -159 -155 -165 -155 -6 0 -78 68 -160 150 l-150 150 155
155 c85 85 159 155 165 155 6 0 78 -68 160 -150z m854 6 c112 -112 142 -148
137 -163 -8 -26 -289 -303 -307 -303 -19 0 -299 281 -299 300 0 20 290 310
310 310 8 0 80 -65 159 -144z m848 2 c79 -79 143 -150 143 -158 0 -20 -290
-310 -310 -310 -16 0 -300 279 -300 295 0 13 302 315 315 315 5 0 74 -64 152
-142z m858 -8 l150 -150 -155 -155 c-85 -85 -159 -155 -165 -155 -6 0 -78 68
-160 150 l-150 150 155 155 c85 85 159 155 165 155 6 0 78 -68 160 -150z
m4265 -106 c22 -20 40 -44 40 -53 0 -15 -237 -261 -252 -261 -18 0 -4 37 68
177 70 137 91 173 100 173 2 0 22 -16 44 -36z m302 -301 c92 -92 168 -174 168
-183 0 -16 -329 -350 -345 -350 -16 0 -345 334 -345 350 0 16 328 350 344 350
5 0 85 -75 178 -167z m858 -8 l175 -175 -178 -177 -177 -178 -178 178 -177
177 175 175 c96 96 177 175 180 175 3 0 84 -79 180 -175z m852 7 c92 -92 168
-172 168 -177 0 -6 -79 -89 -175 -185 l-174 -174 -171 169 c-93 93 -170 176
-170 185 0 16 328 350 344 350 5 0 85 -75 178 -168z m850 1 c93 -92 168 -175
168 -183 0 -9 -76 -91 -169 -184 -144 -143 -172 -166 -188 -158 -32 18 -333
328 -333 343 0 16 330 349 346 349 5 0 84 -75 176 -167z m858 -8 l175 -175
-178 -178 -177 -177 -177 177 -178 178 175 175 c96 96 177 175 180 175 3 0 84
-79 180 -175z m-10973 -7 c79 -79 143 -147 143 -153 0 -13 -302 -315 -315
-315 -16 0 -295 283 -295 300 0 19 290 310 310 310 8 0 79 -64 157 -142z m852
-2 c116 -116 142 -147 136 -162 -5 -11 -75 -84 -157 -164 l-148 -145 -150 150
c-83 82 -150 154 -150 160 0 16 293 305 310 305 8 0 80 -65 159 -144z m859 1
c78 -79 142 -147 142 -152 0 -12 -302 -315 -315 -315 -6 0 -78 68 -160 150
l-150 150 155 155 c85 85 162 155 170 155 9 0 80 -64 158 -143z m849 1 c79
-79 143 -147 143 -153 0 -12 -301 -315 -314 -315 -16 0 -296 283 -296 299 0
20 290 311 310 311 8 0 79 -64 157 -142z m850 0 c79 -79 143 -150 143 -158 0
-17 -290 -310 -306 -310 -12 0 -304 292 -304 305 0 16 293 305 310 305 8 0 79
-64 157 -142z m3715 -415 c93 -92 168 -175 168 -183 0 -16 -320 -340 -335
-340 -19 0 -165 155 -165 175 0 35 47 249 80 362 32 112 52 153 73 153 6 0 87
-75 179 -167z m860 0 c93 -92 168 -172 168 -178 0 -16 -334 -345 -350 -345 -9
0 -92 76 -184 170 -151 151 -168 171 -156 187 22 31 335 332 345 333 5 0 85
-75 177 -167z m850 0 c93 -92 168 -172 168 -178 0 -13 -332 -345 -345 -345
-13 0 -345 332 -345 345 0 13 332 345 345 345 5 0 85 -75 177 -167z m851 10
c87 -87 163 -166 169 -176 8 -16 -15 -44 -158 -188 -93 -93 -175 -169 -184
-169 -16 0 -350 328 -350 344 0 16 333 346 349 346 8 0 86 -71 174 -157z m859
-10 c93 -92 168 -172 168 -178 0 -16 -333 -345 -349 -345 -20 0 -341 320 -341
339 0 17 328 351 345 351 5 0 85 -75 177 -167z m-10117 -13 l149 -151 -159
-159 c-123 -123 -162 -157 -174 -150 -22 12 -291 285 -291 295 0 13 302 315
315 315 6 0 78 -68 160 -150z m847 3 c82 -81 148 -152 148 -158 0 -6 -70 -80
-155 -165 l-156 -154 -149 149 c-83 83 -150 154 -150 160 0 10 300 315 310
315 3 0 71 -66 152 -147z m855 5 c79 -78 143 -149 143 -158 0 -8 -70 -85 -155
-170 l-155 -155 -150 150 c-82 82 -150 154 -150 160 0 12 301 315 314 315 5 0
74 -64 153 -142z m857 -7 c128 -128 147 -151 138 -167 -6 -11 -76 -83 -155
-162 -123 -122 -148 -142 -164 -134 -10 6 -80 73 -156 150 -118 119 -137 143
-129 159 14 25 296 303 308 303 5 0 76 -67 158 -149z m695 -34 c31 -115 71
-301 71 -333 0 -19 -67 -94 -84 -94 -14 0 -296 281 -296 295 0 5 57 67 127
137 92 92 130 124 139 117 7 -5 26 -60 43 -122z m7431 93 c0 -24 -155 -300
-168 -300 -11 0 -72 64 -72 74 0 12 221 236 232 236 5 0 8 -5 8 -10z m-11503
-102 c57 -57 103 -108 103 -113 0 -14 -52 -65 -66 -65 -10 0 -74 109 -128 217
-45 91 -35 87 91 -39z m7945 -375 c93 -92 168 -172 168 -178 0 -16 -323 -335
-340 -335 -8 0 -91 76 -184 169 -145 145 -167 171 -158 187 17 32 317 324 333
324 7 0 89 -75 181 -167z m863 -3 l169 -171 -174 -174 c-96 -96 -180 -175
-185 -175 -13 0 -345 333 -345 346 0 16 334 344 350 344 9 0 92 -77 185 -170z
m847 3 c93 -92 168 -172 168 -178 0 -13 -332 -345 -345 -345 -16 0 -345 333
-345 350 0 19 320 340 340 340 8 0 90 -75 182 -167z m855 5 c90 -90 163 -170
163 -178 0 -16 -329 -350 -345 -350 -13 0 -345 332 -345 345 0 16 333 345 350
345 8 0 88 -73 177 -162z m725 125 c21 -20 38 -42 38 -48 0 -22 -203 -292
-280 -374 l-23 -23 -71 71 -71 71 170 170 c93 93 176 170 184 170 9 0 32 -17
53 -37z m-10855 -125 c74 -73 139 -141 145 -152 9 -16 -1 -29 -62 -90 l-71
-71 -31 35 c-49 57 -210 273 -221 298 -9 20 -5 28 33 67 24 25 51 45 59 45 8
0 75 -60 148 -132z m860 -10 c79 -79 143 -150 143 -158 0 -20 -290 -310 -310
-310 -16 0 -300 279 -300 295 0 13 302 315 315 315 5 0 74 -64 152 -142z m858
-8 l150 -150 -155 -155 c-85 -85 -159 -155 -165 -155 -6 0 -78 68 -160 150
l-150 150 155 155 c85 85 159 155 165 155 6 0 78 -68 160 -150z m852 8 c79
-79 143 -150 143 -158 0 -20 -290 -310 -310 -310 -19 0 -300 280 -300 300 0
19 290 310 310 310 8 0 79 -64 157 -142z m850 0 c79 -79 143 -147 143 -153 0
-6 -69 -79 -154 -164 -132 -132 -156 -152 -172 -143 -25 14 -284 276 -284 288
0 12 302 314 315 314 5 0 74 -64 152 -142z m3425 -115 c21 -20 38 -45 38 -54
0 -20 -77 -92 -90 -84 -11 7 -14 158 -3 168 11 11 15 9 55 -30z m300 -300 c93
-92 168 -172 168 -178 0 -15 -333 -345 -348 -345 -17 0 -83 143 -116 250 -21
72 -56 240 -56 272 0 17 152 168 169 168 9 0 91 -75 183 -167z m848 -8 l175
-175 -170 -170 c-93 -93 -174 -170 -180 -170 -13 0 -345 332 -345 345 0 10
330 345 340 345 3 0 84 -79 180 -175z m852 8 c93 -92 168 -175 168 -183 0 -16
-329 -350 -345 -350 -16 0 -345 334 -345 350 0 16 329 350 346 350 5 0 84 -75
176 -167z m858 -8 l175 -175 -178 -178 -177 -177 -177 177 -178 178 175 175
c96 96 177 175 180 175 3 0 84 -79 180 -175z m746 113 c35 -33 64 -68 64 -77
0 -19 -293 -309 -334 -330 -26 -14 -28 -13 -86 44 -33 33 -60 66 -60 75 0 15
328 350 343 350 5 0 38 -28 73 -62z m-7459 -110 c79 -78 143 -149 143 -158 0
-20 -290 -310 -310 -310 -9 0 -80 65 -160 145 l-145 145 160 160 c88 88 162
160 164 160 2 0 69 -64 148 -142z m752 97 c46 -50 45 -32 14 -225 -17 -109
-82 -312 -101 -318 -13 -4 -255 227 -274 262 -9 16 11 40 143 172 85 85 159
154 165 154 6 0 30 -20 53 -45z m-3312 -97 c74 -73 139 -141 145 -151 8 -16
-2 -30 -59 -88 -38 -38 -75 -69 -81 -69 -15 0 -302 282 -302 296 0 16 132 144
149 144 8 0 75 -60 148 -132z m860 -10 c79 -79 143 -147 143 -153 0 -12 -301
-315 -314 -315 -16 0 -296 283 -296 299 0 20 290 311 310 311 8 0 79 -64 157
-142z m850 0 c79 -79 143 -150 143 -158 0 -17 -290 -310 -306 -310 -12 0 -304
292 -304 305 0 16 293 305 310 305 8 0 79 -64 157 -142z m5433 -413 l175 -175
-182 -182 -182 -182 -33 16 c-91 45 -305 250 -324 312 -5 15 33 58 177 202
101 101 186 184 189 184 3 0 84 -79 180 -175z m850 -9 c93 -94 170 -172 170
-175 0 -8 -314 -322 -334 -333 -16 -9 -42 13 -187 158 -93 93 -169 176 -169
184 0 19 321 341 337 338 7 -2 89 -79 183 -172z m852 7 c93 -92 168 -172 168
-178 0 -16 -333 -345 -350 -345 -19 0 -340 320 -340 340 0 16 329 350 345 350
5 0 85 -75 177 -167z m743 106 l60 -61 -40 -35 c-63 -56 -328 -242 -353 -249
-17 -5 -31 1 -53 22 -16 15 -29 32 -29 38 0 14 332 346 345 346 6 0 37 -27 70
-61z m-9158 -111 c79 -78 143 -149 143 -158 0 -9 -18 -34 -40 -55 -37 -36 -42
-38 -63 -26 -48 29 -244 173 -287 210 l-45 39 65 66 c35 36 69 66 74 66 5 0
74 -64 153 -142z m857 -7 c128 -128 147 -151 138 -167 -6 -11 -76 -83 -155
-162 -123 -122 -148 -142 -164 -134 -10 6 -80 73 -156 150 -118 119 -137 143
-129 159 14 25 296 303 308 303 5 0 76 -67 158 -149z m851 -1 l149 -149 -154
-156 c-85 -85 -159 -155 -164 -155 -14 0 -296 282 -296 295 0 10 300 315 310
315 3 0 72 -67 155 -150z m857 3 c93 -93 148 -155 148 -168 0 -50 -249 -325
-294 -325 -17 0 -326 313 -326 330 0 19 290 310 310 310 8 0 81 -66 162 -147z
m3221 -55 c152 -376 438 -664 808 -809 60 -24 109 -49 109 -55 0 -7 -15 -16
-32 -19 -62 -14 -383 -106 -493 -142 -335 -110 -640 -265 -1068 -546 -121 -80
-202 -126 -207 -121 -6 6 23 59 75 136 392 587 549 925 700 1503 45 173 43
167 55 163 6 -2 30 -51 53 -110z m-2619 -99 c144 -538 293 -867 624 -1377 62
-96 112 -176 112 -178 0 -14 -39 7 -169 90 -218 140 -396 240 -586 331 -235
113 -388 168 -745 265 -100 27 -185 52 -188 55 -11 10 14 24 96 54 333 121
615 377 779 707 26 52 51 93 57 91 6 -2 15 -19 20 -38z m3968 -256 c93 -92
168 -174 168 -183 0 -8 -26 -40 -57 -72 -65 -65 -77 -68 -216 -47 -150 22
-370 92 -398 125 -11 13 13 41 152 180 90 90 168 164 174 164 5 0 85 -75 177
-167z m840 9 c81 -81 148 -155 148 -163 0 -36 -504 -164 -549 -139 -9 4 -38
31 -66 59 l-50 51 170 170 c93 94 176 170 185 170 8 0 81 -67 162 -148z m716
136 c27 -27 11 -45 -78 -92 -56 -29 -90 -42 -90 -34 0 18 121 138 140 138 9 0
21 -5 28 -12z m-6566 -155 c82 -81 148 -154 148 -161 0 -29 -235 -119 -385
-147 l-79 -15 -73 72 c-40 40 -73 77 -73 83 0 10 300 315 310 315 3 0 71 -66
152 -147z m-1764 63 c68 -70 85 -96 62 -96 -24 0 -200 105 -200 118 0 21 30
52 50 52 9 0 49 -33 88 -74z m919 -68 c79 -79 143 -148 143 -154 0 -6 -36 -45
-79 -88 -64 -62 -84 -76 -103 -72 -298 66 -428 108 -428 140 0 13 301 316 315
316 5 0 74 -64 152 -142z m6139 -269 c16 -17 16 -22 4 -29 -17 -11 -74 -13
-83 -3 -9 8 32 53 48 53 7 0 20 -9 31 -21z m-5842 -28 c24 -26 13 -41 -29 -41
-19 0 -37 5 -40 11 -8 12 22 49 40 49 7 0 20 -9 29 -19z"/>
<path d="M6360 8540 c-219 -26 -411 -162 -511 -365 -138 -280 -63 -611 185
-809 70 -56 127 -86 222 -118 99 -33 269 -33 369 0 175 58 328 188 404 342 95
193 95 396 0 590 -56 114 -178 238 -289 292 -117 58 -254 82 -380 68z m108
-97 c-15 -2 -42 -2 -60 0 -18 2 -6 4 27 4 33 0 48 -2 33 -4z"/>
</g>
</svg>
